<svg width="17" height="15" viewBox="0 0 17 15" fill="none" xmlns="http://www.w3.org/2000/svg">
<path d="M1 1H5.32353C6.08798 1 6.82112 1.30368 7.36166 1.84422C7.90221 2.38477 8.20588 3.11791 8.20588 3.88235V13.9706C8.20588 13.3973 7.97813 12.8474 7.57272 12.442C7.16731 12.0366 6.61745 11.8088 6.04412 11.8088H1V1Z" stroke="#06437C" stroke-width="1.5" stroke-linecap="round" stroke-linejoin="round"/>
<path d="M15.4129 1H11.0894C10.3249 1 9.5918 1.30368 9.05125 1.84422C8.51071 2.38477 8.20703 3.11791 8.20703 3.88235V13.9706C8.20703 13.3973 8.43479 12.8474 8.8402 12.442C9.24561 12.0366 9.79546 11.8088 10.3688 11.8088H15.4129V1Z" stroke="#06437C" stroke-width="1.5" stroke-linecap="round" stroke-linejoin="round"/>
</svg>
