<svg width="11" height="10" viewBox="0 0 11 10" fill="none" xmlns="http://www.w3.org/2000/svg">
<path d="M4.35148 0.729364C4.34342 3.15918 4.3397 0.829261 4.34035 0.879534L4.34035 7.05977L4.25353 6.87311C4.16717 6.69066 4.04964 6.52467 3.90625 6.38258L1.5057 3.98203C1.2039 3.66587 0.718386 3.61275 0.355345 3.85614C-0.031516 4.13942 -0.115514 4.68266 0.167762 5.06955C0.19066 5.10081 0.215621 5.13051 0.24248 5.15843L4.58345 9.4994C4.92231 9.83864 5.47201 9.83894 5.81126 9.50007L10.1529 5.15843C10.4915 4.81891 10.4907 4.26921 10.1512 3.93062C10.1245 3.90397 10.096 3.8791 10.0661 3.85614C9.70304 3.61275 9.21753 3.66587 8.91573 3.98203L6.51083 6.37824C6.38332 6.50562 6.27639 6.65208 6.19394 6.81234L6.07674 7.0728L6.07674 0.927312C6.09321 0.483802 5.7834 0.0946882 5.34746 0.0113688C4.87415 -0.0653849 4.42826 0.256063 4.35148 0.729364Z" fill="#06437C"/>
</svg>
