<svg width="19" height="16" viewBox="0 0 19 16" fill="none" xmlns="http://www.w3.org/2000/svg">
<path d="M12.7426 11.1743L9.61153 8.04321L6.48047 11.1743" stroke="white" stroke-width="1.5" stroke-linecap="round" stroke-linejoin="round"/>
<path d="M9.61719 8.04321V15.0881" stroke="white" stroke-width="1.5" stroke-linecap="round" stroke-linejoin="round"/>
<path d="M16.182 13.0448C16.9454 12.6286 17.5486 11.97 17.8961 11.1729C18.2437 10.3759 18.316 9.48578 18.1015 8.6431C17.887 7.80042 17.398 7.05316 16.7117 6.51927C16.0253 5.98537 15.1807 5.69524 14.3112 5.69467H13.3249C13.088 4.77824 12.6464 3.92744 12.0333 3.20625C11.4202 2.48506 10.6516 1.91223 9.78531 1.53083C8.91899 1.14944 7.97747 0.969395 7.03156 1.00425C6.08564 1.0391 5.15993 1.28793 4.32402 1.73205C3.48811 2.17616 2.76376 2.804 2.20542 3.56835C1.64708 4.3327 1.26929 5.21369 1.10044 6.14506C0.931587 7.07644 0.976076 8.03398 1.23056 8.94569C1.48504 9.8574 1.9429 10.6996 2.5697 11.4088" stroke="white" stroke-width="1.5" stroke-linecap="round" stroke-linejoin="round"/>
<path d="M12.7426 11.1743L9.61153 8.04321L6.48047 11.1743" stroke="white" stroke-width="1.5" stroke-linecap="round" stroke-linejoin="round"/>
</svg>
