<svg width="29" height="29" viewBox="0 0 29 29" fill="none" xmlns="http://www.w3.org/2000/svg">
<path opacity="0.3" fill-rule="evenodd" clip-rule="evenodd" d="M3.55078 23.358C3.55078 24.1864 4.22235 24.858 5.05078 24.858H25.725C26.5534 24.858 27.225 24.1864 27.225 23.358V9.786C27.225 8.95757 26.5534 8.286 25.725 8.286H13.0205L9.90868 5.1742C9.62738 4.8929 9.24585 4.73486 8.84802 4.73486H5.05078C4.22235 4.73486 3.55078 5.40644 3.55078 6.23486V23.358Z" fill="#F3A100"/>
<path fill-rule="evenodd" clip-rule="evenodd" d="M1.18359 20.9905C1.18359 21.819 1.85517 22.4905 2.68359 22.4905H23.3578C24.1863 22.4905 24.8578 21.819 24.8578 20.9905V7.41857C24.8578 6.59014 24.1863 5.91857 23.3578 5.91857H10.6533L7.5415 2.80677C7.26019 2.52547 6.87866 2.36743 6.48084 2.36743H2.68359C1.85517 2.36743 1.18359 3.039 1.18359 3.86743V20.9905Z" fill="#F3A100"/>
</svg>
