<svg width="35" height="44" viewBox="0 0 35 44" fill="none" xmlns="http://www.w3.org/2000/svg">
<path d="M2.8125 0.494995H25.5228L34.7501 9.73687L34.9538 41.9695C34.9608 43.079 34.0633 43.9822 32.9538 43.9822H2.8125C1.70793 43.9822 0.8125 43.0867 0.8125 41.9822V2.495C0.8125 1.39043 1.70793 0.494995 2.8125 0.494995Z" fill="#0EC5A4"/>
<path d="M25.5176 0.494995V8.72516C25.5176 9.27744 25.9653 9.72516 26.5176 9.72516H34.7477L25.5176 0.494995Z" fill="black" fill-opacity="0.16"/>
<path d="M9.90234 21.1793L7.82227 27.9176H5.61328L8.74805 19.3864H10.1484L9.90234 21.1793ZM11.625 27.9176L9.53906 21.1793L9.26953 19.3864H10.6875L13.8398 27.9176H11.625ZM11.543 24.736V26.3239H7.16602V24.736H11.543ZM18.8613 25.65C18.8613 25.5172 18.8418 25.3981 18.8027 25.2926C18.7637 25.1832 18.6914 25.0817 18.5859 24.9879C18.4805 24.8942 18.3281 24.8004 18.1289 24.7067C17.9336 24.609 17.6758 24.5074 17.3555 24.402C16.9805 24.277 16.6191 24.1364 16.2715 23.9801C15.9238 23.8199 15.6133 23.6344 15.3398 23.4235C15.0664 23.2086 14.8496 22.9586 14.6895 22.6735C14.5293 22.3844 14.4492 22.0485 14.4492 21.6656C14.4492 21.2985 14.5312 20.9684 14.6953 20.6754C14.8594 20.3785 15.0879 20.1266 15.3809 19.9196C15.6777 19.7086 16.0254 19.5485 16.4238 19.4391C16.8223 19.3258 17.2578 19.2692 17.7305 19.2692C18.3555 19.2692 18.9062 19.3785 19.3828 19.5973C19.8633 19.8121 20.2383 20.1188 20.5078 20.5172C20.7812 20.9117 20.918 21.3785 20.918 21.9176H18.873C18.873 21.7028 18.8281 21.5133 18.7383 21.3492C18.6523 21.1852 18.5215 21.0563 18.3457 20.9625C18.1699 20.8688 17.9492 20.8219 17.6836 20.8219C17.4258 20.8219 17.209 20.861 17.0332 20.9391C16.8574 21.0172 16.7246 21.1227 16.6348 21.2555C16.5449 21.3844 16.5 21.527 16.5 21.6832C16.5 21.8121 16.5352 21.9293 16.6055 22.0348C16.6797 22.1364 16.7832 22.2321 16.916 22.3219C17.0527 22.4117 17.2168 22.4977 17.4082 22.5797C17.6035 22.6617 17.8223 22.7418 18.0645 22.8199C18.5176 22.9645 18.9199 23.1266 19.2715 23.3063C19.627 23.4821 19.9258 23.6832 20.168 23.9098C20.4141 24.1324 20.5996 24.3864 20.7246 24.6715C20.8535 24.9567 20.918 25.2789 20.918 25.6383C20.918 26.0211 20.8438 26.361 20.6953 26.6578C20.5469 26.9547 20.334 27.2067 20.0566 27.4137C19.7793 27.6168 19.4473 27.7711 19.0605 27.8766C18.6738 27.9821 18.2422 28.0348 17.7656 28.0348C17.3281 28.0348 16.8965 27.9801 16.4707 27.8707C16.0488 27.7574 15.666 27.5856 15.3223 27.3551C14.9785 27.1207 14.7031 26.8219 14.4961 26.4586C14.293 26.0914 14.1914 25.6559 14.1914 25.152H16.2539C16.2539 25.402 16.2871 25.6129 16.3535 25.7848C16.4199 25.9567 16.5176 26.0953 16.6465 26.2008C16.7754 26.3024 16.9336 26.3766 17.1211 26.4235C17.3086 26.4664 17.5234 26.4879 17.7656 26.4879C18.0273 26.4879 18.2383 26.4508 18.3984 26.3766C18.5586 26.2985 18.6758 26.1969 18.75 26.0719C18.8242 25.943 18.8613 25.8024 18.8613 25.65ZM25.3828 25.0231H23.2617V23.4352H25.3828C25.6719 23.4352 25.9062 23.3864 26.0859 23.2887C26.2656 23.191 26.3965 23.0563 26.4785 22.8844C26.5645 22.7086 26.6074 22.5114 26.6074 22.2926C26.6074 22.0582 26.5645 21.8414 26.4785 21.6422C26.3965 21.443 26.2656 21.2828 26.0859 21.1617C25.9062 21.0367 25.6719 20.9742 25.3828 20.9742H24.0352V27.9176H21.9785V19.3864H25.3828C26.0664 19.3864 26.6543 19.5114 27.1465 19.7614C27.6426 20.0114 28.0234 20.3551 28.2891 20.7926C28.5547 21.2262 28.6875 21.7223 28.6875 22.2809C28.6875 22.8317 28.5547 23.3121 28.2891 23.7223C28.0234 24.1324 27.6426 24.4528 27.1465 24.6832C26.6543 24.9098 26.0664 25.0231 25.3828 25.0231Z" fill="white"/>
</svg>
