<svg width="35" height="45" viewBox="0 0 35 45" fill="none" xmlns="http://www.w3.org/2000/svg">
<path d="M2.1875 0.682007H24.8978L34.1251 9.92388L34.3288 42.1566C34.3358 43.266 33.4383 44.1692 32.3288 44.1692H2.1875C1.08293 44.1692 0.1875 43.2738 0.1875 42.1692V2.68201C0.1875 1.57744 1.08293 0.682007 2.1875 0.682007Z" fill="#0EC5A4"/>
<path d="M24.8926 0.682007V8.91217C24.8926 9.46445 25.3403 9.91217 25.8926 9.91217H34.1227L24.8926 0.682007Z" fill="black" fill-opacity="0.16"/>
<path d="M9.0957 24.4779H6.89844L6.88672 23.1302H8.66797C8.98828 23.1302 9.24414 23.0951 9.43555 23.0248C9.62695 22.9506 9.76562 22.8431 9.85156 22.7025C9.94141 22.5619 9.98633 22.3861 9.98633 22.1752C9.98633 21.933 9.94141 21.7377 9.85156 21.5892C9.76172 21.4408 9.61914 21.3334 9.42383 21.267C9.23242 21.1967 8.98438 21.1615 8.67969 21.1615H7.67188V28.1049H5.61523V19.5736H8.67969C9.20703 19.5736 9.67773 19.6224 10.0918 19.7201C10.5059 19.8138 10.8574 19.9584 11.1465 20.1537C11.4395 20.349 11.6621 20.5951 11.8145 20.892C11.9668 21.1849 12.043 21.5306 12.043 21.9291C12.043 22.2767 11.9688 22.6029 11.8203 22.9076C11.6719 23.2123 11.4238 23.4603 11.0762 23.6517C10.7324 23.8392 10.2617 23.9369 9.66406 23.9447L9.0957 24.4779ZM9.01367 28.1049H6.40039L7.10352 26.5228H9.01367C9.29492 26.5228 9.51953 26.4799 9.6875 26.3939C9.85938 26.3041 9.98242 26.1869 10.0566 26.0424C10.1348 25.8939 10.1738 25.7299 10.1738 25.5502C10.1738 25.3314 10.1367 25.142 10.0625 24.9818C9.99219 24.8217 9.87891 24.6986 9.72266 24.6127C9.56641 24.5228 9.35742 24.4779 9.0957 24.4779H7.36719L7.37891 23.1302H9.44727L9.92773 23.6693C10.498 23.6459 10.9492 23.726 11.2812 23.9095C11.6172 24.0931 11.8574 24.3353 12.002 24.6361C12.1465 24.9369 12.2188 25.2513 12.2188 25.5795C12.2188 26.1381 12.0977 26.6049 11.8555 26.9799C11.6172 27.3549 11.2598 27.6361 10.7832 27.8236C10.3066 28.0111 9.7168 28.1049 9.01367 28.1049ZM16.9766 21.3666L14.8965 28.1049H12.6875L15.8223 19.5736H17.2227L16.9766 21.3666ZM18.6992 28.1049L16.6133 21.3666L16.3438 19.5736H17.7617L20.9141 28.1049H18.6992ZM18.6172 24.9232V26.5111H14.2402V24.9232H18.6172ZM23.5977 19.5736V28.1049H21.541V19.5736H23.5977ZM28.6895 19.5736L25.3848 23.8978L23.4512 26.0131L23.0762 24.1263L24.3125 22.2513L26.1523 19.5736H28.6895ZM26.2578 28.1049L24.0547 24.2611L25.6543 23.0834L28.6895 28.1049H26.2578Z" fill="white"/>
</svg>
