<svg width="35" height="44" viewBox="0 0 35 44" fill="none" xmlns="http://www.w3.org/2000/svg">
<path d="M2.03125 0.0822754H24.7416L33.9689 9.32415L34.1725 41.5568C34.1795 42.6663 33.2821 43.5695 32.1726 43.5695H2.03125C0.926681 43.5695 0.03125 42.674 0.03125 41.5695V2.08228C0.03125 0.977706 0.926681 0.0822754 2.03125 0.0822754Z" fill="#06437C"/>
<path d="M24.7363 0.0822754V8.31244C24.7363 8.86472 25.184 9.31244 25.7363 9.31244H33.9665L24.7363 0.0822754Z" fill="black" fill-opacity="0.16"/>
<path d="M9.75586 18.9736H13.1133C13.7695 18.9736 14.3398 19.0713 14.8242 19.2666C15.3086 19.4619 15.6816 19.751 15.9434 20.1338C16.209 20.5166 16.3418 20.9893 16.3418 21.5518C16.3418 22.04 16.2656 22.4482 16.1133 22.7764C15.9609 23.1045 15.748 23.376 15.4746 23.5908C15.2051 23.8018 14.8906 23.9756 14.5312 24.1123L13.8574 24.4932H11.0391L11.0273 22.9053H13.1133C13.375 22.9053 13.5918 22.8584 13.7637 22.7646C13.9355 22.6709 14.0645 22.5381 14.1504 22.3662C14.2402 22.1904 14.2852 21.9814 14.2852 21.7393C14.2852 21.4932 14.2402 21.2822 14.1504 21.1064C14.0605 20.9307 13.9277 20.7959 13.752 20.7021C13.5801 20.6084 13.3672 20.5615 13.1133 20.5615H11.8125V27.5049H9.75586V18.9736ZM14.4258 27.5049L12.5391 23.7314L14.7188 23.7197L16.6289 27.417V27.5049H14.4258ZM21.1992 20.7666L19.1191 27.5049H16.9102L20.0449 18.9736H21.4453L21.1992 20.7666ZM22.9219 27.5049L20.8359 20.7666L20.5664 18.9736H21.9844L25.1367 27.5049H22.9219ZM22.8398 24.3232V25.9111H18.4629V24.3232H22.8398Z" fill="white"/>
</svg>
