<svg width="35" height="44" viewBox="0 0 35 44" fill="none" xmlns="http://www.w3.org/2000/svg">
<path d="M2.1875 0.456543H24.8978L34.1251 9.69842L34.3288 41.9311C34.3358 43.0406 33.4383 43.9437 32.3288 43.9437H2.1875C1.08293 43.9437 0.1875 43.0483 0.1875 41.9437V2.45654C0.1875 1.35197 1.08293 0.456543 2.1875 0.456543Z" fill="#06437C"/>
<path d="M24.8926 0.456543V8.6867C24.8926 9.23899 25.3403 9.6867 25.8926 9.6867H34.1227L24.8926 0.456543Z" fill="black" fill-opacity="0.16"/>
<path d="M10.0586 25.6118C10.0586 25.479 10.0391 25.3599 10 25.2544C9.96094 25.145 9.88867 25.0435 9.7832 24.9497C9.67773 24.856 9.52539 24.7622 9.32617 24.6685C9.13086 24.5708 8.87305 24.4692 8.55273 24.3638C8.17773 24.2388 7.81641 24.0981 7.46875 23.9419C7.12109 23.7817 6.81055 23.5962 6.53711 23.3853C6.26367 23.1704 6.04688 22.9204 5.88672 22.6353C5.72656 22.3462 5.64648 22.0103 5.64648 21.6274C5.64648 21.2603 5.72852 20.9302 5.89258 20.6372C6.05664 20.3403 6.28516 20.0884 6.57812 19.8813C6.875 19.6704 7.22266 19.5103 7.62109 19.4009C8.01953 19.2876 8.45508 19.231 8.92773 19.231C9.55273 19.231 10.1035 19.3403 10.5801 19.5591C11.0605 19.7739 11.4355 20.0806 11.7051 20.479C11.9785 20.8735 12.1152 21.3403 12.1152 21.8794H10.0703C10.0703 21.6646 10.0254 21.4751 9.93555 21.311C9.84961 21.147 9.71875 21.0181 9.54297 20.9243C9.36719 20.8306 9.14648 20.7837 8.88086 20.7837C8.62305 20.7837 8.40625 20.8228 8.23047 20.9009C8.05469 20.979 7.92188 21.0845 7.83203 21.2173C7.74219 21.3462 7.69727 21.4888 7.69727 21.645C7.69727 21.7739 7.73242 21.8911 7.80273 21.9966C7.87695 22.0981 7.98047 22.1938 8.11328 22.2837C8.25 22.3735 8.41406 22.4595 8.60547 22.5415C8.80078 22.6235 9.01953 22.7036 9.26172 22.7817C9.71484 22.9263 10.1172 23.0884 10.4688 23.2681C10.8242 23.4438 11.123 23.645 11.3652 23.8716C11.6113 24.0942 11.7969 24.3481 11.9219 24.6333C12.0508 24.9185 12.1152 25.2407 12.1152 25.6001C12.1152 25.9829 12.041 26.3228 11.8926 26.6196C11.7441 26.9165 11.5312 27.1685 11.2539 27.3755C10.9766 27.5786 10.6445 27.7329 10.2578 27.8384C9.87109 27.9438 9.43945 27.9966 8.96289 27.9966C8.52539 27.9966 8.09375 27.9419 7.66797 27.8325C7.24609 27.7192 6.86328 27.5474 6.51953 27.3169C6.17578 27.0825 5.90039 26.7837 5.69336 26.4204C5.49023 26.0532 5.38867 25.6177 5.38867 25.1138H7.45117C7.45117 25.3638 7.48438 25.5747 7.55078 25.7466C7.61719 25.9185 7.71484 26.0571 7.84375 26.1626C7.97266 26.2642 8.13086 26.3384 8.31836 26.3853C8.50586 26.4282 8.7207 26.4497 8.96289 26.4497C9.22461 26.4497 9.43555 26.4126 9.5957 26.3384C9.75586 26.2603 9.87305 26.1587 9.94727 26.0337C10.0215 25.9048 10.0586 25.7642 10.0586 25.6118ZM15.1445 27.106L16.8438 19.3481H17.8574L18.4082 20.0103L16.5977 27.8794H15.4785L15.1445 27.106ZM14.6934 19.3481L16.1289 27.1646L15.7598 27.8794H14.4648L12.6543 19.3481H14.6934ZM19.3398 27.1235L20.7637 19.3481H22.7969L20.9863 27.8794H19.6973L19.3398 27.1235ZM18.5898 19.3481L20.3301 27.1528L19.9785 27.8794H18.8594L17.0078 19.9985L17.582 19.3481H18.5898ZM25.6621 19.3481V27.8794H23.6055V19.3481H25.6621ZM28.9785 22.8989V24.481H25.0762V22.8989H28.9785ZM29.3125 19.3481V20.936H25.0762V19.3481H29.3125Z" fill="white"/>
</svg>
