<svg width="35" height="45" viewBox="0 0 35 45" fill="none" xmlns="http://www.w3.org/2000/svg">
<path d="M2.65625 0.772705H25.3666L34.5939 10.0146L34.7975 42.2472C34.8045 43.3567 33.9071 44.2599 32.7976 44.2599H2.65625C1.55168 44.2599 0.65625 43.3645 0.65625 42.2599V2.77271C0.65625 1.66814 1.55168 0.772705 2.65625 0.772705Z" fill="#C6463E"/>
<path d="M25.3613 0.772705V9.00287C25.3613 9.55515 25.809 10.0029 26.3613 10.0029H34.5915L25.3613 0.772705Z" fill="black" fill-opacity="0.16"/>
<path d="M6.19531 19.6641H7.87109L9.77539 25.5996L11.6797 19.6641H13.3555L10.4551 28.1953H9.0957L6.19531 19.6641ZM5.17578 19.6641H6.91016L7.23242 26.2031V28.1953H5.17578V19.6641ZM12.6406 19.6641H14.3809V28.1953H12.3184V26.2031L12.6406 19.6641ZM21.6523 24.8613V26.3848H15.5117L15.3945 25.1777L18.8223 19.6641H20.3809L18.6875 22.4355L17.2812 24.8613H21.6523ZM20.791 19.6641V28.1953H18.8164V19.6641H20.791ZM25.8887 26.1855L27.6641 19.6641H29.9668L27.0898 28.1953H25.6016L25.8887 26.1855ZM24.2773 19.6641L26.0527 26.1855L26.3516 28.1953H24.8457L21.9863 19.6641H24.2773Z" fill="white"/>
</svg>
