<svg width="35" height="45" viewBox="0 0 35 45" fill="none" xmlns="http://www.w3.org/2000/svg">
<path d="M2.8125 0.708252H25.5228L34.7501 9.95013L34.9538 42.1828C34.9608 43.2923 34.0633 44.1954 32.9538 44.1954H2.8125C1.70793 44.1954 0.8125 43.3 0.8125 42.1954V2.70825C0.8125 1.60368 1.70793 0.708252 2.8125 0.708252Z" fill="#0EC5A4"/>
<path d="M25.5176 0.708252V8.93841C25.5176 9.4907 25.9653 9.93841 26.5176 9.93841H34.7477L25.5176 0.708252Z" fill="black" fill-opacity="0.16"/>
<path d="M6.51172 25.2366H4.39062V23.6487H6.51172C6.80078 23.6487 7.03516 23.5999 7.21484 23.5022C7.39453 23.4045 7.52539 23.2698 7.60742 23.0979C7.69336 22.9221 7.73633 22.7249 7.73633 22.5061C7.73633 22.2717 7.69336 22.0549 7.60742 21.8557C7.52539 21.6565 7.39453 21.4963 7.21484 21.3752C7.03516 21.2502 6.80078 21.1877 6.51172 21.1877H5.16406V28.1311H3.10742V19.5999H6.51172C7.19531 19.5999 7.7832 19.7249 8.27539 19.9749C8.77148 20.2249 9.15234 20.5686 9.41797 21.0061C9.68359 21.4397 9.81641 21.9358 9.81641 22.4944C9.81641 23.0452 9.68359 23.5256 9.41797 23.9358C9.15234 24.3459 8.77148 24.6663 8.27539 24.8967C7.7832 25.1233 7.19531 25.2366 6.51172 25.2366ZM14.3281 25.2366H12.207V23.6487H14.3281C14.6172 23.6487 14.8516 23.5999 15.0312 23.5022C15.2109 23.4045 15.3418 23.2698 15.4238 23.0979C15.5098 22.9221 15.5527 22.7249 15.5527 22.5061C15.5527 22.2717 15.5098 22.0549 15.4238 21.8557C15.3418 21.6565 15.2109 21.4963 15.0312 21.3752C14.8516 21.2502 14.6172 21.1877 14.3281 21.1877H12.9805V28.1311H10.9238V19.5999H14.3281C15.0117 19.5999 15.5996 19.7249 16.0918 19.9749C16.5879 20.2249 16.9688 20.5686 17.2344 21.0061C17.5 21.4397 17.6328 21.9358 17.6328 22.4944C17.6328 23.0452 17.5 23.5256 17.2344 23.9358C16.9688 24.3459 16.5879 24.6663 16.0918 24.8967C15.5996 25.1233 15.0117 25.2366 14.3281 25.2366ZM22.8711 19.5999V28.1311H20.8145V19.5999H22.8711ZM25.4375 19.5999V21.1877H18.3066V19.5999H25.4375ZM28.0977 19.5999L29.4922 22.4358L30.8867 19.5999H33.2305L30.8516 23.8303L33.2949 28.1311H30.9277L29.4922 25.2424L28.0566 28.1311H25.6836L28.1328 23.8303L25.748 19.5999H28.0977Z" fill="white"/>
</svg>
