<svg width="35" height="45" viewBox="0 0 35 45" fill="none" xmlns="http://www.w3.org/2000/svg">
<path d="M2.8125 0.830811H25.5228L34.7501 10.0727L34.9538 42.3054C34.9608 43.4148 34.0633 44.318 32.9538 44.318H2.8125C1.70793 44.318 0.8125 43.4226 0.8125 42.318V2.83081C0.8125 1.72624 1.70793 0.830811 2.8125 0.830811Z" fill="#F3A100"/>
<path d="M25.5176 0.830811V9.06097C25.5176 9.61326 25.9653 10.061 26.5176 10.061H34.7477L25.5176 0.830811Z" fill="black" fill-opacity="0.16"/>
<path d="M6.06641 27.48L7.76562 19.7222H8.7793L9.33008 20.3843L7.51953 28.2534H6.40039L6.06641 27.48ZM5.61523 19.7222L7.05078 27.5386L6.68164 28.2534H5.38672L3.57617 19.7222H5.61523ZM10.2617 27.4976L11.6855 19.7222H13.7188L11.9082 28.2534H10.6191L10.2617 27.4976ZM9.51172 19.7222L11.252 27.5269L10.9004 28.2534H9.78125L7.92969 20.3726L8.50391 19.7222H9.51172ZM15.5469 19.7222H17.2227L19.127 25.6577L21.0312 19.7222H22.707L19.8066 28.2534H18.4473L15.5469 19.7222ZM14.5273 19.7222H16.2617L16.584 26.2612V28.2534H14.5273V19.7222ZM21.9922 19.7222H23.7324V28.2534H21.6699V26.2612L21.9922 19.7222ZM28.2793 26.2437L30.0547 19.7222H32.3574L29.4805 28.2534H27.9922L28.2793 26.2437ZM26.668 19.7222L28.4434 26.2437L28.7422 28.2534H27.2363L24.377 19.7222H26.668Z" fill="white"/>
</svg>
