<svg width="35" height="45" viewBox="0 0 35 45" fill="none" xmlns="http://www.w3.org/2000/svg">
<path d="M2.65625 0.52124H25.3666L34.5939 9.76311L34.7975 41.9958C34.8045 43.1053 33.9071 44.0084 32.7976 44.0084H2.65625C1.55168 44.0084 0.65625 43.113 0.65625 42.0084V2.52124C0.65625 1.41667 1.55168 0.52124 2.65625 0.52124Z" fill="#0EC5A4"/>
<path d="M25.3613 0.52124V8.7514C25.3613 9.30369 25.809 9.7514 26.3613 9.7514H34.5915L25.3613 0.52124Z" fill="black" fill-opacity="0.16"/>
<path d="M10.7148 25.0493H8.59375V23.4614H10.7148C11.0039 23.4614 11.2383 23.4126 11.418 23.3149C11.5977 23.2173 11.7285 23.0825 11.8105 22.9106C11.8965 22.7349 11.9395 22.5376 11.9395 22.3188C11.9395 22.0845 11.8965 21.8677 11.8105 21.6685C11.7285 21.4692 11.5977 21.3091 11.418 21.188C11.2383 21.063 11.0039 21.0005 10.7148 21.0005H9.36719V27.9438H7.31055V19.4126H10.7148C11.3984 19.4126 11.9863 19.5376 12.4785 19.7876C12.9746 20.0376 13.3555 20.3813 13.6211 20.8188C13.8867 21.2524 14.0195 21.7485 14.0195 22.3071C14.0195 22.8579 13.8867 23.3384 13.6211 23.7485C13.3555 24.1587 12.9746 24.479 12.4785 24.7095C11.9863 24.936 11.3984 25.0493 10.7148 25.0493ZM17.8984 27.9438H16.0059L16.0176 26.3618H17.8984C18.2891 26.3618 18.6191 26.2681 18.8887 26.0806C19.1621 25.8931 19.3691 25.6138 19.5098 25.2427C19.6543 24.8677 19.7266 24.4067 19.7266 23.8599V23.4907C19.7266 23.0806 19.6855 22.7212 19.6035 22.4126C19.5254 22.1001 19.4082 21.8403 19.252 21.6333C19.0957 21.4224 18.9004 21.2642 18.666 21.1587C18.4355 21.0532 18.1699 21.0005 17.8691 21.0005H15.9707V19.4126H17.8691C18.4473 19.4126 18.9766 19.5122 19.457 19.7114C19.9414 19.9067 20.3594 20.188 20.7109 20.5552C21.0664 20.9185 21.3398 21.3501 21.5312 21.8501C21.7266 22.3462 21.8242 22.897 21.8242 23.5024V23.8599C21.8242 24.4614 21.7266 25.0122 21.5312 25.5122C21.3398 26.0122 21.0684 26.4438 20.7168 26.8071C20.3652 27.1704 19.9492 27.4517 19.4688 27.6509C18.9922 27.8462 18.4688 27.9438 17.8984 27.9438ZM17.1836 19.4126V27.9438H15.127V19.4126H17.1836ZM24.9531 19.4126V27.9438H22.8965V19.4126H24.9531ZM28.2695 22.9634V24.5454H24.3672V22.9634H28.2695ZM28.6035 19.4126V21.0005H24.3672V19.4126H28.6035Z" fill="white"/>
</svg>
