<svg width="35" height="44" viewBox="0 0 35 44" fill="none" xmlns="http://www.w3.org/2000/svg">
<path d="M2.34375 0.456543H25.0541L34.2814 9.69842L34.485 41.9311C34.492 43.0406 33.5946 43.9437 32.4851 43.9437H2.34375C1.23918 43.9437 0.34375 43.0483 0.34375 41.9437V2.45654C0.34375 1.35197 1.23918 0.456543 2.34375 0.456543Z" fill="#06437C"/>
<path d="M25.0488 0.456543V8.6867C25.0488 9.23899 25.4965 9.6867 26.0488 9.6867H34.279L25.0488 0.456543Z" fill="black" fill-opacity="0.16"/>
<path d="M11.2344 25.6118C11.2344 25.479 11.2148 25.3599 11.1758 25.2544C11.1367 25.145 11.0645 25.0435 10.959 24.9497C10.8535 24.856 10.7012 24.7622 10.502 24.6685C10.3066 24.5708 10.0488 24.4692 9.72852 24.3638C9.35352 24.2388 8.99219 24.0981 8.64453 23.9419C8.29688 23.7817 7.98633 23.5962 7.71289 23.3853C7.43945 23.1704 7.22266 22.9204 7.0625 22.6353C6.90234 22.3462 6.82227 22.0103 6.82227 21.6274C6.82227 21.2603 6.9043 20.9302 7.06836 20.6372C7.23242 20.3403 7.46094 20.0884 7.75391 19.8813C8.05078 19.6704 8.39844 19.5103 8.79688 19.4009C9.19531 19.2876 9.63086 19.231 10.1035 19.231C10.7285 19.231 11.2793 19.3403 11.7559 19.5591C12.2363 19.7739 12.6113 20.0806 12.8809 20.479C13.1543 20.8735 13.291 21.3403 13.291 21.8794H11.2461C11.2461 21.6646 11.2012 21.4751 11.1113 21.311C11.0254 21.147 10.8945 21.0181 10.7188 20.9243C10.543 20.8306 10.3223 20.7837 10.0566 20.7837C9.79883 20.7837 9.58203 20.8228 9.40625 20.9009C9.23047 20.979 9.09766 21.0845 9.00781 21.2173C8.91797 21.3462 8.87305 21.4888 8.87305 21.645C8.87305 21.7739 8.9082 21.8911 8.97852 21.9966C9.05273 22.0981 9.15625 22.1938 9.28906 22.2837C9.42578 22.3735 9.58984 22.4595 9.78125 22.5415C9.97656 22.6235 10.1953 22.7036 10.4375 22.7817C10.8906 22.9263 11.293 23.0884 11.6445 23.2681C12 23.4438 12.2988 23.645 12.541 23.8716C12.7871 24.0942 12.9727 24.3481 13.0977 24.6333C13.2266 24.9185 13.291 25.2407 13.291 25.6001C13.291 25.9829 13.2168 26.3228 13.0684 26.6196C12.9199 26.9165 12.707 27.1685 12.4297 27.3755C12.1523 27.5786 11.8203 27.7329 11.4336 27.8384C11.0469 27.9438 10.6152 27.9966 10.1387 27.9966C9.70117 27.9966 9.26953 27.9419 8.84375 27.8325C8.42188 27.7192 8.03906 27.5474 7.69531 27.3169C7.35156 27.0825 7.07617 26.7837 6.86914 26.4204C6.66602 26.0532 6.56445 25.6177 6.56445 25.1138H8.62695C8.62695 25.3638 8.66016 25.5747 8.72656 25.7466C8.79297 25.9185 8.89062 26.0571 9.01953 26.1626C9.14844 26.2642 9.30664 26.3384 9.49414 26.3853C9.68164 26.4282 9.89648 26.4497 10.1387 26.4497C10.4004 26.4497 10.6113 26.4126 10.7715 26.3384C10.9316 26.2603 11.0488 26.1587 11.123 26.0337C11.1973 25.9048 11.2344 25.7642 11.2344 25.6118ZM15.8984 19.3481L17.4688 23.0513L19.0449 19.3481H21.2598L18.5176 24.8149V27.8794H16.4258V24.8149L13.6777 19.3481H15.8984ZM26.1875 25.6118C26.1875 25.479 26.168 25.3599 26.1289 25.2544C26.0898 25.145 26.0176 25.0435 25.9121 24.9497C25.8066 24.856 25.6543 24.7622 25.4551 24.6685C25.2598 24.5708 25.002 24.4692 24.6816 24.3638C24.3066 24.2388 23.9453 24.0981 23.5977 23.9419C23.25 23.7817 22.9395 23.5962 22.666 23.3853C22.3926 23.1704 22.1758 22.9204 22.0156 22.6353C21.8555 22.3462 21.7754 22.0103 21.7754 21.6274C21.7754 21.2603 21.8574 20.9302 22.0215 20.6372C22.1855 20.3403 22.4141 20.0884 22.707 19.8813C23.0039 19.6704 23.3516 19.5103 23.75 19.4009C24.1484 19.2876 24.584 19.231 25.0566 19.231C25.6816 19.231 26.2324 19.3403 26.709 19.5591C27.1895 19.7739 27.5645 20.0806 27.834 20.479C28.1074 20.8735 28.2441 21.3403 28.2441 21.8794H26.1992C26.1992 21.6646 26.1543 21.4751 26.0645 21.311C25.9785 21.147 25.8477 21.0181 25.6719 20.9243C25.4961 20.8306 25.2754 20.7837 25.0098 20.7837C24.752 20.7837 24.5352 20.8228 24.3594 20.9009C24.1836 20.979 24.0508 21.0845 23.9609 21.2173C23.8711 21.3462 23.8262 21.4888 23.8262 21.645C23.8262 21.7739 23.8613 21.8911 23.9316 21.9966C24.0059 22.0981 24.1094 22.1938 24.2422 22.2837C24.3789 22.3735 24.543 22.4595 24.7344 22.5415C24.9297 22.6235 25.1484 22.7036 25.3906 22.7817C25.8438 22.9263 26.2461 23.0884 26.5977 23.2681C26.9531 23.4438 27.252 23.645 27.4941 23.8716C27.7402 24.0942 27.9258 24.3481 28.0508 24.6333C28.1797 24.9185 28.2441 25.2407 28.2441 25.6001C28.2441 25.9829 28.1699 26.3228 28.0215 26.6196C27.873 26.9165 27.6602 27.1685 27.3828 27.3755C27.1055 27.5786 26.7734 27.7329 26.3867 27.8384C26 27.9438 25.5684 27.9966 25.0918 27.9966C24.6543 27.9966 24.2227 27.9419 23.7969 27.8325C23.375 27.7192 22.9922 27.5474 22.6484 27.3169C22.3047 27.0825 22.0293 26.7837 21.8223 26.4204C21.6191 26.0532 21.5176 25.6177 21.5176 25.1138H23.5801C23.5801 25.3638 23.6133 25.5747 23.6797 25.7466C23.7461 25.9185 23.8438 26.0571 23.9727 26.1626C24.1016 26.2642 24.2598 26.3384 24.4473 26.3853C24.6348 26.4282 24.8496 26.4497 25.0918 26.4497C25.3535 26.4497 25.5645 26.4126 25.7246 26.3384C25.8848 26.2603 26.002 26.1587 26.0762 26.0337C26.1504 25.9048 26.1875 25.7642 26.1875 25.6118Z" fill="white"/>
</svg>
