<svg width="35" height="44" viewBox="0 0 35 44" fill="none" xmlns="http://www.w3.org/2000/svg">
<path d="M2.5 0.462769H25.2103L34.4376 9.70464L34.6413 41.9373C34.6483 43.0468 33.7508 43.9499 32.6413 43.9499H2.5C1.39543 43.9499 0.5 43.0545 0.5 41.9499V2.46277C0.5 1.3582 1.39543 0.462769 2.5 0.462769Z" fill="#06437C"/>
<path d="M25.2051 0.462769V8.69293C25.2051 9.24521 25.6528 9.69293 26.2051 9.69293H34.4352L25.2051 0.462769Z" fill="black" fill-opacity="0.16"/>
<path d="M9.96094 27.8854H8.06836L8.08008 26.3033H9.96094C10.3516 26.3033 10.6816 26.2096 10.9512 26.0221C11.2246 25.8346 11.4316 25.5553 11.5723 25.1842C11.7168 24.8092 11.7891 24.3483 11.7891 23.8014V23.4323C11.7891 23.0221 11.748 22.6627 11.666 22.3541C11.5879 22.0416 11.4707 21.7819 11.3145 21.5748C11.1582 21.3639 10.9629 21.2057 10.7285 21.1002C10.498 20.9948 10.2324 20.942 9.93164 20.942H8.0332V19.3541H9.93164C10.5098 19.3541 11.0391 19.4537 11.5195 19.653C12.0039 19.8483 12.4219 20.1295 12.7734 20.4967C13.1289 20.86 13.4023 21.2916 13.5938 21.7916C13.7891 22.2877 13.8867 22.8385 13.8867 23.444V23.8014C13.8867 24.403 13.7891 24.9537 13.5938 25.4537C13.4023 25.9537 13.1309 26.3854 12.7793 26.7487C12.4277 27.1119 12.0117 27.3932 11.5312 27.5924C11.0547 27.7877 10.5312 27.8854 9.96094 27.8854ZM9.24609 19.3541V27.8854H7.18945V19.3541H9.24609ZM18.4395 24.2584H16.2422L16.2305 22.9108H18.0117C18.332 22.9108 18.5879 22.8756 18.7793 22.8053C18.9707 22.7311 19.1094 22.6237 19.1953 22.483C19.2852 22.3424 19.3301 22.1666 19.3301 21.9557C19.3301 21.7135 19.2852 21.5182 19.1953 21.3698C19.1055 21.2213 18.9629 21.1139 18.7676 21.0475C18.5762 20.9772 18.3281 20.942 18.0234 20.942H17.0156V27.8854H14.959V19.3541H18.0234C18.5508 19.3541 19.0215 19.403 19.4355 19.5006C19.8496 19.5944 20.2012 19.7389 20.4902 19.9342C20.7832 20.1295 21.0059 20.3756 21.1582 20.6725C21.3105 20.9655 21.3867 21.3112 21.3867 21.7096C21.3867 22.0573 21.3125 22.3834 21.1641 22.6881C21.0156 22.9928 20.7676 23.2408 20.4199 23.4323C20.0762 23.6198 19.6055 23.7174 19.0078 23.7252L18.4395 24.2584ZM18.3574 27.8854H15.7441L16.4473 26.3033H18.3574C18.6387 26.3033 18.8633 26.2604 19.0312 26.1744C19.2031 26.0846 19.3262 25.9674 19.4004 25.8229C19.4785 25.6744 19.5176 25.5104 19.5176 25.3307C19.5176 25.1119 19.4805 24.9225 19.4062 24.7623C19.3359 24.6022 19.2227 24.4791 19.0664 24.3932C18.9102 24.3033 18.7012 24.2584 18.4395 24.2584H16.7109L16.7227 22.9108H18.791L19.2715 23.4498C19.8418 23.4264 20.293 23.5065 20.625 23.6901C20.9609 23.8737 21.2012 24.1158 21.3457 24.4166C21.4902 24.7174 21.5625 25.0319 21.5625 25.36C21.5625 25.9186 21.4414 26.3854 21.1992 26.7604C20.9609 27.1354 20.6035 27.4166 20.127 27.6041C19.6504 27.7916 19.0605 27.8854 18.3574 27.8854ZM24.7617 19.3541V27.8854H22.7051V19.3541H24.7617ZM28.0781 22.9049V24.4869H24.1758V22.9049H28.0781ZM28.4121 19.3541V20.942H24.1758V19.3541H28.4121Z" fill="white"/>
</svg>
