<svg width="35" height="45" viewBox="0 0 35 45" fill="none" xmlns="http://www.w3.org/2000/svg">
<path d="M2.5 0.772705H25.2103L34.4376 10.0146L34.6413 42.2472C34.6483 43.3567 33.7508 44.2599 32.6413 44.2599H2.5C1.39543 44.2599 0.5 43.3645 0.5 42.2599V2.77271C0.5 1.66814 1.39543 0.772705 2.5 0.772705Z" fill="#C6463E"/>
<path d="M25.2051 0.772705V9.00287C25.2051 9.55515 25.6528 10.0029 26.2051 10.0029H34.4352L25.2051 0.772705Z" fill="black" fill-opacity="0.16"/>
<path d="M5.91602 19.6641H7.5918L9.49609 25.5996L11.4004 19.6641H13.0762L10.1758 28.1953H8.81641L5.91602 19.6641ZM4.89648 19.6641H6.63086L6.95312 26.2031V28.1953H4.89648V19.6641ZM12.3613 19.6641H14.1016V28.1953H12.0391V26.2031L12.3613 19.6641ZM21.373 24.8613V26.3848H15.2324L15.1152 25.1777L18.543 19.6641H20.1016L18.4082 22.4355L17.002 24.8613H21.373ZM20.5117 19.6641V28.1953H18.5371V19.6641H20.5117ZM25.9961 21.457L23.916 28.1953H21.707L24.8418 19.6641H26.2422L25.9961 21.457ZM27.7188 28.1953L25.6328 21.457L25.3633 19.6641H26.7812L29.9336 28.1953H27.7188ZM27.6367 25.0137V26.6016H23.2598V25.0137H27.6367Z" fill="white"/>
</svg>
