<svg width="35" height="45" viewBox="0 0 35 45" fill="none" xmlns="http://www.w3.org/2000/svg">
<path d="M2.65625 0.643799H25.3666L34.5939 9.88567L34.7975 42.1183C34.8045 43.2278 33.9071 44.131 32.7976 44.131H2.65625C1.55168 44.131 0.65625 43.2355 0.65625 42.131V2.6438C0.65625 1.53923 1.55168 0.643799 2.65625 0.643799Z" fill="#F3A100"/>
<path d="M25.3613 0.643799V8.87396C25.3613 9.42624 25.809 9.87396 26.3613 9.87396H34.5915L25.3613 0.643799Z" fill="black" fill-opacity="0.16"/>
<path d="M11.6758 19.5352H13.7324V25.1074C13.7324 25.7715 13.5938 26.334 13.3164 26.7949C13.0391 27.252 12.6504 27.5977 12.1504 27.832C11.6504 28.0664 11.0625 28.1836 10.3867 28.1836C9.71875 28.1836 9.13086 28.0664 8.62305 27.832C8.11914 27.5977 7.72461 27.252 7.43945 26.7949C7.1582 26.334 7.01758 25.7715 7.01758 25.1074V19.5352H9.08008V25.1074C9.08008 25.459 9.13086 25.7461 9.23242 25.9688C9.33398 26.1875 9.48242 26.3477 9.67773 26.4492C9.87305 26.5508 10.1094 26.6016 10.3867 26.6016C10.668 26.6016 10.9043 26.5508 11.0957 26.4492C11.2871 26.3477 11.4316 26.1875 11.5293 25.9688C11.627 25.7461 11.6758 25.459 11.6758 25.1074V19.5352ZM19.6562 19.5352H21.7129V25.1074C21.7129 25.7715 21.5742 26.334 21.2969 26.7949C21.0195 27.252 20.6309 27.5977 20.1309 27.832C19.6309 28.0664 19.043 28.1836 18.3672 28.1836C17.6992 28.1836 17.1113 28.0664 16.6035 27.832C16.0996 27.5977 15.7051 27.252 15.4199 26.7949C15.1387 26.334 14.998 25.7715 14.998 25.1074V19.5352H17.0605V25.1074C17.0605 25.459 17.1113 25.7461 17.2129 25.9688C17.3145 26.1875 17.4629 26.3477 17.6582 26.4492C17.8535 26.5508 18.0898 26.6016 18.3672 26.6016C18.6484 26.6016 18.8848 26.5508 19.0762 26.4492C19.2676 26.3477 19.4121 26.1875 19.5098 25.9688C19.6074 25.7461 19.6562 25.459 19.6562 25.1074V19.5352ZM28.8789 26.4844V28.0664H24.332V26.4844H28.8789ZM25.0645 19.5352V28.0664H23.0078V19.5352H25.0645ZM28.293 22.9219V24.4512H24.332V22.9219H28.293ZM28.8965 19.5352V21.123H24.332V19.5352H28.8965Z" fill="white"/>
</svg>
