<svg width="35" height="44" viewBox="0 0 35 44" fill="none" xmlns="http://www.w3.org/2000/svg">
<path d="M2.34375 0.146973H25.0541L34.2814 9.38885L34.485 41.6215C34.492 42.731 33.5946 43.6342 32.4851 43.6342H2.34375C1.23918 43.6342 0.34375 42.7387 0.34375 41.6342V2.14697C0.34375 1.0424 1.23918 0.146973 2.34375 0.146973Z" fill="#0EC5A4"/>
<path d="M25.0488 0.146973V8.37713C25.0488 8.92942 25.4965 9.37713 26.0488 9.37713H34.279L25.0488 0.146973Z" fill="black" fill-opacity="0.16"/>
<path d="M7.75781 19.0383H9.43359L11.3379 24.9739L13.2422 19.0383H14.918L12.0176 27.5696H10.6582L7.75781 19.0383ZM6.73828 19.0383H8.47266L8.79492 25.5774V27.5696H6.73828V19.0383ZM14.2031 19.0383H15.9434V27.5696H13.8809V25.5774L14.2031 19.0383ZM21.6562 25.302C21.6562 25.1692 21.6367 25.05 21.5977 24.9446C21.5586 24.8352 21.4863 24.7336 21.3809 24.6399C21.2754 24.5461 21.123 24.4524 20.9238 24.3586C20.7285 24.261 20.4707 24.1594 20.1504 24.054C19.7754 23.929 19.4141 23.7883 19.0664 23.6321C18.7188 23.4719 18.4082 23.2864 18.1348 23.0754C17.8613 22.8606 17.6445 22.6106 17.4844 22.3254C17.3242 22.0364 17.2441 21.7004 17.2441 21.3176C17.2441 20.9504 17.3262 20.6204 17.4902 20.3274C17.6543 20.0305 17.8828 19.7786 18.1758 19.5715C18.4727 19.3606 18.8203 19.2004 19.2188 19.0911C19.6172 18.9778 20.0527 18.9211 20.5254 18.9211C21.1504 18.9211 21.7012 19.0305 22.1777 19.2493C22.6582 19.4641 23.0332 19.7708 23.3027 20.1692C23.5762 20.5637 23.7129 21.0305 23.7129 21.5696H21.668C21.668 21.3547 21.623 21.1653 21.5332 21.0012C21.4473 20.8372 21.3164 20.7083 21.1406 20.6145C20.9648 20.5208 20.7441 20.4739 20.4785 20.4739C20.2207 20.4739 20.0039 20.5129 19.8281 20.5911C19.6523 20.6692 19.5195 20.7747 19.4297 20.9075C19.3398 21.0364 19.2949 21.179 19.2949 21.3352C19.2949 21.4641 19.3301 21.5813 19.4004 21.6868C19.4746 21.7883 19.5781 21.884 19.7109 21.9739C19.8477 22.0637 20.0117 22.1497 20.2031 22.2317C20.3984 22.3137 20.6172 22.3938 20.8594 22.4719C21.3125 22.6165 21.7148 22.7786 22.0664 22.9583C22.4219 23.134 22.7207 23.3352 22.9629 23.5618C23.209 23.7844 23.3945 24.0383 23.5195 24.3235C23.6484 24.6086 23.7129 24.9309 23.7129 25.2903C23.7129 25.6731 23.6387 26.0129 23.4902 26.3098C23.3418 26.6067 23.1289 26.8586 22.8516 27.0657C22.5742 27.2688 22.2422 27.4231 21.8555 27.5286C21.4688 27.634 21.0371 27.6868 20.5605 27.6868C20.123 27.6868 19.6914 27.6321 19.2656 27.5227C18.8438 27.4094 18.4609 27.2375 18.1172 27.0071C17.7734 26.7727 17.498 26.4739 17.291 26.1106C17.0879 25.7434 16.9863 25.3079 16.9863 24.804H19.0488C19.0488 25.054 19.082 25.2649 19.1484 25.4368C19.2148 25.6086 19.3125 25.7473 19.4414 25.8528C19.5703 25.9543 19.7285 26.0286 19.916 26.0754C20.1035 26.1184 20.3184 26.1399 20.5605 26.1399C20.8223 26.1399 21.0332 26.1028 21.1934 26.0286C21.3535 25.9504 21.4707 25.8489 21.5449 25.7239C21.6191 25.595 21.6562 25.4543 21.6562 25.302ZM26.959 19.0383V27.5696H24.9082V19.0383H26.959Z" fill="white"/>
</svg>
