<svg width="35" height="45" viewBox="0 0 35 45" fill="none" xmlns="http://www.w3.org/2000/svg">
<path d="M2.65625 0.895264H25.3666L34.5939 10.1371L34.7975 42.3698C34.8045 43.4793 33.9071 44.3824 32.7976 44.3824H2.65625C1.55168 44.3824 0.65625 43.487 0.65625 42.3824V2.89526C0.65625 1.79069 1.55168 0.895264 2.65625 0.895264Z" fill="#06437C"/>
<path d="M25.3613 0.895264V9.12542C25.3613 9.67771 25.809 10.1254 26.3613 10.1254H34.5915L25.3613 0.895264Z" fill="black" fill-opacity="0.16"/>
<path d="M14.2129 23.8823V24.228C14.2129 24.8804 14.1211 25.4663 13.9375 25.9858C13.7578 26.5015 13.502 26.9429 13.1699 27.3101C12.8379 27.6733 12.4453 27.9526 11.9922 28.1479C11.5391 28.3394 11.0391 28.4351 10.4922 28.4351C9.94141 28.4351 9.4375 28.3394 8.98047 28.1479C8.52734 27.9526 8.13281 27.6733 7.79688 27.3101C7.46484 26.9429 7.20703 26.5015 7.02344 25.9858C6.84375 25.4663 6.75391 24.8804 6.75391 24.228V23.8823C6.75391 23.23 6.84375 22.644 7.02344 22.1245C7.20703 21.605 7.46289 21.1636 7.79102 20.8003C8.12305 20.4331 8.51562 20.1538 8.96875 19.9624C9.42578 19.7671 9.92969 19.6694 10.4805 19.6694C11.0273 19.6694 11.5273 19.7671 11.9805 19.9624C12.4375 20.1538 12.832 20.4331 13.1641 20.8003C13.4961 21.1636 13.7539 21.605 13.9375 22.1245C14.1211 22.644 14.2129 23.23 14.2129 23.8823ZM12.127 24.228V23.8706C12.127 23.4487 12.0898 23.0776 12.0156 22.7573C11.9453 22.4331 11.8398 22.1616 11.6992 21.9429C11.5586 21.7241 11.3848 21.5601 11.1777 21.4507C10.9746 21.3374 10.7422 21.2808 10.4805 21.2808C10.207 21.2808 9.96875 21.3374 9.76562 21.4507C9.5625 21.5601 9.39258 21.7241 9.25586 21.9429C9.11914 22.1616 9.01562 22.4331 8.94531 22.7573C8.87891 23.0776 8.8457 23.4487 8.8457 23.8706V24.228C8.8457 24.646 8.87891 25.0171 8.94531 25.3413C9.01562 25.6616 9.11914 25.9331 9.25586 26.1558C9.39648 26.3784 9.56836 26.5464 9.77148 26.6597C9.97852 26.7729 10.2188 26.8296 10.4922 26.8296C10.7539 26.8296 10.9863 26.7729 11.1895 26.6597C11.3926 26.5464 11.5625 26.3784 11.6992 26.1558C11.8398 25.9331 11.9453 25.6616 12.0156 25.3413C12.0898 25.0171 12.127 24.646 12.127 24.228ZM18.7598 24.6909H16.5625L16.5508 23.3433H18.332C18.6523 23.3433 18.9082 23.3081 19.0996 23.2378C19.291 23.1636 19.4297 23.0562 19.5156 22.9155C19.6055 22.7749 19.6504 22.5991 19.6504 22.3882C19.6504 22.146 19.6055 21.9507 19.5156 21.8022C19.4258 21.6538 19.2832 21.5464 19.0879 21.48C18.8965 21.4097 18.6484 21.3745 18.3438 21.3745H17.3359V28.3179H15.2793V19.7866H18.3438C18.8711 19.7866 19.3418 19.8354 19.7559 19.9331C20.1699 20.0269 20.5215 20.1714 20.8105 20.3667C21.1035 20.562 21.3262 20.8081 21.4785 21.105C21.6309 21.3979 21.707 21.7437 21.707 22.1421C21.707 22.4897 21.6328 22.8159 21.4844 23.1206C21.3359 23.4253 21.0879 23.6733 20.7402 23.8647C20.3965 24.0522 19.9258 24.1499 19.3281 24.1577L18.7598 24.6909ZM18.6777 28.3179H16.0645L16.7676 26.7358H18.6777C18.959 26.7358 19.1836 26.6929 19.3516 26.6069C19.5234 26.5171 19.6465 26.3999 19.7207 26.2554C19.7988 26.1069 19.8379 25.9429 19.8379 25.7632C19.8379 25.5444 19.8008 25.355 19.7266 25.1948C19.6562 25.0347 19.543 24.9116 19.3867 24.8257C19.2305 24.7358 19.0215 24.6909 18.7598 24.6909H17.0312L17.043 23.3433H19.1113L19.5918 23.8823C20.1621 23.8589 20.6133 23.939 20.9453 24.1226C21.2812 24.3062 21.5215 24.5483 21.666 24.8491C21.8105 25.1499 21.8828 25.4644 21.8828 25.7925C21.8828 26.3511 21.7617 26.8179 21.5195 27.1929C21.2812 27.5679 20.9238 27.8491 20.4473 28.0366C19.9707 28.2241 19.3809 28.3179 18.6777 28.3179ZM26.418 25.6401V19.7866H28.4688V25.6401C28.4688 26.2104 28.3379 26.7046 28.0762 27.1226C27.8184 27.5405 27.4668 27.8647 27.0215 28.0952C26.5801 28.3218 26.084 28.4351 25.5332 28.4351C24.9629 28.4351 24.4551 28.3394 24.0098 28.1479C23.5684 27.9565 23.2207 27.6616 22.9668 27.2632C22.7168 26.8647 22.5918 26.3569 22.5918 25.7397H24.6543C24.6543 26.0288 24.6875 26.2554 24.7539 26.4194C24.8203 26.5796 24.918 26.6929 25.0469 26.7593C25.1797 26.8218 25.3418 26.853 25.5332 26.853C25.7207 26.853 25.8789 26.8062 26.0078 26.7124C26.1406 26.6147 26.2422 26.4761 26.3125 26.2964C26.3828 26.1128 26.418 25.894 26.418 25.6401Z" fill="white"/>
</svg>
