<svg width="35" height="45" viewBox="0 0 35 45" fill="none" xmlns="http://www.w3.org/2000/svg">
<path d="M2.1875 0.830811H24.8978L34.1251 10.0727L34.3288 42.3054C34.3358 43.4148 33.4383 44.318 32.3288 44.318H2.1875C1.08293 44.318 0.1875 43.4226 0.1875 42.318V2.83081C0.1875 1.72624 1.08293 0.830811 2.1875 0.830811Z" fill="#F3A100"/>
<path d="M24.8926 0.830811V9.06097C24.8926 9.61326 25.3403 10.061 25.8926 10.061H34.1227L24.8926 0.830811Z" fill="black" fill-opacity="0.16"/>
<path d="M10 26.2437L11.7754 19.7222H14.0781L11.2012 28.2534H9.71289L10 26.2437ZM8.38867 19.7222L10.1641 26.2437L10.4629 28.2534H8.95703L6.09766 19.7222H8.38867ZM19.4746 25.3647H21.5254C21.498 25.9585 21.3379 26.4819 21.0449 26.9351C20.752 27.3882 20.3457 27.7417 19.8262 27.9956C19.3105 28.2456 18.7012 28.3706 17.998 28.3706C17.4277 28.3706 16.918 28.2749 16.4688 28.0835C16.0234 27.8921 15.6445 27.6167 15.332 27.2573C15.0234 26.8979 14.7871 26.4624 14.623 25.9507C14.4629 25.439 14.3828 24.8628 14.3828 24.2222V23.7593C14.3828 23.1187 14.4668 22.5425 14.6348 22.0308C14.8066 21.5151 15.0488 21.0776 15.3613 20.7183C15.6777 20.355 16.0566 20.0776 16.498 19.8862C16.9395 19.6948 17.4297 19.5991 17.9688 19.5991C18.7109 19.5991 19.3379 19.7319 19.8496 19.9976C20.3613 20.2632 20.7578 20.6284 21.0391 21.0933C21.3203 21.5542 21.4863 22.0796 21.5371 22.6694H19.4863C19.4785 22.3491 19.4238 22.0815 19.3223 21.8667C19.2207 21.6479 19.0605 21.4839 18.8418 21.3745C18.623 21.2651 18.332 21.2104 17.9688 21.2104C17.7148 21.2104 17.4941 21.2573 17.3066 21.3511C17.1191 21.4448 16.9629 21.5933 16.8379 21.7964C16.7129 21.9995 16.6191 22.2632 16.5566 22.5874C16.498 22.9077 16.4688 23.2944 16.4688 23.7476V24.2222C16.4688 24.6753 16.4961 25.062 16.5508 25.3823C16.6055 25.7026 16.6934 25.9644 16.8145 26.1675C16.9355 26.3706 17.0918 26.521 17.2832 26.6187C17.4785 26.7124 17.7168 26.7593 17.998 26.7593C18.3105 26.7593 18.5742 26.7104 18.7891 26.6128C19.0039 26.5112 19.1699 26.3589 19.2871 26.1558C19.4043 25.9487 19.4668 25.6851 19.4746 25.3647ZM24.5547 19.7222V28.2534H22.498V19.7222H24.5547ZM27.8711 23.2729V24.855H23.9688V23.2729H27.8711ZM28.2051 19.7222V21.3101H23.9688V19.7222H28.2051Z" fill="white"/>
</svg>
