<svg width="35" height="44" viewBox="0 0 35 44" fill="none" xmlns="http://www.w3.org/2000/svg">
<path d="M2.65625 0.275513H25.3666L34.5939 9.51739L34.7975 41.7501C34.8045 42.8595 33.9071 43.7627 32.7976 43.7627H2.65625C1.55168 43.7627 0.65625 42.8673 0.65625 41.7627V2.27551C0.65625 1.17094 1.55168 0.275513 2.65625 0.275513Z" fill="#06437C"/>
<path d="M25.3613 0.275513V8.50567C25.3613 9.05796 25.809 9.50567 26.3613 9.50567H34.5915L25.3613 0.275513Z" fill="black" fill-opacity="0.16"/>
<path d="M11.0762 24.8094H13.127C13.0996 25.4032 12.9395 25.9266 12.6465 26.3798C12.3535 26.8329 11.9473 27.1864 11.4277 27.4403C10.9121 27.6903 10.3027 27.8153 9.59961 27.8153C9.0293 27.8153 8.51953 27.7196 8.07031 27.5282C7.625 27.3368 7.24609 27.0614 6.93359 26.702C6.625 26.3427 6.38867 25.9071 6.22461 25.3954C6.06445 24.8837 5.98438 24.3075 5.98438 23.6669V23.204C5.98438 22.5634 6.06836 21.9872 6.23633 21.4755C6.4082 20.9598 6.65039 20.5223 6.96289 20.163C7.2793 19.7997 7.6582 19.5223 8.09961 19.3309C8.54102 19.1395 9.03125 19.0438 9.57031 19.0438C10.3125 19.0438 10.9395 19.1766 11.4512 19.4423C11.9629 19.7079 12.3594 20.0731 12.6406 20.538C12.9219 20.9989 13.0879 21.5243 13.1387 22.1141H11.0879C11.0801 21.7938 11.0254 21.5262 10.9238 21.3114C10.8223 21.0927 10.6621 20.9286 10.4434 20.8192C10.2246 20.7098 9.93359 20.6552 9.57031 20.6552C9.31641 20.6552 9.0957 20.702 8.9082 20.7958C8.7207 20.8895 8.56445 21.038 8.43945 21.2411C8.31445 21.4442 8.2207 21.7079 8.1582 22.0321C8.09961 22.3524 8.07031 22.7391 8.07031 23.1923V23.6669C8.07031 24.12 8.09766 24.5067 8.15234 24.827C8.20703 25.1473 8.29492 25.4091 8.41602 25.6122C8.53711 25.8153 8.69336 25.9657 8.88477 26.0634C9.08008 26.1571 9.31836 26.204 9.59961 26.204C9.91211 26.204 10.1758 26.1552 10.3906 26.0575C10.6055 25.9559 10.7715 25.8036 10.8887 25.6005C11.0059 25.3934 11.0684 25.1298 11.0762 24.8094ZM18.4941 25.4305C18.4941 25.2977 18.4746 25.1786 18.4355 25.0731C18.3965 24.9637 18.3242 24.8622 18.2188 24.7684C18.1133 24.6747 17.9609 24.5809 17.7617 24.4872C17.5664 24.3895 17.3086 24.288 16.9883 24.1825C16.6133 24.0575 16.252 23.9169 15.9043 23.7606C15.5566 23.6005 15.2461 23.4149 14.9727 23.204C14.6992 22.9891 14.4824 22.7391 14.3223 22.454C14.1621 22.1649 14.082 21.829 14.082 21.4462C14.082 21.079 14.1641 20.7489 14.3281 20.4559C14.4922 20.1591 14.7207 19.9071 15.0137 19.7001C15.3105 19.4891 15.6582 19.329 16.0566 19.2196C16.4551 19.1063 16.8906 19.0497 17.3633 19.0497C17.9883 19.0497 18.5391 19.1591 19.0156 19.3778C19.4961 19.5927 19.8711 19.8993 20.1406 20.2977C20.4141 20.6923 20.5508 21.1591 20.5508 21.6981H18.5059C18.5059 21.4833 18.4609 21.2938 18.3711 21.1298C18.2852 20.9657 18.1543 20.8368 17.9785 20.743C17.8027 20.6493 17.582 20.6024 17.3164 20.6024C17.0586 20.6024 16.8418 20.6415 16.666 20.7196C16.4902 20.7977 16.3574 20.9032 16.2676 21.036C16.1777 21.1649 16.1328 21.3075 16.1328 21.4637C16.1328 21.5927 16.168 21.7098 16.2383 21.8153C16.3125 21.9169 16.416 22.0126 16.5488 22.1024C16.6855 22.1923 16.8496 22.2782 17.041 22.3602C17.2363 22.4423 17.4551 22.5223 17.6973 22.6005C18.1504 22.745 18.5527 22.9071 18.9043 23.0868C19.2598 23.2626 19.5586 23.4637 19.8008 23.6903C20.0469 23.913 20.2324 24.1669 20.3574 24.452C20.4863 24.7372 20.5508 25.0594 20.5508 25.4188C20.5508 25.8016 20.4766 26.1415 20.3281 26.4384C20.1797 26.7352 19.9668 26.9872 19.6895 27.1942C19.4121 27.3973 19.0801 27.5516 18.6934 27.6571C18.3066 27.7626 17.875 27.8153 17.3984 27.8153C16.9609 27.8153 16.5293 27.7606 16.1035 27.6512C15.6816 27.538 15.2988 27.3661 14.9551 27.1356C14.6113 26.9012 14.3359 26.6024 14.1289 26.2391C13.9258 25.8719 13.8242 25.4364 13.8242 24.9325H15.8867C15.8867 25.1825 15.9199 25.3934 15.9863 25.5653C16.0527 25.7372 16.1504 25.8759 16.2793 25.9813C16.4082 26.0829 16.5664 26.1571 16.7539 26.204C16.9414 26.2469 17.1562 26.2684 17.3984 26.2684C17.6602 26.2684 17.8711 26.2313 18.0312 26.1571C18.1914 26.079 18.3086 25.9774 18.3828 25.8524C18.457 25.7235 18.4941 25.5829 18.4941 25.4305ZM24.8398 25.6884L26.6152 19.1669H28.918L26.041 27.6981H24.5527L24.8398 25.6884ZM23.2285 19.1669L25.0039 25.6884L25.3027 27.6981H23.7969L20.9375 19.1669H23.2285Z" fill="white"/>
</svg>
