<svg width="35" height="44" viewBox="0 0 35 44" fill="none" xmlns="http://www.w3.org/2000/svg">
<path d="M2.8125 0.398438H25.5228L34.7501 9.64031L34.9538 41.873C34.9608 42.9825 34.0633 43.8856 32.9538 43.8856H2.8125C1.70793 43.8856 0.8125 42.9902 0.8125 41.8856V2.39844C0.8125 1.29387 1.70793 0.398438 2.8125 0.398438Z" fill="#C6463E"/>
<path d="M25.5176 0.398438V8.6286C25.5176 9.18088 25.9653 9.6286 26.5176 9.6286H34.7477L25.5176 0.398438Z" fill="black" fill-opacity="0.16"/>
<path d="M10.5605 25.1433V19.2898H12.6113V25.1433C12.6113 25.7136 12.4805 26.2078 12.2188 26.6257C11.9609 27.0437 11.6094 27.3679 11.1641 27.5984C10.7227 27.825 10.2266 27.9382 9.67578 27.9382C9.10547 27.9382 8.59766 27.8425 8.15234 27.6511C7.71094 27.4597 7.36328 27.1648 7.10938 26.7664C6.85938 26.3679 6.73438 25.8601 6.73438 25.2429H8.79688C8.79688 25.532 8.83008 25.7585 8.89648 25.9226C8.96289 26.0828 9.06055 26.196 9.18945 26.2625C9.32227 26.325 9.48438 26.3562 9.67578 26.3562C9.86328 26.3562 10.0215 26.3093 10.1504 26.2156C10.2832 26.1179 10.3848 25.9792 10.4551 25.7996C10.5254 25.616 10.5605 25.3972 10.5605 25.1433ZM17.3223 24.9265H15.2012V23.3386H17.3223C17.6113 23.3386 17.8457 23.2898 18.0254 23.1921C18.2051 23.0945 18.3359 22.9597 18.418 22.7878C18.5039 22.6121 18.5469 22.4148 18.5469 22.196C18.5469 21.9617 18.5039 21.7449 18.418 21.5457C18.3359 21.3464 18.2051 21.1863 18.0254 21.0652C17.8457 20.9402 17.6113 20.8777 17.3223 20.8777H15.9746V27.821H13.918V19.2898H17.3223C18.0059 19.2898 18.5938 19.4148 19.0859 19.6648C19.582 19.9148 19.9629 20.2585 20.2285 20.696C20.4941 21.1296 20.627 21.6257 20.627 22.1843C20.627 22.7351 20.4941 23.2156 20.2285 23.6257C19.9629 24.0359 19.582 24.3562 19.0859 24.5867C18.5938 24.8132 18.0059 24.9265 17.3223 24.9265ZM28.7129 23.2625V26.7664C28.5684 26.9265 28.3457 27.0984 28.0449 27.282C27.748 27.4617 27.373 27.616 26.9199 27.7449C26.4668 27.8738 25.9336 27.9382 25.3203 27.9382C24.7539 27.9382 24.2402 27.8484 23.7793 27.6687C23.3184 27.4851 22.9219 27.2175 22.5898 26.866C22.2617 26.5105 22.0078 26.0769 21.8281 25.5652C21.6523 25.0496 21.5645 24.4597 21.5645 23.7957V23.321C21.5645 22.657 21.6543 22.0671 21.834 21.5515C22.0137 21.0359 22.2656 20.6023 22.5898 20.2507C22.918 19.8953 23.3027 19.6257 23.7441 19.4421C24.1895 19.2585 24.6777 19.1667 25.209 19.1667C25.9941 19.1667 26.6328 19.2917 27.125 19.5417C27.6172 19.7878 27.9902 20.1296 28.2441 20.5671C28.498 21.0007 28.6523 21.5027 28.707 22.073H26.7324C26.6934 21.7917 26.6191 21.5535 26.5098 21.3582C26.4043 21.1589 26.252 21.0085 26.0527 20.907C25.8535 20.8015 25.5957 20.7488 25.2793 20.7488C25.0332 20.7488 24.8086 20.8015 24.6055 20.907C24.4062 21.0125 24.2363 21.1726 24.0957 21.3875C23.9551 21.5984 23.8457 21.864 23.7676 22.1843C23.6934 22.5046 23.6562 22.8796 23.6562 23.3093V23.7957C23.6562 24.2214 23.6914 24.5945 23.7617 24.9148C23.8359 25.2351 23.9453 25.5027 24.0898 25.7175C24.2383 25.9285 24.4258 26.0886 24.6523 26.198C24.8828 26.3035 25.1543 26.3562 25.4668 26.3562C25.6855 26.3562 25.873 26.3386 26.0293 26.3035C26.1855 26.2644 26.3145 26.2175 26.416 26.1628C26.5215 26.1042 26.6016 26.0496 26.6562 25.9988V24.6746H25.2266V23.2625H28.7129Z" fill="white"/>
</svg>
