<svg width="35" height="45" viewBox="0 0 35 45" fill="none" xmlns="http://www.w3.org/2000/svg">
<path d="M2.03125 0.643799H24.7416L33.9689 9.88567L34.1725 42.1183C34.1795 43.2278 33.2821 44.131 32.1726 44.131H2.03125C0.926681 44.131 0.03125 43.2355 0.03125 42.131V2.6438C0.03125 1.53923 0.926681 0.643799 2.03125 0.643799Z" fill="#F3A100"/>
<path d="M24.7363 0.643799V8.87396C24.7363 9.42624 25.184 9.87396 25.7363 9.87396H33.9665L24.7363 0.643799Z" fill="black" fill-opacity="0.16"/>
<path d="M9.72656 19.5352V28.0664H7.66992V19.5352H9.72656ZM12.293 19.5352V21.123H5.16211V19.5352H12.293ZM15.3516 19.5352V28.0664H13.3008V19.5352H15.3516ZM18.8555 19.5352V28.0664H16.7988V19.5352H18.8555ZM22.1719 23.0859V24.668H18.2695V23.0859H22.1719ZM22.5059 19.5352V21.123H18.2695V19.5352H22.5059ZM25.418 19.5352V28.0664H23.3613V19.5352H25.418ZM28.7344 23.0859V24.668H24.832V23.0859H28.7344ZM29.0684 19.5352V21.123H24.832V19.5352H29.0684Z" fill="white"/>
</svg>
