<svg width="35" height="44" viewBox="0 0 35 44" fill="none" xmlns="http://www.w3.org/2000/svg">
<path d="M2.65625 0.0239258H25.3666L34.5939 9.2658L34.7975 41.4985C34.8045 42.608 33.9071 43.5111 32.7976 43.5111H2.65625C1.55168 43.5111 0.65625 42.6157 0.65625 41.5111V2.02393C0.65625 0.919356 1.55168 0.0239258 2.65625 0.0239258Z" fill="#F3A100"/>
<path d="M25.3613 0.0239258V8.25409C25.3613 8.80637 25.809 9.25409 26.3613 9.25409H34.5915L25.3613 0.0239258Z" fill="black" fill-opacity="0.16"/>
<path d="M11.9219 22.8879V26.3918C11.7773 26.552 11.5547 26.7239 11.2539 26.9075C10.957 27.0872 10.582 27.2415 10.1289 27.3704C9.67578 27.4993 9.14258 27.5637 8.5293 27.5637C7.96289 27.5637 7.44922 27.4739 6.98828 27.2942C6.52734 27.1106 6.13086 26.843 5.79883 26.4915C5.4707 26.136 5.2168 25.7024 5.03711 25.1907C4.86133 24.675 4.77344 24.0852 4.77344 23.4211V22.9465C4.77344 22.2825 4.86328 21.6926 5.04297 21.177C5.22266 20.6614 5.47461 20.2278 5.79883 19.8762C6.12695 19.5208 6.51172 19.2512 6.95312 19.0676C7.39844 18.884 7.88672 18.7922 8.41797 18.7922C9.20312 18.7922 9.8418 18.9172 10.334 19.1672C10.8262 19.4133 11.1992 19.7551 11.4531 20.1926C11.707 20.6262 11.8613 21.1282 11.916 21.6985H9.94141C9.90234 21.4172 9.82812 21.179 9.71875 20.9836C9.61328 20.7844 9.46094 20.634 9.26172 20.5325C9.0625 20.427 8.80469 20.3743 8.48828 20.3743C8.24219 20.3743 8.01758 20.427 7.81445 20.5325C7.61523 20.6379 7.44531 20.7981 7.30469 21.0129C7.16406 21.2239 7.05469 21.4895 6.97656 21.8098C6.90234 22.1301 6.86523 22.5051 6.86523 22.9348V23.4211C6.86523 23.8469 6.90039 24.22 6.9707 24.5403C7.04492 24.8606 7.1543 25.1282 7.29883 25.343C7.44727 25.554 7.63477 25.7141 7.86133 25.8235C8.0918 25.929 8.36328 25.9817 8.67578 25.9817C8.89453 25.9817 9.08203 25.9641 9.23828 25.929C9.39453 25.8899 9.52344 25.843 9.625 25.7883C9.73047 25.7297 9.81055 25.675 9.86523 25.6243V24.3H8.43555V22.8879H11.9219ZM16.7383 20.7083L14.6582 27.4465H12.4492L15.584 18.9153H16.9844L16.7383 20.7083ZM18.4609 27.4465L16.375 20.7083L16.1055 18.9153H17.5234L20.6758 27.4465H18.4609ZM18.3789 24.2649V25.8528H14.002V24.2649H18.3789ZM22.3223 18.9153H23.998L25.9023 24.8508L27.8066 18.9153H29.4824L26.582 27.4465H25.2227L22.3223 18.9153ZM21.3027 18.9153H23.0371L23.3594 25.4543V27.4465H21.3027V18.9153ZM28.7676 18.9153H30.5078V27.4465H28.4453V25.4543L28.7676 18.9153Z" fill="white"/>
</svg>
