<svg width="35" height="45" viewBox="0 0 35 45" fill="none" xmlns="http://www.w3.org/2000/svg">
<path d="M2.5 0.649658H25.2103L34.4376 9.89153L34.6413 42.1242C34.6483 43.2337 33.7508 44.1368 32.6413 44.1368H2.5C1.39543 44.1368 0.5 43.2414 0.5 42.1368V2.64966C0.5 1.54509 1.39543 0.649658 2.5 0.649658Z" fill="#F3A100"/>
<path d="M25.2051 0.649658V8.87982C25.2051 9.4321 25.6528 9.87982 26.2051 9.87982H34.4352L25.2051 0.649658Z" fill="black" fill-opacity="0.16"/>
<path d="M8.53516 28.0725H6.64258L6.6543 26.4905H8.53516C8.92578 26.4905 9.25586 26.3967 9.52539 26.2092C9.79883 26.0217 10.0059 25.7424 10.1465 25.3713C10.291 24.9963 10.3633 24.5354 10.3633 23.9885V23.6194C10.3633 23.2092 10.3223 22.8499 10.2402 22.5413C10.1621 22.2288 10.0449 21.969 9.88867 21.762C9.73242 21.551 9.53711 21.3928 9.30273 21.2874C9.07227 21.1819 8.80664 21.1292 8.50586 21.1292H6.60742V19.5413H8.50586C9.08398 19.5413 9.61328 19.6409 10.0938 19.8401C10.5781 20.0354 10.9961 20.3167 11.3477 20.6838C11.7031 21.0471 11.9766 21.4788 12.168 21.9788C12.3633 22.4749 12.4609 23.0256 12.4609 23.6311V23.9885C12.4609 24.5901 12.3633 25.1409 12.168 25.6409C11.9766 26.1409 11.7051 26.5725 11.3535 26.9358C11.002 27.2991 10.5859 27.5803 10.1055 27.7795C9.62891 27.9749 9.10547 28.0725 8.53516 28.0725ZM7.82031 19.5413V28.0725H5.76367V19.5413H7.82031ZM20.752 23.637V23.9827C20.752 24.635 20.6602 25.2209 20.4766 25.7405C20.2969 26.2561 20.041 26.6975 19.709 27.0647C19.377 27.428 18.9844 27.7073 18.5312 27.9026C18.0781 28.094 17.5781 28.1897 17.0312 28.1897C16.4805 28.1897 15.9766 28.094 15.5195 27.9026C15.0664 27.7073 14.6719 27.428 14.3359 27.0647C14.0039 26.6975 13.7461 26.2561 13.5625 25.7405C13.3828 25.2209 13.293 24.635 13.293 23.9827V23.637C13.293 22.9846 13.3828 22.3987 13.5625 21.8792C13.7461 21.3596 14.002 20.9182 14.3301 20.5549C14.6621 20.1877 15.0547 19.9084 15.5078 19.717C15.9648 19.5217 16.4688 19.4241 17.0195 19.4241C17.5664 19.4241 18.0664 19.5217 18.5195 19.717C18.9766 19.9084 19.3711 20.1877 19.7031 20.5549C20.0352 20.9182 20.293 21.3596 20.4766 21.8792C20.6602 22.3987 20.752 22.9846 20.752 23.637ZM18.666 23.9827V23.6252C18.666 23.2034 18.6289 22.8323 18.5547 22.512C18.4844 22.1877 18.3789 21.9163 18.2383 21.6975C18.0977 21.4788 17.9238 21.3147 17.7168 21.2053C17.5137 21.092 17.2812 21.0354 17.0195 21.0354C16.7461 21.0354 16.5078 21.092 16.3047 21.2053C16.1016 21.3147 15.9316 21.4788 15.7949 21.6975C15.6582 21.9163 15.5547 22.1877 15.4844 22.512C15.418 22.8323 15.3848 23.2034 15.3848 23.6252V23.9827C15.3848 24.4006 15.418 24.7717 15.4844 25.0959C15.5547 25.4163 15.6582 25.6877 15.7949 25.9104C15.9355 26.1331 16.1074 26.301 16.3105 26.4143C16.5176 26.5276 16.7578 26.5842 17.0312 26.5842C17.293 26.5842 17.5254 26.5276 17.7285 26.4143C17.9316 26.301 18.1016 26.1331 18.2383 25.9104C18.3789 25.6877 18.4844 25.4163 18.5547 25.0959C18.6289 24.7717 18.666 24.4006 18.666 23.9827ZM26.6699 25.1838H28.7207C28.6934 25.7776 28.5332 26.301 28.2402 26.7542C27.9473 27.2073 27.541 27.5608 27.0215 27.8147C26.5059 28.0647 25.8965 28.1897 25.1934 28.1897C24.623 28.1897 24.1133 28.094 23.6641 27.9026C23.2188 27.7112 22.8398 27.4358 22.5273 27.0764C22.2188 26.717 21.9824 26.2815 21.8184 25.7698C21.6582 25.2581 21.5781 24.6819 21.5781 24.0413V23.5784C21.5781 22.9377 21.6621 22.3616 21.8301 21.8499C22.002 21.3342 22.2441 20.8967 22.5566 20.5374C22.873 20.1741 23.252 19.8967 23.6934 19.7053C24.1348 19.5139 24.625 19.4182 25.1641 19.4182C25.9062 19.4182 26.5332 19.551 27.0449 19.8167C27.5566 20.0823 27.9531 20.4475 28.2344 20.9124C28.5156 21.3733 28.6816 21.8987 28.7324 22.4885H26.6816C26.6738 22.1682 26.6191 21.9006 26.5176 21.6858C26.416 21.467 26.2559 21.303 26.0371 21.1936C25.8184 21.0842 25.5273 21.0295 25.1641 21.0295C24.9102 21.0295 24.6895 21.0764 24.502 21.1702C24.3145 21.2639 24.1582 21.4124 24.0332 21.6155C23.9082 21.8186 23.8145 22.0823 23.752 22.4065C23.6934 22.7268 23.6641 23.1135 23.6641 23.5667V24.0413C23.6641 24.4944 23.6914 24.8811 23.7461 25.2014C23.8008 25.5217 23.8887 25.7834 24.0098 25.9866C24.1309 26.1897 24.2871 26.3401 24.4785 26.4377C24.6738 26.5315 24.9121 26.5784 25.1934 26.5784C25.5059 26.5784 25.7695 26.5295 25.9844 26.4319C26.1992 26.3303 26.3652 26.178 26.4824 25.9749C26.5996 25.7678 26.6621 25.5042 26.6699 25.1838Z" fill="white"/>
</svg>
