<svg width="35" height="45" viewBox="0 0 35 45" fill="none" xmlns="http://www.w3.org/2000/svg">
<path d="M2.34375 0.585449H25.0541L34.2814 9.82732L34.485 42.06C34.492 43.1695 33.5946 44.0726 32.4851 44.0726H2.34375C1.23918 44.0726 0.34375 43.1772 0.34375 42.0726V2.58545C0.34375 1.48088 1.23918 0.585449 2.34375 0.585449Z" fill="#C6463E"/>
<path d="M25.0488 0.585449V8.81561C25.0488 9.3679 25.4965 9.81561 26.0488 9.81561H34.279L25.0488 0.585449Z" fill="black" fill-opacity="0.16"/>
<path d="M8.66602 19.4768V28.0081H6.60938V19.4768H8.66602ZM13.7578 19.4768L10.4531 23.801L8.51953 25.9163L8.14453 24.0295L9.38086 22.1545L11.2207 19.4768H13.7578ZM11.3262 28.0081L9.12305 24.1643L10.7227 22.9866L13.7578 28.0081H11.3262ZM20.1562 26.426V28.0081H15.6094V26.426H20.1562ZM16.3418 19.4768V28.0081H14.2852V19.4768H16.3418ZM19.5703 22.8635V24.3928H15.6094V22.8635H19.5703ZM20.1738 19.4768V21.0647H15.6094V19.4768H20.1738ZM22.5469 19.4768L24.1172 23.1799L25.6934 19.4768H27.9082L25.166 24.9436V28.0081H23.0742V24.9436L20.3262 19.4768H22.5469Z" fill="white"/>
</svg>
