<svg width="35" height="44" viewBox="0 0 35 44" fill="none" xmlns="http://www.w3.org/2000/svg">
<path d="M2.1875 0.275513H24.8978L34.1251 9.51739L34.3288 41.7501C34.3358 42.8595 33.4383 43.7627 32.3288 43.7627H2.1875C1.08293 43.7627 0.1875 42.8673 0.1875 41.7627V2.27551C0.1875 1.17094 1.08293 0.275513 2.1875 0.275513Z" fill="#06437C"/>
<path d="M24.8926 0.275513V8.50567C24.8926 9.05796 25.3403 9.50567 25.8926 9.50567H34.1227L24.8926 0.275513Z" fill="black" fill-opacity="0.16"/>
<path d="M10.5137 24.8094H12.5645C12.5371 25.4032 12.377 25.9266 12.084 26.3798C11.791 26.8329 11.3848 27.1864 10.8652 27.4403C10.3496 27.6903 9.74023 27.8153 9.03711 27.8153C8.4668 27.8153 7.95703 27.7196 7.50781 27.5282C7.0625 27.3368 6.68359 27.0614 6.37109 26.702C6.0625 26.3427 5.82617 25.9071 5.66211 25.3954C5.50195 24.8837 5.42188 24.3075 5.42188 23.6669V23.204C5.42188 22.5634 5.50586 21.9872 5.67383 21.4755C5.8457 20.9598 6.08789 20.5223 6.40039 20.163C6.7168 19.7997 7.0957 19.5223 7.53711 19.3309C7.97852 19.1395 8.46875 19.0438 9.00781 19.0438C9.75 19.0438 10.377 19.1766 10.8887 19.4423C11.4004 19.7079 11.7969 20.0731 12.0781 20.538C12.3594 20.9989 12.5254 21.5243 12.5762 22.1141H10.5254C10.5176 21.7938 10.4629 21.5262 10.3613 21.3114C10.2598 21.0927 10.0996 20.9286 9.88086 20.8192C9.66211 20.7098 9.37109 20.6552 9.00781 20.6552C8.75391 20.6552 8.5332 20.702 8.3457 20.7958C8.1582 20.8895 8.00195 21.038 7.87695 21.2411C7.75195 21.4442 7.6582 21.7079 7.5957 22.0321C7.53711 22.3524 7.50781 22.7391 7.50781 23.1923V23.6669C7.50781 24.12 7.53516 24.5067 7.58984 24.827C7.64453 25.1473 7.73242 25.4091 7.85352 25.6122C7.97461 25.8153 8.13086 25.9657 8.32227 26.0634C8.51758 26.1571 8.75586 26.204 9.03711 26.204C9.34961 26.204 9.61328 26.1552 9.82812 26.0575C10.043 25.9559 10.209 25.8036 10.3262 25.6005C10.4434 25.3934 10.5059 25.1298 10.5137 24.8094ZM16.9414 24.8036H14.8203V23.2157H16.9414C17.2305 23.2157 17.4648 23.1669 17.6445 23.0692C17.8242 22.9716 17.9551 22.8368 18.0371 22.6649C18.123 22.4891 18.166 22.2919 18.166 22.0731C18.166 21.8387 18.123 21.6219 18.0371 21.4227C17.9551 21.2235 17.8242 21.0634 17.6445 20.9423C17.4648 20.8173 17.2305 20.7548 16.9414 20.7548H15.5938V27.6981H13.5371V19.1669H16.9414C17.625 19.1669 18.2129 19.2919 18.7051 19.5419C19.2012 19.7919 19.582 20.1356 19.8477 20.5731C20.1133 21.0067 20.2461 21.5028 20.2461 22.0614C20.2461 22.6122 20.1133 23.0927 19.8477 23.5028C19.582 23.913 19.2012 24.2333 18.7051 24.4637C18.2129 24.6903 17.625 24.8036 16.9414 24.8036ZM24.7578 24.8036H22.6367V23.2157H24.7578C25.0469 23.2157 25.2812 23.1669 25.4609 23.0692C25.6406 22.9716 25.7715 22.8368 25.8535 22.6649C25.9395 22.4891 25.9824 22.2919 25.9824 22.0731C25.9824 21.8387 25.9395 21.6219 25.8535 21.4227C25.7715 21.2235 25.6406 21.0634 25.4609 20.9423C25.2812 20.8173 25.0469 20.7548 24.7578 20.7548H23.4102V27.6981H21.3535V19.1669H24.7578C25.4414 19.1669 26.0293 19.2919 26.5215 19.5419C27.0176 19.7919 27.3984 20.1356 27.6641 20.5731C27.9297 21.0067 28.0625 21.5028 28.0625 22.0614C28.0625 22.6122 27.9297 23.0927 27.6641 23.5028C27.3984 23.913 27.0176 24.2333 26.5215 24.4637C26.0293 24.6903 25.4414 24.8036 24.7578 24.8036Z" fill="white"/>
</svg>
