<svg width="35" height="45" viewBox="0 0 35 45" fill="none" xmlns="http://www.w3.org/2000/svg">
<path d="M2.1875 0.895264H24.8978L34.1251 10.1371L34.3288 42.3698C34.3358 43.4793 33.4383 44.3824 32.3288 44.3824H2.1875C1.08293 44.3824 0.1875 43.487 0.1875 42.3824V2.89526C0.1875 1.79069 1.08293 0.895264 2.1875 0.895264Z" fill="#06437C"/>
<path d="M24.8926 0.895264V9.12542C24.8926 9.67771 25.3403 10.1254 25.8926 10.1254H34.1227L24.8926 0.895264Z" fill="black" fill-opacity="0.16"/>
<path d="M9.27148 25.4233H7.15039V23.8354H9.27148C9.56055 23.8354 9.79492 23.7866 9.97461 23.689C10.1543 23.5913 10.2852 23.4565 10.3672 23.2847C10.4531 23.1089 10.4961 22.9116 10.4961 22.6929C10.4961 22.4585 10.4531 22.2417 10.3672 22.0425C10.2852 21.8433 10.1543 21.6831 9.97461 21.562C9.79492 21.437 9.56055 21.3745 9.27148 21.3745H7.92383V28.3179H5.86719V19.7866H9.27148C9.95508 19.7866 10.543 19.9116 11.0352 20.1616C11.5312 20.4116 11.9121 20.7554 12.1777 21.1929C12.4434 21.6265 12.5762 22.1226 12.5762 22.6812C12.5762 23.2319 12.4434 23.7124 12.1777 24.1226C11.9121 24.5327 11.5312 24.853 11.0352 25.0835C10.543 25.3101 9.95508 25.4233 9.27148 25.4233ZM18.0781 26.0503C18.0781 25.9175 18.0586 25.7983 18.0195 25.6929C17.9805 25.5835 17.9082 25.4819 17.8027 25.3882C17.6973 25.2944 17.5449 25.2007 17.3457 25.1069C17.1504 25.0093 16.8926 24.9077 16.5723 24.8022C16.1973 24.6772 15.8359 24.5366 15.4883 24.3804C15.1406 24.2202 14.8301 24.0347 14.5566 23.8237C14.2832 23.6089 14.0664 23.3589 13.9062 23.0737C13.7461 22.7847 13.666 22.4487 13.666 22.0659C13.666 21.6987 13.748 21.3687 13.9121 21.0757C14.0762 20.7788 14.3047 20.5269 14.5977 20.3198C14.8945 20.1089 15.2422 19.9487 15.6406 19.8394C16.0391 19.7261 16.4746 19.6694 16.9473 19.6694C17.5723 19.6694 18.123 19.7788 18.5996 19.9976C19.0801 20.2124 19.4551 20.519 19.7246 20.9175C19.998 21.312 20.1348 21.7788 20.1348 22.3179H18.0898C18.0898 22.103 18.0449 21.9136 17.9551 21.7495C17.8691 21.5854 17.7383 21.4565 17.5625 21.3628C17.3867 21.269 17.166 21.2222 16.9004 21.2222C16.6426 21.2222 16.4258 21.2612 16.25 21.3394C16.0742 21.4175 15.9414 21.5229 15.8516 21.6558C15.7617 21.7847 15.7168 21.9272 15.7168 22.0835C15.7168 22.2124 15.752 22.3296 15.8223 22.4351C15.8965 22.5366 16 22.6323 16.1328 22.7222C16.2695 22.812 16.4336 22.8979 16.625 22.98C16.8203 23.062 17.0391 23.1421 17.2812 23.2202C17.7344 23.3647 18.1367 23.5269 18.4883 23.7065C18.8438 23.8823 19.1426 24.0835 19.3848 24.3101C19.6309 24.5327 19.8164 24.7866 19.9414 25.0718C20.0703 25.3569 20.1348 25.6792 20.1348 26.0386C20.1348 26.4214 20.0605 26.7612 19.9121 27.0581C19.7637 27.355 19.5508 27.6069 19.2734 27.814C18.9961 28.0171 18.6641 28.1714 18.2773 28.2769C17.8906 28.3823 17.459 28.4351 16.9824 28.4351C16.5449 28.4351 16.1133 28.3804 15.6875 28.271C15.2656 28.1577 14.8828 27.9858 14.5391 27.7554C14.1953 27.521 13.9199 27.2222 13.7129 26.8589C13.5098 26.4917 13.4082 26.0562 13.4082 25.5522H15.4707C15.4707 25.8022 15.5039 26.0132 15.5703 26.1851C15.6367 26.3569 15.7344 26.4956 15.8633 26.6011C15.9922 26.7026 16.1504 26.7769 16.3379 26.8237C16.5254 26.8667 16.7402 26.8882 16.9824 26.8882C17.2441 26.8882 17.4551 26.8511 17.6152 26.7769C17.7754 26.6987 17.8926 26.5972 17.9668 26.4722C18.041 26.3433 18.0781 26.2026 18.0781 26.0503ZM23.9668 28.3179H22.0742L22.0859 26.7358H23.9668C24.3574 26.7358 24.6875 26.6421 24.957 26.4546C25.2305 26.2671 25.4375 25.9878 25.5781 25.6167C25.7227 25.2417 25.7949 24.7808 25.7949 24.2339V23.8647C25.7949 23.4546 25.7539 23.0952 25.6719 22.7866C25.5938 22.4741 25.4766 22.2144 25.3203 22.0073C25.1641 21.7964 24.9688 21.6382 24.7344 21.5327C24.5039 21.4272 24.2383 21.3745 23.9375 21.3745H22.0391V19.7866H23.9375C24.5156 19.7866 25.0449 19.8862 25.5254 20.0854C26.0098 20.2808 26.4277 20.562 26.7793 20.9292C27.1348 21.2925 27.4082 21.7241 27.5996 22.2241C27.7949 22.7202 27.8926 23.271 27.8926 23.8765V24.2339C27.8926 24.8354 27.7949 25.3862 27.5996 25.8862C27.4082 26.3862 27.1367 26.8179 26.7852 27.1812C26.4336 27.5444 26.0176 27.8257 25.5371 28.0249C25.0605 28.2202 24.5371 28.3179 23.9668 28.3179ZM23.252 19.7866V28.3179H21.1953V19.7866H23.252Z" fill="white"/>
</svg>
