<svg width="35" height="44" viewBox="0 0 35 44" fill="none" xmlns="http://www.w3.org/2000/svg">
<path d="M2.65625 0.0822754H25.3666L34.5939 9.32415L34.7975 41.5568C34.8045 42.6663 33.9071 43.5695 32.7976 43.5695H2.65625C1.55168 43.5695 0.65625 42.674 0.65625 41.5695V2.08228C0.65625 0.977706 1.55168 0.0822754 2.65625 0.0822754Z" fill="#06437C"/>
<path d="M25.3613 0.0822754V8.31244C25.3613 8.86472 25.809 9.31244 26.3613 9.31244H34.5915L25.3613 0.0822754Z" fill="black" fill-opacity="0.16"/>
<path d="M5.06641 18.9736H8.42383C9.08008 18.9736 9.65039 19.0713 10.1348 19.2666C10.6191 19.4619 10.9922 19.751 11.2539 20.1338C11.5195 20.5166 11.6523 20.9893 11.6523 21.5518C11.6523 22.04 11.5762 22.4482 11.4238 22.7764C11.2715 23.1045 11.0586 23.376 10.7852 23.5908C10.5156 23.8018 10.2012 23.9756 9.8418 24.1123L9.16797 24.4932H6.34961L6.33789 22.9053H8.42383C8.68555 22.9053 8.90234 22.8584 9.07422 22.7646C9.24609 22.6709 9.375 22.5381 9.46094 22.3662C9.55078 22.1904 9.5957 21.9814 9.5957 21.7393C9.5957 21.4932 9.55078 21.2822 9.46094 21.1064C9.37109 20.9307 9.23828 20.7959 9.0625 20.7021C8.89062 20.6084 8.67773 20.5615 8.42383 20.5615H7.12305V27.5049H5.06641V18.9736ZM9.73633 27.5049L7.84961 23.7314L10.0293 23.7197L11.9395 27.417V27.5049H9.73633ZM20.1133 23.0693V23.415C20.1133 24.0674 20.0215 24.6533 19.8379 25.1729C19.6582 25.6885 19.4023 26.1299 19.0703 26.4971C18.7383 26.8604 18.3457 27.1396 17.8926 27.335C17.4395 27.5264 16.9395 27.6221 16.3926 27.6221C15.8418 27.6221 15.3379 27.5264 14.8809 27.335C14.4277 27.1396 14.0332 26.8604 13.6973 26.4971C13.3652 26.1299 13.1074 25.6885 12.9238 25.1729C12.7441 24.6533 12.6543 24.0674 12.6543 23.415V23.0693C12.6543 22.417 12.7441 21.8311 12.9238 21.3115C13.1074 20.792 13.3633 20.3506 13.6914 19.9873C14.0234 19.6201 14.416 19.3408 14.8691 19.1494C15.3262 18.9541 15.8301 18.8564 16.3809 18.8564C16.9277 18.8564 17.4277 18.9541 17.8809 19.1494C18.3379 19.3408 18.7324 19.6201 19.0645 19.9873C19.3965 20.3506 19.6543 20.792 19.8379 21.3115C20.0215 21.8311 20.1133 22.417 20.1133 23.0693ZM18.0273 23.415V23.0576C18.0273 22.6357 17.9902 22.2646 17.916 21.9443C17.8457 21.6201 17.7402 21.3486 17.5996 21.1299C17.459 20.9111 17.2852 20.7471 17.0781 20.6377C16.875 20.5244 16.6426 20.4678 16.3809 20.4678C16.1074 20.4678 15.8691 20.5244 15.666 20.6377C15.4629 20.7471 15.293 20.9111 15.1562 21.1299C15.0195 21.3486 14.916 21.6201 14.8457 21.9443C14.7793 22.2646 14.7461 22.6357 14.7461 23.0576V23.415C14.7461 23.833 14.7793 24.2041 14.8457 24.5283C14.916 24.8486 15.0195 25.1201 15.1562 25.3428C15.2969 25.5654 15.4688 25.7334 15.6719 25.8467C15.8789 25.96 16.1191 26.0166 16.3926 26.0166C16.6543 26.0166 16.8867 25.96 17.0898 25.8467C17.293 25.7334 17.4629 25.5654 17.5996 25.3428C17.7402 25.1201 17.8457 24.8486 17.916 24.5283C17.9902 24.2041 18.0273 23.833 18.0273 23.415ZM22.1992 18.9736H23.875L25.7793 24.9092L27.6836 18.9736H29.3594L26.459 27.5049H25.0996L22.1992 18.9736ZM21.1797 18.9736H22.9141L23.2363 25.5127V27.5049H21.1797V18.9736ZM28.6445 18.9736H30.3848V27.5049H28.3223V25.5127L28.6445 18.9736Z" fill="white"/>
</svg>
