<svg width="35" height="45" viewBox="0 0 35 45" fill="none" xmlns="http://www.w3.org/2000/svg">
<path d="M2.34375 0.836914H25.0541L34.2814 10.0788L34.485 42.3115C34.492 43.4209 33.5946 44.3241 32.4851 44.3241H2.34375C1.23918 44.3241 0.34375 43.4287 0.34375 42.3241V2.83691C0.34375 1.73234 1.23918 0.836914 2.34375 0.836914Z" fill="#F3A100"/>
<path d="M25.0488 0.836914V9.06708C25.0488 9.61936 25.4965 10.0671 26.0488 10.0671H34.279L25.0488 0.836914Z" fill="black" fill-opacity="0.16"/>
<path d="M9.41016 28.2595H7.51758L7.5293 26.6775H9.41016C9.80078 26.6775 10.1309 26.5837 10.4004 26.3962C10.6738 26.2087 10.8809 25.9294 11.0215 25.5583C11.166 25.1833 11.2383 24.7224 11.2383 24.1755V23.8064C11.2383 23.3962 11.1973 23.0369 11.1152 22.7283C11.0371 22.4158 10.9199 22.156 10.7637 21.949C10.6074 21.738 10.4121 21.5798 10.1777 21.4744C9.94727 21.3689 9.68164 21.3162 9.38086 21.3162H7.48242V19.7283H9.38086C9.95898 19.7283 10.4883 19.8279 10.9688 20.0271C11.4531 20.2224 11.8711 20.5037 12.2227 20.8708C12.5781 21.2341 12.8516 21.6658 13.043 22.1658C13.2383 22.6619 13.3359 23.2126 13.3359 23.8181V24.1755C13.3359 24.7771 13.2383 25.3279 13.043 25.8279C12.8516 26.3279 12.5801 26.7595 12.2285 27.1228C11.877 27.4861 11.4609 27.7673 10.9805 27.9666C10.5039 28.1619 9.98047 28.2595 9.41016 28.2595ZM8.69531 19.7283V28.2595H6.63867V19.7283H8.69531ZM16.0664 19.7283L17.4609 22.5642L18.8555 19.7283H21.1992L18.8203 23.9587L21.2637 28.2595H18.8965L17.4609 25.3708L16.0254 28.2595H13.6523L16.1016 23.9587L13.7168 19.7283H16.0664ZM24 19.7283V28.2595H21.9434V19.7283H24ZM27.3164 23.2791V24.8611H23.4141V23.2791H27.3164ZM27.6504 19.7283V21.3162H23.4141V19.7283H27.6504Z" fill="white"/>
</svg>
