<svg width="35" height="45" viewBox="0 0 35 45" fill="none" xmlns="http://www.w3.org/2000/svg">
<path d="M2.34375 0.830811H25.0541L34.2814 10.0727L34.485 42.3054C34.492 43.4148 33.5946 44.318 32.4851 44.318H2.34375C1.23918 44.318 0.34375 43.4226 0.34375 42.318V2.83081C0.34375 1.72624 1.23918 0.830811 2.34375 0.830811Z" fill="#F3A100"/>
<path d="M25.0488 0.830811V9.06097C25.0488 9.61326 25.4965 10.061 26.0488 10.061H34.279L25.0488 0.830811Z" fill="black" fill-opacity="0.16"/>
<path d="M8.85938 26.2437L10.6348 19.7222H12.9375L10.0605 28.2534H8.57227L8.85938 26.2437ZM7.24805 19.7222L9.02344 26.2437L9.32227 28.2534H7.81641L4.95703 19.7222H7.24805ZM20.7012 23.8179V24.1636C20.7012 24.8159 20.6094 25.4019 20.4258 25.9214C20.2461 26.437 19.9902 26.8784 19.6582 27.2456C19.3262 27.6089 18.9336 27.8882 18.4805 28.0835C18.0273 28.2749 17.5273 28.3706 16.9805 28.3706C16.4297 28.3706 15.9258 28.2749 15.4688 28.0835C15.0156 27.8882 14.6211 27.6089 14.2852 27.2456C13.9531 26.8784 13.6953 26.437 13.5117 25.9214C13.332 25.4019 13.2422 24.8159 13.2422 24.1636V23.8179C13.2422 23.1655 13.332 22.5796 13.5117 22.0601C13.6953 21.5405 13.9512 21.0991 14.2793 20.7358C14.6113 20.3687 15.0039 20.0894 15.457 19.8979C15.9141 19.7026 16.418 19.605 16.9688 19.605C17.5156 19.605 18.0156 19.7026 18.4688 19.8979C18.9258 20.0894 19.3203 20.3687 19.6523 20.7358C19.9844 21.0991 20.2422 21.5405 20.4258 22.0601C20.6094 22.5796 20.7012 23.1655 20.7012 23.8179ZM18.6152 24.1636V23.8062C18.6152 23.3843 18.5781 23.0132 18.5039 22.6929C18.4336 22.3687 18.3281 22.0972 18.1875 21.8784C18.0469 21.6597 17.873 21.4956 17.666 21.3862C17.4629 21.2729 17.2305 21.2163 16.9688 21.2163C16.6953 21.2163 16.457 21.2729 16.2539 21.3862C16.0508 21.4956 15.8809 21.6597 15.7441 21.8784C15.6074 22.0972 15.5039 22.3687 15.4336 22.6929C15.3672 23.0132 15.334 23.3843 15.334 23.8062V24.1636C15.334 24.5815 15.3672 24.9526 15.4336 25.2769C15.5039 25.5972 15.6074 25.8687 15.7441 26.0913C15.8848 26.314 16.0566 26.4819 16.2598 26.5952C16.4668 26.7085 16.707 26.7651 16.9805 26.7651C17.2422 26.7651 17.4746 26.7085 17.6777 26.5952C17.8809 26.4819 18.0508 26.314 18.1875 26.0913C18.3281 25.8687 18.4336 25.5972 18.5039 25.2769C18.5781 24.9526 18.6152 24.5815 18.6152 24.1636ZM25.248 24.6265H23.0508L23.0391 23.2788H24.8203C25.1406 23.2788 25.3965 23.2437 25.5879 23.1733C25.7793 23.0991 25.918 22.9917 26.0039 22.8511C26.0938 22.7104 26.1387 22.5347 26.1387 22.3237C26.1387 22.0815 26.0938 21.8862 26.0039 21.7378C25.9141 21.5894 25.7715 21.4819 25.5762 21.4155C25.3848 21.3452 25.1367 21.3101 24.832 21.3101H23.8242V28.2534H21.7676V19.7222H24.832C25.3594 19.7222 25.8301 19.771 26.2441 19.8687C26.6582 19.9624 27.0098 20.1069 27.2988 20.3022C27.5918 20.4976 27.8145 20.7437 27.9668 21.0405C28.1191 21.3335 28.1953 21.6792 28.1953 22.0776C28.1953 22.4253 28.1211 22.7515 27.9727 23.0562C27.8242 23.3608 27.5762 23.6089 27.2285 23.8003C26.8848 23.9878 26.4141 24.0854 25.8164 24.0933L25.248 24.6265ZM25.166 28.2534H22.5527L23.2559 26.6714H25.166C25.4473 26.6714 25.6719 26.6284 25.8398 26.5425C26.0117 26.4526 26.1348 26.3354 26.209 26.1909C26.2871 26.0425 26.3262 25.8784 26.3262 25.6987C26.3262 25.48 26.2891 25.2905 26.2148 25.1304C26.1445 24.9702 26.0312 24.8472 25.875 24.7612C25.7188 24.6714 25.5098 24.6265 25.248 24.6265H23.5195L23.5312 23.2788H25.5996L26.0801 23.8179C26.6504 23.7944 27.1016 23.8745 27.4336 24.0581C27.7695 24.2417 28.0098 24.4839 28.1543 24.7847C28.2988 25.0854 28.3711 25.3999 28.3711 25.728C28.3711 26.2866 28.25 26.7534 28.0078 27.1284C27.7695 27.5034 27.4121 27.7847 26.9355 27.9722C26.459 28.1597 25.8691 28.2534 25.166 28.2534Z" fill="white"/>
</svg>
