<svg width="35" height="44" viewBox="0 0 35 44" fill="none" xmlns="http://www.w3.org/2000/svg">
<path d="M2.65625 0.307739H25.3666L34.5939 9.54961L34.7975 41.7823C34.8045 42.8918 33.9071 43.7949 32.7976 43.7949H2.65625C1.55168 43.7949 0.65625 42.8995 0.65625 41.7949V2.30774C0.65625 1.20317 1.55168 0.307739 2.65625 0.307739Z" fill="#0EC5A4"/>
<path d="M25.3613 0.307739V8.5379C25.3613 9.09019 25.809 9.5379 26.3613 9.5379H34.5915L25.3613 0.307739Z" fill="black" fill-opacity="0.16"/>
<path d="M15.5938 20.9923L13.5137 27.7306H11.3047L14.4395 19.1993H15.8398L15.5938 20.9923ZM17.3164 27.7306L15.2305 20.9923L14.9609 19.1993H16.3789L19.5312 27.7306H17.3164ZM17.2344 24.549V26.1368H12.8574V24.549H17.2344ZM22.3438 19.1993V27.7306H20.293V19.1993H22.3438Z" fill="white"/>
</svg>
