<svg width="35" height="45" viewBox="0 0 35 45" fill="none" xmlns="http://www.w3.org/2000/svg">
<path d="M2.5 0.830811H25.2103L34.4376 10.0727L34.6413 42.3054C34.6483 43.4148 33.7508 44.318 32.6413 44.318H2.5C1.39543 44.318 0.5 43.4226 0.5 42.318V2.83081C0.5 1.72624 1.39543 0.830811 2.5 0.830811Z" fill="#F3A100"/>
<path d="M25.2051 0.830811V9.06097C25.2051 9.61326 25.6528 10.061 26.2051 10.061H34.4352L25.2051 0.830811Z" fill="black" fill-opacity="0.16"/>
<path d="M6.7832 27.48L8.48242 19.7222H9.49609L10.0469 20.3843L8.23633 28.2534H7.11719L6.7832 27.48ZM6.33203 19.7222L7.76758 27.5386L7.39844 28.2534H6.10352L4.29297 19.7222H6.33203ZM10.9785 27.4976L12.4023 19.7222H14.4355L12.625 28.2534H11.3359L10.9785 27.4976ZM10.2285 19.7222L11.9688 27.5269L11.6172 28.2534H10.498L8.64648 20.3726L9.2207 19.7222H10.2285ZM18.6016 21.5151L16.5215 28.2534H14.3125L17.4473 19.7222H18.8477L18.6016 21.5151ZM20.3242 28.2534L18.2383 21.5151L17.9688 19.7222H19.3867L22.5391 28.2534H20.3242ZM20.2422 25.0718V26.6597H15.8652V25.0718H20.2422ZM25.9375 26.2437L27.7129 19.7222H30.0156L27.1387 28.2534H25.6504L25.9375 26.2437ZM24.3262 19.7222L26.1016 26.2437L26.4004 28.2534H24.8945L22.0352 19.7222H24.3262Z" fill="white"/>
</svg>
