<svg width="35" height="44" viewBox="0 0 35 44" fill="none" xmlns="http://www.w3.org/2000/svg">
<path d="M2.8125 0.210938H25.5228L34.7501 9.45281L34.9538 41.6855C34.9608 42.795 34.0633 43.6981 32.9538 43.6981H2.8125C1.70793 43.6981 0.8125 42.8027 0.8125 41.6981V2.21094C0.8125 1.10637 1.70793 0.210938 2.8125 0.210938Z" fill="#F3A100"/>
<path d="M25.5176 0.210938V8.4411C25.5176 8.99338 25.9653 9.4411 26.5176 9.4411H34.7477L25.5176 0.210938Z" fill="black" fill-opacity="0.16"/>
<path d="M6.50391 19.1025V27.6338H4.45312V19.1025H6.50391ZM12.8027 24.7451H14.8535C14.8262 25.3389 14.666 25.8623 14.373 26.3154C14.0801 26.7686 13.6738 27.1221 13.1543 27.376C12.6387 27.626 12.0293 27.751 11.3262 27.751C10.7559 27.751 10.2461 27.6553 9.79688 27.4639C9.35156 27.2725 8.97266 26.9971 8.66016 26.6377C8.35156 26.2783 8.11523 25.8428 7.95117 25.3311C7.79102 24.8193 7.71094 24.2432 7.71094 23.6025V23.1396C7.71094 22.499 7.79492 21.9229 7.96289 21.4111C8.13477 20.8955 8.37695 20.458 8.68945 20.0986C9.00586 19.7354 9.38477 19.458 9.82617 19.2666C10.2676 19.0752 10.7578 18.9795 11.2969 18.9795C12.0391 18.9795 12.666 19.1123 13.1777 19.3779C13.6895 19.6436 14.0859 20.0088 14.3672 20.4736C14.6484 20.9346 14.8145 21.46 14.8652 22.0498H12.8145C12.8066 21.7295 12.752 21.4619 12.6504 21.2471C12.5488 21.0283 12.3887 20.8643 12.1699 20.7549C11.9512 20.6455 11.6602 20.5908 11.2969 20.5908C11.043 20.5908 10.8223 20.6377 10.6348 20.7314C10.4473 20.8252 10.291 20.9736 10.166 21.1768C10.041 21.3799 9.94727 21.6436 9.88477 21.9678C9.82617 22.2881 9.79688 22.6748 9.79688 23.1279V23.6025C9.79688 24.0557 9.82422 24.4424 9.87891 24.7627C9.93359 25.083 10.0215 25.3447 10.1426 25.5479C10.2637 25.751 10.4199 25.9014 10.6113 25.999C10.8066 26.0928 11.0449 26.1396 11.3262 26.1396C11.6387 26.1396 11.9023 26.0908 12.1172 25.9932C12.332 25.8916 12.498 25.7393 12.6152 25.5361C12.7324 25.3291 12.7949 25.0654 12.8027 24.7451ZM22.9512 19.1025V27.6338H20.9004L17.8828 22.3252V27.6338H15.8262V19.1025H17.8828L20.9004 24.4111V19.1025H22.9512ZM28.6465 25.3662C28.6465 25.2334 28.627 25.1143 28.5879 25.0088C28.5488 24.8994 28.4766 24.7979 28.3711 24.7041C28.2656 24.6104 28.1133 24.5166 27.9141 24.4229C27.7188 24.3252 27.4609 24.2236 27.1406 24.1182C26.7656 23.9932 26.4043 23.8525 26.0566 23.6963C25.709 23.5361 25.3984 23.3506 25.125 23.1396C24.8516 22.9248 24.6348 22.6748 24.4746 22.3896C24.3145 22.1006 24.2344 21.7646 24.2344 21.3818C24.2344 21.0146 24.3164 20.6846 24.4805 20.3916C24.6445 20.0947 24.873 19.8428 25.166 19.6357C25.4629 19.4248 25.8105 19.2646 26.209 19.1553C26.6074 19.042 27.043 18.9854 27.5156 18.9854C28.1406 18.9854 28.6914 19.0947 29.168 19.3135C29.6484 19.5283 30.0234 19.835 30.293 20.2334C30.5664 20.6279 30.7031 21.0947 30.7031 21.6338H28.6582C28.6582 21.4189 28.6133 21.2295 28.5234 21.0654C28.4375 20.9014 28.3066 20.7725 28.1309 20.6787C27.9551 20.585 27.7344 20.5381 27.4688 20.5381C27.2109 20.5381 26.9941 20.5771 26.8184 20.6553C26.6426 20.7334 26.5098 20.8389 26.4199 20.9717C26.3301 21.1006 26.2852 21.2432 26.2852 21.3994C26.2852 21.5283 26.3203 21.6455 26.3906 21.751C26.4648 21.8525 26.5684 21.9482 26.7012 22.0381C26.8379 22.1279 27.002 22.2139 27.1934 22.2959C27.3887 22.3779 27.6074 22.458 27.8496 22.5361C28.3027 22.6807 28.7051 22.8428 29.0566 23.0225C29.4121 23.1982 29.7109 23.3994 29.9531 23.626C30.1992 23.8486 30.3848 24.1025 30.5098 24.3877C30.6387 24.6729 30.7031 24.9951 30.7031 25.3545C30.7031 25.7373 30.6289 26.0771 30.4805 26.374C30.332 26.6709 30.1191 26.9229 29.8418 27.1299C29.5645 27.333 29.2324 27.4873 28.8457 27.5928C28.459 27.6982 28.0273 27.751 27.5508 27.751C27.1133 27.751 26.6816 27.6963 26.2559 27.5869C25.834 27.4736 25.4512 27.3018 25.1074 27.0713C24.7637 26.8369 24.4883 26.5381 24.2812 26.1748C24.0781 25.8076 23.9766 25.3721 23.9766 24.8682H26.0391C26.0391 25.1182 26.0723 25.3291 26.1387 25.501C26.2051 25.6729 26.3027 25.8115 26.4316 25.917C26.5605 26.0186 26.7188 26.0928 26.9062 26.1396C27.0938 26.1826 27.3086 26.2041 27.5508 26.2041C27.8125 26.2041 28.0234 26.167 28.1836 26.0928C28.3438 26.0146 28.4609 25.9131 28.5352 25.7881C28.6094 25.6592 28.6465 25.5186 28.6465 25.3662Z" fill="white"/>
</svg>
