<svg width="35" height="45" viewBox="0 0 35 45" fill="none" xmlns="http://www.w3.org/2000/svg">
<path d="M2.03125 0.649658H24.7416L33.9689 9.89153L34.1725 42.1242C34.1795 43.2337 33.2821 44.1368 32.1726 44.1368H2.03125C0.926681 44.1368 0.03125 43.2414 0.03125 42.1368V2.64966C0.03125 1.54509 0.926681 0.649658 2.03125 0.649658Z" fill="#F3A100"/>
<path d="M24.7363 0.649658V8.87982C24.7363 9.4321 25.184 9.87982 25.7363 9.87982H33.9665L24.7363 0.649658Z" fill="black" fill-opacity="0.16"/>
<path d="M10.1426 28.0725H8.25L8.26172 26.4905H10.1426C10.5332 26.4905 10.8633 26.3967 11.1328 26.2092C11.4062 26.0217 11.6133 25.7424 11.7539 25.3713C11.8984 24.9963 11.9707 24.5354 11.9707 23.9885V23.6194C11.9707 23.2092 11.9297 22.8499 11.8477 22.5413C11.7695 22.2288 11.6523 21.969 11.4961 21.762C11.3398 21.551 11.1445 21.3928 10.9102 21.2874C10.6797 21.1819 10.4141 21.1292 10.1133 21.1292H8.21484V19.5413H10.1133C10.6914 19.5413 11.2207 19.6409 11.7012 19.8401C12.1855 20.0354 12.6035 20.3167 12.9551 20.6838C13.3105 21.0471 13.584 21.4788 13.7754 21.9788C13.9707 22.4749 14.0684 23.0256 14.0684 23.6311V23.9885C14.0684 24.5901 13.9707 25.1409 13.7754 25.6409C13.584 26.1409 13.3125 26.5725 12.9609 26.9358C12.6094 27.2991 12.1934 27.5803 11.7129 27.7795C11.2363 27.9749 10.7129 28.0725 10.1426 28.0725ZM9.42773 19.5413V28.0725H7.37109V19.5413H9.42773ZM20.7773 26.4905V28.0725H16.4648V26.4905H20.7773ZM17.1973 19.5413V28.0725H15.1406V19.5413H17.1973ZM27.2812 26.4905V28.0725H22.9688V26.4905H27.2812ZM23.7012 19.5413V28.0725H21.6445V19.5413H23.7012Z" fill="white"/>
</svg>
