<svg width="35" height="44" viewBox="0 0 35 44" fill="none" xmlns="http://www.w3.org/2000/svg">
<path d="M2.5 0.210938H25.2103L34.4376 9.45281L34.6413 41.6855C34.6483 42.795 33.7508 43.6981 32.6413 43.6981H2.5C1.39543 43.6981 0.5 42.8027 0.5 41.6981V2.21094C0.5 1.10637 1.39543 0.210938 2.5 0.210938Z" fill="#F3A100"/>
<path d="M25.2051 0.210938V8.4411C25.2051 8.99338 25.6528 9.4411 26.2051 9.4411H34.4352L25.2051 0.210938Z" fill="black" fill-opacity="0.16"/>
<path d="M11.7305 23.0752V26.5791C11.5859 26.7393 11.3633 26.9111 11.0625 27.0947C10.7656 27.2744 10.3906 27.4287 9.9375 27.5576C9.48438 27.6865 8.95117 27.751 8.33789 27.751C7.77148 27.751 7.25781 27.6611 6.79688 27.4814C6.33594 27.2979 5.93945 27.0303 5.60742 26.6787C5.2793 26.3232 5.02539 25.8896 4.8457 25.3779C4.66992 24.8623 4.58203 24.2725 4.58203 23.6084V23.1338C4.58203 22.4697 4.67188 21.8799 4.85156 21.3643C5.03125 20.8486 5.2832 20.415 5.60742 20.0635C5.93555 19.708 6.32031 19.4385 6.76172 19.2549C7.20703 19.0713 7.69531 18.9795 8.22656 18.9795C9.01172 18.9795 9.65039 19.1045 10.1426 19.3545C10.6348 19.6006 11.0078 19.9424 11.2617 20.3799C11.5156 20.8135 11.6699 21.3154 11.7246 21.8857H9.75C9.71094 21.6045 9.63672 21.3662 9.52734 21.1709C9.42188 20.9717 9.26953 20.8213 9.07031 20.7197C8.87109 20.6143 8.61328 20.5615 8.29688 20.5615C8.05078 20.5615 7.82617 20.6143 7.62305 20.7197C7.42383 20.8252 7.25391 20.9854 7.11328 21.2002C6.97266 21.4111 6.86328 21.6768 6.78516 21.9971C6.71094 22.3174 6.67383 22.6924 6.67383 23.1221V23.6084C6.67383 24.0342 6.70898 24.4072 6.7793 24.7275C6.85352 25.0479 6.96289 25.3154 7.10742 25.5303C7.25586 25.7412 7.44336 25.9014 7.66992 26.0107C7.90039 26.1162 8.17188 26.1689 8.48438 26.1689C8.70312 26.1689 8.89062 26.1514 9.04688 26.1162C9.20312 26.0771 9.33203 26.0303 9.43359 25.9756C9.53906 25.917 9.61914 25.8623 9.67383 25.8115V24.4873H8.24414V23.0752H11.7305ZM19.3184 26.0518V27.6338H13.1426V26.0518H19.3184ZM19.2773 20.1572L14.1621 27.6338H12.6738V26.5498L17.8477 19.1025H19.2773V20.1572ZM18.6152 19.1025V20.6904H12.6445V19.1025H18.6152ZM22.4414 19.1025V27.6338H20.3906V19.1025H22.4414ZM27.293 24.7393H25.1719V23.1514H27.293C27.582 23.1514 27.8164 23.1025 27.9961 23.0049C28.1758 22.9072 28.3066 22.7725 28.3887 22.6006C28.4746 22.4248 28.5176 22.2275 28.5176 22.0088C28.5176 21.7744 28.4746 21.5576 28.3887 21.3584C28.3066 21.1592 28.1758 20.999 27.9961 20.8779C27.8164 20.7529 27.582 20.6904 27.293 20.6904H25.9453V27.6338H23.8887V19.1025H27.293C27.9766 19.1025 28.5645 19.2275 29.0566 19.4775C29.5527 19.7275 29.9336 20.0713 30.1992 20.5088C30.4648 20.9424 30.5977 21.4385 30.5977 21.9971C30.5977 22.5479 30.4648 23.0283 30.1992 23.4385C29.9336 23.8486 29.5527 24.1689 29.0566 24.3994C28.5645 24.626 27.9766 24.7393 27.293 24.7393Z" fill="white"/>
</svg>
