<svg width="35" height="44" viewBox="0 0 35 44" fill="none" xmlns="http://www.w3.org/2000/svg">
<path d="M2.1875 0.146973H24.8978L34.1251 9.38885L34.3288 41.6215C34.3358 42.731 33.4383 43.6342 32.3288 43.6342H2.1875C1.08293 43.6342 0.1875 42.7387 0.1875 41.6342V2.14697C0.1875 1.0424 1.08293 0.146973 2.1875 0.146973Z" fill="#0EC5A4"/>
<path d="M24.8926 0.146973V8.37713C24.8926 8.92942 25.3403 9.37713 25.8926 9.37713H34.1227L24.8926 0.146973Z" fill="black" fill-opacity="0.16"/>
<path d="M5.82812 19.0383H7.50391L9.4082 24.9739L11.3125 19.0383H12.9883L10.0879 27.5696H8.72852L5.82812 19.0383ZM4.80859 19.0383H6.54297L6.86523 25.5774V27.5696H4.80859V19.0383ZM12.2734 19.0383H14.0137V27.5696H11.9512V25.5774L12.2734 19.0383ZM19.7266 25.302C19.7266 25.1692 19.707 25.05 19.668 24.9446C19.6289 24.8352 19.5566 24.7336 19.4512 24.6399C19.3457 24.5461 19.1934 24.4524 18.9941 24.3586C18.7988 24.261 18.541 24.1594 18.2207 24.054C17.8457 23.929 17.4844 23.7883 17.1367 23.6321C16.7891 23.4719 16.4785 23.2864 16.2051 23.0754C15.9316 22.8606 15.7148 22.6106 15.5547 22.3254C15.3945 22.0364 15.3145 21.7004 15.3145 21.3176C15.3145 20.9504 15.3965 20.6204 15.5605 20.3274C15.7246 20.0305 15.9531 19.7786 16.2461 19.5715C16.543 19.3606 16.8906 19.2004 17.2891 19.0911C17.6875 18.9778 18.123 18.9211 18.5957 18.9211C19.2207 18.9211 19.7715 19.0305 20.248 19.2493C20.7285 19.4641 21.1035 19.7708 21.373 20.1692C21.6465 20.5637 21.7832 21.0305 21.7832 21.5696H19.7383C19.7383 21.3547 19.6934 21.1653 19.6035 21.0012C19.5176 20.8372 19.3867 20.7083 19.2109 20.6145C19.0352 20.5208 18.8145 20.4739 18.5488 20.4739C18.291 20.4739 18.0742 20.5129 17.8984 20.5911C17.7227 20.6692 17.5898 20.7747 17.5 20.9075C17.4102 21.0364 17.3652 21.179 17.3652 21.3352C17.3652 21.4641 17.4004 21.5813 17.4707 21.6868C17.5449 21.7883 17.6484 21.884 17.7812 21.9739C17.918 22.0637 18.082 22.1497 18.2734 22.2317C18.4688 22.3137 18.6875 22.3938 18.9297 22.4719C19.3828 22.6165 19.7852 22.7786 20.1367 22.9583C20.4922 23.134 20.791 23.3352 21.0332 23.5618C21.2793 23.7844 21.4648 24.0383 21.5898 24.3235C21.7188 24.6086 21.7832 24.9309 21.7832 25.2903C21.7832 25.6731 21.709 26.0129 21.5605 26.3098C21.4121 26.6067 21.1992 26.8586 20.9219 27.0657C20.6445 27.2688 20.3125 27.4231 19.9258 27.5286C19.5391 27.634 19.1074 27.6868 18.6309 27.6868C18.1934 27.6868 17.7617 27.6321 17.3359 27.5227C16.9141 27.4094 16.5312 27.2375 16.1875 27.0071C15.8438 26.7727 15.5684 26.4739 15.3613 26.1106C15.1582 25.7434 15.0566 25.3079 15.0566 24.804H17.1191C17.1191 25.054 17.1523 25.2649 17.2188 25.4368C17.2852 25.6086 17.3828 25.7473 17.5117 25.8528C17.6406 25.9543 17.7988 26.0286 17.9863 26.0754C18.1738 26.1184 18.3887 26.1399 18.6309 26.1399C18.8926 26.1399 19.1035 26.1028 19.2637 26.0286C19.4238 25.9504 19.541 25.8489 19.6152 25.7239C19.6895 25.595 19.7266 25.4543 19.7266 25.302ZM29.8223 23.011V26.5149C29.6777 26.675 29.4551 26.8469 29.1543 27.0305C28.8574 27.2102 28.4824 27.3645 28.0293 27.4934C27.5762 27.6223 27.043 27.6868 26.4297 27.6868C25.8633 27.6868 25.3496 27.5969 24.8887 27.4172C24.4277 27.2336 24.0312 26.9661 23.6992 26.6145C23.3711 26.259 23.1172 25.8254 22.9375 25.3137C22.7617 24.7981 22.6738 24.2083 22.6738 23.5442V23.0696C22.6738 22.4055 22.7637 21.8157 22.9434 21.3C23.123 20.7844 23.375 20.3508 23.6992 19.9993C24.0273 19.6438 24.4121 19.3743 24.8535 19.1907C25.2988 19.0071 25.7871 18.9153 26.3184 18.9153C27.1035 18.9153 27.7422 19.0403 28.2344 19.2903C28.7266 19.5364 29.0996 19.8782 29.3535 20.3157C29.6074 20.7493 29.7617 21.2512 29.8164 21.8215H27.8418C27.8027 21.5403 27.7285 21.302 27.6191 21.1067C27.5137 20.9075 27.3613 20.7571 27.1621 20.6555C26.9629 20.55 26.7051 20.4973 26.3887 20.4973C26.1426 20.4973 25.918 20.55 25.7148 20.6555C25.5156 20.761 25.3457 20.9211 25.2051 21.136C25.0645 21.3469 24.9551 21.6125 24.877 21.9329C24.8027 22.2532 24.7656 22.6282 24.7656 23.0579V23.5442C24.7656 23.97 24.8008 24.343 24.8711 24.6633C24.9453 24.9836 25.0547 25.2512 25.1992 25.4661C25.3477 25.677 25.5352 25.8372 25.7617 25.9465C25.9922 26.052 26.2637 26.1047 26.5762 26.1047C26.7949 26.1047 26.9824 26.0872 27.1387 26.052C27.2949 26.0129 27.4238 25.9661 27.5254 25.9114C27.6309 25.8528 27.7109 25.7981 27.7656 25.7473V24.4231H26.3359V23.011H29.8223Z" fill="white"/>
</svg>
