<svg width="35" height="45" viewBox="0 0 35 45" fill="none" xmlns="http://www.w3.org/2000/svg">
<path d="M2.5 0.708252H25.2103L34.4376 9.95013L34.6413 42.1828C34.6483 43.2923 33.7508 44.1954 32.6413 44.1954H2.5C1.39543 44.1954 0.5 43.3 0.5 42.1954V2.70825C0.5 1.60368 1.39543 0.708252 2.5 0.708252Z" fill="#0EC5A4"/>
<path d="M25.2051 0.708252V8.93841C25.2051 9.4907 25.6528 9.93841 26.2051 9.93841H34.4352L25.2051 0.708252Z" fill="black" fill-opacity="0.16"/>
<path d="M9.56055 25.2366H7.43945V23.6487H9.56055C9.84961 23.6487 10.084 23.5999 10.2637 23.5022C10.4434 23.4045 10.5742 23.2698 10.6562 23.0979C10.7422 22.9221 10.7852 22.7249 10.7852 22.5061C10.7852 22.2717 10.7422 22.0549 10.6562 21.8557C10.5742 21.6565 10.4434 21.4963 10.2637 21.3752C10.084 21.2502 9.84961 21.1877 9.56055 21.1877H8.21289V28.1311H6.15625V19.5999H9.56055C10.2441 19.5999 10.832 19.7249 11.3242 19.9749C11.8203 20.2249 12.2012 20.5686 12.4668 21.0061C12.7324 21.4397 12.8652 21.9358 12.8652 22.4944C12.8652 23.0452 12.7324 23.5256 12.4668 23.9358C12.2012 24.3459 11.8203 24.6663 11.3242 24.8967C10.832 25.1233 10.2441 25.2366 9.56055 25.2366ZM17.377 25.2366H15.2559V23.6487H17.377C17.666 23.6487 17.9004 23.5999 18.0801 23.5022C18.2598 23.4045 18.3906 23.2698 18.4727 23.0979C18.5586 22.9221 18.6016 22.7249 18.6016 22.5061C18.6016 22.2717 18.5586 22.0549 18.4727 21.8557C18.3906 21.6565 18.2598 21.4963 18.0801 21.3752C17.9004 21.2502 17.666 21.1877 17.377 21.1877H16.0293V28.1311H13.9727V19.5999H17.377C18.0605 19.5999 18.6484 19.7249 19.1406 19.9749C19.6367 20.2249 20.0176 20.5686 20.2832 21.0061C20.5488 21.4397 20.6816 21.9358 20.6816 22.4944C20.6816 23.0452 20.5488 23.5256 20.2832 23.9358C20.0176 24.3459 19.6367 24.6663 19.1406 24.8967C18.6484 25.1233 18.0605 25.2366 17.377 25.2366ZM26.1836 25.8635C26.1836 25.7307 26.1641 25.6116 26.125 25.5061C26.0859 25.3967 26.0137 25.2952 25.9082 25.2014C25.8027 25.1077 25.6504 25.0139 25.4512 24.9202C25.2559 24.8225 24.998 24.7209 24.6777 24.6155C24.3027 24.4905 23.9414 24.3499 23.5938 24.1936C23.2461 24.0334 22.9355 23.8479 22.6621 23.637C22.3887 23.4221 22.1719 23.1721 22.0117 22.887C21.8516 22.5979 21.7715 22.262 21.7715 21.8792C21.7715 21.512 21.8535 21.1819 22.0176 20.8889C22.1816 20.592 22.4102 20.3401 22.7031 20.1331C23 19.9221 23.3477 19.762 23.7461 19.6526C24.1445 19.5393 24.5801 19.4827 25.0527 19.4827C25.6777 19.4827 26.2285 19.592 26.7051 19.8108C27.1855 20.0256 27.5605 20.3323 27.8301 20.7307C28.1035 21.1252 28.2402 21.592 28.2402 22.1311H26.1953C26.1953 21.9163 26.1504 21.7268 26.0605 21.5627C25.9746 21.3987 25.8438 21.2698 25.668 21.176C25.4922 21.0823 25.2715 21.0354 25.0059 21.0354C24.748 21.0354 24.5312 21.0745 24.3555 21.1526C24.1797 21.2307 24.0469 21.3362 23.957 21.469C23.8672 21.5979 23.8223 21.7405 23.8223 21.8967C23.8223 22.0256 23.8574 22.1428 23.9277 22.2483C24.002 22.3499 24.1055 22.4456 24.2383 22.5354C24.375 22.6252 24.5391 22.7112 24.7305 22.7932C24.9258 22.8752 25.1445 22.9553 25.3867 23.0334C25.8398 23.178 26.2422 23.3401 26.5938 23.5198C26.9492 23.6956 27.248 23.8967 27.4902 24.1233C27.7363 24.3459 27.9219 24.5999 28.0469 24.885C28.1758 25.1702 28.2402 25.4924 28.2402 25.8518C28.2402 26.2346 28.166 26.5745 28.0176 26.8713C27.8691 27.1682 27.6562 27.4202 27.3789 27.6272C27.1016 27.8303 26.7695 27.9846 26.3828 28.0901C25.9961 28.1956 25.5645 28.2483 25.0879 28.2483C24.6504 28.2483 24.2188 28.1936 23.793 28.0842C23.3711 27.9709 22.9883 27.7991 22.6445 27.5686C22.3008 27.3342 22.0254 27.0354 21.8184 26.6721C21.6152 26.3049 21.5137 25.8694 21.5137 25.3655H23.5762C23.5762 25.6155 23.6094 25.8264 23.6758 25.9983C23.7422 26.1702 23.8398 26.3088 23.9688 26.4143C24.0977 26.5159 24.2559 26.5901 24.4434 26.637C24.6309 26.6799 24.8457 26.7014 25.0879 26.7014C25.3496 26.7014 25.5605 26.6643 25.7207 26.5901C25.8809 26.512 25.998 26.4104 26.0723 26.2854C26.1465 26.1565 26.1836 26.0159 26.1836 25.8635Z" fill="white"/>
</svg>
