<svg width="35" height="44" viewBox="0 0 35 44" fill="none" xmlns="http://www.w3.org/2000/svg">
<path d="M2.8125 0.456543H25.5228L34.7501 9.69842L34.9538 41.9311C34.9608 43.0406 34.0633 43.9437 32.9538 43.9437H2.8125C1.70793 43.9437 0.8125 43.0483 0.8125 41.9437V2.45654C0.8125 1.35197 1.70793 0.456543 2.8125 0.456543Z" fill="#06437C"/>
<path d="M25.5176 0.456543V8.6867C25.5176 9.23899 25.9653 9.6867 26.5176 9.6867H34.7477L25.5176 0.456543Z" fill="black" fill-opacity="0.16"/>
<path d="M10.2891 19.3481V27.8794H8.23242V19.3481H10.2891ZM12.8555 19.3481V20.936H5.72461V19.3481H12.8555ZM20.543 23.3208V26.8247C20.3984 26.9849 20.1758 27.1567 19.875 27.3403C19.5781 27.52 19.2031 27.6743 18.75 27.8032C18.2969 27.9321 17.7637 27.9966 17.1504 27.9966C16.584 27.9966 16.0703 27.9067 15.6094 27.7271C15.1484 27.5435 14.752 27.2759 14.4199 26.9243C14.0918 26.5688 13.8379 26.1353 13.6582 25.6235C13.4824 25.1079 13.3945 24.5181 13.3945 23.854V23.3794C13.3945 22.7153 13.4844 22.1255 13.6641 21.6099C13.8438 21.0942 14.0957 20.6606 14.4199 20.3091C14.748 19.9536 15.1328 19.6841 15.5742 19.5005C16.0195 19.3169 16.5078 19.2251 17.0391 19.2251C17.8242 19.2251 18.4629 19.3501 18.9551 19.6001C19.4473 19.8462 19.8203 20.188 20.0742 20.6255C20.3281 21.0591 20.4824 21.561 20.5371 22.1313H18.5625C18.5234 21.8501 18.4492 21.6118 18.3398 21.4165C18.2344 21.2173 18.082 21.0669 17.8828 20.9653C17.6836 20.8599 17.4258 20.8071 17.1094 20.8071C16.8633 20.8071 16.6387 20.8599 16.4355 20.9653C16.2363 21.0708 16.0664 21.231 15.9258 21.4458C15.7852 21.6567 15.6758 21.9224 15.5977 22.2427C15.5234 22.563 15.4863 22.938 15.4863 23.3677V23.854C15.4863 24.2798 15.5215 24.6528 15.5918 24.9731C15.666 25.2935 15.7754 25.561 15.9199 25.7759C16.0684 25.9868 16.2559 26.147 16.4824 26.2563C16.7129 26.3618 16.9844 26.4146 17.2969 26.4146C17.5156 26.4146 17.7031 26.397 17.8594 26.3618C18.0156 26.3228 18.1445 26.2759 18.2461 26.2212C18.3516 26.1626 18.4316 26.1079 18.4863 26.0571V24.7329H17.0566V23.3208H20.543ZM25.3594 21.1411L23.2793 27.8794H21.0703L24.2051 19.3481H25.6055L25.3594 21.1411ZM27.082 27.8794L24.9961 21.1411L24.7266 19.3481H26.1445L29.2969 27.8794H27.082ZM27 24.6978V26.2856H22.623V24.6978H27Z" fill="white"/>
</svg>
