<svg width="17" height="15" viewBox="0 0 17 15" fill="none" xmlns="http://www.w3.org/2000/svg">
<path d="M7.27497 1.69137L1.19247 11.8456C1.06706 12.0628 1.00071 12.309 1.00001 12.5598C0.999303 12.8106 1.06428 13.0572 1.18847 13.2751C1.31266 13.4929 1.49173 13.6745 1.70787 13.8017C1.92402 13.9289 2.16969 13.9972 2.42046 14H14.5855C14.8362 13.9972 15.0819 13.9289 15.2981 13.8017C15.5142 13.6745 15.6933 13.4929 15.8175 13.2751C15.9416 13.0572 16.0066 12.8106 16.0059 12.5598C16.0052 12.309 15.9389 12.0628 15.8135 11.8456L9.73095 1.69137C9.60293 1.48032 9.42268 1.30582 9.20758 1.18472C8.99249 1.06362 8.74981 1 8.50296 1C8.25612 1 8.01344 1.06362 7.79835 1.18472C7.58325 1.30582 7.40299 1.48032 7.27497 1.69137V1.69137Z" stroke="#06437C" stroke-width="1.5" stroke-linecap="round" stroke-linejoin="round"/>
<path d="M8.50391 5.38232V8.25482" stroke="#06437C" stroke-width="1.5" stroke-linecap="round" stroke-linejoin="round"/>
<path d="M8.50391 11.1274H8.51274" stroke="#06437C" stroke-width="1.5" stroke-linecap="round" stroke-linejoin="round"/>
</svg>
