<svg width="35" height="44" viewBox="0 0 35 44" fill="none" xmlns="http://www.w3.org/2000/svg">
<path d="M2.03125 0.307739H24.7416L33.9689 9.54961L34.1725 41.7823C34.1795 42.8918 33.2821 43.7949 32.1726 43.7949H2.03125C0.926681 43.7949 0.03125 42.8995 0.03125 41.7949V2.30774C0.03125 1.20317 0.926681 0.307739 2.03125 0.307739Z" fill="#0EC5A4"/>
<path d="M24.7363 0.307739V8.5379C24.7363 9.09019 25.184 9.5379 25.7363 9.5379H33.9665L24.7363 0.307739Z" fill="black" fill-opacity="0.16"/>
<path d="M8.31445 22.6388H9.27539C9.52148 22.6388 9.72266 22.5958 9.87891 22.5099C10.0391 22.42 10.1582 22.295 10.2363 22.1349C10.3145 21.9708 10.3535 21.7775 10.3535 21.5548C10.3535 21.3829 10.3164 21.2247 10.2422 21.0802C10.1719 20.9357 10.0625 20.8204 9.91406 20.7345C9.76562 20.6447 9.57617 20.5997 9.3457 20.5997C9.18945 20.5997 9.03711 20.6329 8.88867 20.6993C8.74023 20.7618 8.61719 20.8517 8.51953 20.9689C8.42578 21.0861 8.37891 21.2286 8.37891 21.3966H6.39844C6.39844 20.9122 6.53125 20.4982 6.79688 20.1544C7.06641 19.8068 7.41992 19.5411 7.85742 19.3575C8.29883 19.17 8.77344 19.0763 9.28125 19.0763C9.88672 19.0763 10.418 19.17 10.875 19.3575C11.332 19.5411 11.6875 19.8146 11.9414 20.1779C12.1992 20.5372 12.3281 20.9825 12.3281 21.5138C12.3281 21.8068 12.2598 22.0822 12.123 22.34C11.9863 22.5978 11.7949 22.8243 11.5488 23.0197C11.3027 23.215 11.0137 23.3693 10.6816 23.4825C10.3535 23.5919 9.99414 23.6466 9.60352 23.6466H8.31445V22.6388ZM8.31445 24.1095V23.1251H9.60352C10.0293 23.1251 10.418 23.174 10.7695 23.2716C11.1211 23.3654 11.4238 23.506 11.6777 23.6935C11.9316 23.881 12.127 24.1134 12.2637 24.3907C12.4004 24.6642 12.4688 24.9786 12.4688 25.3341C12.4688 25.7325 12.3887 26.088 12.2285 26.4005C12.0684 26.713 11.8438 26.9767 11.5547 27.1915C11.2656 27.4064 10.9277 27.5704 10.541 27.6837C10.1543 27.7931 9.73438 27.8478 9.28125 27.8478C8.92578 27.8478 8.57031 27.8009 8.21484 27.7072C7.85938 27.6095 7.53516 27.4611 7.24219 27.2618C6.94922 27.0587 6.71289 26.8009 6.5332 26.4884C6.35742 26.172 6.26953 25.795 6.26953 25.3575H8.25C8.25 25.5372 8.29883 25.7013 8.39648 25.8497C8.49805 25.9943 8.63281 26.1095 8.80078 26.1954C8.96875 26.2814 9.15039 26.3243 9.3457 26.3243C9.58789 26.3243 9.79297 26.2794 9.96094 26.1896C10.1328 26.0958 10.2637 25.9708 10.3535 25.8146C10.4434 25.6583 10.4883 25.4845 10.4883 25.2931C10.4883 25.004 10.4395 24.7736 10.3418 24.6017C10.248 24.4298 10.1094 24.3048 9.92578 24.2267C9.74609 24.1486 9.5293 24.1095 9.27539 24.1095H8.31445ZM16.3711 27.7306H14.4785L14.4902 26.1486H16.3711C16.7617 26.1486 17.0918 26.0548 17.3613 25.8673C17.6348 25.6798 17.8418 25.4005 17.9824 25.0294C18.127 24.6544 18.1992 24.1935 18.1992 23.6466V23.2775C18.1992 22.8673 18.1582 22.5079 18.0762 22.1993C17.998 21.8868 17.8809 21.6271 17.7246 21.42C17.5684 21.2091 17.373 21.0509 17.1387 20.9454C16.9082 20.84 16.6426 20.7872 16.3418 20.7872H14.4434V19.1993H16.3418C16.9199 19.1993 17.4492 19.299 17.9297 19.4982C18.4141 19.6935 18.832 19.9747 19.1836 20.3419C19.5391 20.7052 19.8125 21.1368 20.0039 21.6368C20.1992 22.1329 20.2969 22.6837 20.2969 23.2892V23.6466C20.2969 24.2482 20.1992 24.799 20.0039 25.299C19.8125 25.799 19.541 26.2306 19.1895 26.5939C18.8379 26.9572 18.4219 27.2384 17.9414 27.4376C17.4648 27.6329 16.9414 27.7306 16.3711 27.7306ZM15.6562 19.1993V27.7306H13.5996V19.1993H15.6562ZM25.7637 25.463C25.7637 25.3302 25.7441 25.2111 25.7051 25.1056C25.666 24.9962 25.5938 24.8947 25.4883 24.8009C25.3828 24.7072 25.2305 24.6134 25.0312 24.5197C24.8359 24.422 24.5781 24.3204 24.2578 24.215C23.8828 24.09 23.5215 23.9493 23.1738 23.7931C22.8262 23.6329 22.5156 23.4474 22.2422 23.2365C21.9688 23.0216 21.752 22.7716 21.5918 22.4865C21.4316 22.1974 21.3516 21.8615 21.3516 21.4786C21.3516 21.1115 21.4336 20.7814 21.5977 20.4884C21.7617 20.1915 21.9902 19.9396 22.2832 19.7325C22.5801 19.5216 22.9277 19.3615 23.3262 19.2521C23.7246 19.1388 24.1602 19.0822 24.6328 19.0822C25.2578 19.0822 25.8086 19.1915 26.2852 19.4103C26.7656 19.6251 27.1406 19.9318 27.4102 20.3302C27.6836 20.7247 27.8203 21.1915 27.8203 21.7306H25.7754C25.7754 21.5157 25.7305 21.3263 25.6406 21.1622C25.5547 20.9982 25.4238 20.8693 25.248 20.7755C25.0723 20.6818 24.8516 20.6349 24.5859 20.6349C24.3281 20.6349 24.1113 20.674 23.9355 20.7521C23.7598 20.8302 23.627 20.9357 23.5371 21.0685C23.4473 21.1974 23.4023 21.34 23.4023 21.4962C23.4023 21.6251 23.4375 21.7423 23.5078 21.8478C23.582 21.9493 23.6855 22.045 23.8184 22.1349C23.9551 22.2247 24.1191 22.3107 24.3105 22.3927C24.5059 22.4747 24.7246 22.5548 24.9668 22.6329C25.4199 22.7775 25.8223 22.9396 26.1738 23.1193C26.5293 23.295 26.8281 23.4962 27.0703 23.7228C27.3164 23.9454 27.502 24.1993 27.627 24.4845C27.7559 24.7697 27.8203 25.0919 27.8203 25.4513C27.8203 25.8341 27.7461 26.174 27.5977 26.4708C27.4492 26.7677 27.2363 27.0197 26.959 27.2267C26.6816 27.4298 26.3496 27.5841 25.9629 27.6896C25.5762 27.795 25.1445 27.8478 24.668 27.8478C24.2305 27.8478 23.7988 27.7931 23.373 27.6837C22.9512 27.5704 22.5684 27.3986 22.2246 27.1681C21.8809 26.9337 21.6055 26.6349 21.3984 26.2716C21.1953 25.9044 21.0938 25.4689 21.0938 24.965H23.1562C23.1562 25.215 23.1895 25.4259 23.2559 25.5978C23.3223 25.7697 23.4199 25.9083 23.5488 26.0138C23.6777 26.1154 23.8359 26.1896 24.0234 26.2365C24.2109 26.2794 24.4258 26.3009 24.668 26.3009C24.9297 26.3009 25.1406 26.2638 25.3008 26.1896C25.4609 26.1115 25.5781 26.0099 25.6523 25.8849C25.7266 25.756 25.7637 25.6154 25.7637 25.463Z" fill="white"/>
</svg>
