<svg width="35" height="44" viewBox="0 0 35 44" fill="none" xmlns="http://www.w3.org/2000/svg">
<path d="M2.34375 0.307739H25.0541L34.2814 9.54961L34.485 41.7823C34.492 42.8918 33.5946 43.7949 32.4851 43.7949H2.34375C1.23918 43.7949 0.34375 42.8995 0.34375 41.7949V2.30774C0.34375 1.20317 1.23918 0.307739 2.34375 0.307739Z" fill="#0EC5A4"/>
<path d="M25.0488 0.307739V8.5379C25.0488 9.09019 25.4965 9.5379 26.0488 9.5379H34.279L25.0488 0.307739Z" fill="black" fill-opacity="0.16"/>
<path d="M16.7363 19.1993V20.254L13.5488 27.7306H11.4629L14.6562 20.7228H10.584V19.1993H16.7363ZM24.2773 26.1486V27.7306H18.1016V26.1486H24.2773ZM24.2363 20.254L19.1211 27.7306H17.6328V26.6466L22.8066 19.1993H24.2363V20.254ZM23.5742 19.1993V20.7872H17.6035V19.1993H23.5742Z" fill="white"/>
</svg>
