<svg width="35" height="44" viewBox="0 0 35 44" fill="none" xmlns="http://www.w3.org/2000/svg">
<path d="M2.5 0.307739H25.2103L34.4376 9.54961L34.6413 41.7823C34.6483 42.8918 33.7508 43.7949 32.6413 43.7949H2.5C1.39543 43.7949 0.5 42.8995 0.5 41.7949V2.30774C0.5 1.20317 1.39543 0.307739 2.5 0.307739Z" fill="#0EC5A4"/>
<path d="M25.2051 0.307739V8.5379C25.2051 9.09019 25.6528 9.5379 26.2051 9.5379H34.4352L25.2051 0.307739Z" fill="black" fill-opacity="0.16"/>
<path d="M9.79102 20.9923L7.71094 27.7306H5.50195L8.63672 19.1993H10.0371L9.79102 20.9923ZM11.5137 27.7306L9.42773 20.9923L9.1582 19.1993H10.5762L13.7285 27.7306H11.5137ZM11.4316 24.549V26.1368H7.05469V24.549H11.4316ZM17.9707 20.9923L15.8906 27.7306H13.6816L16.8164 19.1993H18.2168L17.9707 20.9923ZM19.6934 27.7306L17.6074 20.9923L17.3379 19.1993H18.7559L21.9082 27.7306H19.6934ZM19.6113 24.549V26.1368H15.2344V24.549H19.6113ZM27.2578 24.8419H29.3086C29.2812 25.4357 29.1211 25.9591 28.8281 26.4122C28.5352 26.8654 28.1289 27.2189 27.6094 27.4728C27.0938 27.7228 26.4844 27.8478 25.7812 27.8478C25.2109 27.8478 24.7012 27.7521 24.252 27.5607C23.8066 27.3693 23.4277 27.0939 23.1152 26.7345C22.8066 26.3751 22.5703 25.9396 22.4062 25.4279C22.2461 24.9161 22.166 24.34 22.166 23.6993V23.2365C22.166 22.5958 22.25 22.0197 22.418 21.5079C22.5898 20.9923 22.832 20.5548 23.1445 20.1954C23.4609 19.8322 23.8398 19.5548 24.2812 19.3634C24.7227 19.172 25.2129 19.0763 25.752 19.0763C26.4941 19.0763 27.1211 19.2091 27.6328 19.4747C28.1445 19.7404 28.541 20.1056 28.8223 20.5704C29.1035 21.0314 29.2695 21.5568 29.3203 22.1466H27.2695C27.2617 21.8263 27.207 21.5587 27.1055 21.3439C27.0039 21.1251 26.8438 20.9611 26.625 20.8517C26.4062 20.7423 26.1152 20.6876 25.752 20.6876C25.498 20.6876 25.2773 20.7345 25.0898 20.8282C24.9023 20.922 24.7461 21.0704 24.6211 21.2736C24.4961 21.4767 24.4023 21.7404 24.3398 22.0646C24.2812 22.3849 24.252 22.7716 24.252 23.2247V23.6993C24.252 24.1525 24.2793 24.5392 24.334 24.8595C24.3887 25.1798 24.4766 25.4415 24.5977 25.6447C24.7188 25.8478 24.875 25.9982 25.0664 26.0958C25.2617 26.1896 25.5 26.2365 25.7812 26.2365C26.0938 26.2365 26.3574 26.1876 26.5723 26.09C26.7871 25.9884 26.9531 25.8361 27.0703 25.6329C27.1875 25.4259 27.25 25.1622 27.2578 24.8419Z" fill="white"/>
</svg>
