<svg width="35" height="44" viewBox="0 0 35 44" fill="none" xmlns="http://www.w3.org/2000/svg">
<path d="M2.34375 0.494995H25.0541L34.2814 9.73687L34.485 41.9695C34.492 43.079 33.5946 43.9822 32.4851 43.9822H2.34375C1.23918 43.9822 0.34375 43.0867 0.34375 41.9822V2.495C0.34375 1.39043 1.23918 0.494995 2.34375 0.494995Z" fill="#0EC5A4"/>
<path d="M25.0488 0.494995V8.72516C25.0488 9.27744 25.4965 9.72516 26.0488 9.72516H34.279L25.0488 0.494995Z" fill="black" fill-opacity="0.16"/>
<path d="M9.35156 21.1793L7.27148 27.9176H5.0625L8.19727 19.3864H9.59766L9.35156 21.1793ZM11.0742 27.9176L8.98828 21.1793L8.71875 19.3864H10.1367L13.2891 27.9176H11.0742ZM10.9922 24.736V26.3239H6.61523V24.736H10.9922ZM17.3203 25.0231H15.1992V23.4352H17.3203C17.6094 23.4352 17.8438 23.3864 18.0234 23.2887C18.2031 23.191 18.334 23.0563 18.416 22.8844C18.502 22.7086 18.5449 22.5114 18.5449 22.2926C18.5449 22.0582 18.502 21.8414 18.416 21.6422C18.334 21.443 18.2031 21.2828 18.0234 21.1617C17.8438 21.0367 17.6094 20.9742 17.3203 20.9742H15.9727V27.9176H13.916V19.3864H17.3203C18.0039 19.3864 18.5918 19.5114 19.084 19.7614C19.5801 20.0114 19.9609 20.3551 20.2266 20.7926C20.4922 21.2262 20.625 21.7223 20.625 22.2809C20.625 22.8317 20.4922 23.3121 20.2266 23.7223C19.9609 24.1324 19.5801 24.4528 19.084 24.6832C18.5918 24.9098 18.0039 25.0231 17.3203 25.0231ZM23.7891 19.3864V27.9176H21.7324V19.3864H23.7891ZM28.8809 19.3864L25.5762 23.7106L23.6426 25.8258L23.2676 23.9391L24.5039 22.0641L26.3438 19.3864H28.8809ZM26.4492 27.9176L24.2461 24.0739L25.8457 22.8961L28.8809 27.9176H26.4492Z" fill="white"/>
</svg>
