<svg width="35" height="45" viewBox="0 0 35 45" fill="none" xmlns="http://www.w3.org/2000/svg">
<path d="M2.03125 0.682007H24.7416L33.9689 9.92388L34.1725 42.1566C34.1795 43.266 33.2821 44.1692 32.1726 44.1692H2.03125C0.926681 44.1692 0.03125 43.2738 0.03125 42.1692V2.68201C0.03125 1.57744 0.926681 0.682007 2.03125 0.682007Z" fill="#0EC5A4"/>
<path d="M24.7363 0.682007V8.91217C24.7363 9.46445 25.184 9.91217 25.7363 9.91217H33.9665L24.7363 0.682007Z" fill="black" fill-opacity="0.16"/>
<path d="M11.2305 21.3666L9.15039 28.1049H6.94141L10.0762 19.5736H11.4766L11.2305 21.3666ZM12.9531 28.1049L10.8672 21.3666L10.5977 19.5736H12.0156L15.168 28.1049H12.9531ZM12.8711 24.9232V26.5111H8.49414V24.9232H12.8711ZM18.5664 26.0951L20.3418 19.5736H22.6445L19.7676 28.1049H18.2793L18.5664 26.0951ZM16.9551 19.5736L18.7305 26.0951L19.0293 28.1049H17.5234L14.6641 19.5736H16.9551ZM25.457 19.5736V28.1049H23.4062V19.5736H25.457Z" fill="white"/>
</svg>
