<svg width="35" height="45" viewBox="0 0 35 45" fill="none" xmlns="http://www.w3.org/2000/svg">
<path d="M2.34375 0.682007H25.0541L34.2814 9.92388L34.485 42.1566C34.492 43.266 33.5946 44.1692 32.4851 44.1692H2.34375C1.23918 44.1692 0.34375 43.2738 0.34375 42.1692V2.68201C0.34375 1.57744 1.23918 0.682007 2.34375 0.682007Z" fill="#0EC5A4"/>
<path d="M25.0488 0.682007V8.91217C25.0488 9.46445 25.4965 9.91217 26.0488 9.91217H34.279L25.0488 0.682007Z" fill="black" fill-opacity="0.16"/>
<path d="M10.1562 24.4779H7.95898L7.94727 23.1302H9.72852C10.0488 23.1302 10.3047 23.0951 10.4961 23.0248C10.6875 22.9506 10.8262 22.8431 10.9121 22.7025C11.002 22.5619 11.0469 22.3861 11.0469 22.1752C11.0469 21.933 11.002 21.7377 10.9121 21.5892C10.8223 21.4408 10.6797 21.3334 10.4844 21.267C10.293 21.1967 10.0449 21.1615 9.74023 21.1615H8.73242V28.1049H6.67578V19.5736H9.74023C10.2676 19.5736 10.7383 19.6224 11.1523 19.7201C11.5664 19.8138 11.918 19.9584 12.207 20.1537C12.5 20.349 12.7227 20.5951 12.875 20.892C13.0273 21.1849 13.1035 21.5306 13.1035 21.9291C13.1035 22.2767 13.0293 22.6029 12.8809 22.9076C12.7324 23.2123 12.4844 23.4603 12.1367 23.6517C11.793 23.8392 11.3223 23.9369 10.7246 23.9447L10.1562 24.4779ZM10.0742 28.1049H7.46094L8.16406 26.5228H10.0742C10.3555 26.5228 10.5801 26.4799 10.748 26.3939C10.9199 26.3041 11.043 26.1869 11.1172 26.0424C11.1953 25.8939 11.2344 25.7299 11.2344 25.5502C11.2344 25.3314 11.1973 25.142 11.123 24.9818C11.0527 24.8217 10.9395 24.6986 10.7832 24.6127C10.627 24.5228 10.418 24.4779 10.1562 24.4779H8.42773L8.43945 23.1302H10.5078L10.9883 23.6693C11.5586 23.6459 12.0098 23.726 12.3418 23.9095C12.6777 24.0931 12.918 24.3353 13.0625 24.6361C13.207 24.9369 13.2793 25.2513 13.2793 25.5795C13.2793 26.1381 13.1582 26.6049 12.916 26.9799C12.6777 27.3549 12.3203 27.6361 11.8438 27.8236C11.3672 28.0111 10.7773 28.1049 10.0742 28.1049ZM18.0371 21.3666L15.957 28.1049H13.748L16.8828 19.5736H18.2832L18.0371 21.3666ZM19.7598 28.1049L17.6738 21.3666L17.4043 19.5736H18.8223L21.9746 28.1049H19.7598ZM19.6777 24.9232V26.5111H15.3008V24.9232H19.6777ZM26.0293 19.5736V28.1049H23.9727V19.5736H26.0293ZM28.5957 19.5736V21.1615H21.4648V19.5736H28.5957Z" fill="white"/>
</svg>
