<svg width="35" height="45" viewBox="0 0 35 45" fill="none" xmlns="http://www.w3.org/2000/svg">
<path d="M2.5 0.682007H25.2103L34.4376 9.92388L34.6413 42.1566C34.6483 43.266 33.7508 44.1692 32.6413 44.1692H2.5C1.39543 44.1692 0.5 43.2738 0.5 42.1692V2.68201C0.5 1.57744 1.39543 0.682007 2.5 0.682007Z" fill="#0EC5A4"/>
<path d="M25.2051 0.682007V8.91217C25.2051 9.46445 25.6528 9.91217 26.2051 9.91217H34.4352L25.2051 0.682007Z" fill="black" fill-opacity="0.16"/>
<path d="M11.3066 24.4779H9.10938L9.09766 23.1302H10.8789C11.1992 23.1302 11.4551 23.0951 11.6465 23.0248C11.8379 22.9506 11.9766 22.8431 12.0625 22.7025C12.1523 22.5619 12.1973 22.3861 12.1973 22.1752C12.1973 21.933 12.1523 21.7377 12.0625 21.5892C11.9727 21.4408 11.8301 21.3334 11.6348 21.267C11.4434 21.1967 11.1953 21.1615 10.8906 21.1615H9.88281V28.1049H7.82617V19.5736H10.8906C11.418 19.5736 11.8887 19.6224 12.3027 19.7201C12.7168 19.8138 13.0684 19.9584 13.3574 20.1537C13.6504 20.349 13.873 20.5951 14.0254 20.892C14.1777 21.1849 14.2539 21.5306 14.2539 21.9291C14.2539 22.2767 14.1797 22.6029 14.0312 22.9076C13.8828 23.2123 13.6348 23.4603 13.2871 23.6517C12.9434 23.8392 12.4727 23.9369 11.875 23.9447L11.3066 24.4779ZM11.2246 28.1049H8.61133L9.31445 26.5228H11.2246C11.5059 26.5228 11.7305 26.4799 11.8984 26.3939C12.0703 26.3041 12.1934 26.1869 12.2676 26.0424C12.3457 25.8939 12.3848 25.7299 12.3848 25.5502C12.3848 25.3314 12.3477 25.142 12.2734 24.9818C12.2031 24.8217 12.0898 24.6986 11.9336 24.6127C11.7773 24.5228 11.5684 24.4779 11.3066 24.4779H9.57812L9.58984 23.1302H11.6582L12.1387 23.6693C12.709 23.6459 13.1602 23.726 13.4922 23.9095C13.8281 24.0931 14.0684 24.3353 14.2129 24.6361C14.3574 24.9369 14.4297 25.2513 14.4297 25.5795C14.4297 26.1381 14.3086 26.6049 14.0664 26.9799C13.8281 27.3549 13.4707 27.6361 12.9941 27.8236C12.5176 28.0111 11.9277 28.1049 11.2246 28.1049ZM17.7578 19.5736V28.1049H15.707V19.5736H17.7578ZM26.3301 19.5736V28.1049H24.2793L21.2617 22.7963V28.1049H19.2051V19.5736H21.2617L24.2793 24.8822V19.5736H26.3301Z" fill="white"/>
</svg>
