<svg width="35" height="45" viewBox="0 0 35 45" fill="none" xmlns="http://www.w3.org/2000/svg">
<path d="M2.65625 0.682007H25.3666L34.5939 9.92388L34.7975 42.1566C34.8045 43.266 33.9071 44.1692 32.7976 44.1692H2.65625C1.55168 44.1692 0.65625 43.2738 0.65625 42.1692V2.68201C0.65625 1.57744 1.55168 0.682007 2.65625 0.682007Z" fill="#0EC5A4"/>
<path d="M25.3613 0.682007V8.91217C25.3613 9.46445 25.809 9.91217 26.3613 9.91217H34.5915L25.3613 0.682007Z" fill="black" fill-opacity="0.16"/>
<path d="M8.82227 24.4779H6.625L6.61328 23.1302H8.39453C8.71484 23.1302 8.9707 23.0951 9.16211 23.0248C9.35352 22.9506 9.49219 22.8431 9.57812 22.7025C9.66797 22.5619 9.71289 22.3861 9.71289 22.1752C9.71289 21.933 9.66797 21.7377 9.57812 21.5892C9.48828 21.4408 9.3457 21.3334 9.15039 21.267C8.95898 21.1967 8.71094 21.1615 8.40625 21.1615H7.39844V28.1049H5.3418V19.5736H8.40625C8.93359 19.5736 9.4043 19.6224 9.81836 19.7201C10.2324 19.8138 10.584 19.9584 10.873 20.1537C11.166 20.349 11.3887 20.5951 11.541 20.892C11.6934 21.1849 11.7695 21.5306 11.7695 21.9291C11.7695 22.2767 11.6953 22.6029 11.5469 22.9076C11.3984 23.2123 11.1504 23.4603 10.8027 23.6517C10.459 23.8392 9.98828 23.9369 9.39062 23.9447L8.82227 24.4779ZM8.74023 28.1049H6.12695L6.83008 26.5228H8.74023C9.02148 26.5228 9.24609 26.4799 9.41406 26.3939C9.58594 26.3041 9.70898 26.1869 9.7832 26.0424C9.86133 25.8939 9.90039 25.7299 9.90039 25.5502C9.90039 25.3314 9.86328 25.142 9.78906 24.9818C9.71875 24.8217 9.60547 24.6986 9.44922 24.6127C9.29297 24.5228 9.08398 24.4779 8.82227 24.4779H7.09375L7.10547 23.1302H9.17383L9.6543 23.6693C10.2246 23.6459 10.6758 23.726 11.0078 23.9095C11.3438 24.0931 11.584 24.3353 11.7285 24.6361C11.873 24.9369 11.9453 25.2513 11.9453 25.5795C11.9453 26.1381 11.8242 26.6049 11.582 26.9799C11.3438 27.3549 10.9863 27.6361 10.5098 27.8236C10.0332 28.0111 9.44336 28.1049 8.74023 28.1049ZM14.1074 19.5736H15.7832L17.6875 25.5092L19.5918 19.5736H21.2676L18.3672 28.1049H17.0078L14.1074 19.5736ZM13.0879 19.5736H14.8223L15.1445 26.1127V28.1049H13.0879V19.5736ZM20.5527 19.5736H22.293V28.1049H20.2305V26.1127L20.5527 19.5736ZM27.0156 25.2103H24.8945V23.6224H27.0156C27.3047 23.6224 27.5391 23.5736 27.7188 23.476C27.8984 23.3783 28.0293 23.2435 28.1113 23.0717C28.1973 22.8959 28.2402 22.6986 28.2402 22.4799C28.2402 22.2455 28.1973 22.0287 28.1113 21.8295C28.0293 21.6302 27.8984 21.4701 27.7188 21.349C27.5391 21.224 27.3047 21.1615 27.0156 21.1615H25.668V28.1049H23.6113V19.5736H27.0156C27.6992 19.5736 28.2871 19.6986 28.7793 19.9486C29.2754 20.1986 29.6562 20.5424 29.9219 20.9799C30.1875 21.4135 30.3203 21.9095 30.3203 22.4681C30.3203 23.0189 30.1875 23.4994 29.9219 23.9095C29.6562 24.3197 29.2754 24.64 28.7793 24.8705C28.2871 25.097 27.6992 25.2103 27.0156 25.2103Z" fill="white"/>
</svg>
