<svg width="35" height="45" viewBox="0 0 35 45" fill="none" xmlns="http://www.w3.org/2000/svg">
<path d="M2.8125 0.682007H25.5228L34.7501 9.92388L34.9538 42.1566C34.9608 43.266 34.0633 44.1692 32.9538 44.1692H2.8125C1.70793 44.1692 0.8125 43.2738 0.8125 42.1692V2.68201C0.8125 1.57744 1.70793 0.682007 2.8125 0.682007Z" fill="#0EC5A4"/>
<path d="M25.5176 0.682007V8.91217C25.5176 9.46445 25.9653 9.91217 26.5176 9.91217H34.7477L25.5176 0.682007Z" fill="black" fill-opacity="0.16"/>
<path d="M10.9922 25.2162H13.043C13.0156 25.8099 12.8555 26.3334 12.5625 26.7865C12.2695 27.2396 11.8633 27.5931 11.3438 27.847C10.8281 28.097 10.2188 28.222 9.51562 28.222C8.94531 28.222 8.43555 28.1263 7.98633 27.9349C7.54102 27.7435 7.16211 27.4681 6.84961 27.1088C6.54102 26.7494 6.30469 26.3138 6.14062 25.8021C5.98047 25.2904 5.90039 24.7142 5.90039 24.0736V23.6107C5.90039 22.9701 5.98438 22.3939 6.15234 21.8822C6.32422 21.3666 6.56641 20.9291 6.87891 20.5697C7.19531 20.2064 7.57422 19.9291 8.01562 19.7377C8.45703 19.5463 8.94727 19.4506 9.48633 19.4506C10.2285 19.4506 10.8555 19.5834 11.3672 19.849C11.8789 20.1146 12.2754 20.4799 12.5566 20.9447C12.8379 21.4056 13.0039 21.931 13.0547 22.5209H11.0039C10.9961 22.2006 10.9414 21.933 10.8398 21.7181C10.7383 21.4994 10.5781 21.3353 10.3594 21.226C10.1406 21.1166 9.84961 21.0619 9.48633 21.0619C9.23242 21.0619 9.01172 21.1088 8.82422 21.2025C8.63672 21.2963 8.48047 21.4447 8.35547 21.6478C8.23047 21.851 8.13672 22.1146 8.07422 22.4388C8.01562 22.7592 7.98633 23.1459 7.98633 23.599V24.0736C7.98633 24.5267 8.01367 24.9135 8.06836 25.2338C8.12305 25.5541 8.21094 25.8158 8.33203 26.0189C8.45312 26.222 8.60938 26.3724 8.80078 26.4701C8.99609 26.5638 9.23438 26.6107 9.51562 26.6107C9.82812 26.6107 10.0918 26.5619 10.3066 26.4642C10.5215 26.3627 10.6875 26.2103 10.8047 26.0072C10.9219 25.8002 10.9844 25.5365 10.9922 25.2162ZM17.6309 21.3666L15.5508 28.1049H13.3418L16.4766 19.5736H17.877L17.6309 21.3666ZM19.3535 28.1049L17.2676 21.3666L16.998 19.5736H18.416L21.5684 28.1049H19.3535ZM19.2715 24.9232V26.5111H14.8945V24.9232H19.2715ZM25.6758 24.4779H23.4785L23.4668 23.1302H25.248C25.5684 23.1302 25.8242 23.0951 26.0156 23.0248C26.207 22.9506 26.3457 22.8431 26.4316 22.7025C26.5215 22.5619 26.5664 22.3861 26.5664 22.1752C26.5664 21.933 26.5215 21.7377 26.4316 21.5892C26.3418 21.4408 26.1992 21.3334 26.0039 21.267C25.8125 21.1967 25.5645 21.1615 25.2598 21.1615H24.252V28.1049H22.1953V19.5736H25.2598C25.7871 19.5736 26.2578 19.6224 26.6719 19.7201C27.0859 19.8138 27.4375 19.9584 27.7266 20.1537C28.0195 20.349 28.2422 20.5951 28.3945 20.892C28.5469 21.1849 28.623 21.5306 28.623 21.9291C28.623 22.2767 28.5488 22.6029 28.4004 22.9076C28.252 23.2123 28.0039 23.4603 27.6562 23.6517C27.3125 23.8392 26.8418 23.9369 26.2441 23.9447L25.6758 24.4779ZM25.5938 28.1049H22.9805L23.6836 26.5228H25.5938C25.875 26.5228 26.0996 26.4799 26.2676 26.3939C26.4395 26.3041 26.5625 26.1869 26.6367 26.0424C26.7148 25.8939 26.7539 25.7299 26.7539 25.5502C26.7539 25.3314 26.7168 25.142 26.6426 24.9818C26.5723 24.8217 26.459 24.6986 26.3027 24.6127C26.1465 24.5228 25.9375 24.4779 25.6758 24.4779H23.9473L23.959 23.1302H26.0273L26.5078 23.6693C27.0781 23.6459 27.5293 23.726 27.8613 23.9095C28.1973 24.0931 28.4375 24.3353 28.582 24.6361C28.7266 24.9369 28.7988 25.2513 28.7988 25.5795C28.7988 26.1381 28.6777 26.6049 28.4355 26.9799C28.1973 27.3549 27.8398 27.6361 27.3633 27.8236C26.8867 28.0111 26.2969 28.1049 25.5938 28.1049Z" fill="white"/>
</svg>
