<svg width="35" height="44" viewBox="0 0 35 44" fill="none" xmlns="http://www.w3.org/2000/svg">
<path d="M2.1875 0.088501H24.8978L34.1251 9.33038L34.3288 41.563C34.3358 42.6725 33.4383 43.5757 32.3288 43.5757H2.1875C1.08293 43.5757 0.1875 42.6802 0.1875 41.5757V2.0885C0.1875 0.983932 1.08293 0.088501 2.1875 0.088501Z" fill="#06437C"/>
<path d="M24.8926 0.088501V8.31866C24.8926 8.87095 25.3403 9.31866 25.8926 9.31866H34.1227L24.8926 0.088501Z" fill="black" fill-opacity="0.16"/>
<path d="M10.5312 24.6224H12.582C12.5547 25.2162 12.3945 25.7396 12.1016 26.1927C11.8086 26.6459 11.4023 26.9994 10.8828 27.2533C10.3672 27.5033 9.75781 27.6283 9.05469 27.6283C8.48438 27.6283 7.97461 27.5326 7.52539 27.3412C7.08008 27.1498 6.70117 26.8744 6.38867 26.515C6.08008 26.1556 5.84375 25.7201 5.67969 25.2084C5.51953 24.6967 5.43945 24.1205 5.43945 23.4799V23.017C5.43945 22.3763 5.52344 21.8002 5.69141 21.2885C5.86328 20.7728 6.10547 20.3353 6.41797 19.976C6.73438 19.6127 7.11328 19.3353 7.55469 19.1439C7.99609 18.9525 8.48633 18.8568 9.02539 18.8568C9.76758 18.8568 10.3945 18.9896 10.9062 19.2552C11.418 19.5209 11.8145 19.8861 12.0957 20.351C12.377 20.8119 12.543 21.3373 12.5938 21.9271H10.543C10.5352 21.6068 10.4805 21.3392 10.3789 21.1244C10.2773 20.9056 10.1172 20.7416 9.89844 20.6322C9.67969 20.5228 9.38867 20.4681 9.02539 20.4681C8.77148 20.4681 8.55078 20.515 8.36328 20.6088C8.17578 20.7025 8.01953 20.851 7.89453 21.0541C7.76953 21.2572 7.67578 21.5209 7.61328 21.8451C7.55469 22.1654 7.52539 22.5521 7.52539 23.0052V23.4799C7.52539 23.933 7.55273 24.3197 7.60742 24.64C7.66211 24.9603 7.75 25.222 7.87109 25.4252C7.99219 25.6283 8.14844 25.7787 8.33984 25.8763C8.53516 25.9701 8.77344 26.017 9.05469 26.017C9.36719 26.017 9.63086 25.9681 9.8457 25.8705C10.0605 25.7689 10.2266 25.6166 10.3438 25.4135C10.4609 25.2064 10.5234 24.9427 10.5312 24.6224ZM16.3262 27.5111H14.4336L14.4453 25.9291H16.3262C16.7168 25.9291 17.0469 25.8353 17.3164 25.6478C17.5898 25.4603 17.7969 25.181 17.9375 24.8099C18.082 24.4349 18.1543 23.974 18.1543 23.4271V23.058C18.1543 22.6478 18.1133 22.2885 18.0312 21.9799C17.9531 21.6674 17.8359 21.4076 17.6797 21.2006C17.5234 20.9896 17.3281 20.8314 17.0938 20.726C16.8633 20.6205 16.5977 20.5677 16.2969 20.5677H14.3984V18.9799H16.2969C16.875 18.9799 17.4043 19.0795 17.8848 19.2787C18.3691 19.474 18.7871 19.7552 19.1387 20.1224C19.4941 20.4857 19.7676 20.9174 19.959 21.4174C20.1543 21.9135 20.252 22.4642 20.252 23.0697V23.4271C20.252 24.0287 20.1543 24.5795 19.959 25.0795C19.7676 25.5795 19.4961 26.0111 19.1445 26.3744C18.793 26.7377 18.377 27.0189 17.8965 27.2181C17.4199 27.4135 16.8965 27.5111 16.3262 27.5111ZM15.6113 18.9799V27.5111H13.5547V18.9799H15.6113ZM21.3242 18.9799H24.6816C25.3379 18.9799 25.9082 19.0775 26.3926 19.2728C26.877 19.4681 27.25 19.7572 27.5117 20.14C27.7773 20.5228 27.9102 20.9955 27.9102 21.558C27.9102 22.0463 27.834 22.4545 27.6816 22.7826C27.5293 23.1107 27.3164 23.3822 27.043 23.597C26.7734 23.808 26.459 23.9818 26.0996 24.1185L25.4258 24.4994H22.6074L22.5957 22.9115H24.6816C24.9434 22.9115 25.1602 22.8646 25.332 22.7709C25.5039 22.6771 25.6328 22.5443 25.7188 22.3724C25.8086 22.1967 25.8535 21.9877 25.8535 21.7455C25.8535 21.4994 25.8086 21.2885 25.7188 21.1127C25.6289 20.9369 25.4961 20.8021 25.3203 20.7084C25.1484 20.6146 24.9355 20.5677 24.6816 20.5677H23.3809V27.5111H21.3242V18.9799ZM25.9941 27.5111L24.1074 23.7377L26.2871 23.726L28.1973 27.4232V27.5111H25.9941Z" fill="white"/>
</svg>
