<svg width="35" height="44" viewBox="0 0 35 44" fill="none" xmlns="http://www.w3.org/2000/svg">
<path d="M2.34375 0.088501H25.0541L34.2814 9.33038L34.485 41.563C34.492 42.6725 33.5946 43.5757 32.4851 43.5757H2.34375C1.23918 43.5757 0.34375 42.6802 0.34375 41.5757V2.0885C0.34375 0.983932 1.23918 0.088501 2.34375 0.088501Z" fill="#06437C"/>
<path d="M25.0488 0.088501V8.31866C25.0488 8.87095 25.4965 9.31866 26.0488 9.31866H34.279L25.0488 0.088501Z" fill="black" fill-opacity="0.16"/>
<path d="M11.7148 24.6224H13.7656C13.7383 25.2162 13.5781 25.7396 13.2852 26.1927C12.9922 26.6459 12.5859 26.9994 12.0664 27.2533C11.5508 27.5033 10.9414 27.6283 10.2383 27.6283C9.66797 27.6283 9.1582 27.5326 8.70898 27.3412C8.26367 27.1498 7.88477 26.8744 7.57227 26.515C7.26367 26.1556 7.02734 25.7201 6.86328 25.2084C6.70312 24.6967 6.62305 24.1205 6.62305 23.4799V23.017C6.62305 22.3763 6.70703 21.8002 6.875 21.2885C7.04688 20.7728 7.28906 20.3353 7.60156 19.976C7.91797 19.6127 8.29688 19.3353 8.73828 19.1439C9.17969 18.9525 9.66992 18.8568 10.209 18.8568C10.9512 18.8568 11.5781 18.9896 12.0898 19.2552C12.6016 19.5209 12.998 19.8861 13.2793 20.351C13.5605 20.8119 13.7266 21.3373 13.7773 21.9271H11.7266C11.7188 21.6068 11.6641 21.3392 11.5625 21.1244C11.4609 20.9056 11.3008 20.7416 11.082 20.6322C10.8633 20.5228 10.5723 20.4681 10.209 20.4681C9.95508 20.4681 9.73438 20.515 9.54688 20.6088C9.35938 20.7025 9.20312 20.851 9.07812 21.0541C8.95312 21.2572 8.85938 21.5209 8.79688 21.8451C8.73828 22.1654 8.70898 22.5521 8.70898 23.0052V23.4799C8.70898 23.933 8.73633 24.3197 8.79102 24.64C8.8457 24.9603 8.93359 25.222 9.05469 25.4252C9.17578 25.6283 9.33203 25.7787 9.52344 25.8763C9.71875 25.9701 9.95703 26.017 10.2383 26.017C10.5508 26.017 10.8145 25.9681 11.0293 25.8705C11.2441 25.7689 11.4102 25.6166 11.5273 25.4135C11.6445 25.2064 11.707 24.9427 11.7148 24.6224ZM20.6094 25.9291V27.5111H16.0625V25.9291H20.6094ZM16.7949 18.9799V27.5111H14.7383V18.9799H16.7949ZM20.0234 22.3666V23.8959H16.0625V22.3666H20.0234ZM20.627 18.9799V20.5677H16.0625V18.9799H20.627ZM21.4531 18.9799H24.8105C25.4668 18.9799 26.0371 19.0775 26.5215 19.2728C27.0059 19.4681 27.3789 19.7572 27.6406 20.14C27.9062 20.5228 28.0391 20.9955 28.0391 21.558C28.0391 22.0463 27.9629 22.4545 27.8105 22.7826C27.6582 23.1107 27.4453 23.3822 27.1719 23.597C26.9023 23.808 26.5879 23.9818 26.2285 24.1185L25.5547 24.4994H22.7363L22.7246 22.9115H24.8105C25.0723 22.9115 25.2891 22.8646 25.4609 22.7709C25.6328 22.6771 25.7617 22.5443 25.8477 22.3724C25.9375 22.1967 25.9824 21.9877 25.9824 21.7455C25.9824 21.4994 25.9375 21.2885 25.8477 21.1127C25.7578 20.9369 25.625 20.8021 25.4492 20.7084C25.2773 20.6146 25.0645 20.5677 24.8105 20.5677H23.5098V27.5111H21.4531V18.9799ZM26.123 27.5111L24.2363 23.7377L26.416 23.726L28.3262 27.4232V27.5111H26.123Z" fill="white"/>
</svg>
