<svg width="35" height="44" viewBox="0 0 35 44" fill="none" xmlns="http://www.w3.org/2000/svg">
<path d="M2.65625 0.088501H25.3666L34.5939 9.33038L34.7975 41.563C34.8045 42.6725 33.9071 43.5757 32.7976 43.5757H2.65625C1.55168 43.5757 0.65625 42.6802 0.65625 41.5757V2.0885C0.65625 0.983932 1.55168 0.088501 2.65625 0.088501Z" fill="#06437C"/>
<path d="M25.3613 0.088501V8.31866C25.3613 8.87095 25.809 9.31866 26.3613 9.31866H34.5915L25.3613 0.088501Z" fill="black" fill-opacity="0.16"/>
<path d="M12.8926 24.6224H14.9434C14.916 25.2162 14.7559 25.7396 14.4629 26.1927C14.1699 26.6459 13.7637 26.9994 13.2441 27.2533C12.7285 27.5033 12.1191 27.6283 11.416 27.6283C10.8457 27.6283 10.3359 27.5326 9.88672 27.3412C9.44141 27.1498 9.0625 26.8744 8.75 26.515C8.44141 26.1556 8.20508 25.7201 8.04102 25.2084C7.88086 24.6967 7.80078 24.1205 7.80078 23.4799V23.017C7.80078 22.3763 7.88477 21.8002 8.05273 21.2885C8.22461 20.7728 8.4668 20.3353 8.7793 19.976C9.0957 19.6127 9.47461 19.3353 9.91602 19.1439C10.3574 18.9525 10.8477 18.8568 11.3867 18.8568C12.1289 18.8568 12.7559 18.9896 13.2676 19.2552C13.7793 19.5209 14.1758 19.8861 14.457 20.351C14.7383 20.8119 14.9043 21.3373 14.9551 21.9271H12.9043C12.8965 21.6068 12.8418 21.3392 12.7402 21.1244C12.6387 20.9056 12.4785 20.7416 12.2598 20.6322C12.041 20.5228 11.75 20.4681 11.3867 20.4681C11.1328 20.4681 10.9121 20.515 10.7246 20.6088C10.5371 20.7025 10.3809 20.851 10.2559 21.0541C10.1309 21.2572 10.0371 21.5209 9.97461 21.8451C9.91602 22.1654 9.88672 22.5521 9.88672 23.0052V23.4799C9.88672 23.933 9.91406 24.3197 9.96875 24.64C10.0234 24.9603 10.1113 25.222 10.2324 25.4252C10.3535 25.6283 10.5098 25.7787 10.7012 25.8763C10.8965 25.9701 11.1348 26.017 11.416 26.017C11.7285 26.017 11.9922 25.9681 12.207 25.8705C12.4219 25.7689 12.5879 25.6166 12.7051 25.4135C12.8223 25.2064 12.8848 24.9427 12.8926 24.6224ZM22.8945 22.9525V26.4564C22.75 26.6166 22.5273 26.7885 22.2266 26.972C21.9297 27.1517 21.5547 27.306 21.1016 27.4349C20.6484 27.5638 20.1152 27.6283 19.502 27.6283C18.9355 27.6283 18.4219 27.5385 17.9609 27.3588C17.5 27.1752 17.1035 26.9076 16.7715 26.556C16.4434 26.2006 16.1895 25.767 16.0098 25.2552C15.834 24.7396 15.7461 24.1498 15.7461 23.4857V23.0111C15.7461 22.347 15.8359 21.7572 16.0156 21.2416C16.1953 20.726 16.4473 20.2924 16.7715 19.9408C17.0996 19.5853 17.4844 19.3158 17.9258 19.1322C18.3711 18.9486 18.8594 18.8568 19.3906 18.8568C20.1758 18.8568 20.8145 18.9818 21.3066 19.2318C21.7988 19.4779 22.1719 19.8197 22.4258 20.2572C22.6797 20.6908 22.834 21.1927 22.8887 21.7631H20.9141C20.875 21.4818 20.8008 21.2435 20.6914 21.0482C20.5859 20.849 20.4336 20.6986 20.2344 20.597C20.0352 20.4916 19.7773 20.4388 19.4609 20.4388C19.2148 20.4388 18.9902 20.4916 18.7871 20.597C18.5879 20.7025 18.418 20.8627 18.2773 21.0775C18.1367 21.2885 18.0273 21.5541 17.9492 21.8744C17.875 22.1947 17.8379 22.5697 17.8379 22.9994V23.4857C17.8379 23.9115 17.873 24.2845 17.9434 24.6049C18.0176 24.9252 18.127 25.1927 18.2715 25.4076C18.4199 25.6185 18.6074 25.7787 18.834 25.8881C19.0645 25.9935 19.3359 26.0463 19.6484 26.0463C19.8672 26.0463 20.0547 26.0287 20.2109 25.9935C20.3672 25.9545 20.4961 25.9076 20.5977 25.8529C20.7031 25.7943 20.7832 25.7396 20.8379 25.6888V24.3646H19.4082V22.9525H22.8945ZM26.2812 18.9799V27.5111H24.2305V18.9799H26.2812Z" fill="white"/>
</svg>
