<svg width="35" height="44" viewBox="0 0 35 44" fill="none" xmlns="http://www.w3.org/2000/svg">
<path d="M2.8125 0.088501H25.5228L34.7501 9.33038L34.9538 41.563C34.9608 42.6725 34.0633 43.5757 32.9538 43.5757H2.8125C1.70793 43.5757 0.8125 42.6802 0.8125 41.5757V2.0885C0.8125 0.983932 1.70793 0.088501 2.8125 0.088501Z" fill="#06437C"/>
<path d="M25.5176 0.088501V8.31866C25.5176 8.87095 25.9653 9.31866 26.5176 9.31866H34.7477L25.5176 0.088501Z" fill="black" fill-opacity="0.16"/>
<path d="M10.0508 24.6224H12.1016C12.0742 25.2162 11.9141 25.7396 11.6211 26.1927C11.3281 26.6459 10.9219 26.9994 10.4023 27.2533C9.88672 27.5033 9.27734 27.6283 8.57422 27.6283C8.00391 27.6283 7.49414 27.5326 7.04492 27.3412C6.59961 27.1498 6.2207 26.8744 5.9082 26.515C5.59961 26.1556 5.36328 25.7201 5.19922 25.2084C5.03906 24.6967 4.95898 24.1205 4.95898 23.4799V23.017C4.95898 22.3763 5.04297 21.8002 5.21094 21.2885C5.38281 20.7728 5.625 20.3353 5.9375 19.976C6.25391 19.6127 6.63281 19.3353 7.07422 19.1439C7.51562 18.9525 8.00586 18.8568 8.54492 18.8568C9.28711 18.8568 9.91406 18.9896 10.4258 19.2552C10.9375 19.5209 11.334 19.8861 11.6152 20.351C11.8965 20.8119 12.0625 21.3373 12.1133 21.9271H10.0625C10.0547 21.6068 10 21.3392 9.89844 21.1244C9.79688 20.9056 9.63672 20.7416 9.41797 20.6322C9.19922 20.5228 8.9082 20.4681 8.54492 20.4681C8.29102 20.4681 8.07031 20.515 7.88281 20.6088C7.69531 20.7025 7.53906 20.851 7.41406 21.0541C7.28906 21.2572 7.19531 21.5209 7.13281 21.8451C7.07422 22.1654 7.04492 22.5521 7.04492 23.0052V23.4799C7.04492 23.933 7.07227 24.3197 7.12695 24.64C7.18164 24.9603 7.26953 25.222 7.39062 25.4252C7.51172 25.6283 7.66797 25.7787 7.85938 25.8763C8.05469 25.9701 8.29297 26.017 8.57422 26.017C8.88672 26.017 9.15039 25.9681 9.36523 25.8705C9.58008 25.7689 9.74609 25.6166 9.86328 25.4135C9.98047 25.2064 10.043 24.9427 10.0508 24.6224ZM20.293 23.0756V23.4213C20.293 24.0736 20.2012 24.6595 20.0176 25.1791C19.8379 25.6947 19.582 26.1361 19.25 26.5033C18.918 26.8666 18.5254 27.1459 18.0723 27.3412C17.6191 27.5326 17.1191 27.6283 16.5723 27.6283C16.0215 27.6283 15.5176 27.5326 15.0605 27.3412C14.6074 27.1459 14.2129 26.8666 13.877 26.5033C13.5449 26.1361 13.2871 25.6947 13.1035 25.1791C12.9238 24.6595 12.834 24.0736 12.834 23.4213V23.0756C12.834 22.4232 12.9238 21.8373 13.1035 21.3177C13.2871 20.7982 13.543 20.3568 13.8711 19.9935C14.2031 19.6263 14.5957 19.347 15.0488 19.1556C15.5059 18.9603 16.0098 18.8627 16.5605 18.8627C17.1074 18.8627 17.6074 18.9603 18.0605 19.1556C18.5176 19.347 18.9121 19.6263 19.2441 19.9935C19.5762 20.3568 19.834 20.7982 20.0176 21.3177C20.2012 21.8373 20.293 22.4232 20.293 23.0756ZM18.207 23.4213V23.0638C18.207 22.642 18.1699 22.2709 18.0957 21.9506C18.0254 21.6263 17.9199 21.3549 17.7793 21.1361C17.6387 20.9174 17.4648 20.7533 17.2578 20.6439C17.0547 20.5306 16.8223 20.474 16.5605 20.474C16.2871 20.474 16.0488 20.5306 15.8457 20.6439C15.6426 20.7533 15.4727 20.9174 15.3359 21.1361C15.1992 21.3549 15.0957 21.6263 15.0254 21.9506C14.959 22.2709 14.9258 22.642 14.9258 23.0638V23.4213C14.9258 23.8392 14.959 24.2103 15.0254 24.5345C15.0957 24.8549 15.1992 25.1263 15.3359 25.349C15.4766 25.5717 15.6484 25.7396 15.8516 25.8529C16.0586 25.9662 16.2988 26.0228 16.5723 26.0228C16.834 26.0228 17.0664 25.9662 17.2695 25.8529C17.4727 25.7396 17.6426 25.5717 17.7793 25.349C17.9199 25.1263 18.0254 24.8549 18.0957 24.5345C18.1699 24.2103 18.207 23.8392 18.207 23.4213ZM22.3789 18.9799H24.0547L25.959 24.9154L27.8633 18.9799H29.5391L26.6387 27.5111H25.2793L22.3789 18.9799ZM21.3594 18.9799H23.0938L23.416 25.5189V27.5111H21.3594V18.9799ZM28.8242 18.9799H30.5645V27.5111H28.502V25.5189L28.8242 18.9799Z" fill="white"/>
</svg>
