<svg width="35" height="44" viewBox="0 0 35 44" fill="none" xmlns="http://www.w3.org/2000/svg">
<path d="M2.03125 0.275513H24.7416L33.9689 9.51739L34.1725 41.7501C34.1795 42.8595 33.2821 43.7627 32.1726 43.7627H2.03125C0.926681 43.7627 0.03125 42.8673 0.03125 41.7627V2.27551C0.03125 1.17094 0.926681 0.275513 2.03125 0.275513Z" fill="#06437C"/>
<path d="M24.7363 0.275513V8.50567C24.7363 9.05796 25.184 9.50567 25.7363 9.50567H33.9665L24.7363 0.275513Z" fill="black" fill-opacity="0.16"/>
<path d="M11.5137 24.8094H13.5645C13.5371 25.4032 13.377 25.9266 13.084 26.3798C12.791 26.8329 12.3848 27.1864 11.8652 27.4403C11.3496 27.6903 10.7402 27.8153 10.0371 27.8153C9.4668 27.8153 8.95703 27.7196 8.50781 27.5282C8.0625 27.3368 7.68359 27.0614 7.37109 26.702C7.0625 26.3427 6.82617 25.9071 6.66211 25.3954C6.50195 24.8837 6.42188 24.3075 6.42188 23.6669V23.204C6.42188 22.5634 6.50586 21.9872 6.67383 21.4755C6.8457 20.9598 7.08789 20.5223 7.40039 20.163C7.7168 19.7997 8.0957 19.5223 8.53711 19.3309C8.97852 19.1395 9.46875 19.0438 10.0078 19.0438C10.75 19.0438 11.377 19.1766 11.8887 19.4423C12.4004 19.7079 12.7969 20.0731 13.0781 20.538C13.3594 20.9989 13.5254 21.5243 13.5762 22.1141H11.5254C11.5176 21.7938 11.4629 21.5262 11.3613 21.3114C11.2598 21.0927 11.0996 20.9286 10.8809 20.8192C10.6621 20.7098 10.3711 20.6552 10.0078 20.6552C9.75391 20.6552 9.5332 20.702 9.3457 20.7958C9.1582 20.8895 9.00195 21.038 8.87695 21.2411C8.75195 21.4442 8.6582 21.7079 8.5957 22.0321C8.53711 22.3524 8.50781 22.7391 8.50781 23.1923V23.6669C8.50781 24.12 8.53516 24.5067 8.58984 24.827C8.64453 25.1473 8.73242 25.4091 8.85352 25.6122C8.97461 25.8153 9.13086 25.9657 9.32227 26.0634C9.51758 26.1571 9.75586 26.204 10.0371 26.204C10.3496 26.204 10.6133 26.1552 10.8281 26.0575C11.043 25.9559 11.209 25.8036 11.3262 25.6005C11.4434 25.3934 11.5059 25.1298 11.5137 24.8094ZM17.9414 24.8036H15.8203V23.2157H17.9414C18.2305 23.2157 18.4648 23.1669 18.6445 23.0692C18.8242 22.9716 18.9551 22.8368 19.0371 22.6649C19.123 22.4891 19.166 22.2919 19.166 22.0731C19.166 21.8387 19.123 21.6219 19.0371 21.4227C18.9551 21.2235 18.8242 21.0634 18.6445 20.9423C18.4648 20.8173 18.2305 20.7548 17.9414 20.7548H16.5938V27.6981H14.5371V19.1669H17.9414C18.625 19.1669 19.2129 19.2919 19.7051 19.5419C20.2012 19.7919 20.582 20.1356 20.8477 20.5731C21.1133 21.0067 21.2461 21.5028 21.2461 22.0614C21.2461 22.6122 21.1133 23.0927 20.8477 23.5028C20.582 23.913 20.2012 24.2333 19.7051 24.4637C19.2129 24.6903 18.625 24.8036 17.9414 24.8036ZM27.9902 26.1161V27.6981H23.6777V26.1161H27.9902ZM24.4102 19.1669V27.6981H22.3535V19.1669H24.4102Z" fill="white"/>
</svg>
