<svg width="35" height="44" viewBox="0 0 35 44" fill="none" xmlns="http://www.w3.org/2000/svg">
<path d="M2.5 0.275513H25.2103L34.4376 9.51739L34.6413 41.7501C34.6483 42.8595 33.7508 43.7627 32.6413 43.7627H2.5C1.39543 43.7627 0.5 42.8673 0.5 41.7627V2.27551C0.5 1.17094 1.39543 0.275513 2.5 0.275513Z" fill="#06437C"/>
<path d="M25.2051 0.275513V8.50567C25.2051 9.05796 25.6528 9.50567 26.2051 9.50567H34.4352L25.2051 0.275513Z" fill="black" fill-opacity="0.16"/>
<path d="M11.6309 24.8094H13.6816C13.6543 25.4032 13.4941 25.9266 13.2012 26.3798C12.9082 26.8329 12.502 27.1864 11.9824 27.4403C11.4668 27.6903 10.8574 27.8153 10.1543 27.8153C9.58398 27.8153 9.07422 27.7196 8.625 27.5282C8.17969 27.3368 7.80078 27.0614 7.48828 26.702C7.17969 26.3427 6.94336 25.9071 6.7793 25.3954C6.61914 24.8837 6.53906 24.3075 6.53906 23.6669V23.204C6.53906 22.5634 6.62305 21.9872 6.79102 21.4755C6.96289 20.9598 7.20508 20.5223 7.51758 20.163C7.83398 19.7997 8.21289 19.5223 8.6543 19.3309C9.0957 19.1395 9.58594 19.0438 10.125 19.0438C10.8672 19.0438 11.4941 19.1766 12.0059 19.4423C12.5176 19.7079 12.9141 20.0731 13.1953 20.538C13.4766 20.9989 13.6426 21.5243 13.6934 22.1141H11.6426C11.6348 21.7938 11.5801 21.5262 11.4785 21.3114C11.377 21.0927 11.2168 20.9286 10.998 20.8192C10.7793 20.7098 10.4883 20.6552 10.125 20.6552C9.87109 20.6552 9.65039 20.702 9.46289 20.7958C9.27539 20.8895 9.11914 21.038 8.99414 21.2411C8.86914 21.4442 8.77539 21.7079 8.71289 22.0321C8.6543 22.3524 8.625 22.7391 8.625 23.1923V23.6669C8.625 24.12 8.65234 24.5067 8.70703 24.827C8.76172 25.1473 8.84961 25.4091 8.9707 25.6122C9.0918 25.8153 9.24805 25.9657 9.43945 26.0634C9.63477 26.1571 9.87305 26.204 10.1543 26.204C10.4668 26.204 10.7305 26.1552 10.9453 26.0575C11.1602 25.9559 11.3262 25.8036 11.4434 25.6005C11.5605 25.3934 11.623 25.1298 11.6309 24.8094ZM19.0488 25.4305C19.0488 25.2977 19.0293 25.1786 18.9902 25.0731C18.9512 24.9637 18.8789 24.8622 18.7734 24.7684C18.668 24.6747 18.5156 24.5809 18.3164 24.4872C18.1211 24.3895 17.8633 24.288 17.543 24.1825C17.168 24.0575 16.8066 23.9169 16.459 23.7606C16.1113 23.6005 15.8008 23.4149 15.5273 23.204C15.2539 22.9891 15.0371 22.7391 14.877 22.454C14.7168 22.1649 14.6367 21.829 14.6367 21.4462C14.6367 21.079 14.7188 20.7489 14.8828 20.4559C15.0469 20.1591 15.2754 19.9071 15.5684 19.7001C15.8652 19.4891 16.2129 19.329 16.6113 19.2196C17.0098 19.1063 17.4453 19.0497 17.918 19.0497C18.543 19.0497 19.0938 19.1591 19.5703 19.3778C20.0508 19.5927 20.4258 19.8993 20.6953 20.2977C20.9688 20.6923 21.1055 21.1591 21.1055 21.6981H19.0605C19.0605 21.4833 19.0156 21.2938 18.9258 21.1298C18.8398 20.9657 18.709 20.8368 18.5332 20.743C18.3574 20.6493 18.1367 20.6024 17.8711 20.6024C17.6133 20.6024 17.3965 20.6415 17.2207 20.7196C17.0449 20.7977 16.9121 20.9032 16.8223 21.036C16.7324 21.1649 16.6875 21.3075 16.6875 21.4637C16.6875 21.5927 16.7227 21.7098 16.793 21.8153C16.8672 21.9169 16.9707 22.0126 17.1035 22.1024C17.2402 22.1923 17.4043 22.2782 17.5957 22.3602C17.791 22.4423 18.0098 22.5223 18.252 22.6005C18.7051 22.745 19.1074 22.9071 19.459 23.0868C19.8145 23.2626 20.1133 23.4637 20.3555 23.6903C20.6016 23.913 20.7871 24.1669 20.9121 24.452C21.041 24.7372 21.1055 25.0594 21.1055 25.4188C21.1055 25.8016 21.0312 26.1415 20.8828 26.4384C20.7344 26.7352 20.5215 26.9872 20.2441 27.1942C19.9668 27.3973 19.6348 27.5516 19.248 27.6571C18.8613 27.7626 18.4297 27.8153 17.9531 27.8153C17.5156 27.8153 17.084 27.7606 16.6582 27.6512C16.2363 27.538 15.8535 27.3661 15.5098 27.1356C15.166 26.9012 14.8906 26.6024 14.6836 26.2391C14.4805 25.8719 14.3789 25.4364 14.3789 24.9325H16.4414C16.4414 25.1825 16.4746 25.3934 16.541 25.5653C16.6074 25.7372 16.7051 25.8759 16.834 25.9813C16.9629 26.0829 17.1211 26.1571 17.3086 26.204C17.4961 26.2469 17.7109 26.2684 17.9531 26.2684C18.2148 26.2684 18.4258 26.2313 18.5859 26.1571C18.7461 26.079 18.8633 25.9774 18.9375 25.8524C19.0117 25.7235 19.0488 25.5829 19.0488 25.4305ZM26.5605 25.4305C26.5605 25.2977 26.541 25.1786 26.502 25.0731C26.4629 24.9637 26.3906 24.8622 26.2852 24.7684C26.1797 24.6747 26.0273 24.5809 25.8281 24.4872C25.6328 24.3895 25.375 24.288 25.0547 24.1825C24.6797 24.0575 24.3184 23.9169 23.9707 23.7606C23.623 23.6005 23.3125 23.4149 23.0391 23.204C22.7656 22.9891 22.5488 22.7391 22.3887 22.454C22.2285 22.1649 22.1484 21.829 22.1484 21.4462C22.1484 21.079 22.2305 20.7489 22.3945 20.4559C22.5586 20.1591 22.7871 19.9071 23.0801 19.7001C23.377 19.4891 23.7246 19.329 24.123 19.2196C24.5215 19.1063 24.957 19.0497 25.4297 19.0497C26.0547 19.0497 26.6055 19.1591 27.082 19.3778C27.5625 19.5927 27.9375 19.8993 28.207 20.2977C28.4805 20.6923 28.6172 21.1591 28.6172 21.6981H26.5723C26.5723 21.4833 26.5273 21.2938 26.4375 21.1298C26.3516 20.9657 26.2207 20.8368 26.0449 20.743C25.8691 20.6493 25.6484 20.6024 25.3828 20.6024C25.125 20.6024 24.9082 20.6415 24.7324 20.7196C24.5566 20.7977 24.4238 20.9032 24.334 21.036C24.2441 21.1649 24.1992 21.3075 24.1992 21.4637C24.1992 21.5927 24.2344 21.7098 24.3047 21.8153C24.3789 21.9169 24.4824 22.0126 24.6152 22.1024C24.752 22.1923 24.916 22.2782 25.1074 22.3602C25.3027 22.4423 25.5215 22.5223 25.7637 22.6005C26.2168 22.745 26.6191 22.9071 26.9707 23.0868C27.3262 23.2626 27.625 23.4637 27.8672 23.6903C28.1133 23.913 28.2988 24.1669 28.4238 24.452C28.5527 24.7372 28.6172 25.0594 28.6172 25.4188C28.6172 25.8016 28.543 26.1415 28.3945 26.4384C28.2461 26.7352 28.0332 26.9872 27.7559 27.1942C27.4785 27.3973 27.1465 27.5516 26.7598 27.6571C26.373 27.7626 25.9414 27.8153 25.4648 27.8153C25.0273 27.8153 24.5957 27.7606 24.1699 27.6512C23.748 27.538 23.3652 27.3661 23.0215 27.1356C22.6777 26.9012 22.4023 26.6024 22.1953 26.2391C21.9922 25.8719 21.8906 25.4364 21.8906 24.9325H23.9531C23.9531 25.1825 23.9863 25.3934 24.0527 25.5653C24.1191 25.7372 24.2168 25.8759 24.3457 25.9813C24.4746 26.0829 24.6328 26.1571 24.8203 26.204C25.0078 26.2469 25.2227 26.2684 25.4648 26.2684C25.7266 26.2684 25.9375 26.2313 26.0977 26.1571C26.2578 26.079 26.375 25.9774 26.4492 25.8524C26.5234 25.7235 26.5605 25.5829 26.5605 25.4305Z" fill="white"/>
</svg>
