<svg width="35" height="44" viewBox="0 0 35 44" fill="none" xmlns="http://www.w3.org/2000/svg">
<path d="M2.8125 0.275513H25.5228L34.7501 9.51739L34.9538 41.7501C34.9608 42.8595 34.0633 43.7627 32.9538 43.7627H2.8125C1.70793 43.7627 0.8125 42.8673 0.8125 41.7627V2.27551C0.8125 1.17094 1.70793 0.275513 2.8125 0.275513Z" fill="#06437C"/>
<path d="M25.5176 0.275513V8.50567C25.5176 9.05796 25.9653 9.50567 26.5176 9.50567H34.7477L25.5176 0.275513Z" fill="black" fill-opacity="0.16"/>
<path d="M12.1074 24.8094H14.1582C14.1309 25.4032 13.9707 25.9266 13.6777 26.3798C13.3848 26.8329 12.9785 27.1864 12.459 27.4403C11.9434 27.6903 11.334 27.8153 10.6309 27.8153C10.0605 27.8153 9.55078 27.7196 9.10156 27.5282C8.65625 27.3368 8.27734 27.0614 7.96484 26.702C7.65625 26.3427 7.41992 25.9071 7.25586 25.3954C7.0957 24.8837 7.01562 24.3075 7.01562 23.6669V23.204C7.01562 22.5634 7.09961 21.9872 7.26758 21.4755C7.43945 20.9598 7.68164 20.5223 7.99414 20.163C8.31055 19.7997 8.68945 19.5223 9.13086 19.3309C9.57227 19.1395 10.0625 19.0438 10.6016 19.0438C11.3438 19.0438 11.9707 19.1766 12.4824 19.4423C12.9941 19.7079 13.3906 20.0731 13.6719 20.538C13.9531 20.9989 14.1191 21.5243 14.1699 22.1141H12.1191C12.1113 21.7938 12.0566 21.5262 11.9551 21.3114C11.8535 21.0927 11.6934 20.9286 11.4746 20.8192C11.2559 20.7098 10.9648 20.6552 10.6016 20.6552C10.3477 20.6552 10.127 20.702 9.93945 20.7958C9.75195 20.8895 9.5957 21.038 9.4707 21.2411C9.3457 21.4442 9.25195 21.7079 9.18945 22.0321C9.13086 22.3524 9.10156 22.7391 9.10156 23.1923V23.6669C9.10156 24.12 9.12891 24.5067 9.18359 24.827C9.23828 25.1473 9.32617 25.4091 9.44727 25.6122C9.56836 25.8153 9.72461 25.9657 9.91602 26.0634C10.1113 26.1571 10.3496 26.204 10.6309 26.204C10.9434 26.204 11.207 26.1552 11.4219 26.0575C11.6367 25.9559 11.8027 25.8036 11.9199 25.6005C12.0371 25.3934 12.0996 25.1298 12.1074 24.8094ZM19.7598 19.1669H21.8164V24.7391C21.8164 25.4032 21.6777 25.9657 21.4004 26.4266C21.123 26.8837 20.7344 27.2294 20.2344 27.4637C19.7344 27.6981 19.1465 27.8153 18.4707 27.8153C17.8027 27.8153 17.2148 27.6981 16.707 27.4637C16.2031 27.2294 15.8086 26.8837 15.5234 26.4266C15.2422 25.9657 15.1016 25.4032 15.1016 24.7391V19.1669H17.1641V24.7391C17.1641 25.0907 17.2148 25.3778 17.3164 25.6005C17.418 25.8192 17.5664 25.9794 17.7617 26.0809C17.957 26.1825 18.1934 26.2333 18.4707 26.2333C18.752 26.2333 18.9883 26.1825 19.1797 26.0809C19.3711 25.9794 19.5156 25.8192 19.6133 25.6005C19.7109 25.3778 19.7598 25.0907 19.7598 24.7391V19.1669ZM28.9824 26.1161V27.6981H24.4355V26.1161H28.9824ZM25.168 19.1669V27.6981H23.1113V19.1669H25.168ZM28.3965 22.5536V24.0829H24.4355V22.5536H28.3965ZM29 19.1669V20.7548H24.4355V19.1669H29Z" fill="white"/>
</svg>
