<svg width="35" height="44" viewBox="0 0 35 44" fill="none" xmlns="http://www.w3.org/2000/svg">
<path d="M2.03125 0.462769H24.7416L33.9689 9.70464L34.1725 41.9373C34.1795 43.0468 33.2821 43.9499 32.1726 43.9499H2.03125C0.926681 43.9499 0.03125 43.0545 0.03125 41.9499V2.46277C0.03125 1.3582 0.926681 0.462769 2.03125 0.462769Z" fill="#06437C"/>
<path d="M24.7363 0.462769V8.69293C24.7363 9.24521 25.184 9.69293 25.7363 9.69293H33.9665L24.7363 0.462769Z" fill="black" fill-opacity="0.16"/>
<path d="M10.2695 24.9967H12.3203C12.293 25.5905 12.1328 26.1139 11.8398 26.567C11.5469 27.0201 11.1406 27.3737 10.6211 27.6276C10.1055 27.8776 9.49609 28.0026 8.79297 28.0026C8.22266 28.0026 7.71289 27.9069 7.26367 27.7155C6.81836 27.524 6.43945 27.2487 6.12695 26.8893C5.81836 26.5299 5.58203 26.0944 5.41797 25.5826C5.25781 25.0709 5.17773 24.4948 5.17773 23.8541V23.3912C5.17773 22.7506 5.26172 22.1744 5.42969 21.6627C5.60156 21.1471 5.84375 20.7096 6.15625 20.3502C6.47266 19.9869 6.85156 19.7096 7.29297 19.5182C7.73438 19.3268 8.22461 19.2311 8.76367 19.2311C9.50586 19.2311 10.1328 19.3639 10.6445 19.6295C11.1562 19.8951 11.5527 20.2604 11.834 20.7252C12.1152 21.1862 12.2812 21.7115 12.332 22.3014H10.2812C10.2734 21.9811 10.2188 21.7135 10.1172 21.4987C10.0156 21.2799 9.85547 21.1158 9.63672 21.0065C9.41797 20.8971 9.12695 20.8424 8.76367 20.8424C8.50977 20.8424 8.28906 20.8893 8.10156 20.983C7.91406 21.0768 7.75781 21.2252 7.63281 21.4283C7.50781 21.6315 7.41406 21.8951 7.35156 22.2194C7.29297 22.5397 7.26367 22.9264 7.26367 23.3795V23.8541C7.26367 24.3073 7.29102 24.694 7.3457 25.0143C7.40039 25.3346 7.48828 25.5963 7.60938 25.7994C7.73047 26.0026 7.88672 26.153 8.07812 26.2506C8.27344 26.3444 8.51172 26.3912 8.79297 26.3912C9.10547 26.3912 9.36914 26.3424 9.58398 26.2448C9.79883 26.1432 9.96484 25.9908 10.082 25.7877C10.1992 25.5807 10.2617 25.317 10.2695 24.9967ZM17.9219 19.3541H19.9785V24.9264C19.9785 25.5905 19.8398 26.153 19.5625 26.6139C19.2852 27.0709 18.8965 27.4166 18.3965 27.651C17.8965 27.8854 17.3086 28.0026 16.6328 28.0026C15.9648 28.0026 15.377 27.8854 14.8691 27.651C14.3652 27.4166 13.9707 27.0709 13.6855 26.6139C13.4043 26.153 13.2637 25.5905 13.2637 24.9264V19.3541H15.3262V24.9264C15.3262 25.278 15.377 25.5651 15.4785 25.7877C15.5801 26.0065 15.7285 26.1666 15.9238 26.2682C16.1191 26.3698 16.3555 26.4205 16.6328 26.4205C16.9141 26.4205 17.1504 26.3698 17.3418 26.2682C17.5332 26.1666 17.6777 26.0065 17.7754 25.7877C17.873 25.5651 17.9219 25.278 17.9219 24.9264V19.3541ZM21.2734 19.3541H24.6309C25.2871 19.3541 25.8574 19.4518 26.3418 19.6471C26.8262 19.8424 27.1992 20.1315 27.4609 20.5143C27.7266 20.8971 27.8594 21.3698 27.8594 21.9323C27.8594 22.4205 27.7832 22.8287 27.6309 23.1569C27.4785 23.485 27.2656 23.7565 26.9922 23.9713C26.7227 24.1823 26.4082 24.3561 26.0488 24.4928L25.375 24.8737H22.5566L22.5449 23.2858H24.6309C24.8926 23.2858 25.1094 23.2389 25.2812 23.1451C25.4531 23.0514 25.582 22.9186 25.668 22.7467C25.7578 22.5709 25.8027 22.3619 25.8027 22.1198C25.8027 21.8737 25.7578 21.6627 25.668 21.4869C25.5781 21.3112 25.4453 21.1764 25.2695 21.0826C25.0977 20.9889 24.8848 20.942 24.6309 20.942H23.3301V27.8854H21.2734V19.3541ZM25.9434 27.8854L24.0566 24.1119L26.2363 24.1002L28.1465 27.7975V27.8854H25.9434Z" fill="white"/>
</svg>
