<svg width="35" height="44" viewBox="0 0 35 44" fill="none" xmlns="http://www.w3.org/2000/svg">
<path d="M2.1875 0.462769H24.8978L34.1251 9.70464L34.3288 41.9373C34.3358 43.0468 33.4383 43.9499 32.3288 43.9499H2.1875C1.08293 43.9499 0.1875 43.0545 0.1875 41.9499V2.46277C0.1875 1.3582 1.08293 0.462769 2.1875 0.462769Z" fill="#06437C"/>
<path d="M24.8926 0.462769V8.69293C24.8926 9.24521 25.3403 9.69293 25.8926 9.69293H34.1227L24.8926 0.462769Z" fill="black" fill-opacity="0.16"/>
<path d="M9.34375 27.8854H7.45117L7.46289 26.3033H9.34375C9.73438 26.3033 10.0645 26.2096 10.334 26.0221C10.6074 25.8346 10.8145 25.5553 10.9551 25.1842C11.0996 24.8092 11.1719 24.3483 11.1719 23.8014V23.4323C11.1719 23.0221 11.1309 22.6627 11.0488 22.3541C10.9707 22.0416 10.8535 21.7819 10.6973 21.5748C10.541 21.3639 10.3457 21.2057 10.1113 21.1002C9.88086 20.9948 9.61523 20.942 9.31445 20.942H7.41602V19.3541H9.31445C9.89258 19.3541 10.4219 19.4537 10.9023 19.653C11.3867 19.8483 11.8047 20.1295 12.1562 20.4967C12.5117 20.86 12.7852 21.2916 12.9766 21.7916C13.1719 22.2877 13.2695 22.8385 13.2695 23.444V23.8014C13.2695 24.403 13.1719 24.9537 12.9766 25.4537C12.7852 25.9537 12.5137 26.3854 12.1621 26.7487C11.8105 27.1119 11.3945 27.3932 10.9141 27.5924C10.4375 27.7877 9.91406 27.8854 9.34375 27.8854ZM8.62891 19.3541V27.8854H6.57227V19.3541H8.62891ZM17.8281 21.1471L15.748 27.8854H13.5391L16.6738 19.3541H18.0742L17.8281 21.1471ZM19.5508 27.8854L17.4648 21.1471L17.1953 19.3541H18.6133L21.7656 27.8854H19.5508ZM19.4688 24.7037V26.2916H15.0918V24.7037H19.4688ZM25.8203 19.3541V27.8854H23.7637V19.3541H25.8203ZM28.3867 19.3541V20.942H21.2559V19.3541H28.3867Z" fill="white"/>
</svg>
