<svg width="35" height="44" viewBox="0 0 35 44" fill="none" xmlns="http://www.w3.org/2000/svg">
<path d="M2.65625 0.462769H25.3666L34.5939 9.70464L34.7975 41.9373C34.8045 43.0468 33.9071 43.9499 32.7976 43.9499H2.65625C1.55168 43.9499 0.65625 43.0545 0.65625 41.9499V2.46277C0.65625 1.3582 1.55168 0.462769 2.65625 0.462769Z" fill="#06437C"/>
<path d="M25.3613 0.462769V8.69293C25.3613 9.24521 25.809 9.69293 26.3613 9.69293H34.5915L25.3613 0.462769Z" fill="black" fill-opacity="0.16"/>
<path d="M9.13086 27.8854H7.23828L7.25 26.3033H9.13086C9.52148 26.3033 9.85156 26.2096 10.1211 26.0221C10.3945 25.8346 10.6016 25.5553 10.7422 25.1842C10.8867 24.8092 10.959 24.3483 10.959 23.8014V23.4323C10.959 23.0221 10.918 22.6627 10.8359 22.3541C10.7578 22.0416 10.6406 21.7819 10.4844 21.5748C10.3281 21.3639 10.1328 21.2057 9.89844 21.1002C9.66797 20.9948 9.40234 20.942 9.10156 20.942H7.20312V19.3541H9.10156C9.67969 19.3541 10.209 19.4537 10.6895 19.653C11.1738 19.8483 11.5918 20.1295 11.9434 20.4967C12.2988 20.86 12.5723 21.2916 12.7637 21.7916C12.959 22.2877 13.0566 22.8385 13.0566 23.444V23.8014C13.0566 24.403 12.959 24.9537 12.7637 25.4537C12.5723 25.9537 12.3008 26.3854 11.9492 26.7487C11.5977 27.1119 11.1816 27.3932 10.7012 27.5924C10.2246 27.7877 9.70117 27.8854 9.13086 27.8854ZM8.41602 19.3541V27.8854H6.35938V19.3541H8.41602ZM16.9004 27.8854H15.0078L15.0195 26.3033H16.9004C17.291 26.3033 17.6211 26.2096 17.8906 26.0221C18.1641 25.8346 18.3711 25.5553 18.5117 25.1842C18.6562 24.8092 18.7285 24.3483 18.7285 23.8014V23.4323C18.7285 23.0221 18.6875 22.6627 18.6055 22.3541C18.5273 22.0416 18.4102 21.7819 18.2539 21.5748C18.0977 21.3639 17.9023 21.2057 17.668 21.1002C17.4375 20.9948 17.1719 20.942 16.8711 20.942H14.9727V19.3541H16.8711C17.4492 19.3541 17.9785 19.4537 18.459 19.653C18.9434 19.8483 19.3613 20.1295 19.7129 20.4967C20.0684 20.86 20.3418 21.2916 20.5332 21.7916C20.7285 22.2877 20.8262 22.8385 20.8262 23.444V23.8014C20.8262 24.403 20.7285 24.9537 20.5332 25.4537C20.3418 25.9537 20.0703 26.3854 19.7188 26.7487C19.3672 27.1119 18.9512 27.3932 18.4707 27.5924C17.9941 27.7877 17.4707 27.8854 16.9004 27.8854ZM16.1855 19.3541V27.8854H14.1289V19.3541H16.1855ZM26.293 25.6178C26.293 25.485 26.2734 25.3658 26.2344 25.2604C26.1953 25.151 26.123 25.0494 26.0176 24.9557C25.9121 24.8619 25.7598 24.7682 25.5605 24.6744C25.3652 24.5768 25.1074 24.4752 24.7871 24.3698C24.4121 24.2448 24.0508 24.1041 23.7031 23.9479C23.3555 23.7877 23.0449 23.6022 22.7715 23.3912C22.498 23.1764 22.2812 22.9264 22.1211 22.6412C21.9609 22.3522 21.8809 22.0162 21.8809 21.6334C21.8809 21.2662 21.9629 20.9362 22.127 20.6432C22.291 20.3463 22.5195 20.0944 22.8125 19.8873C23.1094 19.6764 23.457 19.5162 23.8555 19.4069C24.2539 19.2936 24.6895 19.2369 25.1621 19.2369C25.7871 19.2369 26.3379 19.3463 26.8145 19.5651C27.2949 19.7799 27.6699 20.0865 27.9395 20.485C28.2129 20.8795 28.3496 21.3463 28.3496 21.8854H26.3047C26.3047 21.6705 26.2598 21.4811 26.1699 21.317C26.084 21.153 25.9531 21.024 25.7773 20.9303C25.6016 20.8365 25.3809 20.7897 25.1152 20.7897C24.8574 20.7897 24.6406 20.8287 24.4648 20.9069C24.2891 20.985 24.1562 21.0905 24.0664 21.2233C23.9766 21.3522 23.9316 21.4948 23.9316 21.651C23.9316 21.7799 23.9668 21.8971 24.0371 22.0026C24.1113 22.1041 24.2148 22.1998 24.3477 22.2897C24.4844 22.3795 24.6484 22.4655 24.8398 22.5475C25.0352 22.6295 25.2539 22.7096 25.4961 22.7877C25.9492 22.9323 26.3516 23.0944 26.7031 23.274C27.0586 23.4498 27.3574 23.651 27.5996 23.8776C27.8457 24.1002 28.0312 24.3541 28.1562 24.6393C28.2852 24.9244 28.3496 25.2467 28.3496 25.6061C28.3496 25.9889 28.2754 26.3287 28.127 26.6256C27.9785 26.9225 27.7656 27.1744 27.4883 27.3815C27.2109 27.5846 26.8789 27.7389 26.4922 27.8444C26.1055 27.9498 25.6738 28.0026 25.1973 28.0026C24.7598 28.0026 24.3281 27.9479 23.9023 27.8385C23.4805 27.7252 23.0977 27.5533 22.7539 27.3229C22.4102 27.0885 22.1348 26.7897 21.9277 26.4264C21.7246 26.0592 21.623 25.6237 21.623 25.1198H23.6855C23.6855 25.3698 23.7188 25.5807 23.7852 25.7526C23.8516 25.9244 23.9492 26.0631 24.0781 26.1686C24.207 26.2701 24.3652 26.3444 24.5527 26.3912C24.7402 26.4342 24.9551 26.4557 25.1973 26.4557C25.459 26.4557 25.6699 26.4186 25.8301 26.3444C25.9902 26.2662 26.1074 26.1647 26.1816 26.0397C26.2559 25.9108 26.293 25.7701 26.293 25.6178Z" fill="white"/>
</svg>
