<svg width="35" height="44" viewBox="0 0 35 44" fill="none" xmlns="http://www.w3.org/2000/svg">
<path d="M2.8125 0.462769H25.5228L34.7501 9.70464L34.9538 41.9373C34.9608 43.0468 34.0633 43.9499 32.9538 43.9499H2.8125C1.70793 43.9499 0.8125 43.0545 0.8125 41.9499V2.46277C0.8125 1.3582 1.70793 0.462769 2.8125 0.462769Z" fill="#06437C"/>
<path d="M25.5176 0.462769V8.69293C25.5176 9.24521 25.9653 9.69293 26.5176 9.69293H34.7477L25.5176 0.462769Z" fill="black" fill-opacity="0.16"/>
<path d="M8.30859 27.8854H6.41602L6.42773 26.3033H8.30859C8.69922 26.3033 9.0293 26.2096 9.29883 26.0221C9.57227 25.8346 9.7793 25.5553 9.91992 25.1842C10.0645 24.8092 10.1367 24.3483 10.1367 23.8014V23.4323C10.1367 23.0221 10.0957 22.6627 10.0137 22.3541C9.93555 22.0416 9.81836 21.7819 9.66211 21.5748C9.50586 21.3639 9.31055 21.2057 9.07617 21.1002C8.8457 20.9948 8.58008 20.942 8.2793 20.942H6.38086V19.3541H8.2793C8.85742 19.3541 9.38672 19.4537 9.86719 19.653C10.3516 19.8483 10.7695 20.1295 11.1211 20.4967C11.4766 20.86 11.75 21.2916 11.9414 21.7916C12.1367 22.2877 12.2344 22.8385 12.2344 23.444V23.8014C12.2344 24.403 12.1367 24.9537 11.9414 25.4537C11.75 25.9537 11.4785 26.3854 11.127 26.7487C10.7754 27.1119 10.3594 27.3932 9.87891 27.5924C9.40234 27.7877 8.87891 27.8854 8.30859 27.8854ZM7.59375 19.3541V27.8854H5.53711V19.3541H7.59375ZM19.1777 26.3033V27.8854H14.6309V26.3033H19.1777ZM15.3633 19.3541V27.8854H13.3066V19.3541H15.3633ZM18.5918 22.7408V24.2701H14.6309V22.7408H18.5918ZM19.1953 19.3541V20.942H14.6309V19.3541H19.1953ZM21.041 19.3541H22.7168L24.6211 25.2897L26.5254 19.3541H28.2012L25.3008 27.8854H23.9414L21.041 19.3541ZM20.0215 19.3541H21.7559L22.0781 25.8932V27.8854H20.0215V19.3541ZM27.4863 19.3541H29.2266V27.8854H27.1641V25.8932L27.4863 19.3541Z" fill="white"/>
</svg>
