<svg width="35" height="45" viewBox="0 0 35 45" fill="none" xmlns="http://www.w3.org/2000/svg">
<path d="M2.1875 0.649658H24.8978L34.1251 9.89153L34.3288 42.1242C34.3358 43.2337 33.4383 44.1368 32.3288 44.1368H2.1875C1.08293 44.1368 0.1875 43.2414 0.1875 42.1368V2.64966C0.1875 1.54509 1.08293 0.649658 2.1875 0.649658Z" fill="#F3A100"/>
<path d="M24.8926 0.649658V8.87982C24.8926 9.4321 25.3403 9.87982 25.8926 9.87982H34.1227L24.8926 0.649658Z" fill="black" fill-opacity="0.16"/>
<path d="M7.45117 28.0725H5.55859L5.57031 26.4905H7.45117C7.8418 26.4905 8.17188 26.3967 8.44141 26.2092C8.71484 26.0217 8.92188 25.7424 9.0625 25.3713C9.20703 24.9963 9.2793 24.5354 9.2793 23.9885V23.6194C9.2793 23.2092 9.23828 22.8499 9.15625 22.5413C9.07812 22.2288 8.96094 21.969 8.80469 21.762C8.64844 21.551 8.45312 21.3928 8.21875 21.2874C7.98828 21.1819 7.72266 21.1292 7.42188 21.1292H5.52344V19.5413H7.42188C8 19.5413 8.5293 19.6409 9.00977 19.8401C9.49414 20.0354 9.91211 20.3167 10.2637 20.6838C10.6191 21.0471 10.8926 21.4788 11.084 21.9788C11.2793 22.4749 11.377 23.0256 11.377 23.6311V23.9885C11.377 24.5901 11.2793 25.1409 11.084 25.6409C10.8926 26.1409 10.6211 26.5725 10.2695 26.9358C9.91797 27.2991 9.50195 27.5803 9.02148 27.7795C8.54492 27.9749 8.02148 28.0725 7.45117 28.0725ZM6.73633 19.5413V28.0725H4.67969V19.5413H6.73633ZM13.4688 19.5413H15.1445L17.0488 25.4768L18.9531 19.5413H20.6289L17.7285 28.0725H16.3691L13.4688 19.5413ZM12.4492 19.5413H14.1836L14.5059 26.0803V28.0725H12.4492V19.5413ZM19.9141 19.5413H21.6543V28.0725H19.5918V26.0803L19.9141 19.5413ZM29.9512 23.5139V27.0178C29.8066 27.178 29.584 27.3499 29.2832 27.5334C28.9863 27.7131 28.6113 27.8674 28.1582 27.9963C27.7051 28.1252 27.1719 28.1897 26.5586 28.1897C25.9922 28.1897 25.4785 28.0999 25.0176 27.9202C24.5566 27.7366 24.1602 27.469 23.8281 27.1174C23.5 26.762 23.2461 26.3284 23.0664 25.8167C22.8906 25.301 22.8027 24.7112 22.8027 24.0471V23.5725C22.8027 22.9084 22.8926 22.3186 23.0723 21.803C23.252 21.2874 23.5039 20.8538 23.8281 20.5022C24.1562 20.1467 24.541 19.8772 24.9824 19.6936C25.4277 19.51 25.916 19.4182 26.4473 19.4182C27.2324 19.4182 27.8711 19.5432 28.3633 19.7932C28.8555 20.0393 29.2285 20.3811 29.4824 20.8186C29.7363 21.2522 29.8906 21.7542 29.9453 22.3245H27.9707C27.9316 22.0432 27.8574 21.8049 27.748 21.6096C27.6426 21.4104 27.4902 21.26 27.291 21.1584C27.0918 21.053 26.834 21.0002 26.5176 21.0002C26.2715 21.0002 26.0469 21.053 25.8438 21.1584C25.6445 21.2639 25.4746 21.4241 25.334 21.6389C25.1934 21.8499 25.084 22.1155 25.0059 22.4358C24.9316 22.7561 24.8945 23.1311 24.8945 23.5608V24.0471C24.8945 24.4729 24.9297 24.8459 25 25.1663C25.0742 25.4866 25.1836 25.7542 25.3281 25.969C25.4766 26.1799 25.6641 26.3401 25.8906 26.4495C26.1211 26.5549 26.3926 26.6077 26.7051 26.6077C26.9238 26.6077 27.1113 26.5901 27.2676 26.5549C27.4238 26.5159 27.5527 26.469 27.6543 26.4143C27.7598 26.3557 27.8398 26.301 27.8945 26.2502V24.926H26.4648V23.5139H29.9512Z" fill="white"/>
</svg>
