<svg width="35" height="45" viewBox="0 0 35 45" fill="none" xmlns="http://www.w3.org/2000/svg">
<path d="M2.34375 0.649658H25.0541L34.2814 9.89153L34.485 42.1242C34.492 43.2337 33.5946 44.1368 32.4851 44.1368H2.34375C1.23918 44.1368 0.34375 43.2414 0.34375 42.1368V2.64966C0.34375 1.54509 1.23918 0.649658 2.34375 0.649658Z" fill="#F3A100"/>
<path d="M25.0488 0.649658V8.87982C25.0488 9.4321 25.4965 9.87982 26.0488 9.87982H34.279L25.0488 0.649658Z" fill="black" fill-opacity="0.16"/>
<path d="M7.78906 28.0725H5.89648L5.9082 26.4905H7.78906C8.17969 26.4905 8.50977 26.3967 8.7793 26.2092C9.05273 26.0217 9.25977 25.7424 9.40039 25.3713C9.54492 24.9963 9.61719 24.5354 9.61719 23.9885V23.6194C9.61719 23.2092 9.57617 22.8499 9.49414 22.5413C9.41602 22.2288 9.29883 21.969 9.14258 21.762C8.98633 21.551 8.79102 21.3928 8.55664 21.2874C8.32617 21.1819 8.06055 21.1292 7.75977 21.1292H5.86133V19.5413H7.75977C8.33789 19.5413 8.86719 19.6409 9.34766 19.8401C9.83203 20.0354 10.25 20.3167 10.6016 20.6838C10.957 21.0471 11.2305 21.4788 11.4219 21.9788C11.6172 22.4749 11.7148 23.0256 11.7148 23.6311V23.9885C11.7148 24.5901 11.6172 25.1409 11.4219 25.6409C11.2305 26.1409 10.959 26.5725 10.6074 26.9358C10.2559 27.2991 9.83984 27.5803 9.35938 27.7795C8.88281 27.9749 8.35938 28.0725 7.78906 28.0725ZM7.07422 19.5413V28.0725H5.01758V19.5413H7.07422ZM13.8066 19.5413H15.4824L17.3867 25.4768L19.291 19.5413H20.9668L18.0664 28.0725H16.707L13.8066 19.5413ZM12.7871 19.5413H14.5215L14.8438 26.0803V28.0725H12.7871V19.5413ZM20.252 19.5413H21.9922V28.0725H19.9297V26.0803L20.252 19.5413ZM26.7148 25.178H24.5938V23.5901H26.7148C27.0039 23.5901 27.2383 23.5413 27.418 23.4436C27.5977 23.3459 27.7285 23.2112 27.8105 23.0393C27.8965 22.8635 27.9395 22.6663 27.9395 22.4475C27.9395 22.2131 27.8965 21.9963 27.8105 21.7971C27.7285 21.5979 27.5977 21.4377 27.418 21.3167C27.2383 21.1917 27.0039 21.1292 26.7148 21.1292H25.3672V28.0725H23.3105V19.5413H26.7148C27.3984 19.5413 27.9863 19.6663 28.4785 19.9163C28.9746 20.1663 29.3555 20.51 29.6211 20.9475C29.8867 21.3811 30.0195 21.8772 30.0195 22.4358C30.0195 22.9866 29.8867 23.467 29.6211 23.8772C29.3555 24.2874 28.9746 24.6077 28.4785 24.8381C27.9863 25.0647 27.3984 25.178 26.7148 25.178Z" fill="white"/>
</svg>
