<svg width="35" height="45" viewBox="0 0 35 45" fill="none" xmlns="http://www.w3.org/2000/svg">
<path d="M2.65625 0.649658H25.3666L34.5939 9.89153L34.7975 42.1242C34.8045 43.2337 33.9071 44.1368 32.7976 44.1368H2.65625C1.55168 44.1368 0.65625 43.2414 0.65625 42.1368V2.64966C0.65625 1.54509 1.55168 0.649658 2.65625 0.649658Z" fill="#F3A100"/>
<path d="M25.3613 0.649658V8.87982C25.3613 9.4321 25.809 9.87982 26.3613 9.87982H34.5915L25.3613 0.649658Z" fill="black" fill-opacity="0.16"/>
<path d="M4.85938 28.0725H2.9668L2.97852 26.4905H4.85938C5.25 26.4905 5.58008 26.3967 5.84961 26.2092C6.12305 26.0217 6.33008 25.7424 6.4707 25.3713C6.61523 24.9963 6.6875 24.5354 6.6875 23.9885V23.6194C6.6875 23.2092 6.64648 22.8499 6.56445 22.5413C6.48633 22.2288 6.36914 21.969 6.21289 21.762C6.05664 21.551 5.86133 21.3928 5.62695 21.2874C5.39648 21.1819 5.13086 21.1292 4.83008 21.1292H2.93164V19.5413H4.83008C5.4082 19.5413 5.9375 19.6409 6.41797 19.8401C6.90234 20.0354 7.32031 20.3167 7.67188 20.6838C8.02734 21.0471 8.30078 21.4788 8.49219 21.9788C8.6875 22.4749 8.78516 23.0256 8.78516 23.6311V23.9885C8.78516 24.5901 8.6875 25.1409 8.49219 25.6409C8.30078 26.1409 8.0293 26.5725 7.67773 26.9358C7.32617 27.2991 6.91016 27.5803 6.42969 27.7795C5.95312 27.9749 5.42969 28.0725 4.85938 28.0725ZM4.14453 19.5413V28.0725H2.08789V19.5413H4.14453ZM17.0762 23.637V23.9827C17.0762 24.635 16.9844 25.2209 16.8008 25.7405C16.6211 26.2561 16.3652 26.6975 16.0332 27.0647C15.7012 27.428 15.3086 27.7073 14.8555 27.9026C14.4023 28.094 13.9023 28.1897 13.3555 28.1897C12.8047 28.1897 12.3008 28.094 11.8438 27.9026C11.3906 27.7073 10.9961 27.428 10.6602 27.0647C10.3281 26.6975 10.0703 26.2561 9.88672 25.7405C9.70703 25.2209 9.61719 24.635 9.61719 23.9827V23.637C9.61719 22.9846 9.70703 22.3987 9.88672 21.8792C10.0703 21.3596 10.3262 20.9182 10.6543 20.5549C10.9863 20.1877 11.3789 19.9084 11.832 19.717C12.2891 19.5217 12.793 19.4241 13.3438 19.4241C13.8906 19.4241 14.3906 19.5217 14.8438 19.717C15.3008 19.9084 15.6953 20.1877 16.0273 20.5549C16.3594 20.9182 16.6172 21.3596 16.8008 21.8792C16.9844 22.3987 17.0762 22.9846 17.0762 23.637ZM14.9902 23.9827V23.6252C14.9902 23.2034 14.9531 22.8323 14.8789 22.512C14.8086 22.1877 14.7031 21.9163 14.5625 21.6975C14.4219 21.4788 14.248 21.3147 14.041 21.2053C13.8379 21.092 13.6055 21.0354 13.3438 21.0354C13.0703 21.0354 12.832 21.092 12.6289 21.2053C12.4258 21.3147 12.2559 21.4788 12.1191 21.6975C11.9824 21.9163 11.8789 22.1877 11.8086 22.512C11.7422 22.8323 11.709 23.2034 11.709 23.6252V23.9827C11.709 24.4006 11.7422 24.7717 11.8086 25.0959C11.8789 25.4163 11.9824 25.6877 12.1191 25.9104C12.2598 26.1331 12.4316 26.301 12.6348 26.4143C12.8418 26.5276 13.082 26.5842 13.3555 26.5842C13.6172 26.5842 13.8496 26.5276 14.0527 26.4143C14.2559 26.301 14.4258 26.1331 14.5625 25.9104C14.7031 25.6877 14.8086 25.4163 14.8789 25.0959C14.9531 24.7717 14.9902 24.4006 14.9902 23.9827ZM22.9941 25.1838H25.0449C25.0176 25.7776 24.8574 26.301 24.5645 26.7542C24.2715 27.2073 23.8652 27.5608 23.3457 27.8147C22.8301 28.0647 22.2207 28.1897 21.5176 28.1897C20.9473 28.1897 20.4375 28.094 19.9883 27.9026C19.543 27.7112 19.1641 27.4358 18.8516 27.0764C18.543 26.717 18.3066 26.2815 18.1426 25.7698C17.9824 25.2581 17.9023 24.6819 17.9023 24.0413V23.5784C17.9023 22.9377 17.9863 22.3616 18.1543 21.8499C18.3262 21.3342 18.5684 20.8967 18.8809 20.5374C19.1973 20.1741 19.5762 19.8967 20.0176 19.7053C20.459 19.5139 20.9492 19.4182 21.4883 19.4182C22.2305 19.4182 22.8574 19.551 23.3691 19.8167C23.8809 20.0823 24.2773 20.4475 24.5586 20.9124C24.8398 21.3733 25.0059 21.8987 25.0566 22.4885H23.0059C22.998 22.1682 22.9434 21.9006 22.8418 21.6858C22.7402 21.467 22.5801 21.303 22.3613 21.1936C22.1426 21.0842 21.8516 21.0295 21.4883 21.0295C21.2344 21.0295 21.0137 21.0764 20.8262 21.1702C20.6387 21.2639 20.4824 21.4124 20.3574 21.6155C20.2324 21.8186 20.1387 22.0823 20.0762 22.4065C20.0176 22.7268 19.9883 23.1135 19.9883 23.5667V24.0413C19.9883 24.4944 20.0156 24.8811 20.0703 25.2014C20.125 25.5217 20.2129 25.7834 20.334 25.9866C20.4551 26.1897 20.6113 26.3401 20.8027 26.4377C20.998 26.5315 21.2363 26.5784 21.5176 26.5784C21.8301 26.5784 22.0938 26.5295 22.3086 26.4319C22.5234 26.3303 22.6895 26.178 22.8066 25.9749C22.9238 25.7678 22.9863 25.5042 22.9941 25.1838ZM27.8047 19.5413L29.1992 22.3772L30.5938 19.5413H32.9375L30.5586 23.7717L33.002 28.0725H30.6348L29.1992 25.1838L27.7637 28.0725H25.3906L27.8398 23.7717L25.4551 19.5413H27.8047Z" fill="white"/>
</svg>
