<svg width="35" height="45" viewBox="0 0 35 45" fill="none" xmlns="http://www.w3.org/2000/svg">
<path d="M2.8125 0.649658H25.5228L34.7501 9.89153L34.9538 42.1242C34.9608 43.2337 34.0633 44.1368 32.9538 44.1368H2.8125C1.70793 44.1368 0.8125 43.2414 0.8125 42.1368V2.64966C0.8125 1.54509 1.70793 0.649658 2.8125 0.649658Z" fill="#F3A100"/>
<path d="M25.5176 0.649658V8.87982C25.5176 9.4321 25.9653 9.87982 26.5176 9.87982H34.7477L25.5176 0.649658Z" fill="black" fill-opacity="0.16"/>
<path d="M9.10547 28.0725H7.21289L7.22461 26.4905H9.10547C9.49609 26.4905 9.82617 26.3967 10.0957 26.2092C10.3691 26.0217 10.5762 25.7424 10.7168 25.3713C10.8613 24.9963 10.9336 24.5354 10.9336 23.9885V23.6194C10.9336 23.2092 10.8926 22.8499 10.8105 22.5413C10.7324 22.2288 10.6152 21.969 10.459 21.762C10.3027 21.551 10.1074 21.3928 9.87305 21.2874C9.64258 21.1819 9.37695 21.1292 9.07617 21.1292H7.17773V19.5413H9.07617C9.6543 19.5413 10.1836 19.6409 10.6641 19.8401C11.1484 20.0354 11.5664 20.3167 11.918 20.6838C12.2734 21.0471 12.5469 21.4788 12.7383 21.9788C12.9336 22.4749 13.0312 23.0256 13.0312 23.6311V23.9885C13.0312 24.5901 12.9336 25.1409 12.7383 25.6409C12.5469 26.1409 12.2754 26.5725 11.9238 26.9358C11.5723 27.2991 11.1562 27.5803 10.6758 27.7795C10.1992 27.9749 9.67578 28.0725 9.10547 28.0725ZM8.39062 19.5413V28.0725H6.33398V19.5413H8.39062ZM14.1035 19.5413H17.4609C18.1172 19.5413 18.6875 19.6389 19.1719 19.8342C19.6562 20.0295 20.0293 20.3186 20.291 20.7014C20.5566 21.0842 20.6895 21.5569 20.6895 22.1194C20.6895 22.6077 20.6133 23.0159 20.4609 23.344C20.3086 23.6721 20.0957 23.9436 19.8223 24.1584C19.5527 24.3694 19.2383 24.5432 18.8789 24.6799L18.2051 25.0608H15.3867L15.375 23.4729H17.4609C17.7227 23.4729 17.9395 23.426 18.1113 23.3323C18.2832 23.2385 18.4121 23.1057 18.498 22.9338C18.5879 22.7581 18.6328 22.5491 18.6328 22.3069C18.6328 22.0608 18.5879 21.8499 18.498 21.6741C18.4082 21.4983 18.2754 21.3635 18.0996 21.2698C17.9277 21.176 17.7148 21.1292 17.4609 21.1292H16.1602V28.0725H14.1035V19.5413ZM18.7734 28.0725L16.8867 24.2991L19.0664 24.2874L20.9766 27.9846V28.0725H18.7734ZM25.043 26.0627L26.8184 19.5413H29.1211L26.2441 28.0725H24.7559L25.043 26.0627ZM23.4316 19.5413L25.207 26.0627L25.5059 28.0725H24L21.1406 19.5413H23.4316Z" fill="white"/>
</svg>
