<svg width="35" height="45" viewBox="0 0 35 45" fill="none" xmlns="http://www.w3.org/2000/svg">
<path d="M2.1875 0.836914H24.8978L34.1251 10.0788L34.3288 42.3115C34.3358 43.4209 33.4383 44.3241 32.3288 44.3241H2.1875C1.08293 44.3241 0.1875 43.4287 0.1875 42.3241V2.83691C0.1875 1.73234 1.08293 0.836914 2.1875 0.836914Z" fill="#F3A100"/>
<path d="M24.8926 0.836914V9.06708C24.8926 9.61936 25.3403 10.0671 25.8926 10.0671H34.1227L24.8926 0.836914Z" fill="black" fill-opacity="0.16"/>
<path d="M7.49805 28.2595H5.60547L5.61719 26.6775H7.49805C7.88867 26.6775 8.21875 26.5837 8.48828 26.3962C8.76172 26.2087 8.96875 25.9294 9.10938 25.5583C9.25391 25.1833 9.32617 24.7224 9.32617 24.1755V23.8064C9.32617 23.3962 9.28516 23.0369 9.20312 22.7283C9.125 22.4158 9.00781 22.156 8.85156 21.949C8.69531 21.738 8.5 21.5798 8.26562 21.4744C8.03516 21.3689 7.76953 21.3162 7.46875 21.3162H5.57031V19.7283H7.46875C8.04688 19.7283 8.57617 19.8279 9.05664 20.0271C9.54102 20.2224 9.95898 20.5037 10.3105 20.8708C10.666 21.2341 10.9395 21.6658 11.1309 22.1658C11.3262 22.6619 11.4238 23.2126 11.4238 23.8181V24.1755C11.4238 24.7771 11.3262 25.3279 11.1309 25.8279C10.9395 26.3279 10.668 26.7595 10.3164 27.1228C9.96484 27.4861 9.54883 27.7673 9.06836 27.9666C8.5918 28.1619 8.06836 28.2595 7.49805 28.2595ZM6.7832 19.7283V28.2595H4.72656V19.7283H6.7832ZM14.4648 27.4861L16.1641 19.7283H17.1777L17.7285 20.3904L15.918 28.2595H14.7988L14.4648 27.4861ZM14.0137 19.7283L15.4492 27.5447L15.0801 28.2595H13.7852L11.9746 19.7283H14.0137ZM18.6602 27.5037L20.084 19.7283H22.1172L20.3066 28.2595H19.0176L18.6602 27.5037ZM17.9102 19.7283L19.6504 27.533L19.2988 28.2595H18.1797L16.3281 20.3787L16.9023 19.7283H17.9102ZM29.9043 23.7009V27.2048C29.7598 27.365 29.5371 27.5369 29.2363 27.7205C28.9395 27.9001 28.5645 28.0544 28.1113 28.1833C27.6582 28.3123 27.125 28.3767 26.5117 28.3767C25.9453 28.3767 25.4316 28.2869 24.9707 28.1072C24.5098 27.9236 24.1133 27.656 23.7812 27.3044C23.4531 26.949 23.1992 26.5154 23.0195 26.0037C22.8438 25.488 22.7559 24.8982 22.7559 24.2341V23.7595C22.7559 23.0955 22.8457 22.5056 23.0254 21.99C23.2051 21.4744 23.457 21.0408 23.7812 20.6892C24.1094 20.3337 24.4941 20.0642 24.9355 19.8806C25.3809 19.697 25.8691 19.6052 26.4004 19.6052C27.1855 19.6052 27.8242 19.7302 28.3164 19.9802C28.8086 20.2263 29.1816 20.5681 29.4355 21.0056C29.6895 21.4392 29.8438 21.9412 29.8984 22.5115H27.9238C27.8848 22.2302 27.8105 21.9919 27.7012 21.7966C27.5957 21.5974 27.4434 21.447 27.2441 21.3455C27.0449 21.24 26.7871 21.1873 26.4707 21.1873C26.2246 21.1873 26 21.24 25.7969 21.3455C25.5977 21.4509 25.4277 21.6111 25.2871 21.8259C25.1465 22.0369 25.0371 22.3025 24.959 22.6228C24.8848 22.9431 24.8477 23.3181 24.8477 23.7478V24.2341C24.8477 24.6599 24.8828 25.033 24.9531 25.3533C25.0273 25.6736 25.1367 25.9412 25.2812 26.156C25.4297 26.3669 25.6172 26.5271 25.8438 26.6365C26.0742 26.7419 26.3457 26.7947 26.6582 26.7947C26.877 26.7947 27.0645 26.7771 27.2207 26.7419C27.377 26.7029 27.5059 26.656 27.6074 26.6013C27.7129 26.5427 27.793 26.488 27.8477 26.4373V25.113H26.418V23.7009H29.9043Z" fill="white"/>
</svg>
