<svg width="35" height="45" viewBox="0 0 35 45" fill="none" xmlns="http://www.w3.org/2000/svg">
<path d="M2.5 0.836914H25.2103L34.4376 10.0788L34.6413 42.3115C34.6483 43.4209 33.7508 44.3241 32.6413 44.3241H2.5C1.39543 44.3241 0.5 43.4287 0.5 42.3241V2.83691C0.5 1.73234 1.39543 0.836914 2.5 0.836914Z" fill="#F3A100"/>
<path d="M25.2051 0.836914V9.06708C25.2051 9.61936 25.6528 10.0671 26.2051 10.0671H34.4352L25.2051 0.836914Z" fill="black" fill-opacity="0.16"/>
<path d="M13.709 26.6775V28.2595H9.16211V26.6775H13.709ZM9.89453 19.7283V28.2595H7.83789V19.7283H9.89453ZM13.123 23.115V24.6443H9.16211V23.115H13.123ZM13.7266 19.7283V21.3162H9.16211V19.7283H13.7266ZM20.1895 26.6775V28.2595H15.877V26.6775H20.1895ZM16.6094 19.7283V28.2595H14.5527V19.7283H16.6094ZM23.1133 19.7283V28.2595H21.0566V19.7283H23.1133ZM26.4297 23.2791V24.8611H22.5273V23.2791H26.4297ZM26.7637 19.7283V21.3162H22.5273V19.7283H26.7637Z" fill="white"/>
</svg>
