<svg width="35" height="45" viewBox="0 0 35 45" fill="none" xmlns="http://www.w3.org/2000/svg">
<path d="M2.65625 0.836914H25.3666L34.5939 10.0788L34.7975 42.3115C34.8045 43.4209 33.9071 44.3241 32.7976 44.3241H2.65625C1.55168 44.3241 0.65625 43.4287 0.65625 42.3241V2.83691C0.65625 1.73234 1.55168 0.836914 2.65625 0.836914Z" fill="#F3A100"/>
<path d="M25.3613 0.836914V9.06708C25.3613 9.61936 25.809 10.0671 26.3613 10.0671H34.5915L25.3613 0.836914Z" fill="black" fill-opacity="0.16"/>
<path d="M13.2344 26.6775V28.2595H8.6875V26.6775H13.2344ZM9.41992 19.7283V28.2595H7.36328V19.7283H9.41992ZM12.6484 23.115V24.6443H8.6875V23.115H12.6484ZM13.252 19.7283V21.3162H8.6875V19.7283H13.252ZM17.4824 25.365H15.3613V23.7771H17.4824C17.7715 23.7771 18.0059 23.7283 18.1855 23.6306C18.3652 23.533 18.4961 23.3982 18.5781 23.2263C18.6641 23.0505 18.707 22.8533 18.707 22.6345C18.707 22.4001 18.6641 22.1833 18.5781 21.9841C18.4961 21.7849 18.3652 21.6248 18.1855 21.5037C18.0059 21.3787 17.7715 21.3162 17.4824 21.3162H16.1348V28.2595H14.0781V19.7283H17.4824C18.166 19.7283 18.7539 19.8533 19.2461 20.1033C19.7422 20.3533 20.123 20.697 20.3887 21.1345C20.6543 21.5681 20.7871 22.0642 20.7871 22.6228C20.7871 23.1736 20.6543 23.6541 20.3887 24.0642C20.123 24.4744 19.7422 24.7947 19.2461 25.0251C18.7539 25.2517 18.166 25.365 17.4824 25.365ZM26.2891 25.9919C26.2891 25.8591 26.2695 25.74 26.2305 25.6345C26.1914 25.5251 26.1191 25.4236 26.0137 25.3298C25.9082 25.2361 25.7559 25.1423 25.5566 25.0486C25.3613 24.9509 25.1035 24.8494 24.7832 24.7439C24.4082 24.6189 24.0469 24.4783 23.6992 24.322C23.3516 24.1619 23.041 23.9763 22.7676 23.7654C22.4941 23.5505 22.2773 23.3005 22.1172 23.0154C21.957 22.7263 21.877 22.3904 21.877 22.0076C21.877 21.6404 21.959 21.3103 22.123 21.0173C22.2871 20.7205 22.5156 20.4685 22.8086 20.2615C23.1055 20.0505 23.4531 19.8904 23.8516 19.781C24.25 19.6677 24.6855 19.6111 25.1582 19.6111C25.7832 19.6111 26.334 19.7205 26.8105 19.9392C27.291 20.1541 27.666 20.4607 27.9355 20.8591C28.209 21.2537 28.3457 21.7205 28.3457 22.2595H26.3008C26.3008 22.0447 26.2559 21.8552 26.166 21.6912C26.0801 21.5271 25.9492 21.3982 25.7734 21.3044C25.5977 21.2107 25.377 21.1638 25.1113 21.1638C24.8535 21.1638 24.6367 21.2029 24.4609 21.281C24.2852 21.3591 24.1523 21.4646 24.0625 21.5974C23.9727 21.7263 23.9277 21.8689 23.9277 22.0251C23.9277 22.1541 23.9629 22.2712 24.0332 22.3767C24.1074 22.4783 24.2109 22.574 24.3438 22.6638C24.4805 22.7537 24.6445 22.8396 24.8359 22.9216C25.0312 23.0037 25.25 23.0837 25.4922 23.1619C25.9453 23.3064 26.3477 23.4685 26.6992 23.6482C27.0547 23.824 27.3535 24.0251 27.5957 24.2517C27.8418 24.4744 28.0273 24.7283 28.1523 25.0134C28.2812 25.2986 28.3457 25.6208 28.3457 25.9802C28.3457 26.363 28.2715 26.7029 28.123 26.9998C27.9746 27.2966 27.7617 27.5486 27.4844 27.7556C27.207 27.9587 26.875 28.113 26.4883 28.2185C26.1016 28.324 25.6699 28.3767 25.1934 28.3767C24.7559 28.3767 24.3242 28.322 23.8984 28.2126C23.4766 28.0994 23.0938 27.9275 22.75 27.697C22.4062 27.4626 22.1309 27.1638 21.9238 26.8005C21.7207 26.4333 21.6191 25.9978 21.6191 25.4939H23.6816C23.6816 25.7439 23.7148 25.9548 23.7812 26.1267C23.8477 26.2986 23.9453 26.4373 24.0742 26.5427C24.2031 26.6443 24.3613 26.7185 24.5488 26.7654C24.7363 26.8083 24.9512 26.8298 25.1934 26.8298C25.4551 26.8298 25.666 26.7927 25.8262 26.7185C25.9863 26.6404 26.1035 26.5388 26.1777 26.4138C26.252 26.2849 26.2891 26.1443 26.2891 25.9919Z" fill="white"/>
</svg>
