<svg width="35" height="45" viewBox="0 0 35 45" fill="none" xmlns="http://www.w3.org/2000/svg">
<path d="M2.8125 0.836914H25.5228L34.7501 10.0788L34.9538 42.3115C34.9608 43.4209 34.0633 44.3241 32.9538 44.3241H2.8125C1.70793 44.3241 0.8125 43.4287 0.8125 42.3241V2.83691C0.8125 1.73234 1.70793 0.836914 2.8125 0.836914Z" fill="#F3A100"/>
<path d="M25.5176 0.836914V9.06708C25.5176 9.61936 25.9653 10.0671 26.5176 10.0671H34.7477L25.5176 0.836914Z" fill="black" fill-opacity="0.16"/>
<path d="M13.3652 26.6775V28.2595H8.81836V26.6775H13.3652ZM9.55078 19.7283V28.2595H7.49414V19.7283H9.55078ZM12.7793 23.115V24.6443H8.81836V23.115H12.7793ZM13.3828 19.7283V21.3162H8.81836V19.7283H13.3828ZM15.9961 19.7283L17.3906 22.5642L18.7852 19.7283H21.1289L18.75 23.9587L21.1934 28.2595H18.8262L17.3906 25.3708L15.9551 28.2595H13.582L16.0312 23.9587L13.6465 19.7283H15.9961ZM27.7441 26.6775V28.2595H23.1973V26.6775H27.7441ZM23.9297 19.7283V28.2595H21.873V19.7283H23.9297ZM27.1582 23.115V24.6443H23.1973V23.115H27.1582ZM27.7617 19.7283V21.3162H23.1973V19.7283H27.7617Z" fill="white"/>
</svg>
