<svg width="35" height="44" viewBox="0 0 35 44" fill="none" xmlns="http://www.w3.org/2000/svg">
<path d="M2.03125 0.0239258H24.7416L33.9689 9.2658L34.1725 41.4985C34.1795 42.608 33.2821 43.5111 32.1726 43.5111H2.03125C0.926681 43.5111 0.03125 42.6157 0.03125 41.5111V2.02393C0.03125 0.919356 0.926681 0.0239258 2.03125 0.0239258Z" fill="#F3A100"/>
<path d="M24.7363 0.0239258V8.25409C24.7363 8.80637 25.184 9.25409 25.7363 9.25409H33.9665L24.7363 0.0239258Z" fill="black" fill-opacity="0.16"/>
<path d="M8.63477 18.9153V27.4465H6.57812V18.9153H8.63477ZM11.9512 22.4661V24.0481H8.04883V22.4661H11.9512ZM12.2852 18.9153V20.5032H8.04883V18.9153H12.2852ZM18.7773 25.8645V27.4465H14.4648V25.8645H18.7773ZM15.1973 18.9153V27.4465H13.1406V18.9153H15.1973ZM23.377 20.7083L21.2969 27.4465H19.0879L22.2227 18.9153H23.623L23.377 20.7083ZM25.0996 27.4465L23.0137 20.7083L22.7441 18.9153H24.1621L27.3145 27.4465H25.0996ZM25.0176 24.2649V25.8528H20.6406V24.2649H25.0176Z" fill="white"/>
</svg>
