<svg width="35" height="44" viewBox="0 0 35 44" fill="none" xmlns="http://www.w3.org/2000/svg">
<path d="M2.1875 0.0239258H24.8978L34.1251 9.2658L34.3288 41.4985C34.3358 42.608 33.4383 43.5111 32.3288 43.5111H2.1875C1.08293 43.5111 0.1875 42.6157 0.1875 41.5111V2.02393C0.1875 0.919356 1.08293 0.0239258 2.1875 0.0239258Z" fill="#F3A100"/>
<path d="M24.8926 0.0239258V8.25409C24.8926 8.80637 25.3403 9.25409 25.8926 9.25409H34.1227L24.8926 0.0239258Z" fill="black" fill-opacity="0.16"/>
<path d="M9.58203 18.9153V27.4465H7.52539V18.9153H9.58203ZM12.8984 22.4661V24.0481H8.99609V22.4661H12.8984ZM13.2324 18.9153V20.5032H8.99609V18.9153H13.2324ZM19.7246 25.8645V27.4465H15.4121V25.8645H19.7246ZM16.1445 18.9153V27.4465H14.0879V18.9153H16.1445ZM22.6016 25.4368L24.377 18.9153H26.6797L23.8027 27.4465H22.3145L22.6016 25.4368ZM20.9902 18.9153L22.7656 25.4368L23.0645 27.4465H21.5586L18.6992 18.9153H20.9902Z" fill="white"/>
</svg>
