<svg width="35" height="44" viewBox="0 0 35 44" fill="none" xmlns="http://www.w3.org/2000/svg">
<path d="M2.34375 0.0239258H25.0541L34.2814 9.2658L34.485 41.4985C34.492 42.608 33.5946 43.5111 32.4851 43.5111H2.34375C1.23918 43.5111 0.34375 42.6157 0.34375 41.5111V2.02393C0.34375 0.919356 1.23918 0.0239258 2.34375 0.0239258Z" fill="#F3A100"/>
<path d="M25.0488 0.0239258V8.25409C25.0488 8.80637 25.4965 9.25409 26.0488 9.25409H34.279L25.0488 0.0239258Z" fill="black" fill-opacity="0.16"/>
<path d="M8.9375 18.9153V27.4465H6.88086V18.9153H8.9375ZM12.2539 22.4661V24.0481H8.35156V22.4661H12.2539ZM12.5879 18.9153V20.5032H8.35156V18.9153H12.5879ZM20.5684 18.9153V27.4465H18.5176L15.5 22.1379V27.4465H13.4434V18.9153H15.5L18.5176 24.2239V18.9153H20.5684ZM25.8242 18.9153V27.4465H23.7676V18.9153H25.8242ZM28.3906 18.9153V20.5032H21.2598V18.9153H28.3906Z" fill="white"/>
</svg>
