<svg width="35" height="44" viewBox="0 0 35 44" fill="none" xmlns="http://www.w3.org/2000/svg">
<path d="M2.5 0.0239258H25.2103L34.4376 9.2658L34.6413 41.4985C34.6483 42.608 33.7508 43.5111 32.6413 43.5111H2.5C1.39543 43.5111 0.5 42.6157 0.5 41.5111V2.02393C0.5 0.919356 1.39543 0.0239258 2.5 0.0239258Z" fill="#F3A100"/>
<path d="M25.2051 0.0239258V8.25409C25.2051 8.80637 25.6528 9.25409 26.2051 9.25409H34.4352L25.2051 0.0239258Z" fill="black" fill-opacity="0.16"/>
<path d="M8.14844 18.9153V27.4465H6.0918V18.9153H8.14844ZM11.4648 22.4661V24.0481H7.5625V22.4661H11.4648ZM11.7988 18.9153V20.5032H7.5625V18.9153H11.7988ZM19.873 23.011V23.3567C19.873 24.009 19.7812 24.595 19.5977 25.1145C19.418 25.6301 19.1621 26.0715 18.8301 26.4387C18.498 26.802 18.1055 27.0813 17.6523 27.2766C17.1992 27.468 16.6992 27.5637 16.1523 27.5637C15.6016 27.5637 15.0977 27.468 14.6406 27.2766C14.1875 27.0813 13.793 26.802 13.457 26.4387C13.125 26.0715 12.8672 25.6301 12.6836 25.1145C12.5039 24.595 12.4141 24.009 12.4141 23.3567V23.011C12.4141 22.3586 12.5039 21.7727 12.6836 21.2532C12.8672 20.7336 13.123 20.2922 13.4512 19.929C13.7832 19.5618 14.1758 19.2825 14.6289 19.0911C15.0859 18.8958 15.5898 18.7981 16.1406 18.7981C16.6875 18.7981 17.1875 18.8958 17.6406 19.0911C18.0977 19.2825 18.4922 19.5618 18.8242 19.929C19.1562 20.2922 19.4141 20.7336 19.5977 21.2532C19.7812 21.7727 19.873 22.3586 19.873 23.011ZM17.7871 23.3567V22.9993C17.7871 22.5774 17.75 22.2063 17.6758 21.886C17.6055 21.5618 17.5 21.2903 17.3594 21.0715C17.2188 20.8528 17.0449 20.6887 16.8379 20.5793C16.6348 20.4661 16.4023 20.4094 16.1406 20.4094C15.8672 20.4094 15.6289 20.4661 15.4258 20.5793C15.2227 20.6887 15.0527 20.8528 14.916 21.0715C14.7793 21.2903 14.6758 21.5618 14.6055 21.886C14.5391 22.2063 14.5059 22.5774 14.5059 22.9993V23.3567C14.5059 23.7747 14.5391 24.1458 14.6055 24.47C14.6758 24.7903 14.7793 25.0618 14.916 25.2844C15.0566 25.5071 15.2285 25.675 15.4316 25.7883C15.6387 25.9016 15.8789 25.9583 16.1523 25.9583C16.4141 25.9583 16.6465 25.9016 16.8496 25.7883C17.0527 25.675 17.2227 25.5071 17.3594 25.2844C17.5 25.0618 17.6055 24.7903 17.6758 24.47C17.75 24.1458 17.7871 23.7747 17.7871 23.3567ZM28.0645 18.9153V27.4465H26.0137L22.9961 22.1379V27.4465H20.9395V18.9153H22.9961L26.0137 24.2239V18.9153H28.0645Z" fill="white"/>
</svg>
