<svg width="35" height="44" viewBox="0 0 35 44" fill="none" xmlns="http://www.w3.org/2000/svg">
<path d="M2.03125 0.210938H24.7416L33.9689 9.45281L34.1725 41.6855C34.1795 42.795 33.2821 43.6981 32.1726 43.6981H2.03125C0.926681 43.6981 0.03125 42.8027 0.03125 41.6981V2.21094C0.03125 1.10637 0.926681 0.210938 2.03125 0.210938Z" fill="#F3A100"/>
<path d="M24.7363 0.210938V8.4411C24.7363 8.99338 25.184 9.4411 25.7363 9.4411H33.9665L24.7363 0.210938Z" fill="black" fill-opacity="0.16"/>
<path d="M15.5508 23.0752V26.5791C15.4062 26.7393 15.1836 26.9111 14.8828 27.0947C14.5859 27.2744 14.2109 27.4287 13.7578 27.5576C13.3047 27.6865 12.7715 27.751 12.1582 27.751C11.5918 27.751 11.0781 27.6611 10.6172 27.4814C10.1562 27.2979 9.75977 27.0303 9.42773 26.6787C9.09961 26.3232 8.8457 25.8896 8.66602 25.3779C8.49023 24.8623 8.40234 24.2725 8.40234 23.6084V23.1338C8.40234 22.4697 8.49219 21.8799 8.67188 21.3643C8.85156 20.8486 9.10352 20.415 9.42773 20.0635C9.75586 19.708 10.1406 19.4385 10.582 19.2549C11.0273 19.0713 11.5156 18.9795 12.0469 18.9795C12.832 18.9795 13.4707 19.1045 13.9629 19.3545C14.4551 19.6006 14.8281 19.9424 15.082 20.3799C15.3359 20.8135 15.4902 21.3154 15.5449 21.8857H13.5703C13.5312 21.6045 13.457 21.3662 13.3477 21.1709C13.2422 20.9717 13.0898 20.8213 12.8906 20.7197C12.6914 20.6143 12.4336 20.5615 12.1172 20.5615C11.8711 20.5615 11.6465 20.6143 11.4434 20.7197C11.2441 20.8252 11.0742 20.9854 10.9336 21.2002C10.793 21.4111 10.6836 21.6768 10.6055 21.9971C10.5312 22.3174 10.4941 22.6924 10.4941 23.1221V23.6084C10.4941 24.0342 10.5293 24.4072 10.5996 24.7275C10.6738 25.0479 10.7832 25.3154 10.9277 25.5303C11.0762 25.7412 11.2637 25.9014 11.4902 26.0107C11.7207 26.1162 11.9922 26.1689 12.3047 26.1689C12.5234 26.1689 12.7109 26.1514 12.8672 26.1162C13.0234 26.0771 13.1523 26.0303 13.2539 25.9756C13.3594 25.917 13.4395 25.8623 13.4941 25.8115V24.4873H12.0645V23.0752H15.5508ZM18.9375 19.1025V27.6338H16.8867V19.1025H18.9375ZM22.4414 19.1025V27.6338H20.3848V19.1025H22.4414ZM25.7578 22.6533V24.2354H21.8555V22.6533H25.7578ZM26.0918 19.1025V20.6904H21.8555V19.1025H26.0918Z" fill="white"/>
</svg>
