<svg width="35" height="44" viewBox="0 0 35 44" fill="none" xmlns="http://www.w3.org/2000/svg">
<path d="M2.1875 0.210938H24.8978L34.1251 9.45281L34.3288 41.6855C34.3358 42.795 33.4383 43.6981 32.3288 43.6981H2.1875C1.08293 43.6981 0.1875 42.8027 0.1875 41.6981V2.21094C0.1875 1.10637 1.08293 0.210938 2.1875 0.210938Z" fill="#F3A100"/>
<path d="M24.8926 0.210938V8.4411C24.8926 8.99338 25.3403 9.4411 25.8926 9.4411H34.1227L24.8926 0.210938Z" fill="black" fill-opacity="0.16"/>
<path d="M12.7168 23.0752V26.5791C12.5723 26.7393 12.3496 26.9111 12.0488 27.0947C11.752 27.2744 11.377 27.4287 10.9238 27.5576C10.4707 27.6865 9.9375 27.751 9.32422 27.751C8.75781 27.751 8.24414 27.6611 7.7832 27.4814C7.32227 27.2979 6.92578 27.0303 6.59375 26.6787C6.26562 26.3232 6.01172 25.8896 5.83203 25.3779C5.65625 24.8623 5.56836 24.2725 5.56836 23.6084V23.1338C5.56836 22.4697 5.6582 21.8799 5.83789 21.3643C6.01758 20.8486 6.26953 20.415 6.59375 20.0635C6.92188 19.708 7.30664 19.4385 7.74805 19.2549C8.19336 19.0713 8.68164 18.9795 9.21289 18.9795C9.99805 18.9795 10.6367 19.1045 11.1289 19.3545C11.6211 19.6006 11.9941 19.9424 12.248 20.3799C12.502 20.8135 12.6562 21.3154 12.7109 21.8857H10.7363C10.6973 21.6045 10.623 21.3662 10.5137 21.1709C10.4082 20.9717 10.2559 20.8213 10.0566 20.7197C9.85742 20.6143 9.59961 20.5615 9.2832 20.5615C9.03711 20.5615 8.8125 20.6143 8.60938 20.7197C8.41016 20.8252 8.24023 20.9854 8.09961 21.2002C7.95898 21.4111 7.84961 21.6768 7.77148 21.9971C7.69727 22.3174 7.66016 22.6924 7.66016 23.1221V23.6084C7.66016 24.0342 7.69531 24.4072 7.76562 24.7275C7.83984 25.0479 7.94922 25.3154 8.09375 25.5303C8.24219 25.7412 8.42969 25.9014 8.65625 26.0107C8.88672 26.1162 9.1582 26.1689 9.4707 26.1689C9.68945 26.1689 9.87695 26.1514 10.0332 26.1162C10.1895 26.0771 10.3184 26.0303 10.4199 25.9756C10.5254 25.917 10.6055 25.8623 10.6602 25.8115V24.4873H9.23047V23.0752H12.7168ZM17.3223 24.7393H15.2012V23.1514H17.3223C17.6113 23.1514 17.8457 23.1025 18.0254 23.0049C18.2051 22.9072 18.3359 22.7725 18.418 22.6006C18.5039 22.4248 18.5469 22.2275 18.5469 22.0088C18.5469 21.7744 18.5039 21.5576 18.418 21.3584C18.3359 21.1592 18.2051 20.999 18.0254 20.8779C17.8457 20.7529 17.6113 20.6904 17.3223 20.6904H15.9746V27.6338H13.918V19.1025H17.3223C18.0059 19.1025 18.5938 19.2275 19.0859 19.4775C19.582 19.7275 19.9629 20.0713 20.2285 20.5088C20.4941 20.9424 20.627 21.4385 20.627 21.9971C20.627 22.5479 20.4941 23.0283 20.2285 23.4385C19.9629 23.8486 19.582 24.1689 19.0859 24.3994C18.5938 24.626 18.0059 24.7393 17.3223 24.7393ZM23.2168 19.1025L24.6113 21.9385L26.0059 19.1025H28.3496L25.9707 23.333L28.4141 27.6338H26.0469L24.6113 24.7451L23.1758 27.6338H20.8027L23.252 23.333L20.8672 19.1025H23.2168Z" fill="white"/>
</svg>
