<svg width="35" height="44" viewBox="0 0 35 44" fill="none" xmlns="http://www.w3.org/2000/svg">
<path d="M2.03125 0.333984H24.7416L33.9689 9.57586L34.1725 41.8085C34.1795 42.918 33.2821 43.8212 32.1726 43.8212H2.03125C0.926681 43.8212 0.03125 42.9257 0.03125 41.8212V2.33398C0.03125 1.22941 0.926681 0.333984 2.03125 0.333984Z" fill="#0EC5A4"/>
<path d="M24.7363 0.333984V8.56415C24.7363 9.11643 25.184 9.56415 25.7363 9.56415H33.9665L24.7363 0.333984Z" fill="black" fill-opacity="0.16"/>
<path d="M13.6699 23.321V23.6667C13.6699 24.3191 13.5781 24.905 13.3945 25.4246C13.2148 25.9402 12.959 26.3816 12.627 26.7488C12.2949 27.1121 11.9023 27.3914 11.4492 27.5867C10.9961 27.7781 10.4961 27.8738 9.94922 27.8738C9.39844 27.8738 8.89453 27.7781 8.4375 27.5867C7.98438 27.3914 7.58984 27.1121 7.25391 26.7488C6.92188 26.3816 6.66406 25.9402 6.48047 25.4246C6.30078 24.905 6.21094 24.3191 6.21094 23.6667V23.321C6.21094 22.6687 6.30078 22.0828 6.48047 21.5632C6.66406 21.0437 6.91992 20.6023 7.24805 20.239C7.58008 19.8718 7.97266 19.5925 8.42578 19.4011C8.88281 19.2058 9.38672 19.1082 9.9375 19.1082C10.4844 19.1082 10.9844 19.2058 11.4375 19.4011C11.8945 19.5925 12.2891 19.8718 12.6211 20.239C12.9531 20.6023 13.2109 21.0437 13.3945 21.5632C13.5781 22.0828 13.6699 22.6687 13.6699 23.321ZM11.584 23.6667V23.3093C11.584 22.8875 11.5469 22.5164 11.4727 22.196C11.4023 21.8718 11.2969 21.6003 11.1562 21.3816C11.0156 21.1628 10.8418 20.9988 10.6348 20.8894C10.4316 20.7761 10.1992 20.7195 9.9375 20.7195C9.66406 20.7195 9.42578 20.7761 9.22266 20.8894C9.01953 20.9988 8.84961 21.1628 8.71289 21.3816C8.57617 21.6003 8.47266 21.8718 8.40234 22.196C8.33594 22.5164 8.30273 22.8875 8.30273 23.3093V23.6667C8.30273 24.0847 8.33594 24.4558 8.40234 24.78C8.47266 25.1003 8.57617 25.3718 8.71289 25.5945C8.85352 25.8171 9.02539 25.9851 9.22852 26.0984C9.43555 26.2117 9.67578 26.2683 9.94922 26.2683C10.2109 26.2683 10.4434 26.2117 10.6465 26.0984C10.8496 25.9851 11.0195 25.8171 11.1562 25.5945C11.2969 25.3718 11.4023 25.1003 11.4727 24.78C11.5469 24.4558 11.584 24.0847 11.584 23.6667ZM17.5078 27.7566H15.6152L15.627 26.1746H17.5078C17.8984 26.1746 18.2285 26.0808 18.498 25.8933C18.7715 25.7058 18.9785 25.4265 19.1191 25.0554C19.2637 24.6804 19.3359 24.2195 19.3359 23.6726V23.3035C19.3359 22.8933 19.2949 22.5339 19.2129 22.2253C19.1348 21.9128 19.0176 21.6531 18.8613 21.446C18.7051 21.2351 18.5098 21.0769 18.2754 20.9714C18.0449 20.866 17.7793 20.8132 17.4785 20.8132H15.5801V19.2253H17.4785C18.0566 19.2253 18.5859 19.325 19.0664 19.5242C19.5508 19.7195 19.9688 20.0007 20.3203 20.3679C20.6758 20.7312 20.9492 21.1628 21.1406 21.6628C21.3359 22.1589 21.4336 22.7097 21.4336 23.3152V23.6726C21.4336 24.2742 21.3359 24.825 21.1406 25.325C20.9492 25.825 20.6777 26.2566 20.3262 26.6199C19.9746 26.9832 19.5586 27.2644 19.0781 27.4636C18.6016 27.6589 18.0781 27.7566 17.5078 27.7566ZM16.793 19.2253V27.7566H14.7363V19.2253H16.793ZM24.5625 19.2253V27.7566H22.5059V19.2253H24.5625ZM27.8789 22.7761V24.3582H23.9766V22.7761H27.8789ZM28.2129 19.2253V20.8132H23.9766V19.2253H28.2129Z" fill="white"/>
</svg>
