<svg width="35" height="44" viewBox="0 0 35 44" fill="none" xmlns="http://www.w3.org/2000/svg">
<path d="M2.5 0.269531H25.2103L34.4376 9.51141L34.6413 41.7441C34.6483 42.8536 33.7508 43.7567 32.6413 43.7567H2.5C1.39543 43.7567 0.5 42.8613 0.5 41.7567V2.26953C0.5 1.16496 1.39543 0.269531 2.5 0.269531Z" fill="#06437C"/>
<path d="M25.2051 0.269531V8.49969C25.2051 9.05198 25.6528 9.49969 26.2051 9.49969H34.4352L25.2051 0.269531Z" fill="black" fill-opacity="0.16"/>
<path d="M11.2012 25.4246C11.2012 25.2917 11.1816 25.1726 11.1426 25.0671C11.1035 24.9578 11.0312 24.8562 10.9258 24.7625C10.8203 24.6687 10.668 24.575 10.4688 24.4812C10.2734 24.3835 10.0156 24.282 9.69531 24.1765C9.32031 24.0515 8.95898 23.9109 8.61133 23.7546C8.26367 23.5945 7.95312 23.4089 7.67969 23.198C7.40625 22.9832 7.18945 22.7332 7.0293 22.448C6.86914 22.1589 6.78906 21.823 6.78906 21.4402C6.78906 21.073 6.87109 20.7429 7.03516 20.45C7.19922 20.1531 7.42773 19.9011 7.7207 19.6941C8.01758 19.4832 8.36523 19.323 8.76367 19.2136C9.16211 19.1003 9.59766 19.0437 10.0703 19.0437C10.6953 19.0437 11.2461 19.1531 11.7227 19.3718C12.2031 19.5867 12.5781 19.8933 12.8477 20.2917C13.1211 20.6863 13.2578 21.1531 13.2578 21.6921H11.2129C11.2129 21.4773 11.168 21.2878 11.0781 21.1238C10.9922 20.9597 10.8613 20.8308 10.6855 20.7371C10.5098 20.6433 10.2891 20.5964 10.0234 20.5964C9.76562 20.5964 9.54883 20.6355 9.37305 20.7136C9.19727 20.7917 9.06445 20.8972 8.97461 21.03C8.88477 21.1589 8.83984 21.3015 8.83984 21.4578C8.83984 21.5867 8.875 21.7039 8.94531 21.8093C9.01953 21.9109 9.12305 22.0066 9.25586 22.0964C9.39258 22.1863 9.55664 22.2722 9.74805 22.3542C9.94336 22.4363 10.1621 22.5164 10.4043 22.5945C10.8574 22.739 11.2598 22.9011 11.6113 23.0808C11.9668 23.2566 12.2656 23.4578 12.5078 23.6843C12.7539 23.907 12.9395 24.1609 13.0645 24.446C13.1934 24.7312 13.2578 25.0535 13.2578 25.4128C13.2578 25.7957 13.1836 26.1355 13.0352 26.4324C12.8867 26.7292 12.6738 26.9812 12.3965 27.1882C12.1191 27.3914 11.7871 27.5457 11.4004 27.6511C11.0137 27.7566 10.582 27.8093 10.1055 27.8093C9.66797 27.8093 9.23633 27.7546 8.81055 27.6453C8.38867 27.532 8.00586 27.3601 7.66211 27.1296C7.31836 26.8953 7.04297 26.5964 6.83594 26.2332C6.63281 25.866 6.53125 25.4304 6.53125 24.9265H8.59375C8.59375 25.1765 8.62695 25.3875 8.69336 25.5593C8.75977 25.7312 8.85742 25.8699 8.98633 25.9753C9.11523 26.0769 9.27344 26.1511 9.46094 26.198C9.64844 26.241 9.86328 26.2625 10.1055 26.2625C10.3672 26.2625 10.5781 26.2253 10.7383 26.1511C10.8984 26.073 11.0156 25.9714 11.0898 25.8464C11.1641 25.7175 11.2012 25.5769 11.2012 25.4246ZM17.0898 27.6921H15.1973L15.209 26.1101H17.0898C17.4805 26.1101 17.8105 26.0164 18.0801 25.8289C18.3535 25.6414 18.5605 25.3621 18.7012 24.991C18.8457 24.616 18.918 24.155 18.918 23.6082V23.239C18.918 22.8289 18.877 22.4695 18.7949 22.1609C18.7168 21.8484 18.5996 21.5886 18.4434 21.3816C18.2871 21.1707 18.0918 21.0125 17.8574 20.907C17.627 20.8015 17.3613 20.7488 17.0605 20.7488H15.1621V19.1609H17.0605C17.6387 19.1609 18.168 19.2605 18.6484 19.4597C19.1328 19.655 19.5508 19.9363 19.9023 20.3035C20.2578 20.6667 20.5312 21.0984 20.7227 21.5984C20.918 22.0945 21.0156 22.6453 21.0156 23.2507V23.6082C21.0156 24.2097 20.918 24.7605 20.7227 25.2605C20.5312 25.7605 20.2598 26.1921 19.9082 26.5554C19.5566 26.9187 19.1406 27.2 18.6602 27.3992C18.1836 27.5945 17.6602 27.6921 17.0898 27.6921ZM16.375 19.1609V27.6921H14.3184V19.1609H16.375ZM24.1445 19.1609V27.6921H22.0879V19.1609H24.1445ZM27.4609 22.7117V24.2937H23.5586V22.7117H27.4609ZM27.7949 19.1609V20.7488H23.5586V19.1609H27.7949Z" fill="white"/>
</svg>
