<svg width="35" height="44" viewBox="0 0 35 44" fill="none" xmlns="http://www.w3.org/2000/svg">
<path d="M2.5 0.088501H25.2103L34.4376 9.33038L34.6413 41.563C34.6483 42.6725 33.7508 43.5757 32.6413 43.5757H2.5C1.39543 43.5757 0.5 42.6802 0.5 41.5757V2.0885C0.5 0.983932 1.39543 0.088501 2.5 0.088501Z" fill="#06437C"/>
<path d="M25.2051 0.088501V8.31866C25.2051 8.87095 25.6528 9.31866 26.2051 9.31866H34.4352L25.2051 0.088501Z" fill="black" fill-opacity="0.16"/>
<path d="M11.7715 24.6224H13.8223C13.7949 25.2162 13.6348 25.7396 13.3418 26.1927C13.0488 26.6459 12.6426 26.9994 12.123 27.2533C11.6074 27.5033 10.998 27.6283 10.2949 27.6283C9.72461 27.6283 9.21484 27.5326 8.76562 27.3412C8.32031 27.1498 7.94141 26.8744 7.62891 26.515C7.32031 26.1556 7.08398 25.7201 6.91992 25.2084C6.75977 24.6967 6.67969 24.1205 6.67969 23.4799V23.017C6.67969 22.3763 6.76367 21.8002 6.93164 21.2885C7.10352 20.7728 7.3457 20.3353 7.6582 19.976C7.97461 19.6127 8.35352 19.3353 8.79492 19.1439C9.23633 18.9525 9.72656 18.8568 10.2656 18.8568C11.0078 18.8568 11.6348 18.9896 12.1465 19.2552C12.6582 19.5209 13.0547 19.8861 13.3359 20.351C13.6172 20.8119 13.7832 21.3373 13.834 21.9271H11.7832C11.7754 21.6068 11.7207 21.3392 11.6191 21.1244C11.5176 20.9056 11.3574 20.7416 11.1387 20.6322C10.9199 20.5228 10.6289 20.4681 10.2656 20.4681C10.0117 20.4681 9.79102 20.515 9.60352 20.6088C9.41602 20.7025 9.25977 20.851 9.13477 21.0541C9.00977 21.2572 8.91602 21.5209 8.85352 21.8451C8.79492 22.1654 8.76562 22.5521 8.76562 23.0052V23.4799C8.76562 23.933 8.79297 24.3197 8.84766 24.64C8.90234 24.9603 8.99023 25.222 9.11133 25.4252C9.23242 25.6283 9.38867 25.7787 9.58008 25.8763C9.77539 25.9701 10.0137 26.017 10.2949 26.017C10.6074 26.017 10.8711 25.9681 11.0859 25.8705C11.3008 25.7689 11.4668 25.6166 11.584 25.4135C11.7012 25.2064 11.7637 24.9427 11.7715 24.6224ZM16.8516 18.9799V27.5111H14.7949V18.9799H16.8516ZM20.168 22.5306V24.1127H16.2656V22.5306H20.168ZM20.502 18.9799V20.5677H16.2656V18.9799H20.502ZM28.3359 22.9525V26.4564C28.1914 26.6166 27.9688 26.7885 27.668 26.972C27.3711 27.1517 26.9961 27.306 26.543 27.4349C26.0898 27.5638 25.5566 27.6283 24.9434 27.6283C24.377 27.6283 23.8633 27.5385 23.4023 27.3588C22.9414 27.1752 22.5449 26.9076 22.2129 26.556C21.8848 26.2006 21.6309 25.767 21.4512 25.2552C21.2754 24.7396 21.1875 24.1498 21.1875 23.4857V23.0111C21.1875 22.347 21.2773 21.7572 21.457 21.2416C21.6367 20.726 21.8887 20.2924 22.2129 19.9408C22.541 19.5853 22.9258 19.3158 23.3672 19.1322C23.8125 18.9486 24.3008 18.8568 24.832 18.8568C25.6172 18.8568 26.2559 18.9818 26.748 19.2318C27.2402 19.4779 27.6133 19.8197 27.8672 20.2572C28.1211 20.6908 28.2754 21.1927 28.3301 21.7631H26.3555C26.3164 21.4818 26.2422 21.2435 26.1328 21.0482C26.0273 20.849 25.875 20.6986 25.6758 20.597C25.4766 20.4916 25.2188 20.4388 24.9023 20.4388C24.6562 20.4388 24.4316 20.4916 24.2285 20.597C24.0293 20.7025 23.8594 20.8627 23.7188 21.0775C23.5781 21.2885 23.4688 21.5541 23.3906 21.8744C23.3164 22.1947 23.2793 22.5697 23.2793 22.9994V23.4857C23.2793 23.9115 23.3145 24.2845 23.3848 24.6049C23.459 24.9252 23.5684 25.1927 23.7129 25.4076C23.8613 25.6185 24.0488 25.7787 24.2754 25.8881C24.5059 25.9935 24.7773 26.0463 25.0898 26.0463C25.3086 26.0463 25.4961 26.0287 25.6523 25.9935C25.8086 25.9545 25.9375 25.9076 26.0391 25.8529C26.1445 25.7943 26.2246 25.7396 26.2793 25.6888V24.3646H24.8496V22.9525H28.3359Z" fill="white"/>
</svg>
