<svg width="35" height="45" viewBox="0 0 35 45" fill="none" xmlns="http://www.w3.org/2000/svg">
<path d="M2.03125 0.52124H24.7416L33.9689 9.76311L34.1725 41.9958C34.1795 43.1053 33.2821 44.0084 32.1726 44.0084H2.03125C0.926681 44.0084 0.03125 43.113 0.03125 42.0084V2.52124C0.03125 1.41667 0.926681 0.52124 2.03125 0.52124Z" fill="#0EC5A4"/>
<path d="M24.7363 0.52124V8.7514C24.7363 9.30369 25.184 9.7514 25.7363 9.7514H33.9665L24.7363 0.52124Z" fill="black" fill-opacity="0.16"/>
<path d="M12.6836 23.5083V23.854C12.6836 24.5063 12.5918 25.0923 12.4082 25.6118C12.2285 26.1274 11.9727 26.5688 11.6406 26.936C11.3086 27.2993 10.916 27.5786 10.4629 27.7739C10.0098 27.9653 9.50977 28.061 8.96289 28.061C8.41211 28.061 7.9082 27.9653 7.45117 27.7739C6.99805 27.5786 6.60352 27.2993 6.26758 26.936C5.93555 26.5688 5.67773 26.1274 5.49414 25.6118C5.31445 25.0923 5.22461 24.5063 5.22461 23.854V23.5083C5.22461 22.856 5.31445 22.27 5.49414 21.7505C5.67773 21.231 5.93359 20.7896 6.26172 20.4263C6.59375 20.0591 6.98633 19.7798 7.43945 19.5884C7.89648 19.3931 8.40039 19.2954 8.95117 19.2954C9.49805 19.2954 9.99805 19.3931 10.4512 19.5884C10.9082 19.7798 11.3027 20.0591 11.6348 20.4263C11.9668 20.7896 12.2246 21.231 12.4082 21.7505C12.5918 22.27 12.6836 22.856 12.6836 23.5083ZM10.5977 23.854V23.4966C10.5977 23.0747 10.5605 22.7036 10.4863 22.3833C10.416 22.0591 10.3105 21.7876 10.1699 21.5688C10.0293 21.3501 9.85547 21.186 9.64844 21.0767C9.44531 20.9634 9.21289 20.9067 8.95117 20.9067C8.67773 20.9067 8.43945 20.9634 8.23633 21.0767C8.0332 21.186 7.86328 21.3501 7.72656 21.5688C7.58984 21.7876 7.48633 22.0591 7.41602 22.3833C7.34961 22.7036 7.31641 23.0747 7.31641 23.4966V23.854C7.31641 24.272 7.34961 24.6431 7.41602 24.9673C7.48633 25.2876 7.58984 25.5591 7.72656 25.7817C7.86719 26.0044 8.03906 26.1724 8.24219 26.2856C8.44922 26.3989 8.68945 26.4556 8.96289 26.4556C9.22461 26.4556 9.45703 26.3989 9.66016 26.2856C9.86328 26.1724 10.0332 26.0044 10.1699 25.7817C10.3105 25.5591 10.416 25.2876 10.4863 24.9673C10.5605 24.6431 10.5977 24.272 10.5977 23.854ZM16.5215 27.9438H14.6289L14.6406 26.3618H16.5215C16.9121 26.3618 17.2422 26.2681 17.5117 26.0806C17.7852 25.8931 17.9922 25.6138 18.1328 25.2427C18.2773 24.8677 18.3496 24.4067 18.3496 23.8599V23.4907C18.3496 23.0806 18.3086 22.7212 18.2266 22.4126C18.1484 22.1001 18.0312 21.8403 17.875 21.6333C17.7188 21.4224 17.5234 21.2642 17.2891 21.1587C17.0586 21.0532 16.793 21.0005 16.4922 21.0005H14.5938V19.4126H16.4922C17.0703 19.4126 17.5996 19.5122 18.0801 19.7114C18.5645 19.9067 18.9824 20.188 19.334 20.5552C19.6895 20.9185 19.9629 21.3501 20.1543 21.8501C20.3496 22.3462 20.4473 22.897 20.4473 23.5024V23.8599C20.4473 24.4614 20.3496 25.0122 20.1543 25.5122C19.9629 26.0122 19.6914 26.4438 19.3398 26.8071C18.9883 27.1704 18.5723 27.4517 18.0918 27.6509C17.6152 27.8462 17.0918 27.9438 16.5215 27.9438ZM15.8066 19.4126V27.9438H13.75V19.4126H15.8066ZM23.1777 19.4126L24.5723 22.2485L25.9668 19.4126H28.3105L25.9316 23.6431L28.375 27.9438H26.0078L24.5723 25.0552L23.1367 27.9438H20.7637L23.2129 23.6431L20.8281 19.4126H23.1777Z" fill="white"/>
</svg>
