<svg width="35" height="44" viewBox="0 0 35 44" fill="none" xmlns="http://www.w3.org/2000/svg">
<path d="M2.8125 0.0239258H25.5228L34.7501 9.2658L34.9538 41.4985C34.9608 42.608 34.0633 43.5111 32.9538 43.5111H2.8125C1.70793 43.5111 0.8125 42.6157 0.8125 41.5111V2.02393C0.8125 0.919356 1.70793 0.0239258 2.8125 0.0239258Z" fill="#F3A100"/>
<path d="M25.5176 0.0239258V8.25409C25.5176 8.80637 25.9653 9.25409 26.5176 9.25409H34.7477L25.5176 0.0239258Z" fill="black" fill-opacity="0.16"/>
<path d="M14.1875 22.8879V26.3918C14.043 26.552 13.8203 26.7239 13.5195 26.9075C13.2227 27.0872 12.8477 27.2415 12.3945 27.3704C11.9414 27.4993 11.4082 27.5637 10.7949 27.5637C10.2285 27.5637 9.71484 27.4739 9.25391 27.2942C8.79297 27.1106 8.39648 26.843 8.06445 26.4915C7.73633 26.136 7.48242 25.7024 7.30273 25.1907C7.12695 24.675 7.03906 24.0852 7.03906 23.4211V22.9465C7.03906 22.2825 7.12891 21.6926 7.30859 21.177C7.48828 20.6614 7.74023 20.2278 8.06445 19.8762C8.39258 19.5208 8.77734 19.2512 9.21875 19.0676C9.66406 18.884 10.1523 18.7922 10.6836 18.7922C11.4688 18.7922 12.1074 18.9172 12.5996 19.1672C13.0918 19.4133 13.4648 19.7551 13.7188 20.1926C13.9727 20.6262 14.127 21.1282 14.1816 21.6985H12.207C12.168 21.4172 12.0938 21.179 11.9844 20.9836C11.8789 20.7844 11.7266 20.634 11.5273 20.5325C11.3281 20.427 11.0703 20.3743 10.7539 20.3743C10.5078 20.3743 10.2832 20.427 10.0801 20.5325C9.88086 20.6379 9.71094 20.7981 9.57031 21.0129C9.42969 21.2239 9.32031 21.4895 9.24219 21.8098C9.16797 22.1301 9.13086 22.5051 9.13086 22.9348V23.4211C9.13086 23.8469 9.16602 24.22 9.23633 24.5403C9.31055 24.8606 9.41992 25.1282 9.56445 25.343C9.71289 25.554 9.90039 25.7141 10.127 25.8235C10.3574 25.929 10.6289 25.9817 10.9414 25.9817C11.1602 25.9817 11.3477 25.9641 11.5039 25.929C11.6602 25.8899 11.7891 25.843 11.8906 25.7883C11.9961 25.7297 12.0762 25.675 12.1309 25.6243V24.3H10.7012V22.8879H14.1875ZM21.2598 25.8645V27.4465H16.7129V25.8645H21.2598ZM17.4453 18.9153V27.4465H15.3887V18.9153H17.4453ZM20.6738 22.302V23.8313H16.7129V22.302H20.6738ZM21.2773 18.9153V20.5032H16.7129V18.9153H21.2773ZM24.875 27.4465H22.9824L22.9941 25.8645H24.875C25.2656 25.8645 25.5957 25.7708 25.8652 25.5833C26.1387 25.3958 26.3457 25.1165 26.4863 24.7454C26.6309 24.3704 26.7031 23.9094 26.7031 23.3625V22.9934C26.7031 22.5833 26.6621 22.2239 26.5801 21.9153C26.502 21.6028 26.3848 21.343 26.2285 21.136C26.0723 20.925 25.877 20.7668 25.6426 20.6614C25.4121 20.5559 25.1465 20.5032 24.8457 20.5032H22.9473V18.9153H24.8457C25.4238 18.9153 25.9531 19.0149 26.4336 19.2141C26.918 19.4094 27.3359 19.6907 27.6875 20.0579C28.043 20.4211 28.3164 20.8528 28.5078 21.3528C28.7031 21.8489 28.8008 22.3997 28.8008 23.0051V23.3625C28.8008 23.9641 28.7031 24.5149 28.5078 25.0149C28.3164 25.5149 28.0449 25.9465 27.6934 26.3098C27.3418 26.6731 26.9258 26.9543 26.4453 27.1536C25.9688 27.3489 25.4453 27.4465 24.875 27.4465ZM24.1602 18.9153V27.4465H22.1035V18.9153H24.1602Z" fill="white"/>
</svg>
