<svg width="35" height="45" viewBox="0 0 35 45" fill="none" xmlns="http://www.w3.org/2000/svg">
<path d="M2.34375 0.895264H25.0541L34.2814 10.1371L34.485 42.3698C34.492 43.4793 33.5946 44.3824 32.4851 44.3824H2.34375C1.23918 44.3824 0.34375 43.487 0.34375 42.3824V2.89526C0.34375 1.79069 1.23918 0.895264 2.34375 0.895264Z" fill="#06437C"/>
<path d="M25.0488 0.895264V9.12542C25.0488 9.67771 25.4965 10.1254 26.0488 10.1254H34.279L25.0488 0.895264Z" fill="black" fill-opacity="0.16"/>
<path d="M9.20508 25.4233H7.08398V23.8354H9.20508C9.49414 23.8354 9.72852 23.7866 9.9082 23.689C10.0879 23.5913 10.2188 23.4565 10.3008 23.2847C10.3867 23.1089 10.4297 22.9116 10.4297 22.6929C10.4297 22.4585 10.3867 22.2417 10.3008 22.0425C10.2188 21.8433 10.0879 21.6831 9.9082 21.562C9.72852 21.437 9.49414 21.3745 9.20508 21.3745H7.85742V28.3179H5.80078V19.7866H9.20508C9.88867 19.7866 10.4766 19.9116 10.9688 20.1616C11.4648 20.4116 11.8457 20.7554 12.1113 21.1929C12.377 21.6265 12.5098 22.1226 12.5098 22.6812C12.5098 23.2319 12.377 23.7124 12.1113 24.1226C11.8457 24.5327 11.4648 24.853 10.9688 25.0835C10.4766 25.3101 9.88867 25.4233 9.20508 25.4233ZM18.2461 19.7866H20.3027V25.3589C20.3027 26.0229 20.1641 26.5854 19.8867 27.0464C19.6094 27.5034 19.2207 27.8491 18.7207 28.0835C18.2207 28.3179 17.6328 28.4351 16.957 28.4351C16.2891 28.4351 15.7012 28.3179 15.1934 28.0835C14.6895 27.8491 14.2949 27.5034 14.0098 27.0464C13.7285 26.5854 13.5879 26.0229 13.5879 25.3589V19.7866H15.6504V25.3589C15.6504 25.7104 15.7012 25.9976 15.8027 26.2202C15.9043 26.439 16.0527 26.5991 16.248 26.7007C16.4434 26.8022 16.6797 26.853 16.957 26.853C17.2383 26.853 17.4746 26.8022 17.666 26.7007C17.8574 26.5991 18.002 26.439 18.0996 26.2202C18.1973 25.9976 18.2461 25.7104 18.2461 25.3589V19.7866ZM25.0781 24.6909H22.8809L22.8691 23.3433H24.6504C24.9707 23.3433 25.2266 23.3081 25.418 23.2378C25.6094 23.1636 25.748 23.0562 25.834 22.9155C25.9238 22.7749 25.9688 22.5991 25.9688 22.3882C25.9688 22.146 25.9238 21.9507 25.834 21.8022C25.7441 21.6538 25.6016 21.5464 25.4062 21.48C25.2148 21.4097 24.9668 21.3745 24.6621 21.3745H23.6543V28.3179H21.5977V19.7866H24.6621C25.1895 19.7866 25.6602 19.8354 26.0742 19.9331C26.4883 20.0269 26.8398 20.1714 27.1289 20.3667C27.4219 20.562 27.6445 20.8081 27.7969 21.105C27.9492 21.3979 28.0254 21.7437 28.0254 22.1421C28.0254 22.4897 27.9512 22.8159 27.8027 23.1206C27.6543 23.4253 27.4062 23.6733 27.0586 23.8647C26.7148 24.0522 26.2441 24.1499 25.6465 24.1577L25.0781 24.6909ZM24.9961 28.3179H22.3828L23.0859 26.7358H24.9961C25.2773 26.7358 25.502 26.6929 25.6699 26.6069C25.8418 26.5171 25.9648 26.3999 26.0391 26.2554C26.1172 26.1069 26.1562 25.9429 26.1562 25.7632C26.1562 25.5444 26.1191 25.355 26.0449 25.1948C25.9746 25.0347 25.8613 24.9116 25.7051 24.8257C25.5488 24.7358 25.3398 24.6909 25.0781 24.6909H23.3496L23.3613 23.3433H25.4297L25.9102 23.8823C26.4805 23.8589 26.9316 23.939 27.2637 24.1226C27.5996 24.3062 27.8398 24.5483 27.9844 24.8491C28.1289 25.1499 28.2012 25.4644 28.2012 25.7925C28.2012 26.3511 28.0801 26.8179 27.8379 27.1929C27.5996 27.5679 27.2422 27.8491 26.7656 28.0366C26.2891 28.2241 25.6992 28.3179 24.9961 28.3179Z" fill="white"/>
</svg>
