<svg width="35" height="44" viewBox="0 0 35 44" fill="none" xmlns="http://www.w3.org/2000/svg">
<path d="M2.8125 0.0180664H25.5228L34.7501 9.25994L34.9538 41.4926C34.9608 42.6021 34.0633 43.5052 32.9538 43.5052H2.8125C1.70793 43.5052 0.8125 42.6098 0.8125 41.5052V2.01807C0.8125 0.913497 1.70793 0.0180664 2.8125 0.0180664Z" fill="#F3A100"/>
<path d="M25.5176 0.0180664V8.24823C25.5176 8.80051 25.9653 9.24823 26.5176 9.24823H34.7477L25.5176 0.0180664Z" fill="black" fill-opacity="0.16"/>
<path d="M7.98242 18.9094L9.37695 21.7454L10.7715 18.9094H13.1152L10.7363 23.1399L13.1797 27.4407H10.8125L9.37695 24.552L7.94141 27.4407H5.56836L8.01758 23.1399L5.63281 18.9094H7.98242ZM14.8789 18.9094H16.5547L18.459 24.845L20.3633 18.9094H22.0391L19.1387 27.4407H17.7793L14.8789 18.9094ZM13.8594 18.9094H15.5938L15.916 25.4485V27.4407H13.8594V18.9094ZM21.3242 18.9094H23.0645V27.4407H21.002V25.4485L21.3242 18.9094ZM30.0195 25.8586V27.4407H25.707V25.8586H30.0195ZM26.4395 18.9094V27.4407H24.3828V18.9094H26.4395Z" fill="white"/>
</svg>
