<svg width="35" height="45" viewBox="0 0 35 45" fill="none" xmlns="http://www.w3.org/2000/svg">
<path d="M2.03125 0.836914H24.7416L33.9689 10.0788L34.1725 42.3115C34.1795 43.4209 33.2821 44.3241 32.1726 44.3241H2.03125C0.926681 44.3241 0.03125 43.4287 0.03125 42.3241V2.83691C0.03125 1.73234 0.926681 0.836914 2.03125 0.836914Z" fill="#F3A100"/>
<path d="M24.7363 0.836914V9.06708C24.7363 9.61936 25.184 10.0671 25.7363 10.0671H33.9665L24.7363 0.836914Z" fill="black" fill-opacity="0.16"/>
<path d="M9.22852 28.2595H7.33594L7.34766 26.6775H9.22852C9.61914 26.6775 9.94922 26.5837 10.2188 26.3962C10.4922 26.2087 10.6992 25.9294 10.8398 25.5583C10.9844 25.1833 11.0566 24.7224 11.0566 24.1755V23.8064C11.0566 23.3962 11.0156 23.0369 10.9336 22.7283C10.8555 22.4158 10.7383 22.156 10.582 21.949C10.4258 21.738 10.2305 21.5798 9.99609 21.4744C9.76562 21.3689 9.5 21.3162 9.19922 21.3162H7.30078V19.7283H9.19922C9.77734 19.7283 10.3066 19.8279 10.7871 20.0271C11.2715 20.2224 11.6895 20.5037 12.041 20.8708C12.3965 21.2341 12.6699 21.6658 12.8613 22.1658C13.0566 22.6619 13.1543 23.2126 13.1543 23.8181V24.1755C13.1543 24.7771 13.0566 25.3279 12.8613 25.8279C12.6699 26.3279 12.3984 26.7595 12.0469 27.1228C11.6953 27.4861 11.2793 27.7673 10.7988 27.9666C10.3223 28.1619 9.79883 28.2595 9.22852 28.2595ZM8.51367 19.7283V28.2595H6.45703V19.7283H8.51367ZM17.8535 19.7283V28.2595H15.7969V19.7283H17.8535ZM20.4199 19.7283V21.3162H13.2891V19.7283H20.4199ZM24.0645 28.2595H22.1719L22.1836 26.6775H24.0645C24.4551 26.6775 24.7852 26.5837 25.0547 26.3962C25.3281 26.2087 25.5352 25.9294 25.6758 25.5583C25.8203 25.1833 25.8926 24.7224 25.8926 24.1755V23.8064C25.8926 23.3962 25.8516 23.0369 25.7695 22.7283C25.6914 22.4158 25.5742 22.156 25.418 21.949C25.2617 21.738 25.0664 21.5798 24.832 21.4744C24.6016 21.3689 24.3359 21.3162 24.0352 21.3162H22.1367V19.7283H24.0352C24.6133 19.7283 25.1426 19.8279 25.623 20.0271C26.1074 20.2224 26.5254 20.5037 26.877 20.8708C27.2324 21.2341 27.5059 21.6658 27.6973 22.1658C27.8926 22.6619 27.9902 23.2126 27.9902 23.8181V24.1755C27.9902 24.7771 27.8926 25.3279 27.6973 25.8279C27.5059 26.3279 27.2344 26.7595 26.8828 27.1228C26.5312 27.4861 26.1152 27.7673 25.6348 27.9666C25.1582 28.1619 24.6348 28.2595 24.0645 28.2595ZM23.3496 19.7283V28.2595H21.293V19.7283H23.3496Z" fill="white"/>
</svg>
