<svg width="35" height="44" viewBox="0 0 35 44" fill="none" xmlns="http://www.w3.org/2000/svg">
<path d="M2.1875 0.494995H24.8978L34.1251 9.73687L34.3288 41.9695C34.3358 43.079 33.4383 43.9822 32.3288 43.9822H2.1875C1.08293 43.9822 0.1875 43.0867 0.1875 41.9822V2.495C0.1875 1.39043 1.08293 0.494995 2.1875 0.494995Z" fill="#0EC5A4"/>
<path d="M24.8926 0.494995V8.72516C24.8926 9.27744 25.3403 9.72516 25.8926 9.72516H34.1227L24.8926 0.494995Z" fill="black" fill-opacity="0.16"/>
<path d="M12.3438 21.1793L10.2637 27.9176H8.05469L11.1895 19.3864H12.5898L12.3438 21.1793ZM14.0664 27.9176L11.9805 21.1793L11.7109 19.3864H13.1289L16.2812 27.9176H14.0664ZM13.9844 24.736V26.3239H9.60742V24.736H13.9844ZM19.0938 19.3864V27.9176H17.043V19.3864H19.0938ZM22.5977 19.3864V27.9176H20.541V19.3864H22.5977ZM25.9141 22.9371V24.5192H22.0117V22.9371H25.9141ZM26.248 19.3864V20.9742H22.0117V19.3864H26.248Z" fill="white"/>
</svg>
