<svg width="35" height="44" viewBox="0 0 35 44" fill="none" xmlns="http://www.w3.org/2000/svg">
<path d="M2.03125 0.205078H24.7416L33.9689 9.44695L34.1725 41.6796C34.1795 42.7891 33.2821 43.6923 32.1726 43.6923H2.03125C0.926681 43.6923 0.03125 42.7968 0.03125 41.6923V2.20508C0.03125 1.10051 0.926681 0.205078 2.03125 0.205078Z" fill="#F3A100"/>
<path d="M24.7363 0.205078V8.43524C24.7363 8.98752 25.184 9.43524 25.7363 9.43524H33.9665L24.7363 0.205078Z" fill="black" fill-opacity="0.16"/>
<path d="M7.86328 19.0967L9.43359 22.7998L11.0098 19.0967H13.2246L10.4824 24.5635V27.6279H8.39062V24.5635L5.64258 19.0967H7.86328ZM17.918 19.0967H19.9746V24.6689C19.9746 25.333 19.8359 25.8955 19.5586 26.3564C19.2812 26.8135 18.8926 27.1592 18.3926 27.3936C17.8926 27.6279 17.3047 27.7451 16.6289 27.7451C15.9609 27.7451 15.373 27.6279 14.8652 27.3936C14.3613 27.1592 13.9668 26.8135 13.6816 26.3564C13.4004 25.8955 13.2598 25.333 13.2598 24.6689V19.0967H15.3223V24.6689C15.3223 25.0205 15.373 25.3076 15.4746 25.5303C15.5762 25.749 15.7246 25.9092 15.9199 26.0107C16.1152 26.1123 16.3516 26.1631 16.6289 26.1631C16.9102 26.1631 17.1465 26.1123 17.3379 26.0107C17.5293 25.9092 17.6738 25.749 17.7715 25.5303C17.8691 25.3076 17.918 25.0205 17.918 24.6689V19.0967ZM24.498 25.6182L26.2734 19.0967H28.5762L25.6992 27.6279H24.2109L24.498 25.6182ZM22.8867 19.0967L24.6621 25.6182L24.9609 27.6279H23.4551L20.5957 19.0967H22.8867Z" fill="white"/>
</svg>
