<svg width="35" height="44" viewBox="0 0 35 44" fill="none" xmlns="http://www.w3.org/2000/svg">
<path d="M2.5 0.333984H25.2103L34.4376 9.57586L34.6413 41.8085C34.6483 42.918 33.7508 43.8212 32.6413 43.8212H2.5C1.39543 43.8212 0.5 42.9257 0.5 41.8212V2.33398C0.5 1.22941 1.39543 0.333984 2.5 0.333984Z" fill="#0EC5A4"/>
<path d="M25.2051 0.333984V8.56415C25.2051 9.11643 25.6528 9.56415 26.2051 9.56415H34.4352L25.2051 0.333984Z" fill="black" fill-opacity="0.16"/>
<path d="M13.0117 23.321V23.6667C13.0117 24.3191 12.9199 24.905 12.7363 25.4246C12.5566 25.9402 12.3008 26.3816 11.9688 26.7488C11.6367 27.1121 11.2441 27.3914 10.791 27.5867C10.3379 27.7781 9.83789 27.8738 9.29102 27.8738C8.74023 27.8738 8.23633 27.7781 7.7793 27.5867C7.32617 27.3914 6.93164 27.1121 6.5957 26.7488C6.26367 26.3816 6.00586 25.9402 5.82227 25.4246C5.64258 24.905 5.55273 24.3191 5.55273 23.6667V23.321C5.55273 22.6687 5.64258 22.0828 5.82227 21.5632C6.00586 21.0437 6.26172 20.6023 6.58984 20.239C6.92188 19.8718 7.31445 19.5925 7.76758 19.4011C8.22461 19.2058 8.72852 19.1082 9.2793 19.1082C9.82617 19.1082 10.3262 19.2058 10.7793 19.4011C11.2363 19.5925 11.6309 19.8718 11.9629 20.239C12.2949 20.6023 12.5527 21.0437 12.7363 21.5632C12.9199 22.0828 13.0117 22.6687 13.0117 23.321ZM10.9258 23.6667V23.3093C10.9258 22.8875 10.8887 22.5164 10.8145 22.196C10.7441 21.8718 10.6387 21.6003 10.498 21.3816C10.3574 21.1628 10.1836 20.9988 9.97656 20.8894C9.77344 20.7761 9.54102 20.7195 9.2793 20.7195C9.00586 20.7195 8.76758 20.7761 8.56445 20.8894C8.36133 20.9988 8.19141 21.1628 8.05469 21.3816C7.91797 21.6003 7.81445 21.8718 7.74414 22.196C7.67773 22.5164 7.64453 22.8875 7.64453 23.3093V23.6667C7.64453 24.0847 7.67773 24.4558 7.74414 24.78C7.81445 25.1003 7.91797 25.3718 8.05469 25.5945C8.19531 25.8171 8.36719 25.9851 8.57031 26.0984C8.77734 26.2117 9.01758 26.2683 9.29102 26.2683C9.55273 26.2683 9.78516 26.2117 9.98828 26.0984C10.1914 25.9851 10.3613 25.8171 10.498 25.5945C10.6387 25.3718 10.7441 25.1003 10.8145 24.78C10.8887 24.4558 10.9258 24.0847 10.9258 23.6667ZM16.8496 27.7566H14.957L14.9688 26.1746H16.8496C17.2402 26.1746 17.5703 26.0808 17.8398 25.8933C18.1133 25.7058 18.3203 25.4265 18.4609 25.0554C18.6055 24.6804 18.6777 24.2195 18.6777 23.6726V23.3035C18.6777 22.8933 18.6367 22.5339 18.5547 22.2253C18.4766 21.9128 18.3594 21.6531 18.2031 21.446C18.0469 21.2351 17.8516 21.0769 17.6172 20.9714C17.3867 20.866 17.1211 20.8132 16.8203 20.8132H14.9219V19.2253H16.8203C17.3984 19.2253 17.9277 19.325 18.4082 19.5242C18.8926 19.7195 19.3105 20.0007 19.6621 20.3679C20.0176 20.7312 20.291 21.1628 20.4824 21.6628C20.6777 22.1589 20.7754 22.7097 20.7754 23.3152V23.6726C20.7754 24.2742 20.6777 24.825 20.4824 25.325C20.291 25.825 20.0195 26.2566 19.668 26.6199C19.3164 26.9832 18.9004 27.2644 18.4199 27.4636C17.9434 27.6589 17.4199 27.7566 16.8496 27.7566ZM16.1348 19.2253V27.7566H14.0781V19.2253H16.1348ZM25.252 24.8621H23.1309V23.2742H25.252C25.541 23.2742 25.7754 23.2253 25.9551 23.1277C26.1348 23.03 26.2656 22.8953 26.3477 22.7234C26.4336 22.5476 26.4766 22.3503 26.4766 22.1316C26.4766 21.8972 26.4336 21.6804 26.3477 21.4812C26.2656 21.282 26.1348 21.1218 25.9551 21.0007C25.7754 20.8757 25.541 20.8132 25.252 20.8132H23.9043V27.7566H21.8477V19.2253H25.252C25.9355 19.2253 26.5234 19.3503 27.0156 19.6003C27.5117 19.8503 27.8926 20.1941 28.1582 20.6316C28.4238 21.0652 28.5566 21.5613 28.5566 22.1199C28.5566 22.6707 28.4238 23.1511 28.1582 23.5613C27.8926 23.9714 27.5117 24.2917 27.0156 24.5222C26.5234 24.7488 25.9355 24.8621 25.252 24.8621Z" fill="white"/>
</svg>
