<svg width="35" height="44" viewBox="0 0 35 44" fill="none" xmlns="http://www.w3.org/2000/svg">
<path d="M2.5 0.494995H25.2103L34.4376 9.73687L34.6413 41.9695C34.6483 43.079 33.7508 43.9822 32.6413 43.9822H2.5C1.39543 43.9822 0.5 43.0867 0.5 41.9822V2.495C0.5 1.39043 1.39543 0.494995 2.5 0.494995Z" fill="#0EC5A4"/>
<path d="M25.2051 0.494995V8.72516C25.2051 9.27744 25.6528 9.72516 26.2051 9.72516H34.4352L25.2051 0.494995Z" fill="black" fill-opacity="0.16"/>
<path d="M9.4375 21.1793L7.35742 27.9176H5.14844L8.2832 19.3864H9.68359L9.4375 21.1793ZM11.1602 27.9176L9.07422 21.1793L8.80469 19.3864H10.2227L13.375 27.9176H11.1602ZM11.0781 24.736V26.3239H6.70117V24.736H11.0781ZM17.4062 25.0231H15.2852V23.4352H17.4062C17.6953 23.4352 17.9297 23.3864 18.1094 23.2887C18.2891 23.191 18.4199 23.0563 18.502 22.8844C18.5879 22.7086 18.6309 22.5114 18.6309 22.2926C18.6309 22.0582 18.5879 21.8414 18.502 21.6422C18.4199 21.443 18.2891 21.2828 18.1094 21.1617C17.9297 21.0367 17.6953 20.9742 17.4062 20.9742H16.0586V27.9176H14.002V19.3864H17.4062C18.0898 19.3864 18.6777 19.5114 19.1699 19.7614C19.666 20.0114 20.0469 20.3551 20.3125 20.7926C20.5781 21.2262 20.7109 21.7223 20.7109 22.2809C20.7109 22.8317 20.5781 23.3121 20.3125 23.7223C20.0469 24.1324 19.666 24.4528 19.1699 24.6832C18.6777 24.9098 18.0898 25.0231 17.4062 25.0231ZM25.2227 25.0231H23.1016V23.4352H25.2227C25.5117 23.4352 25.7461 23.3864 25.9258 23.2887C26.1055 23.191 26.2363 23.0563 26.3184 22.8844C26.4043 22.7086 26.4473 22.5114 26.4473 22.2926C26.4473 22.0582 26.4043 21.8414 26.3184 21.6422C26.2363 21.443 26.1055 21.2828 25.9258 21.1617C25.7461 21.0367 25.5117 20.9742 25.2227 20.9742H23.875V27.9176H21.8184V19.3864H25.2227C25.9062 19.3864 26.4941 19.5114 26.9863 19.7614C27.4824 20.0114 27.8633 20.3551 28.1289 20.7926C28.3945 21.2262 28.5273 21.7223 28.5273 22.2809C28.5273 22.8317 28.3945 23.3121 28.1289 23.7223C27.8633 24.1324 27.4824 24.4528 26.9863 24.6832C26.4941 24.9098 25.9062 25.0231 25.2227 25.0231Z" fill="white"/>
</svg>
