<svg width="35" height="44" viewBox="0 0 35 44" fill="none" xmlns="http://www.w3.org/2000/svg">
<path d="M2.5 0.0180664H25.2103L34.4376 9.25994L34.6413 41.4926C34.6483 42.6021 33.7508 43.5052 32.6413 43.5052H2.5C1.39543 43.5052 0.5 42.6098 0.5 41.5052V2.01807C0.5 0.913497 1.39543 0.0180664 2.5 0.0180664Z" fill="#F3A100"/>
<path d="M25.2051 0.0180664V8.24823C25.2051 8.80051 25.6528 9.24823 26.2051 9.24823H34.4352L25.2051 0.0180664Z" fill="black" fill-opacity="0.16"/>
<path d="M8.67578 18.9094L10.0703 21.7454L11.4648 18.9094H13.8086L11.4297 23.1399L13.873 27.4407H11.5059L10.0703 24.552L8.63477 27.4407H6.26172L8.71094 23.1399L6.32617 18.9094H8.67578ZM20.1895 25.8586V27.4407H15.877V25.8586H20.1895ZM16.6094 18.9094V27.4407H14.5527V18.9094H16.6094ZM25.4512 25.1731C25.4512 25.0403 25.4316 24.9211 25.3926 24.8157C25.3535 24.7063 25.2812 24.6047 25.1758 24.511C25.0703 24.4172 24.918 24.3235 24.7188 24.2297C24.5234 24.1321 24.2656 24.0305 23.9453 23.925C23.5703 23.8 23.209 23.6594 22.8613 23.5032C22.5137 23.343 22.2031 23.1575 21.9297 22.9465C21.6562 22.7317 21.4395 22.4817 21.2793 22.1965C21.1191 21.9075 21.0391 21.5715 21.0391 21.1887C21.0391 20.8215 21.1211 20.4915 21.2852 20.1985C21.4492 19.9016 21.6777 19.6497 21.9707 19.4426C22.2676 19.2317 22.6152 19.0715 23.0137 18.9622C23.4121 18.8489 23.8477 18.7922 24.3203 18.7922C24.9453 18.7922 25.4961 18.9016 25.9727 19.1204C26.4531 19.3352 26.8281 19.6418 27.0977 20.0403C27.3711 20.4348 27.5078 20.9016 27.5078 21.4407H25.4629C25.4629 21.2258 25.418 21.0364 25.3281 20.8723C25.2422 20.7083 25.1113 20.5793 24.9355 20.4856C24.7598 20.3918 24.5391 20.345 24.2734 20.345C24.0156 20.345 23.7988 20.384 23.623 20.4622C23.4473 20.5403 23.3145 20.6458 23.2246 20.7786C23.1348 20.9075 23.0898 21.05 23.0898 21.2063C23.0898 21.3352 23.125 21.4524 23.1953 21.5579C23.2695 21.6594 23.373 21.7551 23.5059 21.845C23.6426 21.9348 23.8066 22.0208 23.998 22.1028C24.1934 22.1848 24.4121 22.2649 24.6543 22.343C25.1074 22.4875 25.5098 22.6497 25.8613 22.8293C26.2168 23.0051 26.5156 23.2063 26.7578 23.4329C27.0039 23.6555 27.1895 23.9094 27.3145 24.1946C27.4434 24.4797 27.5078 24.802 27.5078 25.1614C27.5078 25.5442 27.4336 25.884 27.2852 26.1809C27.1367 26.4778 26.9238 26.7297 26.6465 26.9368C26.3691 27.1399 26.0371 27.2942 25.6504 27.3997C25.2637 27.5051 24.832 27.5579 24.3555 27.5579C23.918 27.5579 23.4863 27.5032 23.0605 27.3938C22.6387 27.2805 22.2559 27.1086 21.9121 26.8782C21.5684 26.6438 21.293 26.345 21.0859 25.9817C20.8828 25.6145 20.7812 25.179 20.7812 24.675H22.8438C22.8438 24.925 22.877 25.136 22.9434 25.3079C23.0098 25.4797 23.1074 25.6184 23.2363 25.7239C23.3652 25.8254 23.5234 25.8997 23.7109 25.9465C23.8984 25.9895 24.1133 26.011 24.3555 26.011C24.6172 26.011 24.8281 25.9739 24.9883 25.8997C25.1484 25.8215 25.2656 25.72 25.3398 25.595C25.4141 25.4661 25.4512 25.3254 25.4512 25.1731Z" fill="white"/>
</svg>
