<svg width="35" height="44" viewBox="0 0 35 44" fill="none" xmlns="http://www.w3.org/2000/svg">
<path d="M2.03125 0.456543H24.7416L33.9689 9.69842L34.1725 41.9311C34.1795 43.0406 33.2821 43.9437 32.1726 43.9437H2.03125C0.926681 43.9437 0.03125 43.0483 0.03125 41.9437V2.45654C0.03125 1.35197 0.926681 0.456543 2.03125 0.456543Z" fill="#06437C"/>
<path d="M24.7363 0.456543V8.6867C24.7363 9.23899 25.184 9.6867 25.7363 9.6867H33.9665L24.7363 0.456543Z" fill="black" fill-opacity="0.16"/>
<path d="M9.88281 25.6118C9.88281 25.479 9.86328 25.3599 9.82422 25.2544C9.78516 25.145 9.71289 25.0435 9.60742 24.9497C9.50195 24.856 9.34961 24.7622 9.15039 24.6685C8.95508 24.5708 8.69727 24.4692 8.37695 24.3638C8.00195 24.2388 7.64062 24.0981 7.29297 23.9419C6.94531 23.7817 6.63477 23.5962 6.36133 23.3853C6.08789 23.1704 5.87109 22.9204 5.71094 22.6353C5.55078 22.3462 5.4707 22.0103 5.4707 21.6274C5.4707 21.2603 5.55273 20.9302 5.7168 20.6372C5.88086 20.3403 6.10938 20.0884 6.40234 19.8813C6.69922 19.6704 7.04688 19.5103 7.44531 19.4009C7.84375 19.2876 8.2793 19.231 8.75195 19.231C9.37695 19.231 9.92773 19.3403 10.4043 19.5591C10.8848 19.7739 11.2598 20.0806 11.5293 20.479C11.8027 20.8735 11.9395 21.3403 11.9395 21.8794H9.89453C9.89453 21.6646 9.84961 21.4751 9.75977 21.311C9.67383 21.147 9.54297 21.0181 9.36719 20.9243C9.19141 20.8306 8.9707 20.7837 8.70508 20.7837C8.44727 20.7837 8.23047 20.8228 8.05469 20.9009C7.87891 20.979 7.74609 21.0845 7.65625 21.2173C7.56641 21.3462 7.52148 21.4888 7.52148 21.645C7.52148 21.7739 7.55664 21.8911 7.62695 21.9966C7.70117 22.0981 7.80469 22.1938 7.9375 22.2837C8.07422 22.3735 8.23828 22.4595 8.42969 22.5415C8.625 22.6235 8.84375 22.7036 9.08594 22.7817C9.53906 22.9263 9.94141 23.0884 10.293 23.2681C10.6484 23.4438 10.9473 23.645 11.1895 23.8716C11.4355 24.0942 11.6211 24.3481 11.7461 24.6333C11.875 24.9185 11.9395 25.2407 11.9395 25.6001C11.9395 25.9829 11.8652 26.3228 11.7168 26.6196C11.5684 26.9165 11.3555 27.1685 11.0781 27.3755C10.8008 27.5786 10.4688 27.7329 10.082 27.8384C9.69531 27.9438 9.26367 27.9966 8.78711 27.9966C8.34961 27.9966 7.91797 27.9419 7.49219 27.8325C7.07031 27.7192 6.6875 27.5474 6.34375 27.3169C6 27.0825 5.72461 26.7837 5.51758 26.4204C5.31445 26.0532 5.21289 25.6177 5.21289 25.1138H7.27539C7.27539 25.3638 7.30859 25.5747 7.375 25.7466C7.44141 25.9185 7.53906 26.0571 7.66797 26.1626C7.79688 26.2642 7.95508 26.3384 8.14258 26.3853C8.33008 26.4282 8.54492 26.4497 8.78711 26.4497C9.04883 26.4497 9.25977 26.4126 9.41992 26.3384C9.58008 26.2603 9.69727 26.1587 9.77148 26.0337C9.8457 25.9048 9.88281 25.7642 9.88281 25.6118ZM16.2285 25.8696L18.0039 19.3481H20.3066L17.4297 27.8794H15.9414L16.2285 25.8696ZM14.6172 19.3481L16.3926 25.8696L16.6914 27.8794H15.1855L12.3262 19.3481H14.6172ZM27.8301 23.3208V26.8247C27.6855 26.9849 27.4629 27.1567 27.1621 27.3403C26.8652 27.52 26.4902 27.6743 26.0371 27.8032C25.584 27.9321 25.0508 27.9966 24.4375 27.9966C23.8711 27.9966 23.3574 27.9067 22.8965 27.7271C22.4355 27.5435 22.0391 27.2759 21.707 26.9243C21.3789 26.5688 21.125 26.1353 20.9453 25.6235C20.7695 25.1079 20.6816 24.5181 20.6816 23.854V23.3794C20.6816 22.7153 20.7715 22.1255 20.9512 21.6099C21.1309 21.0942 21.3828 20.6606 21.707 20.3091C22.0352 19.9536 22.4199 19.6841 22.8613 19.5005C23.3066 19.3169 23.7949 19.2251 24.3262 19.2251C25.1113 19.2251 25.75 19.3501 26.2422 19.6001C26.7344 19.8462 27.1074 20.188 27.3613 20.6255C27.6152 21.0591 27.7695 21.561 27.8242 22.1313H25.8496C25.8105 21.8501 25.7363 21.6118 25.627 21.4165C25.5215 21.2173 25.3691 21.0669 25.1699 20.9653C24.9707 20.8599 24.7129 20.8071 24.3965 20.8071C24.1504 20.8071 23.9258 20.8599 23.7227 20.9653C23.5234 21.0708 23.3535 21.231 23.2129 21.4458C23.0723 21.6567 22.9629 21.9224 22.8848 22.2427C22.8105 22.563 22.7734 22.938 22.7734 23.3677V23.854C22.7734 24.2798 22.8086 24.6528 22.8789 24.9731C22.9531 25.2935 23.0625 25.561 23.207 25.7759C23.3555 25.9868 23.543 26.147 23.7695 26.2563C24 26.3618 24.2715 26.4146 24.584 26.4146C24.8027 26.4146 24.9902 26.397 25.1465 26.3618C25.3027 26.3228 25.4316 26.2759 25.5332 26.2212C25.6387 26.1626 25.7188 26.1079 25.7734 26.0571V24.7329H24.3438V23.3208H27.8301Z" fill="white"/>
</svg>
