<svg width="35" height="44" viewBox="0 0 35 44" fill="none" xmlns="http://www.w3.org/2000/svg">
<path d="M2.34375 0.210938H25.0541L34.2814 9.45281L34.485 41.6855C34.492 42.795 33.5946 43.6981 32.4851 43.6981H2.34375C1.23918 43.6981 0.34375 42.8027 0.34375 41.6981V2.21094C0.34375 1.10637 1.23918 0.210938 2.34375 0.210938Z" fill="#F3A100"/>
<path d="M25.0488 0.210938V8.4411C25.0488 8.99338 25.4965 9.4411 26.0488 9.4411H34.279L25.0488 0.210938Z" fill="black" fill-opacity="0.16"/>
<path d="M16.7988 23.0752V26.5791C16.6543 26.7393 16.4316 26.9111 16.1309 27.0947C15.834 27.2744 15.459 27.4287 15.0059 27.5576C14.5527 27.6865 14.0195 27.751 13.4062 27.751C12.8398 27.751 12.3262 27.6611 11.8652 27.4814C11.4043 27.2979 11.0078 27.0303 10.6758 26.6787C10.3477 26.3232 10.0938 25.8896 9.91406 25.3779C9.73828 24.8623 9.65039 24.2725 9.65039 23.6084V23.1338C9.65039 22.4697 9.74023 21.8799 9.91992 21.3643C10.0996 20.8486 10.3516 20.415 10.6758 20.0635C11.0039 19.708 11.3887 19.4385 11.8301 19.2549C12.2754 19.0713 12.7637 18.9795 13.2949 18.9795C14.0801 18.9795 14.7188 19.1045 15.2109 19.3545C15.7031 19.6006 16.0762 19.9424 16.3301 20.3799C16.584 20.8135 16.7383 21.3154 16.793 21.8857H14.8184C14.7793 21.6045 14.7051 21.3662 14.5957 21.1709C14.4902 20.9717 14.3379 20.8213 14.1387 20.7197C13.9395 20.6143 13.6816 20.5615 13.3652 20.5615C13.1191 20.5615 12.8945 20.6143 12.6914 20.7197C12.4922 20.8252 12.3223 20.9854 12.1816 21.2002C12.041 21.4111 11.9316 21.6768 11.8535 21.9971C11.7793 22.3174 11.7422 22.6924 11.7422 23.1221V23.6084C11.7422 24.0342 11.7773 24.4072 11.8477 24.7275C11.9219 25.0479 12.0312 25.3154 12.1758 25.5303C12.3242 25.7412 12.5117 25.9014 12.7383 26.0107C12.9688 26.1162 13.2402 26.1689 13.5527 26.1689C13.7715 26.1689 13.959 26.1514 14.1152 26.1162C14.2715 26.0771 14.4004 26.0303 14.502 25.9756C14.6074 25.917 14.6875 25.8623 14.7422 25.8115V24.4873H13.3125V23.0752H16.7988ZM24.3867 26.0518V27.6338H18.2109V26.0518H24.3867ZM24.3457 20.1572L19.2305 27.6338H17.7422V26.5498L22.916 19.1025H24.3457V20.1572ZM23.6836 19.1025V20.6904H17.7129V19.1025H23.6836Z" fill="white"/>
</svg>
