<svg width="35" height="44" viewBox="0 0 35 44" fill="none" xmlns="http://www.w3.org/2000/svg">
<path d="M2.65625 0.494995H25.3666L34.5939 9.73687L34.7975 41.9695C34.8045 43.079 33.9071 43.9822 32.7976 43.9822H2.65625C1.55168 43.9822 0.65625 43.0867 0.65625 41.9822V2.495C0.65625 1.39043 1.55168 0.494995 2.65625 0.494995Z" fill="#0EC5A4"/>
<path d="M25.3613 0.494995V8.72516C25.3613 9.27744 25.809 9.72516 26.3613 9.72516H34.5915L25.3613 0.494995Z" fill="black" fill-opacity="0.16"/>
<path d="M10.873 21.1794L8.79297 27.9177H6.58398L9.71875 19.3865H11.1191L10.873 21.1794ZM12.5957 27.9177L10.5098 21.1794L10.2402 19.3865H11.6582L14.8105 27.9177H12.5957ZM12.5137 24.7361V26.324H8.13672V24.7361H12.5137ZM19.832 25.6501C19.832 25.5173 19.8125 25.3982 19.7734 25.2927C19.7344 25.1833 19.6621 25.0818 19.5566 24.988C19.4512 24.8943 19.2988 24.8005 19.0996 24.7068C18.9043 24.6091 18.6465 24.5076 18.3262 24.4021C17.9512 24.2771 17.5898 24.1365 17.2422 23.9802C16.8945 23.8201 16.584 23.6345 16.3105 23.4236C16.0371 23.2087 15.8203 22.9587 15.6602 22.6736C15.5 22.3845 15.4199 22.0486 15.4199 21.6658C15.4199 21.2986 15.502 20.9685 15.666 20.6755C15.8301 20.3787 16.0586 20.1267 16.3516 19.9197C16.6484 19.7087 16.9961 19.5486 17.3945 19.4392C17.793 19.3259 18.2285 19.2693 18.7012 19.2693C19.3262 19.2693 19.877 19.3787 20.3535 19.5974C20.834 19.8123 21.209 20.1189 21.4785 20.5173C21.752 20.9119 21.8887 21.3787 21.8887 21.9177H19.8438C19.8438 21.7029 19.7988 21.5134 19.709 21.3494C19.623 21.1853 19.4922 21.0564 19.3164 20.9626C19.1406 20.8689 18.9199 20.822 18.6543 20.822C18.3965 20.822 18.1797 20.8611 18.0039 20.9392C17.8281 21.0173 17.6953 21.1228 17.6055 21.2556C17.5156 21.3845 17.4707 21.5271 17.4707 21.6833C17.4707 21.8123 17.5059 21.9294 17.5762 22.0349C17.6504 22.1365 17.7539 22.2322 17.8867 22.322C18.0234 22.4119 18.1875 22.4978 18.3789 22.5798C18.5742 22.6619 18.793 22.7419 19.0352 22.8201C19.4883 22.9646 19.8906 23.1267 20.2422 23.3064C20.5977 23.4822 20.8965 23.6833 21.1387 23.9099C21.3848 24.1326 21.5703 24.3865 21.6953 24.6716C21.8242 24.9568 21.8887 25.2791 21.8887 25.6384C21.8887 26.0212 21.8145 26.3611 21.666 26.658C21.5176 26.9548 21.3047 27.2068 21.0273 27.4138C20.75 27.6169 20.418 27.7712 20.0312 27.8767C19.6445 27.9822 19.2129 28.0349 18.7363 28.0349C18.2988 28.0349 17.8672 27.9802 17.4414 27.8708C17.0195 27.7576 16.6367 27.5857 16.293 27.3552C15.9492 27.1208 15.6738 26.822 15.4668 26.4587C15.2637 26.0916 15.1621 25.656 15.1621 25.1521H17.2246C17.2246 25.4021 17.2578 25.613 17.3242 25.7849C17.3906 25.9568 17.4883 26.0955 17.6172 26.2009C17.7461 26.3025 17.9043 26.3767 18.0918 26.4236C18.2793 26.4666 18.4941 26.488 18.7363 26.488C18.998 26.488 19.209 26.4509 19.3691 26.3767C19.5293 26.2986 19.6465 26.197 19.7207 26.072C19.7949 25.9431 19.832 25.8025 19.832 25.6501ZM25.0059 19.3865V27.9177H22.9492V19.3865H25.0059ZM28.3223 22.9373V24.5193H24.4199V22.9373H28.3223ZM28.6562 19.3865V20.9744H24.4199V19.3865H28.6562Z" fill="white"/>
</svg>
