<svg width="35" height="44" viewBox="0 0 35 44" fill="none" xmlns="http://www.w3.org/2000/svg">
<path d="M2.34375 0.275513H25.0541L34.2814 9.51739L34.485 41.7501C34.492 42.8595 33.5946 43.7627 32.4851 43.7627H2.34375C1.23918 43.7627 0.34375 42.8673 0.34375 41.7627V2.27551C0.34375 1.17094 1.23918 0.275513 2.34375 0.275513Z" fill="#06437C"/>
<path d="M25.0488 0.275513V8.50567C25.0488 9.05796 25.4965 9.50567 26.0488 9.50567H34.279L25.0488 0.275513Z" fill="black" fill-opacity="0.16"/>
<path d="M10.8164 24.8094H12.8672C12.8398 25.4032 12.6797 25.9266 12.3867 26.3798C12.0938 26.8329 11.6875 27.1864 11.168 27.4403C10.6523 27.6903 10.043 27.8153 9.33984 27.8153C8.76953 27.8153 8.25977 27.7196 7.81055 27.5282C7.36523 27.3368 6.98633 27.0614 6.67383 26.702C6.36523 26.3427 6.12891 25.9071 5.96484 25.3954C5.80469 24.8837 5.72461 24.3075 5.72461 23.6669V23.204C5.72461 22.5634 5.80859 21.9872 5.97656 21.4755C6.14844 20.9598 6.39062 20.5223 6.70312 20.163C7.01953 19.7997 7.39844 19.5223 7.83984 19.3309C8.28125 19.1395 8.77148 19.0438 9.31055 19.0438C10.0527 19.0438 10.6797 19.1766 11.1914 19.4423C11.7031 19.7079 12.0996 20.0731 12.3809 20.538C12.6621 20.9989 12.8281 21.5243 12.8789 22.1141H10.8281C10.8203 21.7938 10.7656 21.5262 10.6641 21.3114C10.5625 21.0927 10.4023 20.9286 10.1836 20.8192C9.96484 20.7098 9.67383 20.6552 9.31055 20.6552C9.05664 20.6552 8.83594 20.702 8.64844 20.7958C8.46094 20.8895 8.30469 21.038 8.17969 21.2411C8.05469 21.4442 7.96094 21.7079 7.89844 22.0321C7.83984 22.3524 7.81055 22.7391 7.81055 23.1923V23.6669C7.81055 24.12 7.83789 24.5067 7.89258 24.827C7.94727 25.1473 8.03516 25.4091 8.15625 25.6122C8.27734 25.8153 8.43359 25.9657 8.625 26.0634C8.82031 26.1571 9.05859 26.204 9.33984 26.204C9.65234 26.204 9.91602 26.1552 10.1309 26.0575C10.3457 25.9559 10.5117 25.8036 10.6289 25.6005C10.7461 25.3934 10.8086 25.1298 10.8164 24.8094ZM18.2344 25.4305C18.2344 25.2977 18.2148 25.1786 18.1758 25.0731C18.1367 24.9637 18.0645 24.8622 17.959 24.7684C17.8535 24.6747 17.7012 24.5809 17.502 24.4872C17.3066 24.3895 17.0488 24.288 16.7285 24.1825C16.3535 24.0575 15.9922 23.9169 15.6445 23.7606C15.2969 23.6005 14.9863 23.4149 14.7129 23.204C14.4395 22.9891 14.2227 22.7391 14.0625 22.454C13.9023 22.1649 13.8223 21.829 13.8223 21.4462C13.8223 21.079 13.9043 20.7489 14.0684 20.4559C14.2324 20.1591 14.4609 19.9071 14.7539 19.7001C15.0508 19.4891 15.3984 19.329 15.7969 19.2196C16.1953 19.1063 16.6309 19.0497 17.1035 19.0497C17.7285 19.0497 18.2793 19.1591 18.7559 19.3778C19.2363 19.5927 19.6113 19.8993 19.8809 20.2977C20.1543 20.6923 20.291 21.1591 20.291 21.6981H18.2461C18.2461 21.4833 18.2012 21.2938 18.1113 21.1298C18.0254 20.9657 17.8945 20.8368 17.7188 20.743C17.543 20.6493 17.3223 20.6024 17.0566 20.6024C16.7988 20.6024 16.582 20.6415 16.4062 20.7196C16.2305 20.7977 16.0977 20.9032 16.0078 21.036C15.918 21.1649 15.873 21.3075 15.873 21.4637C15.873 21.5927 15.9082 21.7098 15.9785 21.8153C16.0527 21.9169 16.1562 22.0126 16.2891 22.1024C16.4258 22.1923 16.5898 22.2782 16.7812 22.3602C16.9766 22.4423 17.1953 22.5223 17.4375 22.6005C17.8906 22.745 18.293 22.9071 18.6445 23.0868C19 23.2626 19.2988 23.4637 19.541 23.6903C19.7871 23.913 19.9727 24.1669 20.0977 24.452C20.2266 24.7372 20.291 25.0594 20.291 25.4188C20.291 25.8016 20.2168 26.1415 20.0684 26.4384C19.9199 26.7352 19.707 26.9872 19.4297 27.1942C19.1523 27.3973 18.8203 27.5516 18.4336 27.6571C18.0469 27.7626 17.6152 27.8153 17.1387 27.8153C16.7012 27.8153 16.2695 27.7606 15.8438 27.6512C15.4219 27.538 15.0391 27.3661 14.6953 27.1356C14.3516 26.9012 14.0762 26.6024 13.8691 26.2391C13.666 25.8719 13.5645 25.4364 13.5645 24.9325H15.627C15.627 25.1825 15.6602 25.3934 15.7266 25.5653C15.793 25.7372 15.8906 25.8759 16.0195 25.9813C16.1484 26.0829 16.3066 26.1571 16.4941 26.204C16.6816 26.2469 16.8965 26.2684 17.1387 26.2684C17.4004 26.2684 17.6113 26.2313 17.7715 26.1571C17.9316 26.079 18.0488 25.9774 18.123 25.8524C18.1973 25.7235 18.2344 25.5829 18.2344 25.4305ZM21.3516 19.1669H24.709C25.3652 19.1669 25.9355 19.2645 26.4199 19.4598C26.9043 19.6552 27.2773 19.9442 27.5391 20.327C27.8047 20.7098 27.9375 21.1825 27.9375 21.745C27.9375 22.2333 27.8613 22.6415 27.709 22.9696C27.5566 23.2977 27.3438 23.5692 27.0703 23.7841C26.8008 23.995 26.4863 24.1688 26.127 24.3055L25.4531 24.6864H22.6348L22.623 23.0985H24.709C24.9707 23.0985 25.1875 23.0516 25.3594 22.9579C25.5312 22.8641 25.6602 22.7313 25.7461 22.5594C25.8359 22.3837 25.8809 22.1747 25.8809 21.9325C25.8809 21.6864 25.8359 21.4755 25.7461 21.2997C25.6562 21.1239 25.5234 20.9891 25.3477 20.8954C25.1758 20.8016 24.9629 20.7548 24.709 20.7548H23.4082V27.6981H21.3516V19.1669ZM26.0215 27.6981L24.1348 23.9247L26.3145 23.913L28.2246 27.6102V27.6981H26.0215Z" fill="white"/>
</svg>
