<svg width="35" height="45" viewBox="0 0 35 45" fill="none" xmlns="http://www.w3.org/2000/svg">
<path d="M2.8125 0.52124H25.5228L34.7501 9.76311L34.9538 41.9958C34.9608 43.1053 34.0633 44.0084 32.9538 44.0084H2.8125C1.70793 44.0084 0.8125 43.113 0.8125 42.0084V2.52124C0.8125 1.41667 1.70793 0.52124 2.8125 0.52124Z" fill="#0EC5A4"/>
<path d="M25.5176 0.52124V8.7514C25.5176 9.30369 25.9653 9.7514 26.5176 9.7514H34.7477L25.5176 0.52124Z" fill="black" fill-opacity="0.16"/>
<path d="M12.9395 25.0493H10.8184V23.4614H12.9395C13.2285 23.4614 13.4629 23.4126 13.6426 23.3149C13.8223 23.2173 13.9531 23.0825 14.0352 22.9106C14.1211 22.7349 14.1641 22.5376 14.1641 22.3188C14.1641 22.0845 14.1211 21.8677 14.0352 21.6685C13.9531 21.4692 13.8223 21.3091 13.6426 21.188C13.4629 21.063 13.2285 21.0005 12.9395 21.0005H11.5918V27.9438H9.53516V19.4126H12.9395C13.623 19.4126 14.2109 19.5376 14.7031 19.7876C15.1992 20.0376 15.5801 20.3813 15.8457 20.8188C16.1113 21.2524 16.2441 21.7485 16.2441 22.3071C16.2441 22.8579 16.1113 23.3384 15.8457 23.7485C15.5801 24.1587 15.1992 24.479 14.7031 24.7095C14.2109 24.936 13.623 25.0493 12.9395 25.0493ZM19.5371 19.4126V27.9438H17.4863V19.4126H19.5371ZM23.041 19.4126V27.9438H20.9844V19.4126H23.041ZM26.3574 22.9634V24.5454H22.4551V22.9634H26.3574ZM26.6914 19.4126V21.0005H22.4551V19.4126H26.6914Z" fill="white"/>
</svg>
