<svg width="35" height="44" viewBox="0 0 35 44" fill="none" xmlns="http://www.w3.org/2000/svg">
<path d="M2.5 0.398438H25.2103L34.4376 9.64031L34.6413 41.873C34.6483 42.9825 33.7508 43.8856 32.6413 43.8856H2.5C1.39543 43.8856 0.5 42.9902 0.5 41.8856V2.39844C0.5 1.29387 1.39543 0.398438 2.5 0.398438Z" fill="#C6463E"/>
<path d="M25.2051 0.398438V8.6286C25.2051 9.18088 25.6528 9.6286 26.2051 9.6286H34.4352L25.2051 0.398438Z" fill="black" fill-opacity="0.16"/>
<path d="M10.1992 19.2898V27.821H8.14844V19.2898H10.1992ZM16.041 25.5535C16.041 25.4207 16.0215 25.3015 15.9824 25.196C15.9434 25.0867 15.8711 24.9851 15.7656 24.8914C15.6602 24.7976 15.5078 24.7039 15.3086 24.6101C15.1133 24.5125 14.8555 24.4109 14.5352 24.3054C14.1602 24.1804 13.7988 24.0398 13.4512 23.8835C13.1035 23.7234 12.793 23.5378 12.5195 23.3269C12.2461 23.1121 12.0293 22.8621 11.8691 22.5769C11.709 22.2878 11.6289 21.9519 11.6289 21.5691C11.6289 21.2019 11.7109 20.8718 11.875 20.5789C12.0391 20.282 12.2676 20.03 12.5605 19.823C12.8574 19.6121 13.2051 19.4519 13.6035 19.3425C14.002 19.2292 14.4375 19.1726 14.9102 19.1726C15.5352 19.1726 16.0859 19.282 16.5625 19.5007C17.043 19.7156 17.418 20.0222 17.6875 20.4207C17.9609 20.8152 18.0977 21.282 18.0977 21.821H16.0527C16.0527 21.6062 16.0078 21.4167 15.918 21.2527C15.832 21.0886 15.7012 20.9597 15.5254 20.866C15.3496 20.7722 15.1289 20.7253 14.8633 20.7253C14.6055 20.7253 14.3887 20.7644 14.2129 20.8425C14.0371 20.9207 13.9043 21.0261 13.8145 21.1589C13.7246 21.2878 13.6797 21.4304 13.6797 21.5867C13.6797 21.7156 13.7148 21.8328 13.7852 21.9382C13.8594 22.0398 13.9629 22.1355 14.0957 22.2253C14.2324 22.3152 14.3965 22.4011 14.5879 22.4832C14.7832 22.5652 15.002 22.6453 15.2441 22.7234C15.6973 22.8679 16.0996 23.03 16.4512 23.2097C16.8066 23.3855 17.1055 23.5867 17.3477 23.8132C17.5938 24.0359 17.7793 24.2898 17.9043 24.575C18.0332 24.8601 18.0977 25.1824 18.0977 25.5417C18.0977 25.9246 18.0234 26.2644 17.875 26.5613C17.7266 26.8582 17.5137 27.1101 17.2363 27.3171C16.959 27.5203 16.627 27.6746 16.2402 27.78C15.8535 27.8855 15.4219 27.9382 14.9453 27.9382C14.5078 27.9382 14.0762 27.8835 13.6504 27.7742C13.2285 27.6609 12.8457 27.489 12.502 27.2585C12.1582 27.0242 11.8828 26.7253 11.6758 26.3621C11.4727 25.9949 11.3711 25.5593 11.3711 25.0554H13.4336C13.4336 25.3054 13.4668 25.5164 13.5332 25.6882C13.5996 25.8601 13.6973 25.9988 13.8262 26.1042C13.9551 26.2058 14.1133 26.28 14.3008 26.3269C14.4883 26.3699 14.7031 26.3914 14.9453 26.3914C15.207 26.3914 15.418 26.3542 15.5781 26.28C15.7383 26.2019 15.8555 26.1003 15.9297 25.9753C16.0039 25.8464 16.041 25.7058 16.041 25.5535ZM26.377 23.3855V23.7312C26.377 24.3835 26.2852 24.9695 26.1016 25.489C25.9219 26.0046 25.666 26.446 25.334 26.8132C25.002 27.1765 24.6094 27.4558 24.1562 27.6511C23.7031 27.8425 23.2031 27.9382 22.6562 27.9382C22.1055 27.9382 21.6016 27.8425 21.1445 27.6511C20.6914 27.4558 20.2969 27.1765 19.9609 26.8132C19.6289 26.446 19.3711 26.0046 19.1875 25.489C19.0078 24.9695 18.918 24.3835 18.918 23.7312V23.3855C18.918 22.7332 19.0078 22.1472 19.1875 21.6277C19.3711 21.1082 19.627 20.6667 19.9551 20.3035C20.2871 19.9363 20.6797 19.657 21.1328 19.4656C21.5898 19.2703 22.0938 19.1726 22.6445 19.1726C23.1914 19.1726 23.6914 19.2703 24.1445 19.4656C24.6016 19.657 24.9961 19.9363 25.3281 20.3035C25.6602 20.6667 25.918 21.1082 26.1016 21.6277C26.2852 22.1472 26.377 22.7332 26.377 23.3855ZM24.291 23.7312V23.3738C24.291 22.9519 24.2539 22.5808 24.1797 22.2605C24.1094 21.9363 24.0039 21.6648 23.8633 21.446C23.7227 21.2273 23.5488 21.0632 23.3418 20.9539C23.1387 20.8406 22.9062 20.7839 22.6445 20.7839C22.3711 20.7839 22.1328 20.8406 21.9297 20.9539C21.7266 21.0632 21.5566 21.2273 21.4199 21.446C21.2832 21.6648 21.1797 21.9363 21.1094 22.2605C21.043 22.5808 21.0098 22.9519 21.0098 23.3738V23.7312C21.0098 24.1492 21.043 24.5203 21.1094 24.8445C21.1797 25.1648 21.2832 25.4363 21.4199 25.6589C21.5605 25.8816 21.7324 26.0496 21.9355 26.1628C22.1426 26.2761 22.3828 26.3328 22.6562 26.3328C22.918 26.3328 23.1504 26.2761 23.3535 26.1628C23.5566 26.0496 23.7266 25.8816 23.8633 25.6589C24.0039 25.4363 24.1094 25.1648 24.1797 24.8445C24.2539 24.5203 24.291 24.1492 24.291 23.7312Z" fill="white"/>
</svg>
