<svg width="35" height="45" viewBox="0 0 35 45" fill="none" xmlns="http://www.w3.org/2000/svg">
<path d="M2.65625 0.959717H25.3666L34.5939 10.2016L34.7975 42.4343C34.8045 43.5437 33.9071 44.4469 32.7976 44.4469H2.65625C1.55168 44.4469 0.65625 43.5515 0.65625 42.4469V2.95972C0.65625 1.85515 1.55168 0.959717 2.65625 0.959717Z" fill="#C6463E"/>
<path d="M25.3613 0.959717V9.18988C25.3613 9.74216 25.809 10.1899 26.3613 10.1899H34.5915L25.3613 0.959717Z" fill="black" fill-opacity="0.16"/>
<path d="M6.25391 19.8513H7.92969L9.83398 25.7869L11.7383 19.8513H13.4141L10.5137 28.3826H9.1543L6.25391 19.8513ZM5.23438 19.8513H6.96875L7.29102 26.3904V28.3826H5.23438V19.8513ZM12.6992 19.8513H14.4395V28.3826H12.377V26.3904L12.6992 19.8513ZM19.1621 25.488H17.041V23.9001H19.1621C19.4512 23.9001 19.6855 23.8513 19.8652 23.7537C20.0449 23.656 20.1758 23.5212 20.2578 23.3494C20.3438 23.1736 20.3867 22.9763 20.3867 22.7576C20.3867 22.5232 20.3438 22.3064 20.2578 22.1072C20.1758 21.908 20.0449 21.7478 19.8652 21.6267C19.6855 21.5017 19.4512 21.4392 19.1621 21.4392H17.8145V28.3826H15.7578V19.8513H19.1621C19.8457 19.8513 20.4336 19.9763 20.9258 20.2263C21.4219 20.4763 21.8027 20.8201 22.0684 21.2576C22.334 21.6912 22.4668 22.1873 22.4668 22.7458C22.4668 23.2966 22.334 23.7771 22.0684 24.1873C21.8027 24.5974 21.4219 24.9177 20.9258 25.1482C20.4336 25.3748 19.8457 25.488 19.1621 25.488ZM25.25 23.2908H26.2109C26.457 23.2908 26.6582 23.2478 26.8145 23.1619C26.9746 23.072 27.0938 22.947 27.1719 22.7869C27.25 22.6228 27.2891 22.4294 27.2891 22.2068C27.2891 22.0349 27.252 21.8767 27.1777 21.7322C27.1074 21.5876 26.998 21.4724 26.8496 21.3865C26.7012 21.2966 26.5117 21.2517 26.2812 21.2517C26.125 21.2517 25.9727 21.2849 25.8242 21.3513C25.6758 21.4138 25.5527 21.5037 25.4551 21.6208C25.3613 21.738 25.3145 21.8806 25.3145 22.0486H23.334C23.334 21.5642 23.4668 21.1501 23.7324 20.8064C24.002 20.4587 24.3555 20.1931 24.793 20.0095C25.2344 19.822 25.709 19.7283 26.2168 19.7283C26.8223 19.7283 27.3535 19.822 27.8105 20.0095C28.2676 20.1931 28.623 20.4666 28.877 20.8298C29.1348 21.1892 29.2637 21.6345 29.2637 22.1658C29.2637 22.4587 29.1953 22.7341 29.0586 22.9919C28.9219 23.2498 28.7305 23.4763 28.4844 23.6716C28.2383 23.8669 27.9492 24.0212 27.6172 24.1345C27.2891 24.2439 26.9297 24.2986 26.5391 24.2986H25.25V23.2908ZM25.25 24.7615V23.7771H26.5391C26.9648 23.7771 27.3535 23.8259 27.7051 23.9236C28.0566 24.0173 28.3594 24.158 28.6133 24.3455C28.8672 24.533 29.0625 24.7654 29.1992 25.0427C29.3359 25.3162 29.4043 25.6306 29.4043 25.9861C29.4043 26.3845 29.3242 26.74 29.1641 27.0525C29.0039 27.365 28.7793 27.6287 28.4902 27.8435C28.2012 28.0583 27.8633 28.2224 27.4766 28.3357C27.0898 28.4451 26.6699 28.4998 26.2168 28.4998C25.8613 28.4998 25.5059 28.4529 25.1504 28.3591C24.7949 28.2615 24.4707 28.113 24.1777 27.9138C23.8848 27.7107 23.6484 27.4529 23.4688 27.1404C23.293 26.824 23.2051 26.447 23.2051 26.0095H25.1855C25.1855 26.1892 25.2344 26.3533 25.332 26.5017C25.4336 26.6462 25.5684 26.7615 25.7363 26.8474C25.9043 26.9333 26.0859 26.9763 26.2812 26.9763C26.5234 26.9763 26.7285 26.9314 26.8965 26.8416C27.0684 26.7478 27.1992 26.6228 27.2891 26.4666C27.3789 26.3103 27.4238 26.1365 27.4238 25.9451C27.4238 25.656 27.375 25.4255 27.2773 25.2537C27.1836 25.0818 27.0449 24.9568 26.8613 24.8787C26.6816 24.8005 26.4648 24.7615 26.2109 24.7615H25.25Z" fill="white"/>
</svg>
