<svg width="35" height="44" viewBox="0 0 35 44" fill="none" xmlns="http://www.w3.org/2000/svg">
<path d="M2.03125 0.088501H24.7416L33.9689 9.33038L34.1725 41.563C34.1795 42.6725 33.2821 43.5757 32.1726 43.5757H2.03125C0.926681 43.5757 0.03125 42.6802 0.03125 41.5757V2.0885C0.03125 0.983932 0.926681 0.088501 2.03125 0.088501Z" fill="#06437C"/>
<path d="M24.7363 0.088501V8.31866C24.7363 8.87095 25.184 9.31866 25.7363 9.31866H33.9665L24.7363 0.088501Z" fill="black" fill-opacity="0.16"/>
<path d="M10.1992 24.6224H12.25C12.2227 25.2162 12.0625 25.7396 11.7695 26.1927C11.4766 26.6459 11.0703 26.9994 10.5508 27.2533C10.0352 27.5033 9.42578 27.6283 8.72266 27.6283C8.15234 27.6283 7.64258 27.5326 7.19336 27.3412C6.74805 27.1498 6.36914 26.8744 6.05664 26.515C5.74805 26.1556 5.51172 25.7201 5.34766 25.2084C5.1875 24.6967 5.10742 24.1205 5.10742 23.4799V23.017C5.10742 22.3763 5.19141 21.8002 5.35938 21.2885C5.53125 20.7728 5.77344 20.3353 6.08594 19.976C6.40234 19.6127 6.78125 19.3353 7.22266 19.1439C7.66406 18.9525 8.1543 18.8568 8.69336 18.8568C9.43555 18.8568 10.0625 18.9896 10.5742 19.2552C11.0859 19.5209 11.4824 19.8861 11.7637 20.351C12.0449 20.8119 12.2109 21.3373 12.2617 21.9271H10.2109C10.2031 21.6068 10.1484 21.3392 10.0469 21.1244C9.94531 20.9056 9.78516 20.7416 9.56641 20.6322C9.34766 20.5228 9.05664 20.4681 8.69336 20.4681C8.43945 20.4681 8.21875 20.515 8.03125 20.6088C7.84375 20.7025 7.6875 20.851 7.5625 21.0541C7.4375 21.2572 7.34375 21.5209 7.28125 21.8451C7.22266 22.1654 7.19336 22.5521 7.19336 23.0052V23.4799C7.19336 23.933 7.2207 24.3197 7.27539 24.64C7.33008 24.9603 7.41797 25.222 7.53906 25.4252C7.66016 25.6283 7.81641 25.7787 8.00781 25.8763C8.20312 25.9701 8.44141 26.017 8.72266 26.017C9.03516 26.017 9.29883 25.9681 9.51367 25.8705C9.72852 25.7689 9.89453 25.6166 10.0117 25.4135C10.1289 25.2064 10.1914 24.9427 10.1992 24.6224ZM16.8379 20.7728L14.7578 27.5111H12.5488L15.6836 18.9799H17.084L16.8379 20.7728ZM18.5605 27.5111L16.4746 20.7728L16.2051 18.9799H17.623L20.7754 27.5111H18.5605ZM18.4785 24.3295V25.9174H14.1016V24.3295H18.4785ZM24.1738 27.5111H22.2812L22.293 25.9291H24.1738C24.5645 25.9291 24.8945 25.8353 25.1641 25.6478C25.4375 25.4603 25.6445 25.181 25.7852 24.8099C25.9297 24.4349 26.002 23.974 26.002 23.4271V23.058C26.002 22.6478 25.9609 22.2885 25.8789 21.9799C25.8008 21.6674 25.6836 21.4076 25.5273 21.2006C25.3711 20.9896 25.1758 20.8314 24.9414 20.726C24.7109 20.6205 24.4453 20.5677 24.1445 20.5677H22.2461V18.9799H24.1445C24.7227 18.9799 25.252 19.0795 25.7324 19.2787C26.2168 19.474 26.6348 19.7552 26.9863 20.1224C27.3418 20.4857 27.6152 20.9174 27.8066 21.4174C28.002 21.9135 28.0996 22.4642 28.0996 23.0697V23.4271C28.0996 24.0287 28.002 24.5795 27.8066 25.0795C27.6152 25.5795 27.3438 26.0111 26.9922 26.3744C26.6406 26.7377 26.2246 27.0189 25.7441 27.2181C25.2676 27.4135 24.7441 27.5111 24.1738 27.5111ZM23.459 18.9799V27.5111H21.4023V18.9799H23.459Z" fill="white"/>
</svg>
