<svg width="35" height="45" viewBox="0 0 35 45" fill="none" xmlns="http://www.w3.org/2000/svg">
<path d="M2.03125 0.895264H24.7416L33.9689 10.1371L34.1725 42.3698C34.1795 43.4793 33.2821 44.3824 32.1726 44.3824H2.03125C0.926681 44.3824 0.03125 43.487 0.03125 42.3824V2.89526C0.03125 1.79069 0.926681 0.895264 2.03125 0.895264Z" fill="#06437C"/>
<path d="M24.7363 0.895264V9.12542C24.7363 9.67771 25.184 10.1254 25.7363 10.1254H33.9665L24.7363 0.895264Z" fill="black" fill-opacity="0.16"/>
<path d="M13 25.4233H10.8789V23.8354H13C13.2891 23.8354 13.5234 23.7866 13.7031 23.689C13.8828 23.5913 14.0137 23.4565 14.0957 23.2847C14.1816 23.1089 14.2246 22.9116 14.2246 22.6929C14.2246 22.4585 14.1816 22.2417 14.0957 22.0425C14.0137 21.8433 13.8828 21.6831 13.7031 21.562C13.5234 21.437 13.2891 21.3745 13 21.3745H11.6523V28.3179H9.5957V19.7866H13C13.6836 19.7866 14.2715 19.9116 14.7637 20.1616C15.2598 20.4116 15.6406 20.7554 15.9062 21.1929C16.1719 21.6265 16.3047 22.1226 16.3047 22.6812C16.3047 23.2319 16.1719 23.7124 15.9062 24.1226C15.6406 24.5327 15.2598 24.853 14.7637 25.0835C14.2715 25.3101 13.6836 25.4233 13 25.4233ZM21.8066 26.0503C21.8066 25.9175 21.7871 25.7983 21.748 25.6929C21.709 25.5835 21.6367 25.4819 21.5312 25.3882C21.4258 25.2944 21.2734 25.2007 21.0742 25.1069C20.8789 25.0093 20.6211 24.9077 20.3008 24.8022C19.9258 24.6772 19.5645 24.5366 19.2168 24.3804C18.8691 24.2202 18.5586 24.0347 18.2852 23.8237C18.0117 23.6089 17.7949 23.3589 17.6348 23.0737C17.4746 22.7847 17.3945 22.4487 17.3945 22.0659C17.3945 21.6987 17.4766 21.3687 17.6406 21.0757C17.8047 20.7788 18.0332 20.5269 18.3262 20.3198C18.623 20.1089 18.9707 19.9487 19.3691 19.8394C19.7676 19.7261 20.2031 19.6694 20.6758 19.6694C21.3008 19.6694 21.8516 19.7788 22.3281 19.9976C22.8086 20.2124 23.1836 20.519 23.4531 20.9175C23.7266 21.312 23.8633 21.7788 23.8633 22.3179H21.8184C21.8184 22.103 21.7734 21.9136 21.6836 21.7495C21.5977 21.5854 21.4668 21.4565 21.291 21.3628C21.1152 21.269 20.8945 21.2222 20.6289 21.2222C20.3711 21.2222 20.1543 21.2612 19.9785 21.3394C19.8027 21.4175 19.6699 21.5229 19.5801 21.6558C19.4902 21.7847 19.4453 21.9272 19.4453 22.0835C19.4453 22.2124 19.4805 22.3296 19.5508 22.4351C19.625 22.5366 19.7285 22.6323 19.8613 22.7222C19.998 22.812 20.1621 22.8979 20.3535 22.98C20.5488 23.062 20.7676 23.1421 21.0098 23.2202C21.4629 23.3647 21.8652 23.5269 22.2168 23.7065C22.5723 23.8823 22.8711 24.0835 23.1133 24.3101C23.3594 24.5327 23.5449 24.7866 23.6699 25.0718C23.7988 25.3569 23.8633 25.6792 23.8633 26.0386C23.8633 26.4214 23.7891 26.7612 23.6406 27.0581C23.4922 27.355 23.2793 27.6069 23.002 27.814C22.7246 28.0171 22.3926 28.1714 22.0059 28.2769C21.6191 28.3823 21.1875 28.4351 20.7109 28.4351C20.2734 28.4351 19.8418 28.3804 19.416 28.271C18.9941 28.1577 18.6113 27.9858 18.2676 27.7554C17.9238 27.521 17.6484 27.2222 17.4414 26.8589C17.2383 26.4917 17.1367 26.0562 17.1367 25.5522H19.1992C19.1992 25.8022 19.2324 26.0132 19.2988 26.1851C19.3652 26.3569 19.4629 26.4956 19.5918 26.6011C19.7207 26.7026 19.8789 26.7769 20.0664 26.8237C20.2539 26.8667 20.4688 26.8882 20.7109 26.8882C20.9727 26.8882 21.1836 26.8511 21.3438 26.7769C21.5039 26.6987 21.6211 26.5972 21.6953 26.4722C21.7695 26.3433 21.8066 26.2026 21.8066 26.0503Z" fill="white"/>
</svg>
