<svg width="35" height="44" viewBox="0 0 35 44" fill="none" xmlns="http://www.w3.org/2000/svg">
<path d="M2.34375 0.333984H25.0541L34.2814 9.57586L34.485 41.8085C34.492 42.918 33.5946 43.8212 32.4851 43.8212H2.34375C1.23918 43.8212 0.34375 42.9257 0.34375 41.8212V2.33398C0.34375 1.22941 1.23918 0.333984 2.34375 0.333984Z" fill="#0EC5A4"/>
<path d="M25.0488 0.333984V8.56415C25.0488 9.11643 25.4965 9.56415 26.0488 9.56415H34.279L25.0488 0.333984Z" fill="black" fill-opacity="0.16"/>
<path d="M14.9473 23.321V23.6667C14.9473 24.3191 14.8555 24.905 14.6719 25.4246C14.4922 25.9402 14.2363 26.3816 13.9043 26.7488C13.5723 27.1121 13.1797 27.3914 12.7266 27.5867C12.2734 27.7781 11.7734 27.8738 11.2266 27.8738C10.6758 27.8738 10.1719 27.7781 9.71484 27.5867C9.26172 27.3914 8.86719 27.1121 8.53125 26.7488C8.19922 26.3816 7.94141 25.9402 7.75781 25.4246C7.57812 24.905 7.48828 24.3191 7.48828 23.6667V23.321C7.48828 22.6687 7.57812 22.0828 7.75781 21.5632C7.94141 21.0437 8.19727 20.6023 8.52539 20.239C8.85742 19.8718 9.25 19.5925 9.70312 19.4011C10.1602 19.2058 10.6641 19.1082 11.2148 19.1082C11.7617 19.1082 12.2617 19.2058 12.7148 19.4011C13.1719 19.5925 13.5664 19.8718 13.8984 20.239C14.2305 20.6023 14.4883 21.0437 14.6719 21.5632C14.8555 22.0828 14.9473 22.6687 14.9473 23.321ZM12.8613 23.6667V23.3093C12.8613 22.8875 12.8242 22.5164 12.75 22.196C12.6797 21.8718 12.5742 21.6003 12.4336 21.3816C12.293 21.1628 12.1191 20.9988 11.9121 20.8894C11.709 20.7761 11.4766 20.7195 11.2148 20.7195C10.9414 20.7195 10.7031 20.7761 10.5 20.8894C10.2969 20.9988 10.127 21.1628 9.99023 21.3816C9.85352 21.6003 9.75 21.8718 9.67969 22.196C9.61328 22.5164 9.58008 22.8875 9.58008 23.3093V23.6667C9.58008 24.0847 9.61328 24.4558 9.67969 24.78C9.75 25.1003 9.85352 25.3718 9.99023 25.5945C10.1309 25.8171 10.3027 25.9851 10.5059 26.0984C10.7129 26.2117 10.9531 26.2683 11.2266 26.2683C11.4883 26.2683 11.7207 26.2117 11.9238 26.0984C12.127 25.9851 12.2969 25.8171 12.4336 25.5945C12.5742 25.3718 12.6797 25.1003 12.75 24.78C12.8242 24.4558 12.8613 24.0847 12.8613 23.6667ZM18.7852 27.7566H16.8926L16.9043 26.1746H18.7852C19.1758 26.1746 19.5059 26.0808 19.7754 25.8933C20.0488 25.7058 20.2559 25.4265 20.3965 25.0554C20.541 24.6804 20.6133 24.2195 20.6133 23.6726V23.3035C20.6133 22.8933 20.5723 22.5339 20.4902 22.2253C20.4121 21.9128 20.2949 21.6531 20.1387 21.446C19.9824 21.2351 19.7871 21.0769 19.5527 20.9714C19.3223 20.866 19.0566 20.8132 18.7559 20.8132H16.8574V19.2253H18.7559C19.334 19.2253 19.8633 19.325 20.3438 19.5242C20.8281 19.7195 21.2461 20.0007 21.5977 20.3679C21.9531 20.7312 22.2266 21.1628 22.418 21.6628C22.6133 22.1589 22.7109 22.7097 22.7109 23.3152V23.6726C22.7109 24.2742 22.6133 24.825 22.418 25.325C22.2266 25.825 21.9551 26.2566 21.6035 26.6199C21.252 26.9832 20.8359 27.2644 20.3555 27.4636C19.8789 27.6589 19.3555 27.7566 18.7852 27.7566ZM18.0703 19.2253V27.7566H16.0137V19.2253H18.0703ZM25.9688 19.2253V27.7566H23.918V19.2253H25.9688Z" fill="white"/>
</svg>
