<svg width="35" height="44" viewBox="0 0 35 44" fill="none" xmlns="http://www.w3.org/2000/svg">
<path d="M2.1875 0.307739H24.8978L34.1251 9.54961L34.3288 41.7823C34.3358 42.8918 33.4383 43.7949 32.3288 43.7949H2.1875C1.08293 43.7949 0.1875 42.8995 0.1875 41.7949V2.30774C0.1875 1.20317 1.08293 0.307739 2.1875 0.307739Z" fill="#0EC5A4"/>
<path d="M24.8926 0.307739V8.5379C24.8926 9.09019 25.3403 9.5379 25.8926 9.5379H34.1227L24.8926 0.307739Z" fill="black" fill-opacity="0.16"/>
<path d="M8.11328 22.6388H9.07422C9.32031 22.6388 9.52148 22.5958 9.67773 22.5099C9.83789 22.42 9.95703 22.295 10.0352 22.1349C10.1133 21.9708 10.1523 21.7775 10.1523 21.5548C10.1523 21.3829 10.1152 21.2247 10.041 21.0802C9.9707 20.9357 9.86133 20.8204 9.71289 20.7345C9.56445 20.6447 9.375 20.5997 9.14453 20.5997C8.98828 20.5997 8.83594 20.6329 8.6875 20.6993C8.53906 20.7618 8.41602 20.8517 8.31836 20.9689C8.22461 21.0861 8.17773 21.2286 8.17773 21.3966H6.19727C6.19727 20.9122 6.33008 20.4982 6.5957 20.1544C6.86523 19.8068 7.21875 19.5411 7.65625 19.3575C8.09766 19.17 8.57227 19.0763 9.08008 19.0763C9.68555 19.0763 10.2168 19.17 10.6738 19.3575C11.1309 19.5411 11.4863 19.8146 11.7402 20.1779C11.998 20.5372 12.127 20.9825 12.127 21.5138C12.127 21.8068 12.0586 22.0822 11.9219 22.34C11.7852 22.5978 11.5938 22.8243 11.3477 23.0197C11.1016 23.215 10.8125 23.3693 10.4805 23.4825C10.1523 23.5919 9.79297 23.6466 9.40234 23.6466H8.11328V22.6388ZM8.11328 24.1095V23.1251H9.40234C9.82812 23.1251 10.2168 23.174 10.5684 23.2716C10.9199 23.3654 11.2227 23.506 11.4766 23.6935C11.7305 23.881 11.9258 24.1134 12.0625 24.3907C12.1992 24.6642 12.2676 24.9786 12.2676 25.3341C12.2676 25.7325 12.1875 26.088 12.0273 26.4005C11.8672 26.713 11.6426 26.9767 11.3535 27.1915C11.0645 27.4064 10.7266 27.5704 10.3398 27.6837C9.95312 27.7931 9.5332 27.8478 9.08008 27.8478C8.72461 27.8478 8.36914 27.8009 8.01367 27.7072C7.6582 27.6095 7.33398 27.4611 7.04102 27.2618C6.74805 27.0587 6.51172 26.8009 6.33203 26.4884C6.15625 26.172 6.06836 25.795 6.06836 25.3575H8.04883C8.04883 25.5372 8.09766 25.7013 8.19531 25.8497C8.29688 25.9943 8.43164 26.1095 8.59961 26.1954C8.76758 26.2814 8.94922 26.3243 9.14453 26.3243C9.38672 26.3243 9.5918 26.2794 9.75977 26.1896C9.93164 26.0958 10.0625 25.9708 10.1523 25.8146C10.2422 25.6583 10.2871 25.4845 10.2871 25.2931C10.2871 25.004 10.2383 24.7736 10.1406 24.6017C10.0469 24.4298 9.9082 24.3048 9.72461 24.2267C9.54492 24.1486 9.32812 24.1095 9.07422 24.1095H8.11328ZM20.377 23.172V26.6759C20.2324 26.8361 20.0098 27.0079 19.709 27.1915C19.4121 27.3712 19.0371 27.5255 18.584 27.6544C18.1309 27.7833 17.5977 27.8478 16.9844 27.8478C16.418 27.8478 15.9043 27.7579 15.4434 27.5782C14.9824 27.3947 14.5859 27.1271 14.2539 26.7755C13.9258 26.42 13.6719 25.9865 13.4922 25.4747C13.3164 24.9591 13.2285 24.3693 13.2285 23.7052V23.2306C13.2285 22.5665 13.3184 21.9767 13.498 21.4611C13.6777 20.9454 13.9297 20.5118 14.2539 20.1603C14.582 19.8048 14.9668 19.5353 15.4082 19.3517C15.8535 19.1681 16.3418 19.0763 16.873 19.0763C17.6582 19.0763 18.2969 19.2013 18.7891 19.4513C19.2812 19.6974 19.6543 20.0392 19.9082 20.4767C20.1621 20.9103 20.3164 21.4122 20.3711 21.9825H18.3965C18.3574 21.7013 18.2832 21.463 18.1738 21.2677C18.0684 21.0685 17.916 20.9181 17.7168 20.8165C17.5176 20.7111 17.2598 20.6583 16.9434 20.6583C16.6973 20.6583 16.4727 20.7111 16.2695 20.8165C16.0703 20.922 15.9004 21.0822 15.7598 21.297C15.6191 21.5079 15.5098 21.7736 15.4316 22.0939C15.3574 22.4142 15.3203 22.7892 15.3203 23.2189V23.7052C15.3203 24.131 15.3555 24.504 15.4258 24.8243C15.5 25.1447 15.6094 25.4122 15.7539 25.6271C15.9023 25.838 16.0898 25.9982 16.3164 26.1075C16.5469 26.213 16.8184 26.2657 17.1309 26.2657C17.3496 26.2657 17.5371 26.2482 17.6934 26.213C17.8496 26.174 17.9785 26.1271 18.0801 26.0724C18.1855 26.0138 18.2656 25.9591 18.3203 25.9083V24.5841H16.8906V23.172H20.377ZM24.9824 24.8361H22.8613V23.2482H24.9824C25.2715 23.2482 25.5059 23.1993 25.6855 23.1017C25.8652 23.004 25.9961 22.8693 26.0781 22.6974C26.1641 22.5216 26.207 22.3243 26.207 22.1056C26.207 21.8712 26.1641 21.6544 26.0781 21.4552C25.9961 21.256 25.8652 21.0958 25.6855 20.9747C25.5059 20.8497 25.2715 20.7872 24.9824 20.7872H23.6348V27.7306H21.5781V19.1993H24.9824C25.666 19.1993 26.2539 19.3243 26.7461 19.5743C27.2422 19.8243 27.623 20.1681 27.8887 20.6056C28.1543 21.0392 28.2871 21.5353 28.2871 22.0939C28.2871 22.6447 28.1543 23.1251 27.8887 23.5353C27.623 23.9454 27.2422 24.2657 26.7461 24.4962C26.2539 24.7228 25.666 24.8361 24.9824 24.8361Z" fill="white"/>
</svg>
