<svg width="35" height="45" viewBox="0 0 35 45" fill="none" xmlns="http://www.w3.org/2000/svg">
<path d="M2.03125 0.772705H24.7416L33.9689 10.0146L34.1725 42.2472C34.1795 43.3567 33.2821 44.2599 32.1726 44.2599H2.03125C0.926681 44.2599 0.03125 43.3645 0.03125 42.2599V2.77271C0.03125 1.66814 0.926681 0.772705 2.03125 0.772705Z" fill="#C6463E"/>
<path d="M24.7363 0.772705V9.00287C24.7363 9.55515 25.184 10.0029 25.7363 10.0029H33.9665L24.7363 0.772705Z" fill="black" fill-opacity="0.16"/>
<path d="M12.0996 26.6133V28.1953H7.78711V26.6133H12.0996ZM8.51953 19.6641V28.1953H6.46289V19.6641H8.51953ZM19.8105 23.7598V24.1055C19.8105 24.7578 19.7188 25.3438 19.5352 25.8633C19.3555 26.3789 19.0996 26.8203 18.7676 27.1875C18.4355 27.5508 18.043 27.8301 17.5898 28.0254C17.1367 28.2168 16.6367 28.3125 16.0898 28.3125C15.5391 28.3125 15.0352 28.2168 14.5781 28.0254C14.125 27.8301 13.7305 27.5508 13.3945 27.1875C13.0625 26.8203 12.8047 26.3789 12.6211 25.8633C12.4414 25.3438 12.3516 24.7578 12.3516 24.1055V23.7598C12.3516 23.1074 12.4414 22.5215 12.6211 22.002C12.8047 21.4824 13.0605 21.041 13.3887 20.6777C13.7207 20.3105 14.1133 20.0312 14.5664 19.8398C15.0234 19.6445 15.5273 19.5469 16.0781 19.5469C16.625 19.5469 17.125 19.6445 17.5781 19.8398C18.0352 20.0312 18.4297 20.3105 18.7617 20.6777C19.0938 21.041 19.3516 21.4824 19.5352 22.002C19.7188 22.5215 19.8105 23.1074 19.8105 23.7598ZM17.7246 24.1055V23.748C17.7246 23.3262 17.6875 22.9551 17.6133 22.6348C17.543 22.3105 17.4375 22.0391 17.2969 21.8203C17.1562 21.6016 16.9824 21.4375 16.7754 21.3281C16.5723 21.2148 16.3398 21.1582 16.0781 21.1582C15.8047 21.1582 15.5664 21.2148 15.3633 21.3281C15.1602 21.4375 14.9902 21.6016 14.8535 21.8203C14.7168 22.0391 14.6133 22.3105 14.543 22.6348C14.4766 22.9551 14.4434 23.3262 14.4434 23.748V24.1055C14.4434 24.5234 14.4766 24.8945 14.543 25.2188C14.6133 25.5391 14.7168 25.8105 14.8535 26.0332C14.9941 26.2559 15.166 26.4238 15.3691 26.5371C15.5762 26.6504 15.8164 26.707 16.0898 26.707C16.3516 26.707 16.584 26.6504 16.7871 26.5371C16.9902 26.4238 17.1602 26.2559 17.2969 26.0332C17.4375 25.8105 17.543 25.5391 17.6133 25.2188C17.6875 24.8945 17.7246 24.5234 17.7246 24.1055ZM27.8555 23.6367V27.1406C27.7109 27.3008 27.4883 27.4727 27.1875 27.6562C26.8906 27.8359 26.5156 27.9902 26.0625 28.1191C25.6094 28.248 25.0762 28.3125 24.4629 28.3125C23.8965 28.3125 23.3828 28.2227 22.9219 28.043C22.4609 27.8594 22.0645 27.5918 21.7324 27.2402C21.4043 26.8848 21.1504 26.4512 20.9707 25.9395C20.7949 25.4238 20.707 24.834 20.707 24.1699V23.6953C20.707 23.0312 20.7969 22.4414 20.9766 21.9258C21.1562 21.4102 21.4082 20.9766 21.7324 20.625C22.0605 20.2695 22.4453 20 22.8867 19.8164C23.332 19.6328 23.8203 19.541 24.3516 19.541C25.1367 19.541 25.7754 19.666 26.2676 19.916C26.7598 20.1621 27.1328 20.5039 27.3867 20.9414C27.6406 21.375 27.7949 21.877 27.8496 22.4473H25.875C25.8359 22.166 25.7617 21.9277 25.6523 21.7324C25.5469 21.5332 25.3945 21.3828 25.1953 21.2812C24.9961 21.1758 24.7383 21.123 24.4219 21.123C24.1758 21.123 23.9512 21.1758 23.748 21.2812C23.5488 21.3867 23.3789 21.5469 23.2383 21.7617C23.0977 21.9727 22.9883 22.2383 22.9102 22.5586C22.8359 22.8789 22.7988 23.2539 22.7988 23.6836V24.1699C22.7988 24.5957 22.834 24.9688 22.9043 25.2891C22.9785 25.6094 23.0879 25.877 23.2324 26.0918C23.3809 26.3027 23.5684 26.4629 23.7949 26.5723C24.0254 26.6777 24.2969 26.7305 24.6094 26.7305C24.8281 26.7305 25.0156 26.7129 25.1719 26.6777C25.3281 26.6387 25.457 26.5918 25.5586 26.5371C25.6641 26.4785 25.7441 26.4238 25.7988 26.373V25.0488H24.3691V23.6367H27.8555Z" fill="white"/>
</svg>
