<svg width="35" height="45" viewBox="0 0 35 45" fill="none" xmlns="http://www.w3.org/2000/svg">
<path d="M2.34375 0.708252H25.0541L34.2814 9.95013L34.485 42.1828C34.492 43.2923 33.5946 44.1954 32.4851 44.1954H2.34375C1.23918 44.1954 0.34375 43.3 0.34375 42.1954V2.70825C0.34375 1.60368 1.23918 0.708252 2.34375 0.708252Z" fill="#0EC5A4"/>
<path d="M25.0488 0.708252V8.93841C25.0488 9.4907 25.4965 9.93841 26.0488 9.93841H34.279L25.0488 0.708252Z" fill="black" fill-opacity="0.16"/>
<path d="M9.26562 25.2366H7.14453V23.6487H9.26562C9.55469 23.6487 9.78906 23.5999 9.96875 23.5022C10.1484 23.4045 10.2793 23.2698 10.3613 23.0979C10.4473 22.9221 10.4902 22.7249 10.4902 22.5061C10.4902 22.2717 10.4473 22.0549 10.3613 21.8557C10.2793 21.6565 10.1484 21.4963 9.96875 21.3752C9.78906 21.2502 9.55469 21.1877 9.26562 21.1877H7.91797V28.1311H5.86133V19.5999H9.26562C9.94922 19.5999 10.5371 19.7249 11.0293 19.9749C11.5254 20.2249 11.9062 20.5686 12.1719 21.0061C12.4375 21.4397 12.5703 21.9358 12.5703 22.4944C12.5703 23.0452 12.4375 23.5256 12.1719 23.9358C11.9062 24.3459 11.5254 24.6663 11.0293 24.8967C10.5371 25.1233 9.94922 25.2366 9.26562 25.2366ZM20.8027 19.5999V28.1311H18.752L15.7344 22.8225V28.1311H13.6777V19.5999H15.7344L18.752 24.9084V19.5999H20.8027ZM29.082 23.5725V27.0764C28.9375 27.2366 28.7148 27.4084 28.4141 27.592C28.1172 27.7717 27.7422 27.926 27.2891 28.0549C26.8359 28.1838 26.3027 28.2483 25.6895 28.2483C25.123 28.2483 24.6094 28.1584 24.1484 27.9788C23.6875 27.7952 23.291 27.5276 22.959 27.176C22.6309 26.8206 22.377 26.387 22.1973 25.8752C22.0215 25.3596 21.9336 24.7698 21.9336 24.1057V23.6311C21.9336 22.967 22.0234 22.3772 22.2031 21.8616C22.3828 21.3459 22.6348 20.9124 22.959 20.5608C23.2871 20.2053 23.6719 19.9358 24.1133 19.7522C24.5586 19.5686 25.0469 19.4768 25.5781 19.4768C26.3633 19.4768 27.002 19.6018 27.4941 19.8518C27.9863 20.0979 28.3594 20.4397 28.6133 20.8772C28.8672 21.3108 29.0215 21.8127 29.0762 22.3831H27.1016C27.0625 22.1018 26.9883 21.8635 26.8789 21.6682C26.7734 21.469 26.6211 21.3186 26.4219 21.217C26.2227 21.1116 25.9648 21.0588 25.6484 21.0588C25.4023 21.0588 25.1777 21.1116 24.9746 21.217C24.7754 21.3225 24.6055 21.4827 24.4648 21.6975C24.3242 21.9084 24.2148 22.1741 24.1367 22.4944C24.0625 22.8147 24.0254 23.1897 24.0254 23.6194V24.1057C24.0254 24.5315 24.0605 24.9045 24.1309 25.2249C24.2051 25.5452 24.3145 25.8127 24.459 26.0276C24.6074 26.2385 24.7949 26.3987 25.0215 26.5081C25.252 26.6135 25.5234 26.6663 25.8359 26.6663C26.0547 26.6663 26.2422 26.6487 26.3984 26.6135C26.5547 26.5745 26.6836 26.5276 26.7852 26.4729C26.8906 26.4143 26.9707 26.3596 27.0254 26.3088V24.9846H25.5957V23.5725H29.082Z" fill="white"/>
</svg>
