<svg width="35" height="44" viewBox="0 0 35 44" fill="none" xmlns="http://www.w3.org/2000/svg">
<path d="M2.8125 0.307739H25.5228L34.7501 9.54961L34.9538 41.7823C34.9608 42.8918 34.0633 43.7949 32.9538 43.7949H2.8125C1.70793 43.7949 0.8125 42.8995 0.8125 41.7949V2.30774C0.8125 1.20317 1.70793 0.307739 2.8125 0.307739Z" fill="#0EC5A4"/>
<path d="M25.5176 0.307739V8.5379C25.5176 9.09019 25.9653 9.5379 26.5176 9.5379H34.7477L25.5176 0.307739Z" fill="black" fill-opacity="0.16"/>
<path d="M14.3027 23.295V23.6407C14.3027 24.2931 14.2109 24.879 14.0273 25.3986C13.8477 25.9142 13.5918 26.3556 13.2598 26.7228C12.9277 27.0861 12.5352 27.3654 12.082 27.5607C11.6289 27.7521 11.1289 27.8478 10.582 27.8478C10.0312 27.8478 9.52734 27.7521 9.07031 27.5607C8.61719 27.3654 8.22266 27.0861 7.88672 26.7228C7.55469 26.3556 7.29688 25.9142 7.11328 25.3986C6.93359 24.879 6.84375 24.2931 6.84375 23.6407V23.295C6.84375 22.6427 6.93359 22.0568 7.11328 21.5372C7.29688 21.0177 7.55273 20.5763 7.88086 20.213C8.21289 19.8458 8.60547 19.5665 9.05859 19.3751C9.51562 19.1798 10.0195 19.0822 10.5703 19.0822C11.1172 19.0822 11.6172 19.1798 12.0703 19.3751C12.5273 19.5665 12.9219 19.8458 13.2539 20.213C13.5859 20.5763 13.8438 21.0177 14.0273 21.5372C14.2109 22.0568 14.3027 22.6427 14.3027 23.295ZM12.2168 23.6407V23.2833C12.2168 22.8615 12.1797 22.4904 12.1055 22.17C12.0352 21.8458 11.9297 21.5743 11.7891 21.3556C11.6484 21.1368 11.4746 20.9728 11.2676 20.8634C11.0645 20.7501 10.832 20.6935 10.5703 20.6935C10.2969 20.6935 10.0586 20.7501 9.85547 20.8634C9.65234 20.9728 9.48242 21.1368 9.3457 21.3556C9.20898 21.5743 9.10547 21.8458 9.03516 22.17C8.96875 22.4904 8.93555 22.8615 8.93555 23.2833V23.6407C8.93555 24.0587 8.96875 24.4298 9.03516 24.754C9.10547 25.0743 9.20898 25.3458 9.3457 25.5685C9.48633 25.7911 9.6582 25.9591 9.86133 26.0724C10.0684 26.1857 10.3086 26.2423 10.582 26.2423C10.8438 26.2423 11.0762 26.1857 11.2793 26.0724C11.4824 25.9591 11.6523 25.7911 11.7891 25.5685C11.9297 25.3458 12.0352 25.0743 12.1055 24.754C12.1797 24.4298 12.2168 24.0587 12.2168 23.6407ZM18.9961 19.1993V27.7306H16.9395V19.1993H18.9961ZM21.5625 19.1993V20.7872H14.4316V19.1993H21.5625ZM24.4922 19.1993V27.7306H22.4355V19.1993H24.4922ZM27.8086 22.7501V24.3322H23.9062V22.7501H27.8086ZM28.1426 19.1993V20.7872H23.9062V19.1993H28.1426Z" fill="white"/>
</svg>
