<svg width="35" height="45" viewBox="0 0 35 45" fill="none" xmlns="http://www.w3.org/2000/svg">
<path d="M2.1875 0.643799H24.8978L34.1251 9.88567L34.3288 42.1183C34.3358 43.2278 33.4383 44.131 32.3288 44.131H2.1875C1.08293 44.131 0.1875 43.2355 0.1875 42.131V2.6438C0.1875 1.53923 1.08293 0.643799 2.1875 0.643799Z" fill="#F3A100"/>
<path d="M24.8926 0.643799V8.87396C24.8926 9.42624 25.3403 9.87396 25.8926 9.87396H34.1227L24.8926 0.643799Z" fill="black" fill-opacity="0.16"/>
<path d="M8.5918 19.5352V28.0664H6.53516V19.5352H8.5918ZM11.1582 19.5352V21.123H4.02734V19.5352H11.1582ZM13.0508 19.5352H14.7266L16.6309 25.4707L18.5352 19.5352H20.2109L17.3105 28.0664H15.9512L13.0508 19.5352ZM12.0312 19.5352H13.7656L14.0879 26.0742V28.0664H12.0312V19.5352ZM19.4961 19.5352H21.2363V28.0664H19.1738V26.0742L19.4961 19.5352ZM25.959 25.1719H23.8379V23.584H25.959C26.248 23.584 26.4824 23.5352 26.6621 23.4375C26.8418 23.3398 26.9727 23.2051 27.0547 23.0332C27.1406 22.8574 27.1836 22.6602 27.1836 22.4414C27.1836 22.207 27.1406 21.9902 27.0547 21.791C26.9727 21.5918 26.8418 21.4316 26.6621 21.3105C26.4824 21.1855 26.248 21.123 25.959 21.123H24.6113V28.0664H22.5547V19.5352H25.959C26.6426 19.5352 27.2305 19.6602 27.7227 19.9102C28.2188 20.1602 28.5996 20.5039 28.8652 20.9414C29.1309 21.375 29.2637 21.8711 29.2637 22.4297C29.2637 22.9805 29.1309 23.4609 28.8652 23.8711C28.5996 24.2812 28.2188 24.6016 27.7227 24.832C27.2305 25.0586 26.6426 25.1719 25.959 25.1719Z" fill="white"/>
</svg>
