<svg width="35" height="44" viewBox="0 0 35 44" fill="none" xmlns="http://www.w3.org/2000/svg">
<path d="M2.1875 0.269531H24.8978L34.1251 9.51141L34.3288 41.7441C34.3358 42.8536 33.4383 43.7567 32.3288 43.7567H2.1875C1.08293 43.7567 0.1875 42.8613 0.1875 41.7567V2.26953C0.1875 1.16496 1.08293 0.269531 2.1875 0.269531Z" fill="#06437C"/>
<path d="M24.8926 0.269531V8.49969C24.8926 9.05198 25.3403 9.49969 25.8926 9.49969H34.1227L24.8926 0.269531Z" fill="black" fill-opacity="0.16"/>
<path d="M6.58203 19.1609H9.93945C10.5957 19.1609 11.166 19.2585 11.6504 19.4539C12.1348 19.6492 12.5078 19.9382 12.7695 20.321C13.0352 20.7039 13.168 21.1765 13.168 21.739C13.168 22.2273 13.0918 22.6355 12.9395 22.9636C12.7871 23.2917 12.5742 23.5632 12.3008 23.7781C12.0312 23.989 11.7168 24.1628 11.3574 24.2996L10.6836 24.6804H7.86523L7.85352 23.0925H9.93945C10.2012 23.0925 10.418 23.0457 10.5898 22.9519C10.7617 22.8582 10.8906 22.7253 10.9766 22.5535C11.0664 22.3777 11.1113 22.1687 11.1113 21.9265C11.1113 21.6804 11.0664 21.4695 10.9766 21.2937C10.8867 21.1179 10.7539 20.9832 10.5781 20.8894C10.4062 20.7957 10.1934 20.7488 9.93945 20.7488H8.63867V27.6921H6.58203V19.1609ZM11.252 27.6921L9.36523 23.9187L11.5449 23.907L13.4551 27.6042V27.6921H11.252ZM18.248 19.1609V27.6921H16.1914V19.1609H18.248ZM20.8145 19.1609V20.7488H13.6836V19.1609H20.8145ZM23.7441 19.1609V27.6921H21.6875V19.1609H23.7441ZM27.0605 22.7117V24.2937H23.1582V22.7117H27.0605ZM27.3945 19.1609V20.7488H23.1582V19.1609H27.3945Z" fill="white"/>
</svg>
