<svg width="35" height="44" viewBox="0 0 35 44" fill="none" xmlns="http://www.w3.org/2000/svg">
<path d="M2.34375 0.0180664H25.0541L34.2814 9.25994L34.485 41.4926C34.492 42.6021 33.5946 43.5052 32.4851 43.5052H2.34375C1.23918 43.5052 0.34375 42.6098 0.34375 41.5052V2.01807C0.34375 0.913497 1.23918 0.0180664 2.34375 0.0180664Z" fill="#F3A100"/>
<path d="M25.0488 0.0180664V8.24823C25.0488 8.80051 25.4965 9.24823 26.0488 9.24823H34.279L25.0488 0.0180664Z" fill="black" fill-opacity="0.16"/>
<path d="M8.36133 18.9094L9.75586 21.7454L11.1504 18.9094H13.4941L11.1152 23.1399L13.5586 27.4407H11.1914L9.75586 24.552L8.32031 27.4407H5.94727L8.39648 23.1399L6.01172 18.9094H8.36133ZM19.875 25.8586V27.4407H15.5625V25.8586H19.875ZM16.2949 18.9094V27.4407H14.2383V18.9094H16.2949ZM20.7422 18.9094H24.0996C24.7559 18.9094 25.3262 19.0071 25.8105 19.2024C26.2949 19.3977 26.668 19.6868 26.9297 20.0696C27.1953 20.4524 27.3281 20.925 27.3281 21.4875C27.3281 21.9758 27.252 22.384 27.0996 22.7122C26.9473 23.0403 26.7344 23.3118 26.4609 23.5266C26.1914 23.7375 25.877 23.9114 25.5176 24.0481L24.8438 24.429H22.0254L22.0137 22.8411H24.0996C24.3613 22.8411 24.5781 22.7942 24.75 22.7004C24.9219 22.6067 25.0508 22.4739 25.1367 22.302C25.2266 22.1262 25.2715 21.9172 25.2715 21.675C25.2715 21.429 25.2266 21.218 25.1367 21.0422C25.0469 20.8665 24.9141 20.7317 24.7383 20.6379C24.5664 20.5442 24.3535 20.4973 24.0996 20.4973H22.7988V27.4407H20.7422V18.9094ZM25.4121 27.4407L23.5254 23.6672L25.7051 23.6555L27.6152 27.3528V27.4407H25.4121Z" fill="white"/>
</svg>
