<svg width="35" height="45" viewBox="0 0 35 45" fill="none" xmlns="http://www.w3.org/2000/svg">
<path d="M2.8125 0.959717H25.5228L34.7501 10.2016L34.9538 42.4343C34.9608 43.5437 34.0633 44.4469 32.9538 44.4469H2.8125C1.70793 44.4469 0.8125 43.5515 0.8125 42.4469V2.95972C0.8125 1.85515 1.70793 0.959717 2.8125 0.959717Z" fill="#C6463E"/>
<path d="M25.5176 0.959717V9.18988C25.5176 9.74216 25.9653 10.1899 26.5176 10.1899H34.7477L25.5176 0.959717Z" fill="black" fill-opacity="0.16"/>
<path d="M6.41016 19.8513H8.08594L9.99023 25.7869L11.8945 19.8513H13.5703L10.6699 28.3826H9.31055L6.41016 19.8513ZM5.39062 19.8513H7.125L7.44727 26.3904V28.3826H5.39062V19.8513ZM12.8555 19.8513H14.5957V28.3826H12.5332V26.3904L12.8555 19.8513ZM19.3184 25.488H17.1973V23.9001H19.3184C19.6074 23.9001 19.8418 23.8513 20.0215 23.7537C20.2012 23.656 20.332 23.5212 20.4141 23.3494C20.5 23.1736 20.543 22.9763 20.543 22.7576C20.543 22.5232 20.5 22.3064 20.4141 22.1072C20.332 21.908 20.2012 21.7478 20.0215 21.6267C19.8418 21.5017 19.6074 21.4392 19.3184 21.4392H17.9707V28.3826H15.9141V19.8513H19.3184C20.002 19.8513 20.5898 19.9763 21.082 20.2263C21.5781 20.4763 21.959 20.8201 22.2246 21.2576C22.4902 21.6912 22.623 22.1873 22.623 22.7458C22.623 23.2966 22.4902 23.7771 22.2246 24.1873C21.959 24.5974 21.5781 24.9177 21.082 25.1482C20.5898 25.3748 20.002 25.488 19.3184 25.488ZM29.6836 25.0486V26.572H23.543L23.4258 25.365L26.8535 19.8513H28.4121L26.7188 22.6228L25.3125 25.0486H29.6836ZM28.8223 19.8513V28.3826H26.8477V19.8513H28.8223Z" fill="white"/>
</svg>
