<svg width="35" height="44" viewBox="0 0 35 44" fill="none" xmlns="http://www.w3.org/2000/svg">
<path d="M2.1875 0.0180664H24.8978L34.1251 9.25994L34.3288 41.4926C34.3358 42.6021 33.4383 43.5052 32.3288 43.5052H2.1875C1.08293 43.5052 0.1875 42.6098 0.1875 41.5052V2.01807C0.1875 0.913497 1.08293 0.0180664 2.1875 0.0180664Z" fill="#F3A100"/>
<path d="M24.8926 0.0180664V8.24823C24.8926 8.80051 25.3403 9.24823 25.8926 9.24823H34.1227L24.8926 0.0180664Z" fill="black" fill-opacity="0.16"/>
<path d="M6.50586 26.6672L8.20508 18.9094H9.21875L9.76953 19.5715L7.95898 27.4407H6.83984L6.50586 26.6672ZM6.05469 18.9094L7.49023 26.7258L7.12109 27.4407H5.82617L4.01562 18.9094H6.05469ZM10.7012 26.6848L12.125 18.9094H14.1582L12.3477 27.4407H11.0586L10.7012 26.6848ZM9.95117 18.9094L11.6914 26.7141L11.3398 27.4407H10.2207L8.36914 19.5598L8.94336 18.9094H9.95117ZM18.3711 24.5461H16.25V22.9583H18.3711C18.6602 22.9583 18.8945 22.9094 19.0742 22.8118C19.2539 22.7141 19.3848 22.5793 19.4668 22.4075C19.5527 22.2317 19.5957 22.0344 19.5957 21.8157C19.5957 21.5813 19.5527 21.3645 19.4668 21.1653C19.3848 20.9661 19.2539 20.8059 19.0742 20.6848C18.8945 20.5598 18.6602 20.4973 18.3711 20.4973H17.0234V27.4407H14.9668V18.9094H18.3711C19.0547 18.9094 19.6426 19.0344 20.1348 19.2844C20.6309 19.5344 21.0117 19.8782 21.2773 20.3157C21.543 20.7493 21.6758 21.2454 21.6758 21.804C21.6758 22.3547 21.543 22.8352 21.2773 23.2454C21.0117 23.6555 20.6309 23.9758 20.1348 24.2063C19.6426 24.4329 19.0547 24.5461 18.3711 24.5461ZM27.1777 25.1731C27.1777 25.0403 27.1582 24.9211 27.1191 24.8157C27.0801 24.7063 27.0078 24.6047 26.9023 24.511C26.7969 24.4172 26.6445 24.3235 26.4453 24.2297C26.25 24.1321 25.9922 24.0305 25.6719 23.925C25.2969 23.8 24.9355 23.6594 24.5879 23.5032C24.2402 23.343 23.9297 23.1575 23.6562 22.9465C23.3828 22.7317 23.166 22.4817 23.0059 22.1965C22.8457 21.9075 22.7656 21.5715 22.7656 21.1887C22.7656 20.8215 22.8477 20.4915 23.0117 20.1985C23.1758 19.9016 23.4043 19.6497 23.6973 19.4426C23.9941 19.2317 24.3418 19.0715 24.7402 18.9622C25.1387 18.8489 25.5742 18.7922 26.0469 18.7922C26.6719 18.7922 27.2227 18.9016 27.6992 19.1204C28.1797 19.3352 28.5547 19.6418 28.8242 20.0403C29.0977 20.4348 29.2344 20.9016 29.2344 21.4407H27.1895C27.1895 21.2258 27.1445 21.0364 27.0547 20.8723C26.9688 20.7083 26.8379 20.5793 26.6621 20.4856C26.4863 20.3918 26.2656 20.345 26 20.345C25.7422 20.345 25.5254 20.384 25.3496 20.4622C25.1738 20.5403 25.041 20.6458 24.9512 20.7786C24.8613 20.9075 24.8164 21.05 24.8164 21.2063C24.8164 21.3352 24.8516 21.4524 24.9219 21.5579C24.9961 21.6594 25.0996 21.7551 25.2324 21.845C25.3691 21.9348 25.5332 22.0208 25.7246 22.1028C25.9199 22.1848 26.1387 22.2649 26.3809 22.343C26.834 22.4875 27.2363 22.6497 27.5879 22.8293C27.9434 23.0051 28.2422 23.2063 28.4844 23.4329C28.7305 23.6555 28.916 23.9094 29.041 24.1946C29.1699 24.4797 29.2344 24.802 29.2344 25.1614C29.2344 25.5442 29.1602 25.884 29.0117 26.1809C28.8633 26.4778 28.6504 26.7297 28.373 26.9368C28.0957 27.1399 27.7637 27.2942 27.377 27.3997C26.9902 27.5051 26.5586 27.5579 26.082 27.5579C25.6445 27.5579 25.2129 27.5032 24.7871 27.3938C24.3652 27.2805 23.9824 27.1086 23.6387 26.8782C23.2949 26.6438 23.0195 26.345 22.8125 25.9817C22.6094 25.6145 22.5078 25.179 22.5078 24.675H24.5703C24.5703 24.925 24.6035 25.136 24.6699 25.3079C24.7363 25.4797 24.834 25.6184 24.9629 25.7239C25.0918 25.8254 25.25 25.8997 25.4375 25.9465C25.625 25.9895 25.8398 26.011 26.082 26.011C26.3438 26.011 26.5547 25.9739 26.7148 25.8997C26.875 25.8215 26.9922 25.72 27.0664 25.595C27.1406 25.4661 27.1777 25.3254 27.1777 25.1731Z" fill="white"/>
</svg>
