<svg width="35" height="44" viewBox="0 0 35 44" fill="none" xmlns="http://www.w3.org/2000/svg">
<path d="M2.03125 0.494995H24.7416L33.9689 9.73687L34.1725 41.9695C34.1795 43.079 33.2821 43.9822 32.1726 43.9822H2.03125C0.926681 43.9822 0.03125 43.0867 0.03125 41.9822V2.495C0.03125 1.39043 0.926681 0.494995 2.03125 0.494995Z" fill="#0EC5A4"/>
<path d="M24.7363 0.494995V8.72516C24.7363 9.27744 25.184 9.72516 25.7363 9.72516H33.9665L24.7363 0.494995Z" fill="black" fill-opacity="0.16"/>
<path d="M12.918 23.4821V23.8278C12.918 24.4801 12.8262 25.066 12.6426 25.5856C12.4629 26.1012 12.207 26.5426 11.875 26.9098C11.543 27.2731 11.1504 27.5524 10.6973 27.7477C10.2441 27.9391 9.74414 28.0348 9.19727 28.0348C8.64648 28.0348 8.14258 27.9391 7.68555 27.7477C7.23242 27.5524 6.83789 27.2731 6.50195 26.9098C6.16992 26.5426 5.91211 26.1012 5.72852 25.5856C5.54883 25.066 5.45898 24.4801 5.45898 23.8278V23.4821C5.45898 22.8297 5.54883 22.2438 5.72852 21.7242C5.91211 21.2047 6.16797 20.7633 6.49609 20.4C6.82812 20.0328 7.2207 19.7535 7.67383 19.5621C8.13086 19.3668 8.63477 19.2692 9.18555 19.2692C9.73242 19.2692 10.2324 19.3668 10.6855 19.5621C11.1426 19.7535 11.5371 20.0328 11.8691 20.4C12.2012 20.7633 12.459 21.2047 12.6426 21.7242C12.8262 22.2438 12.918 22.8297 12.918 23.4821ZM10.832 23.8278V23.4703C10.832 23.0485 10.7949 22.6774 10.7207 22.3571C10.6504 22.0328 10.5449 21.7614 10.4043 21.5426C10.2637 21.3239 10.0898 21.1598 9.88281 21.0504C9.67969 20.9371 9.44727 20.8805 9.18555 20.8805C8.91211 20.8805 8.67383 20.9371 8.4707 21.0504C8.26758 21.1598 8.09766 21.3239 7.96094 21.5426C7.82422 21.7614 7.7207 22.0328 7.65039 22.3571C7.58398 22.6774 7.55078 23.0485 7.55078 23.4703V23.8278C7.55078 24.2457 7.58398 24.6168 7.65039 24.941C7.7207 25.2614 7.82422 25.5328 7.96094 25.7555C8.10156 25.9781 8.27344 26.1461 8.47656 26.2594C8.68359 26.3727 8.92383 26.4293 9.19727 26.4293C9.45898 26.4293 9.69141 26.3727 9.89453 26.2594C10.0977 26.1461 10.2676 25.9781 10.4043 25.7555C10.5449 25.5328 10.6504 25.2614 10.7207 24.941C10.7949 24.6168 10.832 24.2457 10.832 23.8278ZM16.7559 27.9176H14.8633L14.875 26.3356H16.7559C17.1465 26.3356 17.4766 26.2418 17.7461 26.0543C18.0195 25.8668 18.2266 25.5875 18.3672 25.2164C18.5117 24.8414 18.584 24.3805 18.584 23.8336V23.4645C18.584 23.0543 18.543 22.6949 18.4609 22.3864C18.3828 22.0739 18.2656 21.8141 18.1094 21.6071C17.9531 21.3961 17.7578 21.2379 17.5234 21.1324C17.293 21.027 17.0273 20.9742 16.7266 20.9742H14.8281V19.3864H16.7266C17.3047 19.3864 17.834 19.486 18.3145 19.6852C18.7988 19.8805 19.2168 20.1617 19.5684 20.5289C19.9238 20.8922 20.1973 21.3239 20.3887 21.8239C20.584 22.3199 20.6816 22.8707 20.6816 23.4762V23.8336C20.6816 24.4352 20.584 24.986 20.3887 25.486C20.1973 25.986 19.9258 26.4176 19.5742 26.7809C19.2227 27.1442 18.8066 27.4254 18.3262 27.6246C17.8496 27.8199 17.3262 27.9176 16.7559 27.9176ZM16.041 19.3864V27.9176H13.9844V19.3864H16.041ZM25.3809 19.3864V27.9176H23.3242V19.3864H25.3809ZM27.9473 19.3864V20.9742H20.8164V19.3864H27.9473Z" fill="white"/>
</svg>
