<svg width="35" height="44" viewBox="0 0 35 44" fill="none" xmlns="http://www.w3.org/2000/svg">
<path d="M2.34375 0.462769H25.0541L34.2814 9.70464L34.485 41.9373C34.492 43.0468 33.5946 43.9499 32.4851 43.9499H2.34375C1.23918 43.9499 0.34375 43.0545 0.34375 41.9499V2.46277C0.34375 1.3582 1.23918 0.462769 2.34375 0.462769Z" fill="#06437C"/>
<path d="M25.0488 0.462769V8.69293C25.0488 9.24521 25.4965 9.69293 26.0488 9.69293H34.279L25.0488 0.462769Z" fill="black" fill-opacity="0.16"/>
<path d="M12.5859 27.8854H10.6934L10.7051 26.3033H12.5859C12.9766 26.3033 13.3066 26.2096 13.5762 26.0221C13.8496 25.8346 14.0566 25.5553 14.1973 25.1842C14.3418 24.8092 14.4141 24.3483 14.4141 23.8014V23.4323C14.4141 23.0221 14.373 22.6627 14.291 22.3541C14.2129 22.0416 14.0957 21.7819 13.9395 21.5748C13.7832 21.3639 13.5879 21.2057 13.3535 21.1002C13.123 20.9948 12.8574 20.942 12.5566 20.942H10.6582V19.3541H12.5566C13.1348 19.3541 13.6641 19.4537 14.1445 19.653C14.6289 19.8483 15.0469 20.1295 15.3984 20.4967C15.7539 20.86 16.0273 21.2916 16.2188 21.7916C16.4141 22.2877 16.5117 22.8385 16.5117 23.444V23.8014C16.5117 24.403 16.4141 24.9537 16.2188 25.4537C16.0273 25.9537 15.7559 26.3854 15.4043 26.7487C15.0527 27.1119 14.6367 27.3932 14.1562 27.5924C13.6797 27.7877 13.1562 27.8854 12.5859 27.8854ZM11.8711 19.3541V27.8854H9.81445V19.3541H11.8711ZM21.0645 24.2584H18.8672L18.8555 22.9108H20.6367C20.957 22.9108 21.2129 22.8756 21.4043 22.8053C21.5957 22.7311 21.7344 22.6237 21.8203 22.483C21.9102 22.3424 21.9551 22.1666 21.9551 21.9557C21.9551 21.7135 21.9102 21.5182 21.8203 21.3698C21.7305 21.2213 21.5879 21.1139 21.3926 21.0475C21.2012 20.9772 20.9531 20.942 20.6484 20.942H19.6406V27.8854H17.584V19.3541H20.6484C21.1758 19.3541 21.6465 19.403 22.0605 19.5006C22.4746 19.5944 22.8262 19.7389 23.1152 19.9342C23.4082 20.1295 23.6309 20.3756 23.7832 20.6725C23.9355 20.9655 24.0117 21.3112 24.0117 21.7096C24.0117 22.0573 23.9375 22.3834 23.7891 22.6881C23.6406 22.9928 23.3926 23.2408 23.0449 23.4323C22.7012 23.6198 22.2305 23.7174 21.6328 23.7252L21.0645 24.2584ZM20.9824 27.8854H18.3691L19.0723 26.3033H20.9824C21.2637 26.3033 21.4883 26.2604 21.6562 26.1744C21.8281 26.0846 21.9512 25.9674 22.0254 25.8229C22.1035 25.6744 22.1426 25.5104 22.1426 25.3307C22.1426 25.1119 22.1055 24.9225 22.0312 24.7623C21.9609 24.6022 21.8477 24.4791 21.6914 24.3932C21.5352 24.3033 21.3262 24.2584 21.0645 24.2584H19.3359L19.3477 22.9108H21.416L21.8965 23.4498C22.4668 23.4264 22.918 23.5065 23.25 23.6901C23.5859 23.8737 23.8262 24.1158 23.9707 24.4166C24.1152 24.7174 24.1875 25.0319 24.1875 25.36C24.1875 25.9186 24.0664 26.3854 23.8242 26.7604C23.5859 27.1354 23.2285 27.4166 22.752 27.6041C22.2754 27.7916 21.6855 27.8854 20.9824 27.8854Z" fill="white"/>
</svg>
