<svg width="35" height="44" viewBox="0 0 35 44" fill="none" xmlns="http://www.w3.org/2000/svg">
<path d="M2.65625 0.210938H25.3666L34.5939 9.45281L34.7975 41.6855C34.8045 42.795 33.9071 43.6981 32.7976 43.6981H2.65625C1.55168 43.6981 0.65625 42.8027 0.65625 41.6981V2.21094C0.65625 1.10637 1.55168 0.210938 2.65625 0.210938Z" fill="#F3A100"/>
<path d="M25.3613 0.210938V8.4411C25.3613 8.99338 25.809 9.4411 26.3613 9.4411H34.5915L25.3613 0.210938Z" fill="black" fill-opacity="0.16"/>
<path d="M7.70312 22.4893V24.0713H3.32617V22.4893H7.70312ZM4.01172 19.1025V27.6338H1.95508V19.1025H4.01172ZM9.08594 19.1025V27.6338H7.03516V19.1025H9.08594ZM14.3477 19.1025V27.6338H12.291V19.1025H14.3477ZM16.9141 19.1025V20.6904H9.7832V19.1025H16.9141ZM18.8066 19.1025H20.4824L22.3867 25.0381L24.291 19.1025H25.9668L23.0664 27.6338H21.707L18.8066 19.1025ZM17.7871 19.1025H19.5215L19.8438 25.6416V27.6338H17.7871V19.1025ZM25.252 19.1025H26.9922V27.6338H24.9297V25.6416L25.252 19.1025ZM33.9473 26.0518V27.6338H29.6348V26.0518H33.9473ZM30.3672 19.1025V27.6338H28.3105V19.1025H30.3672Z" fill="white"/>
</svg>
