<svg width="35" height="44" viewBox="0 0 35 44" fill="none" xmlns="http://www.w3.org/2000/svg">
<path d="M2.03125 0.398438H24.7416L33.9689 9.64031L34.1725 41.873C34.1795 42.9825 33.2821 43.8856 32.1726 43.8856H2.03125C0.926681 43.8856 0.03125 42.9902 0.03125 41.8856V2.39844C0.03125 1.29387 0.926681 0.398438 2.03125 0.398438Z" fill="#C6463E"/>
<path d="M24.7363 0.398438V8.6286C24.7363 9.18088 25.184 9.6286 25.7363 9.6286H33.9665L24.7363 0.398438Z" fill="black" fill-opacity="0.16"/>
<path d="M9.54883 19.2898V27.821H7.49805V19.2898H9.54883ZM15.8477 24.9324H17.8984C17.8711 25.5261 17.7109 26.0496 17.418 26.5027C17.125 26.9558 16.7188 27.3093 16.1992 27.5632C15.6836 27.8132 15.0742 27.9382 14.3711 27.9382C13.8008 27.9382 13.291 27.8425 12.8418 27.6511C12.3965 27.4597 12.0176 27.1843 11.7051 26.825C11.3965 26.4656 11.1602 26.03 10.9961 25.5183C10.8359 25.0066 10.7559 24.4304 10.7559 23.7898V23.3269C10.7559 22.6863 10.8398 22.1101 11.0078 21.5984C11.1797 21.0828 11.4219 20.6453 11.7344 20.2859C12.0508 19.9226 12.4297 19.6453 12.8711 19.4539C13.3125 19.2625 13.8027 19.1667 14.3418 19.1667C15.084 19.1667 15.7109 19.2996 16.2227 19.5652C16.7344 19.8308 17.1309 20.196 17.4121 20.6609C17.6934 21.1218 17.8594 21.6472 17.9102 22.2371H15.8594C15.8516 21.9167 15.7969 21.6492 15.6953 21.4343C15.5938 21.2156 15.4336 21.0515 15.2148 20.9421C14.9961 20.8328 14.7051 20.7781 14.3418 20.7781C14.0879 20.7781 13.8672 20.825 13.6797 20.9187C13.4922 21.0125 13.3359 21.1609 13.2109 21.364C13.0859 21.5671 12.9922 21.8308 12.9297 22.155C12.8711 22.4753 12.8418 22.8621 12.8418 23.3152V23.7898C12.8418 24.2429 12.8691 24.6296 12.9238 24.95C12.9785 25.2703 13.0664 25.532 13.1875 25.7351C13.3086 25.9382 13.4648 26.0886 13.6562 26.1863C13.8516 26.28 14.0898 26.3269 14.3711 26.3269C14.6836 26.3269 14.9473 26.2781 15.1621 26.1804C15.377 26.0789 15.543 25.9265 15.6602 25.7234C15.7773 25.5164 15.8398 25.2527 15.8477 24.9324ZM26.0898 23.3855V23.7312C26.0898 24.3835 25.998 24.9695 25.8145 25.489C25.6348 26.0046 25.3789 26.446 25.0469 26.8132C24.7148 27.1765 24.3223 27.4558 23.8691 27.6511C23.416 27.8425 22.916 27.9382 22.3691 27.9382C21.8184 27.9382 21.3145 27.8425 20.8574 27.6511C20.4043 27.4558 20.0098 27.1765 19.6738 26.8132C19.3418 26.446 19.084 26.0046 18.9004 25.489C18.7207 24.9695 18.6309 24.3835 18.6309 23.7312V23.3855C18.6309 22.7332 18.7207 22.1472 18.9004 21.6277C19.084 21.1082 19.3398 20.6667 19.668 20.3035C20 19.9363 20.3926 19.657 20.8457 19.4656C21.3027 19.2703 21.8066 19.1726 22.3574 19.1726C22.9043 19.1726 23.4043 19.2703 23.8574 19.4656C24.3145 19.657 24.709 19.9363 25.041 20.3035C25.373 20.6667 25.6309 21.1082 25.8145 21.6277C25.998 22.1472 26.0898 22.7332 26.0898 23.3855ZM24.0039 23.7312V23.3738C24.0039 22.9519 23.9668 22.5808 23.8926 22.2605C23.8223 21.9363 23.7168 21.6648 23.5762 21.446C23.4355 21.2273 23.2617 21.0632 23.0547 20.9539C22.8516 20.8406 22.6191 20.7839 22.3574 20.7839C22.084 20.7839 21.8457 20.8406 21.6426 20.9539C21.4395 21.0632 21.2695 21.2273 21.1328 21.446C20.9961 21.6648 20.8926 21.9363 20.8223 22.2605C20.7559 22.5808 20.7227 22.9519 20.7227 23.3738V23.7312C20.7227 24.1492 20.7559 24.5203 20.8223 24.8445C20.8926 25.1648 20.9961 25.4363 21.1328 25.6589C21.2734 25.8816 21.4453 26.0496 21.6484 26.1628C21.8555 26.2761 22.0957 26.3328 22.3691 26.3328C22.6309 26.3328 22.8633 26.2761 23.0664 26.1628C23.2695 26.0496 23.4395 25.8816 23.5762 25.6589C23.7168 25.4363 23.8223 25.1648 23.8926 24.8445C23.9668 24.5203 24.0039 24.1492 24.0039 23.7312Z" fill="white"/>
</svg>
