<svg width="35" height="44" viewBox="0 0 35 44" fill="none" xmlns="http://www.w3.org/2000/svg">
<path d="M2.1875 0.398438H24.8978L34.1251 9.64031L34.3288 41.873C34.3358 42.9825 33.4383 43.8856 32.3288 43.8856H2.1875C1.08293 43.8856 0.1875 42.9902 0.1875 41.8856V2.39844C0.1875 1.29387 1.08293 0.398438 2.1875 0.398438Z" fill="#C6463E"/>
<path d="M24.8926 0.398438V8.6286C24.8926 9.18088 25.3403 9.6286 25.8926 9.6286H34.1227L24.8926 0.398438Z" fill="black" fill-opacity="0.16"/>
<path d="M10.0918 19.2898V27.821H8.04102V19.2898H10.0918ZM16.3906 24.9324H18.4414C18.4141 25.5261 18.2539 26.0496 17.9609 26.5027C17.668 26.9558 17.2617 27.3093 16.7422 27.5632C16.2266 27.8132 15.6172 27.9382 14.9141 27.9382C14.3438 27.9382 13.834 27.8425 13.3848 27.6511C12.9395 27.4597 12.5605 27.1843 12.248 26.825C11.9395 26.4656 11.7031 26.03 11.5391 25.5183C11.3789 25.0066 11.2988 24.4304 11.2988 23.7898V23.3269C11.2988 22.6863 11.3828 22.1101 11.5508 21.5984C11.7227 21.0828 11.9648 20.6453 12.2773 20.2859C12.5938 19.9226 12.9727 19.6453 13.4141 19.4539C13.8555 19.2625 14.3457 19.1667 14.8848 19.1667C15.627 19.1667 16.2539 19.2996 16.7656 19.5652C17.2773 19.8308 17.6738 20.196 17.9551 20.6609C18.2363 21.1218 18.4023 21.6472 18.4531 22.2371H16.4023C16.3945 21.9167 16.3398 21.6492 16.2383 21.4343C16.1367 21.2156 15.9766 21.0515 15.7578 20.9421C15.5391 20.8328 15.248 20.7781 14.8848 20.7781C14.6309 20.7781 14.4102 20.825 14.2227 20.9187C14.0352 21.0125 13.8789 21.1609 13.7539 21.364C13.6289 21.5671 13.5352 21.8308 13.4727 22.155C13.4141 22.4753 13.3848 22.8621 13.3848 23.3152V23.7898C13.3848 24.2429 13.4121 24.6296 13.4668 24.95C13.5215 25.2703 13.6094 25.532 13.7305 25.7351C13.8516 25.9382 14.0078 26.0886 14.1992 26.1863C14.3945 26.28 14.6328 26.3269 14.9141 26.3269C15.2266 26.3269 15.4902 26.2781 15.7051 26.1804C15.9199 26.0789 16.0859 25.9265 16.2031 25.7234C16.3203 25.5164 16.3828 25.2527 16.3906 24.9324ZM23.8086 25.5535C23.8086 25.4207 23.7891 25.3015 23.75 25.196C23.7109 25.0867 23.6387 24.9851 23.5332 24.8914C23.4277 24.7976 23.2754 24.7039 23.0762 24.6101C22.8809 24.5125 22.623 24.4109 22.3027 24.3054C21.9277 24.1804 21.5664 24.0398 21.2188 23.8835C20.8711 23.7234 20.5605 23.5378 20.2871 23.3269C20.0137 23.1121 19.7969 22.8621 19.6367 22.5769C19.4766 22.2878 19.3965 21.9519 19.3965 21.5691C19.3965 21.2019 19.4785 20.8718 19.6426 20.5789C19.8066 20.282 20.0352 20.03 20.3281 19.823C20.625 19.6121 20.9727 19.4519 21.3711 19.3425C21.7695 19.2292 22.2051 19.1726 22.6777 19.1726C23.3027 19.1726 23.8535 19.282 24.3301 19.5007C24.8105 19.7156 25.1855 20.0222 25.4551 20.4207C25.7285 20.8152 25.8652 21.282 25.8652 21.821H23.8203C23.8203 21.6062 23.7754 21.4167 23.6855 21.2527C23.5996 21.0886 23.4688 20.9597 23.293 20.866C23.1172 20.7722 22.8965 20.7253 22.6309 20.7253C22.373 20.7253 22.1562 20.7644 21.9805 20.8425C21.8047 20.9207 21.6719 21.0261 21.582 21.1589C21.4922 21.2878 21.4473 21.4304 21.4473 21.5867C21.4473 21.7156 21.4824 21.8328 21.5527 21.9382C21.627 22.0398 21.7305 22.1355 21.8633 22.2253C22 22.3152 22.1641 22.4011 22.3555 22.4832C22.5508 22.5652 22.7695 22.6453 23.0117 22.7234C23.4648 22.8679 23.8672 23.03 24.2188 23.2097C24.5742 23.3855 24.873 23.5867 25.1152 23.8132C25.3613 24.0359 25.5469 24.2898 25.6719 24.575C25.8008 24.8601 25.8652 25.1824 25.8652 25.5417C25.8652 25.9246 25.791 26.2644 25.6426 26.5613C25.4941 26.8582 25.2812 27.1101 25.0039 27.3171C24.7266 27.5203 24.3945 27.6746 24.0078 27.78C23.6211 27.8855 23.1895 27.9382 22.7129 27.9382C22.2754 27.9382 21.8438 27.8835 21.418 27.7742C20.9961 27.6609 20.6133 27.489 20.2695 27.2585C19.9258 27.0242 19.6504 26.7253 19.4434 26.3621C19.2402 25.9949 19.1387 25.5593 19.1387 25.0554H21.2012C21.2012 25.3054 21.2344 25.5164 21.3008 25.6882C21.3672 25.8601 21.4648 25.9988 21.5938 26.1042C21.7227 26.2058 21.8809 26.28 22.0684 26.3269C22.2559 26.3699 22.4707 26.3914 22.7129 26.3914C22.9746 26.3914 23.1855 26.3542 23.3457 26.28C23.5059 26.2019 23.623 26.1003 23.6973 25.9753C23.7715 25.8464 23.8086 25.7058 23.8086 25.5535Z" fill="white"/>
</svg>
