<svg width="35" height="44" viewBox="0 0 35 44" fill="none" xmlns="http://www.w3.org/2000/svg">
<path d="M2.34375 0.398438H25.0541L34.2814 9.64031L34.485 41.873C34.492 42.9825 33.5946 43.8856 32.4851 43.8856H2.34375C1.23918 43.8856 0.34375 42.9902 0.34375 41.8856V2.39844C0.34375 1.29387 1.23918 0.398438 2.34375 0.398438Z" fill="#C6463E"/>
<path d="M25.0488 0.398438V8.6286C25.0488 9.18088 25.4965 9.6286 26.0488 9.6286H34.279L25.0488 0.398438Z" fill="black" fill-opacity="0.16"/>
<path d="M5.95898 19.2898V27.821H3.9082V19.2898H5.95898ZM14.5312 19.2898V27.821H12.4805L9.46289 22.5125V27.821H7.40625V19.2898H9.46289L12.4805 24.5984V19.2898H14.5312ZM18.6035 27.821H16.7109L16.7227 26.239H18.6035C18.9941 26.239 19.3242 26.1453 19.5938 25.9578C19.8672 25.7703 20.0742 25.491 20.2148 25.1199C20.3594 24.7449 20.4316 24.2839 20.4316 23.7371V23.3679C20.4316 22.9578 20.3906 22.5984 20.3086 22.2898C20.2305 21.9773 20.1133 21.7175 19.957 21.5105C19.8008 21.2996 19.6055 21.1414 19.3711 21.0359C19.1406 20.9304 18.875 20.8777 18.5742 20.8777H16.6758V19.2898H18.5742C19.1523 19.2898 19.6816 19.3894 20.1621 19.5886C20.6465 19.7839 21.0645 20.0652 21.416 20.4324C21.7715 20.7957 22.0449 21.2273 22.2363 21.7273C22.4316 22.2234 22.5293 22.7742 22.5293 23.3796V23.7371C22.5293 24.3386 22.4316 24.8894 22.2363 25.3894C22.0449 25.8894 21.7734 26.321 21.4219 26.6843C21.0703 27.0476 20.6543 27.3289 20.1738 27.5281C19.6973 27.7234 19.1738 27.821 18.6035 27.821ZM17.8887 19.2898V27.821H15.832V19.2898H17.8887ZM26.373 27.821H24.4805L24.4922 26.239H26.373C26.7637 26.239 27.0938 26.1453 27.3633 25.9578C27.6367 25.7703 27.8438 25.491 27.9844 25.1199C28.1289 24.7449 28.2012 24.2839 28.2012 23.7371V23.3679C28.2012 22.9578 28.1602 22.5984 28.0781 22.2898C28 21.9773 27.8828 21.7175 27.7266 21.5105C27.5703 21.2996 27.375 21.1414 27.1406 21.0359C26.9102 20.9304 26.6445 20.8777 26.3438 20.8777H24.4453V19.2898H26.3438C26.9219 19.2898 27.4512 19.3894 27.9316 19.5886C28.416 19.7839 28.834 20.0652 29.1855 20.4324C29.541 20.7957 29.8145 21.2273 30.0059 21.7273C30.2012 22.2234 30.2988 22.7742 30.2988 23.3796V23.7371C30.2988 24.3386 30.2012 24.8894 30.0059 25.3894C29.8145 25.8894 29.543 26.321 29.1914 26.6843C28.8398 27.0476 28.4238 27.3289 27.9434 27.5281C27.4668 27.7234 26.9434 27.821 26.373 27.821ZM25.6582 19.2898V27.821H23.6016V19.2898H25.6582Z" fill="white"/>
</svg>
