<svg width="35" height="44" viewBox="0 0 35 44" fill="none" xmlns="http://www.w3.org/2000/svg">
<path d="M2.65625 0.398438H25.3666L34.5939 9.64031L34.7975 41.873C34.8045 42.9825 33.9071 43.8856 32.7976 43.8856H2.65625C1.55168 43.8856 0.65625 42.9902 0.65625 41.8856V2.39844C0.65625 1.29387 1.55168 0.398438 2.65625 0.398438Z" fill="#C6463E"/>
<path d="M25.3613 0.398438V8.6286C25.3613 9.18088 25.809 9.6286 26.3613 9.6286H34.5915L25.3613 0.398438Z" fill="black" fill-opacity="0.16"/>
<path d="M10.4629 25.1433V19.2898H12.5137V25.1433C12.5137 25.7136 12.3828 26.2078 12.1211 26.6257C11.8633 27.0437 11.5117 27.3679 11.0664 27.5984C10.625 27.825 10.1289 27.9382 9.57812 27.9382C9.00781 27.9382 8.5 27.8425 8.05469 27.6511C7.61328 27.4597 7.26562 27.1648 7.01172 26.7664C6.76172 26.3679 6.63672 25.8601 6.63672 25.2429H8.69922C8.69922 25.532 8.73242 25.7585 8.79883 25.9226C8.86523 26.0828 8.96289 26.196 9.0918 26.2625C9.22461 26.325 9.38672 26.3562 9.57812 26.3562C9.76562 26.3562 9.92383 26.3093 10.0527 26.2156C10.1855 26.1179 10.2871 25.9792 10.3574 25.7996C10.4277 25.616 10.4629 25.3972 10.4629 25.1433ZM17.3066 21.0828L15.2266 27.821H13.0176L16.1523 19.2898H17.5527L17.3066 21.0828ZM19.0293 27.821L16.9434 21.0828L16.6738 19.2898H18.0918L21.2441 27.821H19.0293ZM18.9473 24.6394V26.2273H14.5703V24.6394H18.9473ZM21.8711 19.2898H25.2285C25.8848 19.2898 26.4551 19.3875 26.9395 19.5828C27.4238 19.7781 27.7969 20.0671 28.0586 20.45C28.3242 20.8328 28.457 21.3054 28.457 21.8679C28.457 22.3562 28.3809 22.7644 28.2285 23.0925C28.0762 23.4207 27.8633 23.6921 27.5898 23.907C27.3203 24.1179 27.0059 24.2917 26.6465 24.4285L25.9727 24.8093H23.1543L23.1426 23.2214H25.2285C25.4902 23.2214 25.707 23.1746 25.8789 23.0808C26.0508 22.9871 26.1797 22.8542 26.2656 22.6824C26.3555 22.5066 26.4004 22.2976 26.4004 22.0554C26.4004 21.8093 26.3555 21.5984 26.2656 21.4226C26.1758 21.2468 26.043 21.1121 25.8672 21.0183C25.6953 20.9246 25.4824 20.8777 25.2285 20.8777H23.9277V27.821H21.8711V19.2898ZM26.541 27.821L24.6543 24.0476L26.834 24.0359L28.7441 27.7332V27.821H26.541Z" fill="white"/>
</svg>
