<svg width="35" height="45" viewBox="0 0 35 45" fill="none" xmlns="http://www.w3.org/2000/svg">
<path d="M2.03125 0.585449H24.7416L33.9689 9.82732L34.1725 42.06C34.1795 43.1695 33.2821 44.0726 32.1726 44.0726H2.03125C0.926681 44.0726 0.03125 43.1772 0.03125 42.0726V2.58545C0.03125 1.48088 0.926681 0.585449 2.03125 0.585449Z" fill="#C6463E"/>
<path d="M24.7363 0.585449V8.81561C24.7363 9.3679 25.184 9.81561 25.7363 9.81561H33.9665L24.7363 0.585449Z" fill="black" fill-opacity="0.16"/>
<path d="M14.0215 25.3303V19.4768H16.0723V25.3303C16.0723 25.9006 15.9414 26.3948 15.6797 26.8127C15.4219 27.2307 15.0703 27.5549 14.625 27.7854C14.1836 28.012 13.6875 28.1252 13.1367 28.1252C12.5664 28.1252 12.0586 28.0295 11.6133 27.8381C11.1719 27.6467 10.8242 27.3518 10.5703 26.9534C10.3203 26.5549 10.1953 26.0471 10.1953 25.4299H12.2578C12.2578 25.719 12.291 25.9456 12.3574 26.1096C12.4238 26.2698 12.5215 26.3831 12.6504 26.4495C12.7832 26.512 12.9453 26.5432 13.1367 26.5432C13.3242 26.5432 13.4824 26.4963 13.6113 26.4026C13.7441 26.3049 13.8457 26.1663 13.916 25.9866C13.9863 25.803 14.0215 25.5842 14.0215 25.3303ZM21.7734 25.7405C21.7734 25.6077 21.7539 25.4885 21.7148 25.3831C21.6758 25.2737 21.6035 25.1721 21.498 25.0784C21.3926 24.9846 21.2402 24.8909 21.041 24.7971C20.8457 24.6995 20.5879 24.5979 20.2676 24.4924C19.8926 24.3674 19.5312 24.2268 19.1836 24.0706C18.8359 23.9104 18.5254 23.7249 18.252 23.5139C17.9785 23.2991 17.7617 23.0491 17.6016 22.7639C17.4414 22.4749 17.3613 22.1389 17.3613 21.7561C17.3613 21.3889 17.4434 21.0588 17.6074 20.7659C17.7715 20.469 18 20.217 18.293 20.01C18.5898 19.7991 18.9375 19.6389 19.3359 19.5295C19.7344 19.4163 20.1699 19.3596 20.6426 19.3596C21.2676 19.3596 21.8184 19.469 22.2949 19.6877C22.7754 19.9026 23.1504 20.2092 23.4199 20.6077C23.6934 21.0022 23.8301 21.469 23.8301 22.0081H21.7852C21.7852 21.7932 21.7402 21.6038 21.6504 21.4397C21.5645 21.2756 21.4336 21.1467 21.2578 21.053C21.082 20.9592 20.8613 20.9124 20.5957 20.9124C20.3379 20.9124 20.1211 20.9514 19.9453 21.0295C19.7695 21.1077 19.6367 21.2131 19.5469 21.3459C19.457 21.4749 19.4121 21.6174 19.4121 21.7737C19.4121 21.9026 19.4473 22.0198 19.5176 22.1252C19.5918 22.2268 19.6953 22.3225 19.8281 22.4124C19.9648 22.5022 20.1289 22.5881 20.3203 22.6702C20.5156 22.7522 20.7344 22.8323 20.9766 22.9104C21.4297 23.0549 21.832 23.217 22.1836 23.3967C22.5391 23.5725 22.8379 23.7737 23.0801 24.0002C23.3262 24.2229 23.5117 24.4768 23.6367 24.762C23.7656 25.0471 23.8301 25.3694 23.8301 25.7288C23.8301 26.1116 23.7559 26.4514 23.6074 26.7483C23.459 27.0452 23.2461 27.2971 22.9688 27.5042C22.6914 27.7073 22.3594 27.8616 21.9727 27.967C21.5859 28.0725 21.1543 28.1252 20.6777 28.1252C20.2402 28.1252 19.8086 28.0706 19.3828 27.9612C18.9609 27.8479 18.5781 27.676 18.2344 27.4456C17.8906 27.2112 17.6152 26.9124 17.4082 26.5491C17.2051 26.1819 17.1035 25.7463 17.1035 25.2424H19.166C19.166 25.4924 19.1992 25.7034 19.2656 25.8752C19.332 26.0471 19.4297 26.1858 19.5586 26.2913C19.6875 26.3928 19.8457 26.467 20.0332 26.5139C20.2207 26.5569 20.4355 26.5784 20.6777 26.5784C20.9395 26.5784 21.1504 26.5413 21.3105 26.467C21.4707 26.3889 21.5879 26.2874 21.6621 26.1624C21.7363 26.0334 21.7734 25.8928 21.7734 25.7405Z" fill="white"/>
</svg>
