<svg width="35" height="45" viewBox="0 0 35 45" fill="none" xmlns="http://www.w3.org/2000/svg">
<path d="M2.1875 0.585449H24.8978L34.1251 9.82732L34.3288 42.06C34.3358 43.1695 33.4383 44.0726 32.3288 44.0726H2.1875C1.08293 44.0726 0.1875 43.1772 0.1875 42.0726V2.58545C0.1875 1.48088 1.08293 0.585449 2.1875 0.585449Z" fill="#C6463E"/>
<path d="M24.8926 0.585449V8.81561C24.8926 9.3679 25.3403 9.81561 25.8926 9.81561H34.1227L24.8926 0.585449Z" fill="black" fill-opacity="0.16"/>
<path d="M10.2695 25.3303V19.4768H12.3203V25.3303C12.3203 25.9006 12.1895 26.3948 11.9277 26.8127C11.6699 27.2307 11.3184 27.5549 10.873 27.7854C10.4316 28.012 9.93555 28.1252 9.38477 28.1252C8.81445 28.1252 8.30664 28.0295 7.86133 27.8381C7.41992 27.6467 7.07227 27.3518 6.81836 26.9534C6.56836 26.5549 6.44336 26.0471 6.44336 25.4299H8.50586C8.50586 25.719 8.53906 25.9456 8.60547 26.1096C8.67188 26.2698 8.76953 26.3831 8.89844 26.4495C9.03125 26.512 9.19336 26.5432 9.38477 26.5432C9.57227 26.5432 9.73047 26.4963 9.85938 26.4026C9.99219 26.3049 10.0938 26.1663 10.1641 25.9866C10.2344 25.803 10.2695 25.5842 10.2695 25.3303ZM18.0215 25.7405C18.0215 25.6077 18.002 25.4885 17.9629 25.3831C17.9238 25.2737 17.8516 25.1721 17.7461 25.0784C17.6406 24.9846 17.4883 24.8909 17.2891 24.7971C17.0938 24.6995 16.8359 24.5979 16.5156 24.4924C16.1406 24.3674 15.7793 24.2268 15.4316 24.0706C15.084 23.9104 14.7734 23.7249 14.5 23.5139C14.2266 23.2991 14.0098 23.0491 13.8496 22.7639C13.6895 22.4749 13.6094 22.1389 13.6094 21.7561C13.6094 21.3889 13.6914 21.0588 13.8555 20.7659C14.0195 20.469 14.248 20.217 14.541 20.01C14.8379 19.7991 15.1855 19.6389 15.584 19.5295C15.9824 19.4163 16.418 19.3596 16.8906 19.3596C17.5156 19.3596 18.0664 19.469 18.543 19.6877C19.0234 19.9026 19.3984 20.2092 19.668 20.6077C19.9414 21.0022 20.0781 21.469 20.0781 22.0081H18.0332C18.0332 21.7932 17.9883 21.6038 17.8984 21.4397C17.8125 21.2756 17.6816 21.1467 17.5059 21.053C17.3301 20.9592 17.1094 20.9124 16.8438 20.9124C16.5859 20.9124 16.3691 20.9514 16.1934 21.0295C16.0176 21.1077 15.8848 21.2131 15.7949 21.3459C15.7051 21.4749 15.6602 21.6174 15.6602 21.7737C15.6602 21.9026 15.6953 22.0198 15.7656 22.1252C15.8398 22.2268 15.9434 22.3225 16.0762 22.4124C16.2129 22.5022 16.377 22.5881 16.5684 22.6702C16.7637 22.7522 16.9824 22.8323 17.2246 22.9104C17.6777 23.0549 18.0801 23.217 18.4316 23.3967C18.7871 23.5725 19.0859 23.7737 19.3281 24.0002C19.5742 24.2229 19.7598 24.4768 19.8848 24.762C20.0137 25.0471 20.0781 25.3694 20.0781 25.7288C20.0781 26.1116 20.0039 26.4514 19.8555 26.7483C19.707 27.0452 19.4941 27.2971 19.2168 27.5042C18.9395 27.7073 18.6074 27.8616 18.2207 27.967C17.834 28.0725 17.4023 28.1252 16.9258 28.1252C16.4883 28.1252 16.0566 28.0706 15.6309 27.9612C15.209 27.8479 14.8262 27.676 14.4824 27.4456C14.1387 27.2112 13.8633 26.9124 13.6562 26.5491C13.4531 26.1819 13.3516 25.7463 13.3516 25.2424H15.4141C15.4141 25.4924 15.4473 25.7034 15.5137 25.8752C15.5801 26.0471 15.6777 26.1858 15.8066 26.2913C15.9355 26.3928 16.0938 26.467 16.2812 26.5139C16.4688 26.5569 16.6836 26.5784 16.9258 26.5784C17.1875 26.5784 17.3984 26.5413 17.5586 26.467C17.7188 26.3889 17.8359 26.2874 17.9102 26.1624C17.9844 26.0334 18.0215 25.8928 18.0215 25.7405ZM24.543 25.1135H22.4219V23.5256H24.543C24.832 23.5256 25.0664 23.4768 25.2461 23.3792C25.4258 23.2815 25.5566 23.1467 25.6387 22.9749C25.7246 22.7991 25.7676 22.6018 25.7676 22.3831C25.7676 22.1487 25.7246 21.9319 25.6387 21.7327C25.5566 21.5334 25.4258 21.3733 25.2461 21.2522C25.0664 21.1272 24.832 21.0647 24.543 21.0647H23.1953V28.0081H21.1387V19.4768H24.543C25.2266 19.4768 25.8145 19.6018 26.3066 19.8518C26.8027 20.1018 27.1836 20.4456 27.4492 20.8831C27.7148 21.3167 27.8477 21.8127 27.8477 22.3713C27.8477 22.9221 27.7148 23.4026 27.4492 23.8127C27.1836 24.2229 26.8027 24.5432 26.3066 24.7737C25.8145 25.0002 25.2266 25.1135 24.543 25.1135Z" fill="white"/>
</svg>
