<svg width="35" height="45" viewBox="0 0 35 45" fill="none" xmlns="http://www.w3.org/2000/svg">
<path d="M2.5 0.585449H25.2103L34.4376 9.82732L34.6413 42.06C34.6483 43.1695 33.7508 44.0726 32.6413 44.0726H2.5C1.39543 44.0726 0.5 43.1772 0.5 42.0726V2.58545C0.5 1.48088 1.39543 0.585449 2.5 0.585449Z" fill="#C6463E"/>
<path d="M25.2051 0.585449V8.81561C25.2051 9.3679 25.6528 9.81561 26.2051 9.81561H34.4352L25.2051 0.585449Z" fill="black" fill-opacity="0.16"/>
<path d="M7.93359 19.4768V28.0081H5.87695V19.4768H7.93359ZM13.0254 19.4768L9.7207 23.801L7.78711 25.9163L7.41211 24.0295L8.64844 22.1545L10.4883 19.4768H13.0254ZM10.5938 28.0081L8.39062 24.1643L9.99023 22.9866L13.0254 28.0081H10.5938ZM14.5723 19.4768H16.248L18.1523 25.4124L20.0566 19.4768H21.7324L18.832 28.0081H17.4727L14.5723 19.4768ZM13.5527 19.4768H15.2871L15.6094 26.0159V28.0081H13.5527V19.4768ZM21.0176 19.4768H22.7578V28.0081H20.6953V26.0159L21.0176 19.4768ZM29.7129 26.426V28.0081H25.4004V26.426H29.7129ZM26.1328 19.4768V28.0081H24.0762V19.4768H26.1328Z" fill="white"/>
</svg>
