<svg width="35" height="45" viewBox="0 0 35 45" fill="none" xmlns="http://www.w3.org/2000/svg">
<path d="M2.65625 0.585449H25.3666L34.5939 9.82732L34.7975 42.06C34.8045 43.1695 33.9071 44.0726 32.7976 44.0726H2.65625C1.55168 44.0726 0.65625 43.1772 0.65625 42.0726V2.58545C0.65625 1.48088 1.55168 0.585449 2.65625 0.585449Z" fill="#C6463E"/>
<path d="M25.3613 0.585449V8.81561C25.3613 9.3679 25.809 9.81561 26.3613 9.81561H34.5915L25.3613 0.585449Z" fill="black" fill-opacity="0.16"/>
<path d="M7.17969 19.4768V28.0081H5.12305V19.4768H7.17969ZM12.2715 19.4768L8.9668 23.801L7.0332 25.9163L6.6582 24.0295L7.89453 22.1545L9.73438 19.4768H12.2715ZM9.83984 28.0081L7.63672 24.1643L9.23633 22.9866L12.2715 28.0081H9.83984ZM13.8184 19.4768H15.4941L17.3984 25.4124L19.3027 19.4768H20.9785L18.0781 28.0081H16.7188L13.8184 19.4768ZM12.7988 19.4768H14.5332L14.8555 26.0159V28.0081H12.7988V19.4768ZM20.2637 19.4768H22.0039V28.0081H19.9414V26.0159L20.2637 19.4768ZM29.709 26.426V28.0081H23.5332V26.426H29.709ZM29.668 20.5315L24.5527 28.0081H23.0645V26.9241L28.2383 19.4768H29.668V20.5315ZM29.0059 19.4768V21.0647H23.0352V19.4768H29.0059Z" fill="white"/>
</svg>
