<svg width="35" height="45" viewBox="0 0 35 45" fill="none" xmlns="http://www.w3.org/2000/svg">
<path d="M2.8125 0.585449H25.5228L34.7501 9.82732L34.9538 42.06C34.9608 43.1695 34.0633 44.0726 32.9538 44.0726H2.8125C1.70793 44.0726 0.8125 43.1772 0.8125 42.0726V2.58545C0.8125 1.48088 1.70793 0.585449 2.8125 0.585449Z" fill="#C6463E"/>
<path d="M25.5176 0.585449V8.81561C25.5176 9.3679 25.9653 9.81561 26.5176 9.81561H34.7477L25.5176 0.585449Z" fill="black" fill-opacity="0.16"/>
<path d="M12.875 26.426V28.0081H8.5625V26.426H12.875ZM9.29492 19.4768V28.0081H7.23828V19.4768H9.29492ZM20.8672 19.4768V28.0081H18.8164L15.7988 22.6995V28.0081H13.7422V19.4768H15.7988L18.8164 24.7854V19.4768H20.8672ZM24.2246 19.4768V28.0081H22.168V19.4768H24.2246ZM29.3164 19.4768L26.0117 23.801L24.0781 25.9163L23.7031 24.0295L24.9395 22.1545L26.7793 19.4768H29.3164ZM26.8848 28.0081L24.6816 24.1643L26.2812 22.9866L29.3164 28.0081H26.8848Z" fill="white"/>
</svg>
