<svg width="35" height="45" viewBox="0 0 35 45" fill="none" xmlns="http://www.w3.org/2000/svg">
<path d="M2.1875 0.772705H24.8978L34.1251 10.0146L34.3288 42.2472C34.3358 43.3567 33.4383 44.2599 32.3288 44.2599H2.1875C1.08293 44.2599 0.1875 43.3645 0.1875 42.2599V2.77271C0.1875 1.66814 1.08293 0.772705 2.1875 0.772705Z" fill="#C6463E"/>
<path d="M24.8926 0.772705V9.00287C24.8926 9.55515 25.3403 10.0029 25.8926 10.0029H34.1227L24.8926 0.772705Z" fill="black" fill-opacity="0.16"/>
<path d="M12.3555 26.6133V28.1953H8.04297V26.6133H12.3555ZM8.77539 19.6641V28.1953H6.71875V19.6641H8.77539ZM17.7109 19.6641H19.7676V25.2363C19.7676 25.9004 19.6289 26.4629 19.3516 26.9238C19.0742 27.3809 18.6855 27.7266 18.1855 27.9609C17.6855 28.1953 17.0977 28.3125 16.4219 28.3125C15.7539 28.3125 15.166 28.1953 14.6582 27.9609C14.1543 27.7266 13.7598 27.3809 13.4746 26.9238C13.1934 26.4629 13.0527 25.9004 13.0527 25.2363V19.6641H15.1152V25.2363C15.1152 25.5879 15.166 25.875 15.2676 26.0977C15.3691 26.3164 15.5176 26.4766 15.7129 26.5781C15.9082 26.6797 16.1445 26.7305 16.4219 26.7305C16.7031 26.7305 16.9395 26.6797 17.1309 26.5781C17.3223 26.4766 17.4668 26.3164 17.5645 26.0977C17.6621 25.875 17.7109 25.5879 17.7109 25.2363V19.6641ZM24.5488 21.457L22.4688 28.1953H20.2598L23.3945 19.6641H24.7949L24.5488 21.457ZM26.2715 28.1953L24.1855 21.457L23.916 19.6641H25.334L28.4863 28.1953H26.2715ZM26.1895 25.0137V26.6016H21.8125V25.0137H26.1895Z" fill="white"/>
</svg>
