<svg width="35" height="45" viewBox="0 0 35 45" fill="none" xmlns="http://www.w3.org/2000/svg">
<path d="M2.34375 0.772705H25.0541L34.2814 10.0146L34.485 42.2472C34.492 43.3567 33.5946 44.2599 32.4851 44.2599H2.34375C1.23918 44.2599 0.34375 43.3645 0.34375 42.2599V2.77271C0.34375 1.66814 1.23918 0.772705 2.34375 0.772705Z" fill="#C6463E"/>
<path d="M25.0488 0.772705V9.00287C25.0488 9.55515 25.4965 10.0029 26.0488 10.0029H34.279L25.0488 0.772705Z" fill="black" fill-opacity="0.16"/>
<path d="M5.85938 19.6641H7.53516L9.43945 25.5996L11.3438 19.6641H13.0195L10.1191 28.1953H8.75977L5.85938 19.6641ZM4.83984 19.6641H6.57422L6.89648 26.2031V28.1953H4.83984V19.6641ZM12.3047 19.6641H14.0449V28.1953H11.9824V26.2031L12.3047 19.6641ZM17.0391 23.1035H18C18.2461 23.1035 18.4473 23.0605 18.6035 22.9746C18.7637 22.8848 18.8828 22.7598 18.9609 22.5996C19.0391 22.4355 19.0781 22.2422 19.0781 22.0195C19.0781 21.8477 19.041 21.6895 18.9668 21.5449C18.8965 21.4004 18.7871 21.2852 18.6387 21.1992C18.4902 21.1094 18.3008 21.0645 18.0703 21.0645C17.9141 21.0645 17.7617 21.0977 17.6133 21.1641C17.4648 21.2266 17.3418 21.3164 17.2441 21.4336C17.1504 21.5508 17.1035 21.6934 17.1035 21.8613H15.123C15.123 21.377 15.2559 20.9629 15.5215 20.6191C15.791 20.2715 16.1445 20.0059 16.582 19.8223C17.0234 19.6348 17.498 19.541 18.0059 19.541C18.6113 19.541 19.1426 19.6348 19.5996 19.8223C20.0566 20.0059 20.4121 20.2793 20.666 20.6426C20.9238 21.002 21.0527 21.4473 21.0527 21.9785C21.0527 22.2715 20.9844 22.5469 20.8477 22.8047C20.7109 23.0625 20.5195 23.2891 20.2734 23.4844C20.0273 23.6797 19.7383 23.834 19.4062 23.9473C19.0781 24.0566 18.7188 24.1113 18.3281 24.1113H17.0391V23.1035ZM17.0391 24.5742V23.5898H18.3281C18.7539 23.5898 19.1426 23.6387 19.4941 23.7363C19.8457 23.8301 20.1484 23.9707 20.4023 24.1582C20.6562 24.3457 20.8516 24.5781 20.9883 24.8555C21.125 25.1289 21.1934 25.4434 21.1934 25.7988C21.1934 26.1973 21.1133 26.5527 20.9531 26.8652C20.793 27.1777 20.5684 27.4414 20.2793 27.6562C19.9902 27.8711 19.6523 28.0352 19.2656 28.1484C18.8789 28.2578 18.459 28.3125 18.0059 28.3125C17.6504 28.3125 17.2949 28.2656 16.9395 28.1719C16.584 28.0742 16.2598 27.9258 15.9668 27.7266C15.6738 27.5234 15.4375 27.2656 15.2578 26.9531C15.082 26.6367 14.9941 26.2598 14.9941 25.8223H16.9746C16.9746 26.002 17.0234 26.166 17.1211 26.3145C17.2227 26.459 17.3574 26.5742 17.5254 26.6602C17.6934 26.7461 17.875 26.7891 18.0703 26.7891C18.3125 26.7891 18.5176 26.7441 18.6855 26.6543C18.8574 26.5605 18.9883 26.4355 19.0781 26.2793C19.168 26.123 19.2129 25.9492 19.2129 25.7578C19.2129 25.4688 19.1641 25.2383 19.0664 25.0664C18.9727 24.8945 18.834 24.7695 18.6504 24.6914C18.4707 24.6133 18.2539 24.5742 18 24.5742H17.0391ZM26.9531 19.6641H29.0098V25.2363C29.0098 25.9004 28.8711 26.4629 28.5938 26.9238C28.3164 27.3809 27.9277 27.7266 27.4277 27.9609C26.9277 28.1953 26.3398 28.3125 25.6641 28.3125C24.9961 28.3125 24.4082 28.1953 23.9004 27.9609C23.3965 27.7266 23.002 27.3809 22.7168 26.9238C22.4355 26.4629 22.2949 25.9004 22.2949 25.2363V19.6641H24.3574V25.2363C24.3574 25.5879 24.4082 25.875 24.5098 26.0977C24.6113 26.3164 24.7598 26.4766 24.9551 26.5781C25.1504 26.6797 25.3867 26.7305 25.6641 26.7305C25.9453 26.7305 26.1816 26.6797 26.373 26.5781C26.5645 26.4766 26.709 26.3164 26.8066 26.0977C26.9043 25.875 26.9531 25.5879 26.9531 25.2363V19.6641Z" fill="white"/>
</svg>
