<svg width="35" height="45" viewBox="0 0 35 45" fill="none" xmlns="http://www.w3.org/2000/svg">
<path d="M2.8125 0.772705H25.5228L34.7501 10.0146L34.9538 42.2472C34.9608 43.3567 34.0633 44.2599 32.9538 44.2599H2.8125C1.70793 44.2599 0.8125 43.3645 0.8125 42.2599V2.77271C0.8125 1.66814 1.70793 0.772705 2.8125 0.772705Z" fill="#C6463E"/>
<path d="M25.5176 0.772705V9.00287C25.5176 9.55515 25.9653 10.0029 26.5176 10.0029H34.7477L25.5176 0.772705Z" fill="black" fill-opacity="0.16"/>
<path d="M6.32422 19.6641H8L9.9043 25.5996L11.8086 19.6641H13.4844L10.584 28.1953H9.22461L6.32422 19.6641ZM5.30469 19.6641H7.03906L7.36133 26.2031V28.1953H5.30469V19.6641ZM12.7695 19.6641H14.5098V28.1953H12.4473V26.2031L12.7695 19.6641ZM19.5488 21.457L17.4688 28.1953H15.2598L18.3945 19.6641H19.7949L19.5488 21.457ZM21.2715 28.1953L19.1855 21.457L18.916 19.6641H20.334L23.4863 28.1953H21.2715ZM21.1895 25.0137V26.6016H16.8125V25.0137H21.1895ZM25.9004 19.6641L27.2949 22.5L28.6895 19.6641H31.0332L28.6543 23.8945L31.0977 28.1953H28.7305L27.2949 25.3066L25.8594 28.1953H23.4863L25.9355 23.8945L23.5508 19.6641H25.9004Z" fill="white"/>
</svg>
