<svg width="35" height="45" viewBox="0 0 35 45" fill="none" xmlns="http://www.w3.org/2000/svg">
<path d="M2.03125 0.959717H24.7416L33.9689 10.2016L34.1725 42.4343C34.1795 43.5437 33.2821 44.4469 32.1726 44.4469H2.03125C0.926681 44.4469 0.03125 43.5515 0.03125 42.4469V2.95972C0.03125 1.85515 0.926681 0.959717 2.03125 0.959717Z" fill="#C6463E"/>
<path d="M24.7363 0.959717V9.18988C24.7363 9.74216 25.184 10.1899 25.7363 10.1899H33.9665L24.7363 0.959717Z" fill="black" fill-opacity="0.16"/>
<path d="M5.75977 19.8513H7.43555L9.33984 25.7869L11.2441 19.8513H12.9199L10.0195 28.3826H8.66016L5.75977 19.8513ZM4.74023 19.8513H6.47461L6.79688 26.3904V28.3826H4.74023V19.8513ZM12.2051 19.8513H13.9453V28.3826H11.8828V26.3904L12.2051 19.8513ZM18.0352 28.3826H16.1426L16.1543 26.8005H18.0352C18.4258 26.8005 18.7559 26.7068 19.0254 26.5193C19.2988 26.3318 19.5059 26.0525 19.6465 25.6814C19.791 25.3064 19.8633 24.8455 19.8633 24.2986V23.9294C19.8633 23.5193 19.8223 23.1599 19.7402 22.8513C19.6621 22.5388 19.5449 22.2791 19.3887 22.072C19.2324 21.8611 19.0371 21.7029 18.8027 21.5974C18.5723 21.4919 18.3066 21.4392 18.0059 21.4392H16.1074V19.8513H18.0059C18.584 19.8513 19.1133 19.9509 19.5938 20.1501C20.0781 20.3455 20.4961 20.6267 20.8477 20.9939C21.2031 21.3572 21.4766 21.7888 21.668 22.2888C21.8633 22.7849 21.9609 23.3357 21.9609 23.9412V24.2986C21.9609 24.9001 21.8633 25.4509 21.668 25.9509C21.4766 26.4509 21.2051 26.8826 20.8535 27.2458C20.502 27.6091 20.0859 27.8904 19.6055 28.0896C19.1289 28.2849 18.6055 28.3826 18.0352 28.3826ZM17.3203 19.8513V28.3826H15.2637V19.8513H17.3203ZM26.5137 24.7556H24.3164L24.3047 23.408H26.0859C26.4062 23.408 26.6621 23.3728 26.8535 23.3025C27.0449 23.2283 27.1836 23.1208 27.2695 22.9802C27.3594 22.8396 27.4043 22.6638 27.4043 22.4529C27.4043 22.2107 27.3594 22.0154 27.2695 21.8669C27.1797 21.7185 27.0371 21.6111 26.8418 21.5447C26.6504 21.4744 26.4023 21.4392 26.0977 21.4392H25.0898V28.3826H23.0332V19.8513H26.0977C26.625 19.8513 27.0957 19.9001 27.5098 19.9978C27.9238 20.0916 28.2754 20.2361 28.5645 20.4314C28.8574 20.6267 29.0801 20.8728 29.2324 21.1697C29.3848 21.4626 29.4609 21.8083 29.4609 22.2068C29.4609 22.5544 29.3867 22.8806 29.2383 23.1853C29.0898 23.49 28.8418 23.738 28.4941 23.9294C28.1504 24.1169 27.6797 24.2146 27.082 24.2224L26.5137 24.7556ZM26.4316 28.3826H23.8184L24.5215 26.8005H26.4316C26.7129 26.8005 26.9375 26.7576 27.1055 26.6716C27.2773 26.5818 27.4004 26.4646 27.4746 26.3201C27.5527 26.1716 27.5918 26.0076 27.5918 25.8279C27.5918 25.6091 27.5547 25.4197 27.4805 25.2595C27.4102 25.0994 27.2969 24.9763 27.1406 24.8904C26.9844 24.8005 26.7754 24.7556 26.5137 24.7556H24.7852L24.7969 23.408H26.8652L27.3457 23.947C27.916 23.9236 28.3672 24.0037 28.6992 24.1873C29.0352 24.3708 29.2754 24.613 29.4199 24.9138C29.5645 25.2146 29.6367 25.5291 29.6367 25.8572C29.6367 26.4158 29.5156 26.8826 29.2734 27.2576C29.0352 27.6326 28.6777 27.9138 28.2012 28.1013C27.7246 28.2888 27.1348 28.3826 26.4316 28.3826Z" fill="white"/>
</svg>
