<svg width="35" height="45" viewBox="0 0 35 45" fill="none" xmlns="http://www.w3.org/2000/svg">
<path d="M2.1875 0.959717H24.8978L34.1251 10.2016L34.3288 42.4343C34.3358 43.5437 33.4383 44.4469 32.3288 44.4469H2.1875C1.08293 44.4469 0.1875 43.5515 0.1875 42.4469V2.95972C0.1875 1.85515 1.08293 0.959717 2.1875 0.959717Z" fill="#C6463E"/>
<path d="M24.8926 0.959717V9.18988C24.8926 9.74216 25.3403 10.1899 25.8926 10.1899H34.1227L24.8926 0.959717Z" fill="black" fill-opacity="0.16"/>
<path d="M6.50781 19.8513H8.18359L10.0879 25.7869L11.9922 19.8513H13.668L10.7676 28.3826H9.4082L6.50781 19.8513ZM5.48828 19.8513H7.22266L7.54492 26.3904V28.3826H5.48828V19.8513ZM12.9531 19.8513H14.6934V28.3826H12.6309V26.3904L12.9531 19.8513ZM18.7832 28.3826H16.8906L16.9023 26.8005H18.7832C19.1738 26.8005 19.5039 26.7068 19.7734 26.5193C20.0469 26.3318 20.2539 26.0525 20.3945 25.6814C20.5391 25.3064 20.6113 24.8455 20.6113 24.2986V23.9294C20.6113 23.5193 20.5703 23.1599 20.4883 22.8513C20.4102 22.5388 20.293 22.2791 20.1367 22.072C19.9805 21.8611 19.7852 21.7029 19.5508 21.5974C19.3203 21.4919 19.0547 21.4392 18.7539 21.4392H16.8555V19.8513H18.7539C19.332 19.8513 19.8613 19.9509 20.3418 20.1501C20.8262 20.3455 21.2441 20.6267 21.5957 20.9939C21.9512 21.3572 22.2246 21.7888 22.416 22.2888C22.6113 22.7849 22.709 23.3357 22.709 23.9412V24.2986C22.709 24.9001 22.6113 25.4509 22.416 25.9509C22.2246 26.4509 21.9531 26.8826 21.6016 27.2458C21.25 27.6091 20.834 27.8904 20.3535 28.0896C19.877 28.2849 19.3535 28.3826 18.7832 28.3826ZM18.0684 19.8513V28.3826H16.0117V19.8513H18.0684ZM25.8379 19.8513V28.3826H23.7812V19.8513H25.8379ZM29.1543 23.4021V24.9841H25.252V23.4021H29.1543ZM29.4883 19.8513V21.4392H25.252V19.8513H29.4883Z" fill="white"/>
</svg>
