<svg width="35" height="45" viewBox="0 0 35 45" fill="none" xmlns="http://www.w3.org/2000/svg">
<path d="M2.34375 0.959717H25.0541L34.2814 10.2016L34.485 42.4343C34.492 43.5437 33.5946 44.4469 32.4851 44.4469H2.34375C1.23918 44.4469 0.34375 43.5515 0.34375 42.4469V2.95972C0.34375 1.85515 1.23918 0.959717 2.34375 0.959717Z" fill="#C6463E"/>
<path d="M25.0488 0.959717V9.18988C25.0488 9.74216 25.4965 10.1899 26.0488 10.1899H34.279L25.0488 0.959717Z" fill="black" fill-opacity="0.16"/>
<path d="M7.62891 19.8513H9.30469L11.209 25.7869L13.1133 19.8513H14.7891L11.8887 28.3826H10.5293L7.62891 19.8513ZM6.60938 19.8513H8.34375L8.66602 26.3904V28.3826H6.60938V19.8513ZM14.0742 19.8513H15.8145V28.3826H13.752V26.3904L14.0742 19.8513ZM19.3184 19.8513V28.3826H17.2676V19.8513H19.3184ZM23.5371 28.3826H21.6445L21.6562 26.8005H23.5371C23.9277 26.8005 24.2578 26.7068 24.5273 26.5193C24.8008 26.3318 25.0078 26.0525 25.1484 25.6814C25.293 25.3064 25.3652 24.8455 25.3652 24.2986V23.9294C25.3652 23.5193 25.3242 23.1599 25.2422 22.8513C25.1641 22.5388 25.0469 22.2791 24.8906 22.072C24.7344 21.8611 24.5391 21.7029 24.3047 21.5974C24.0742 21.4919 23.8086 21.4392 23.5078 21.4392H21.6094V19.8513H23.5078C24.0859 19.8513 24.6152 19.9509 25.0957 20.1501C25.5801 20.3455 25.998 20.6267 26.3496 20.9939C26.7051 21.3572 26.9785 21.7888 27.1699 22.2888C27.3652 22.7849 27.4629 23.3357 27.4629 23.9412V24.2986C27.4629 24.9001 27.3652 25.4509 27.1699 25.9509C26.9785 26.4509 26.707 26.8826 26.3555 27.2458C26.0039 27.6091 25.5879 27.8904 25.1074 28.0896C24.6309 28.2849 24.1074 28.3826 23.5371 28.3826ZM22.8223 19.8513V28.3826H20.7656V19.8513H22.8223Z" fill="white"/>
</svg>
