<svg width="35" height="45" viewBox="0 0 35 45" fill="none" xmlns="http://www.w3.org/2000/svg">
<path d="M2.5 0.959717H25.2103L34.4376 10.2016L34.6413 42.4343C34.6483 43.5437 33.7508 44.4469 32.6413 44.4469H2.5C1.39543 44.4469 0.5 43.5515 0.5 42.4469V2.95972C0.5 1.85515 1.39543 0.959717 2.5 0.959717Z" fill="#C6463E"/>
<path d="M25.2051 0.959717V9.18988C25.2051 9.74216 25.6528 10.1899 26.2051 10.1899H34.4352L25.2051 0.959717Z" fill="black" fill-opacity="0.16"/>
<path d="M5.94141 19.8513H7.61719L9.52148 25.7869L11.4258 19.8513H13.1016L10.2012 28.3826H8.8418L5.94141 19.8513ZM4.92188 19.8513H6.65625L6.97852 26.3904V28.3826H4.92188V19.8513ZM12.3867 19.8513H14.127V28.3826H12.0645V26.3904L12.3867 19.8513ZM22.6641 23.947V24.2927C22.6641 24.9451 22.5723 25.531 22.3887 26.0505C22.209 26.5662 21.9531 27.0076 21.6211 27.3748C21.2891 27.738 20.8965 28.0173 20.4434 28.2126C19.9902 28.4041 19.4902 28.4998 18.9434 28.4998C18.3926 28.4998 17.8887 28.4041 17.4316 28.2126C16.9785 28.0173 16.584 27.738 16.248 27.3748C15.916 27.0076 15.6582 26.5662 15.4746 26.0505C15.2949 25.531 15.2051 24.9451 15.2051 24.2927V23.947C15.2051 23.2947 15.2949 22.7087 15.4746 22.1892C15.6582 21.6697 15.9141 21.2283 16.2422 20.865C16.5742 20.4978 16.9668 20.2185 17.4199 20.0271C17.877 19.8318 18.3809 19.7341 18.9316 19.7341C19.4785 19.7341 19.9785 19.8318 20.4316 20.0271C20.8887 20.2185 21.2832 20.4978 21.6152 20.865C21.9473 21.2283 22.2051 21.6697 22.3887 22.1892C22.5723 22.7087 22.6641 23.2947 22.6641 23.947ZM20.5781 24.2927V23.9353C20.5781 23.5134 20.541 23.1423 20.4668 22.822C20.3965 22.4978 20.291 22.2263 20.1504 22.0076C20.0098 21.7888 19.8359 21.6248 19.6289 21.5154C19.4258 21.4021 19.1934 21.3455 18.9316 21.3455C18.6582 21.3455 18.4199 21.4021 18.2168 21.5154C18.0137 21.6248 17.8438 21.7888 17.707 22.0076C17.5703 22.2263 17.4668 22.4978 17.3965 22.822C17.3301 23.1423 17.2969 23.5134 17.2969 23.9353V24.2927C17.2969 24.7107 17.3301 25.0818 17.3965 25.406C17.4668 25.7263 17.5703 25.9978 17.707 26.2205C17.8477 26.4431 18.0195 26.6111 18.2227 26.7244C18.4297 26.8376 18.6699 26.8943 18.9434 26.8943C19.2051 26.8943 19.4375 26.8376 19.6406 26.7244C19.8438 26.6111 20.0137 26.4431 20.1504 26.2205C20.291 25.9978 20.3965 25.7263 20.4668 25.406C20.541 25.0818 20.5781 24.7107 20.5781 24.2927ZM26.8301 26.3728L28.6055 19.8513H30.9082L28.0312 28.3826H26.543L26.8301 26.3728ZM25.2188 19.8513L26.9941 26.3728L27.293 28.3826H25.7871L22.9277 19.8513H25.2188Z" fill="white"/>
</svg>
