<svg width="35" height="44" viewBox="0 0 35 44" fill="none" xmlns="http://www.w3.org/2000/svg">
<path d="M2.03125 0.146973H24.7416L33.9689 9.38885L34.1725 41.6215C34.1795 42.731 33.2821 43.6342 32.1726 43.6342H2.03125C0.926681 43.6342 0.03125 42.7387 0.03125 41.6342V2.14697C0.03125 1.0424 0.926681 0.146973 2.03125 0.146973Z" fill="#0EC5A4"/>
<path d="M24.7363 0.146973V8.37713C24.7363 8.92942 25.184 9.37713 25.7363 9.37713H33.9665L24.7363 0.146973Z" fill="black" fill-opacity="0.16"/>
<path d="M5.51953 19.0383H7.19531L9.09961 24.9739L11.0039 19.0383H12.6797L9.7793 27.5696H8.41992L5.51953 19.0383ZM4.5 19.0383H6.23438L6.55664 25.5774V27.5696H4.5V19.0383ZM11.9648 19.0383H13.7051V27.5696H11.6426V25.5774L11.9648 19.0383ZM18.4277 24.675H16.3066V23.0872H18.4277C18.7168 23.0872 18.9512 23.0383 19.1309 22.9407C19.3105 22.843 19.4414 22.7083 19.5234 22.5364C19.6094 22.3606 19.6523 22.1633 19.6523 21.9446C19.6523 21.7102 19.6094 21.4934 19.5234 21.2942C19.4414 21.095 19.3105 20.9348 19.1309 20.8137C18.9512 20.6887 18.7168 20.6262 18.4277 20.6262H17.0801V27.5696H15.0234V19.0383H18.4277C19.1113 19.0383 19.6992 19.1633 20.1914 19.4133C20.6875 19.6633 21.0684 20.0071 21.334 20.4446C21.5996 20.8782 21.7324 21.3743 21.7324 21.9329C21.7324 22.4836 21.5996 22.9641 21.334 23.3743C21.0684 23.7844 20.6875 24.1047 20.1914 24.3352C19.6992 24.5618 19.1113 24.675 18.4277 24.675ZM29.8184 23.011V26.5149C29.6738 26.675 29.4512 26.8469 29.1504 27.0305C28.8535 27.2102 28.4785 27.3645 28.0254 27.4934C27.5723 27.6223 27.0391 27.6868 26.4258 27.6868C25.8594 27.6868 25.3457 27.5969 24.8848 27.4172C24.4238 27.2336 24.0273 26.9661 23.6953 26.6145C23.3672 26.259 23.1133 25.8254 22.9336 25.3137C22.7578 24.7981 22.6699 24.2083 22.6699 23.5442V23.0696C22.6699 22.4055 22.7598 21.8157 22.9395 21.3C23.1191 20.7844 23.3711 20.3508 23.6953 19.9993C24.0234 19.6438 24.4082 19.3743 24.8496 19.1907C25.2949 19.0071 25.7832 18.9153 26.3145 18.9153C27.0996 18.9153 27.7383 19.0403 28.2305 19.2903C28.7227 19.5364 29.0957 19.8782 29.3496 20.3157C29.6035 20.7493 29.7578 21.2512 29.8125 21.8215H27.8379C27.7988 21.5403 27.7246 21.302 27.6152 21.1067C27.5098 20.9075 27.3574 20.7571 27.1582 20.6555C26.959 20.55 26.7012 20.4973 26.3848 20.4973C26.1387 20.4973 25.9141 20.55 25.7109 20.6555C25.5117 20.761 25.3418 20.9211 25.2012 21.136C25.0605 21.3469 24.9512 21.6125 24.873 21.9329C24.7988 22.2532 24.7617 22.6282 24.7617 23.0579V23.5442C24.7617 23.97 24.7969 24.343 24.8672 24.6633C24.9414 24.9836 25.0508 25.2512 25.1953 25.4661C25.3438 25.677 25.5312 25.8372 25.7578 25.9465C25.9883 26.052 26.2598 26.1047 26.5723 26.1047C26.791 26.1047 26.9785 26.0872 27.1348 26.052C27.291 26.0129 27.4199 25.9661 27.5215 25.9114C27.627 25.8528 27.707 25.7981 27.7617 25.7473V24.4231H26.332V23.011H29.8184Z" fill="white"/>
</svg>
