<svg width="35" height="44" viewBox="0 0 35 44" fill="none" xmlns="http://www.w3.org/2000/svg">
<path d="M2.5 0.146973H25.2103L34.4376 9.38885L34.6413 41.6215C34.6483 42.731 33.7508 43.6342 32.6413 43.6342H2.5C1.39543 43.6342 0.5 42.7387 0.5 41.6342V2.14697C0.5 1.0424 1.39543 0.146973 2.5 0.146973Z" fill="#0EC5A4"/>
<path d="M25.2051 0.146973V8.37713C25.2051 8.92942 25.6528 9.37713 26.2051 9.37713H34.4352L25.2051 0.146973Z" fill="black" fill-opacity="0.16"/>
<path d="M14.0273 19.0383V27.5696H11.9766L8.95898 22.261V27.5696H6.90234V19.0383H8.95898L11.9766 24.3469V19.0383H14.0273ZM21.1992 25.9875V27.5696H16.6523V25.9875H21.1992ZM17.3848 19.0383V27.5696H15.3281V19.0383H17.3848ZM20.6133 22.425V23.9543H16.6523V22.425H20.6133ZM21.2168 19.0383V20.6262H16.6523V19.0383H21.2168ZM26.4375 25.302C26.4375 25.1692 26.418 25.05 26.3789 24.9446C26.3398 24.8352 26.2676 24.7336 26.1621 24.6399C26.0566 24.5461 25.9043 24.4524 25.7051 24.3586C25.5098 24.261 25.252 24.1594 24.9316 24.054C24.5566 23.929 24.1953 23.7883 23.8477 23.6321C23.5 23.4719 23.1895 23.2864 22.916 23.0754C22.6426 22.8606 22.4258 22.6106 22.2656 22.3254C22.1055 22.0364 22.0254 21.7004 22.0254 21.3176C22.0254 20.9504 22.1074 20.6204 22.2715 20.3274C22.4355 20.0305 22.6641 19.7786 22.957 19.5715C23.2539 19.3606 23.6016 19.2004 24 19.0911C24.3984 18.9778 24.834 18.9211 25.3066 18.9211C25.9316 18.9211 26.4824 19.0305 26.959 19.2493C27.4395 19.4641 27.8145 19.7708 28.084 20.1692C28.3574 20.5637 28.4941 21.0305 28.4941 21.5696H26.4492C26.4492 21.3547 26.4043 21.1653 26.3145 21.0012C26.2285 20.8372 26.0977 20.7083 25.9219 20.6145C25.7461 20.5208 25.5254 20.4739 25.2598 20.4739C25.002 20.4739 24.7852 20.5129 24.6094 20.5911C24.4336 20.6692 24.3008 20.7747 24.2109 20.9075C24.1211 21.0364 24.0762 21.179 24.0762 21.3352C24.0762 21.4641 24.1113 21.5813 24.1816 21.6868C24.2559 21.7883 24.3594 21.884 24.4922 21.9739C24.6289 22.0637 24.793 22.1497 24.9844 22.2317C25.1797 22.3137 25.3984 22.3938 25.6406 22.4719C26.0938 22.6165 26.4961 22.7786 26.8477 22.9583C27.2031 23.134 27.502 23.3352 27.7441 23.5618C27.9902 23.7844 28.1758 24.0383 28.3008 24.3235C28.4297 24.6086 28.4941 24.9309 28.4941 25.2903C28.4941 25.6731 28.4199 26.0129 28.2715 26.3098C28.123 26.6067 27.9102 26.8586 27.6328 27.0657C27.3555 27.2688 27.0234 27.4231 26.6367 27.5286C26.25 27.634 25.8184 27.6868 25.3418 27.6868C24.9043 27.6868 24.4727 27.6321 24.0469 27.5227C23.625 27.4094 23.2422 27.2375 22.8984 27.0071C22.5547 26.7727 22.2793 26.4739 22.0723 26.1106C21.8691 25.7434 21.7676 25.3079 21.7676 24.804H23.8301C23.8301 25.054 23.8633 25.2649 23.9297 25.4368C23.9961 25.6086 24.0938 25.7473 24.2227 25.8528C24.3516 25.9543 24.5098 26.0286 24.6973 26.0754C24.8848 26.1184 25.0996 26.1399 25.3418 26.1399C25.6035 26.1399 25.8145 26.1028 25.9746 26.0286C26.1348 25.9504 26.252 25.8489 26.3262 25.7239C26.4004 25.595 26.4375 25.4543 26.4375 25.302Z" fill="white"/>
</svg>
