<svg width="35" height="44" viewBox="0 0 35 44" fill="none" xmlns="http://www.w3.org/2000/svg">
<path d="M2.65625 0.146973H25.3666L34.5939 9.38885L34.7975 41.6215C34.8045 42.731 33.9071 43.6342 32.7976 43.6342H2.65625C1.55168 43.6342 0.65625 42.7387 0.65625 41.6342V2.14697C0.65625 1.0424 1.55168 0.146973 2.65625 0.146973Z" fill="#0EC5A4"/>
<path d="M25.3613 0.146973V8.37713C25.3613 8.92942 25.809 9.37713 26.3613 9.37713H34.5915L25.3613 0.146973Z" fill="black" fill-opacity="0.16"/>
<path d="M14.2129 23.134V23.4797C14.2129 24.1321 14.1211 24.718 13.9375 25.2375C13.7578 25.7532 13.502 26.1946 13.1699 26.5618C12.8379 26.925 12.4453 27.2043 11.9922 27.3997C11.5391 27.5911 11.0391 27.6868 10.4922 27.6868C9.94141 27.6868 9.4375 27.5911 8.98047 27.3997C8.52734 27.2043 8.13281 26.925 7.79688 26.5618C7.46484 26.1946 7.20703 25.7532 7.02344 25.2375C6.84375 24.718 6.75391 24.1321 6.75391 23.4797V23.134C6.75391 22.4817 6.84375 21.8958 7.02344 21.3762C7.20703 20.8567 7.46289 20.4153 7.79102 20.052C8.12305 19.6848 8.51562 19.4055 8.96875 19.2141C9.42578 19.0188 9.92969 18.9211 10.4805 18.9211C11.0273 18.9211 11.5273 19.0188 11.9805 19.2141C12.4375 19.4055 12.832 19.6848 13.1641 20.052C13.4961 20.4153 13.7539 20.8567 13.9375 21.3762C14.1211 21.8958 14.2129 22.4817 14.2129 23.134ZM12.127 23.4797V23.1223C12.127 22.7004 12.0898 22.3293 12.0156 22.009C11.9453 21.6848 11.8398 21.4133 11.6992 21.1946C11.5586 20.9758 11.3848 20.8118 11.1777 20.7024C10.9746 20.5891 10.7422 20.5325 10.4805 20.5325C10.207 20.5325 9.96875 20.5891 9.76562 20.7024C9.5625 20.8118 9.39258 20.9758 9.25586 21.1946C9.11914 21.4133 9.01562 21.6848 8.94531 22.009C8.87891 22.3293 8.8457 22.7004 8.8457 23.1223V23.4797C8.8457 23.8977 8.87891 24.2688 8.94531 24.593C9.01562 24.9133 9.11914 25.1848 9.25586 25.4075C9.39648 25.6301 9.56836 25.7981 9.77148 25.9114C9.97852 26.0247 10.2188 26.0813 10.4922 26.0813C10.7539 26.0813 10.9863 26.0247 11.1895 25.9114C11.3926 25.7981 11.5625 25.6301 11.6992 25.4075C11.8398 25.1848 11.9453 24.9133 12.0156 24.593C12.0898 24.2688 12.127 23.8977 12.127 23.4797ZM18.7598 23.9426H16.5625L16.5508 22.595H18.332C18.6523 22.595 18.9082 22.5598 19.0996 22.4895C19.291 22.4153 19.4297 22.3079 19.5156 22.1672C19.6055 22.0266 19.6504 21.8508 19.6504 21.6399C19.6504 21.3977 19.6055 21.2024 19.5156 21.054C19.4258 20.9055 19.2832 20.7981 19.0879 20.7317C18.8965 20.6614 18.6484 20.6262 18.3438 20.6262H17.3359V27.5696H15.2793V19.0383H18.3438C18.8711 19.0383 19.3418 19.0872 19.7559 19.1848C20.1699 19.2786 20.5215 19.4231 20.8105 19.6184C21.1035 19.8137 21.3262 20.0598 21.4785 20.3567C21.6309 20.6497 21.707 20.9954 21.707 21.3938C21.707 21.7415 21.6328 22.0676 21.4844 22.3723C21.3359 22.677 21.0879 22.925 20.7402 23.1165C20.3965 23.304 19.9258 23.4016 19.3281 23.4094L18.7598 23.9426ZM18.6777 27.5696H16.0645L16.7676 25.9875H18.6777C18.959 25.9875 19.1836 25.9446 19.3516 25.8586C19.5234 25.7688 19.6465 25.6516 19.7207 25.5071C19.7988 25.3586 19.8379 25.1946 19.8379 25.0149C19.8379 24.7961 19.8008 24.6067 19.7266 24.4465C19.6562 24.2864 19.543 24.1633 19.3867 24.0774C19.2305 23.9875 19.0215 23.9426 18.7598 23.9426H17.0312L17.043 22.595H19.1113L19.5918 23.134C20.1621 23.1106 20.6133 23.1907 20.9453 23.3743C21.2812 23.5579 21.5215 23.8 21.666 24.1008C21.8105 24.4016 21.8828 24.7161 21.8828 25.0442C21.8828 25.6028 21.7617 26.0696 21.5195 26.4446C21.2812 26.8196 20.9238 27.1008 20.4473 27.2883C19.9707 27.4758 19.3809 27.5696 18.6777 27.5696ZM26.418 24.8918V19.0383H28.4688V24.8918C28.4688 25.4622 28.3379 25.9563 28.0762 26.3743C27.8184 26.7922 27.4668 27.1165 27.0215 27.3469C26.5801 27.5735 26.084 27.6868 25.5332 27.6868C24.9629 27.6868 24.4551 27.5911 24.0098 27.3997C23.5684 27.2083 23.2207 26.9133 22.9668 26.5149C22.7168 26.1165 22.5918 25.6086 22.5918 24.9915H24.6543C24.6543 25.2805 24.6875 25.5071 24.7539 25.6711C24.8203 25.8313 24.918 25.9446 25.0469 26.011C25.1797 26.0735 25.3418 26.1047 25.5332 26.1047C25.7207 26.1047 25.8789 26.0579 26.0078 25.9641C26.1406 25.8665 26.2422 25.7278 26.3125 25.5481C26.3828 25.3645 26.418 25.1458 26.418 24.8918Z" fill="white"/>
</svg>
