<svg width="35" height="45" viewBox="0 0 35 45" fill="none" xmlns="http://www.w3.org/2000/svg">
<path d="M2.8125 0.895264H25.5228L34.7501 10.1371L34.9538 42.3698C34.9608 43.4793 34.0633 44.3824 32.9538 44.3824H2.8125C1.70793 44.3824 0.8125 43.487 0.8125 42.3824V2.89526C0.8125 1.79069 1.70793 0.895264 2.8125 0.895264Z" fill="#06437C"/>
<path d="M25.5176 0.895264V9.12542C25.5176 9.67771 25.9653 10.1254 26.5176 10.1254H34.7477L25.5176 0.895264Z" fill="black" fill-opacity="0.16"/>
<path d="M13.2949 23.8823V24.228C13.2949 24.8804 13.2031 25.4663 13.0195 25.9858C12.8398 26.5015 12.584 26.9429 12.252 27.3101C11.9199 27.6733 11.5273 27.9526 11.0742 28.1479C10.6211 28.3394 10.1211 28.4351 9.57422 28.4351C9.02344 28.4351 8.51953 28.3394 8.0625 28.1479C7.60938 27.9526 7.21484 27.6733 6.87891 27.3101C6.54688 26.9429 6.28906 26.5015 6.10547 25.9858C5.92578 25.4663 5.83594 24.8804 5.83594 24.228V23.8823C5.83594 23.23 5.92578 22.644 6.10547 22.1245C6.28906 21.605 6.54492 21.1636 6.87305 20.8003C7.20508 20.4331 7.59766 20.1538 8.05078 19.9624C8.50781 19.7671 9.01172 19.6694 9.5625 19.6694C10.1094 19.6694 10.6094 19.7671 11.0625 19.9624C11.5195 20.1538 11.9141 20.4331 12.2461 20.8003C12.5781 21.1636 12.8359 21.605 13.0195 22.1245C13.2031 22.644 13.2949 23.23 13.2949 23.8823ZM11.209 24.228V23.8706C11.209 23.4487 11.1719 23.0776 11.0977 22.7573C11.0273 22.4331 10.9219 22.1616 10.7812 21.9429C10.6406 21.7241 10.4668 21.5601 10.2598 21.4507C10.0566 21.3374 9.82422 21.2808 9.5625 21.2808C9.28906 21.2808 9.05078 21.3374 8.84766 21.4507C8.64453 21.5601 8.47461 21.7241 8.33789 21.9429C8.20117 22.1616 8.09766 22.4331 8.02734 22.7573C7.96094 23.0776 7.92773 23.4487 7.92773 23.8706V24.228C7.92773 24.646 7.96094 25.0171 8.02734 25.3413C8.09766 25.6616 8.20117 25.9331 8.33789 26.1558C8.47852 26.3784 8.65039 26.5464 8.85352 26.6597C9.06055 26.7729 9.30078 26.8296 9.57422 26.8296C9.83594 26.8296 10.0684 26.7729 10.2715 26.6597C10.4746 26.5464 10.6445 26.3784 10.7812 26.1558C10.9219 25.9331 11.0273 25.6616 11.0977 25.3413C11.1719 25.0171 11.209 24.646 11.209 24.228ZM17.1328 28.3179H15.2402L15.252 26.7358H17.1328C17.5234 26.7358 17.8535 26.6421 18.123 26.4546C18.3965 26.2671 18.6035 25.9878 18.7441 25.6167C18.8887 25.2417 18.9609 24.7808 18.9609 24.2339V23.8647C18.9609 23.4546 18.9199 23.0952 18.8379 22.7866C18.7598 22.4741 18.6426 22.2144 18.4863 22.0073C18.3301 21.7964 18.1348 21.6382 17.9004 21.5327C17.6699 21.4272 17.4043 21.3745 17.1035 21.3745H15.2051V19.7866H17.1035C17.6816 19.7866 18.2109 19.8862 18.6914 20.0854C19.1758 20.2808 19.5938 20.562 19.9453 20.9292C20.3008 21.2925 20.5742 21.7241 20.7656 22.2241C20.9609 22.7202 21.0586 23.271 21.0586 23.8765V24.2339C21.0586 24.8354 20.9609 25.3862 20.7656 25.8862C20.5742 26.3862 20.3027 26.8179 19.9512 27.1812C19.5996 27.5444 19.1836 27.8257 18.7031 28.0249C18.2266 28.2202 17.7031 28.3179 17.1328 28.3179ZM16.418 19.7866V28.3179H14.3613V19.7866H16.418ZM26.9824 25.4292H29.0332C29.0059 26.0229 28.8457 26.5464 28.5527 26.9995C28.2598 27.4526 27.8535 27.8062 27.334 28.0601C26.8184 28.3101 26.209 28.4351 25.5059 28.4351C24.9355 28.4351 24.4258 28.3394 23.9766 28.1479C23.5312 27.9565 23.1523 27.6812 22.8398 27.3218C22.5312 26.9624 22.2949 26.5269 22.1309 26.0151C21.9707 25.5034 21.8906 24.9272 21.8906 24.2866V23.8237C21.8906 23.1831 21.9746 22.6069 22.1426 22.0952C22.3145 21.5796 22.5566 21.1421 22.8691 20.7827C23.1855 20.4194 23.5645 20.1421 24.0059 19.9507C24.4473 19.7593 24.9375 19.6636 25.4766 19.6636C26.2188 19.6636 26.8457 19.7964 27.3574 20.062C27.8691 20.3276 28.2656 20.6929 28.5469 21.1577C28.8281 21.6187 28.9941 22.144 29.0449 22.7339H26.9941C26.9863 22.4136 26.9316 22.146 26.8301 21.9312C26.7285 21.7124 26.5684 21.5483 26.3496 21.439C26.1309 21.3296 25.8398 21.2749 25.4766 21.2749C25.2227 21.2749 25.002 21.3218 24.8145 21.4155C24.627 21.5093 24.4707 21.6577 24.3457 21.8608C24.2207 22.064 24.127 22.3276 24.0645 22.6519C24.0059 22.9722 23.9766 23.3589 23.9766 23.812V24.2866C23.9766 24.7397 24.0039 25.1265 24.0586 25.4468C24.1133 25.7671 24.2012 26.0288 24.3223 26.2319C24.4434 26.4351 24.5996 26.5854 24.791 26.6831C24.9863 26.7769 25.2246 26.8237 25.5059 26.8237C25.8184 26.8237 26.082 26.7749 26.2969 26.6772C26.5117 26.5757 26.6777 26.4233 26.7949 26.2202C26.9121 26.0132 26.9746 25.7495 26.9824 25.4292Z" fill="white"/>
</svg>
