<svg width="35" height="44" viewBox="0 0 35 44" fill="none" xmlns="http://www.w3.org/2000/svg">
<path d="M2.8125 0.146973H25.5228L34.7501 9.38885L34.9538 41.6215C34.9608 42.731 34.0633 43.6342 32.9538 43.6342H2.8125C1.70793 43.6342 0.8125 42.7387 0.8125 41.6342V2.14697C0.8125 1.0424 1.70793 0.146973 2.8125 0.146973Z" fill="#0EC5A4"/>
<path d="M25.5176 0.146973V8.37713C25.5176 8.92942 25.9653 9.37713 26.5176 9.37713H34.7477L25.5176 0.146973Z" fill="black" fill-opacity="0.16"/>
<path d="M13.2949 23.134V23.4797C13.2949 24.1321 13.2031 24.718 13.0195 25.2375C12.8398 25.7532 12.584 26.1946 12.252 26.5618C11.9199 26.925 11.5273 27.2043 11.0742 27.3997C10.6211 27.5911 10.1211 27.6868 9.57422 27.6868C9.02344 27.6868 8.51953 27.5911 8.0625 27.3997C7.60938 27.2043 7.21484 26.925 6.87891 26.5618C6.54688 26.1946 6.28906 25.7532 6.10547 25.2375C5.92578 24.718 5.83594 24.1321 5.83594 23.4797V23.134C5.83594 22.4817 5.92578 21.8958 6.10547 21.3762C6.28906 20.8567 6.54492 20.4153 6.87305 20.052C7.20508 19.6848 7.59766 19.4055 8.05078 19.2141C8.50781 19.0188 9.01172 18.9211 9.5625 18.9211C10.1094 18.9211 10.6094 19.0188 11.0625 19.2141C11.5195 19.4055 11.9141 19.6848 12.2461 20.052C12.5781 20.4153 12.8359 20.8567 13.0195 21.3762C13.2031 21.8958 13.2949 22.4817 13.2949 23.134ZM11.209 23.4797V23.1223C11.209 22.7004 11.1719 22.3293 11.0977 22.009C11.0273 21.6848 10.9219 21.4133 10.7812 21.1946C10.6406 20.9758 10.4668 20.8118 10.2598 20.7024C10.0566 20.5891 9.82422 20.5325 9.5625 20.5325C9.28906 20.5325 9.05078 20.5891 8.84766 20.7024C8.64453 20.8118 8.47461 20.9758 8.33789 21.1946C8.20117 21.4133 8.09766 21.6848 8.02734 22.009C7.96094 22.3293 7.92773 22.7004 7.92773 23.1223V23.4797C7.92773 23.8977 7.96094 24.2688 8.02734 24.593C8.09766 24.9133 8.20117 25.1848 8.33789 25.4075C8.47852 25.6301 8.65039 25.7981 8.85352 25.9114C9.06055 26.0247 9.30078 26.0813 9.57422 26.0813C9.83594 26.0813 10.0684 26.0247 10.2715 25.9114C10.4746 25.7981 10.6445 25.6301 10.7812 25.4075C10.9219 25.1848 11.0273 24.9133 11.0977 24.593C11.1719 24.2688 11.209 23.8977 11.209 23.4797ZM17.1328 27.5696H15.2402L15.252 25.9875H17.1328C17.5234 25.9875 17.8535 25.8938 18.123 25.7063C18.3965 25.5188 18.6035 25.2395 18.7441 24.8684C18.8887 24.4934 18.9609 24.0325 18.9609 23.4856V23.1165C18.9609 22.7063 18.9199 22.3469 18.8379 22.0383C18.7598 21.7258 18.6426 21.4661 18.4863 21.259C18.3301 21.0481 18.1348 20.8899 17.9004 20.7844C17.6699 20.679 17.4043 20.6262 17.1035 20.6262H15.2051V19.0383H17.1035C17.6816 19.0383 18.2109 19.1379 18.6914 19.3372C19.1758 19.5325 19.5938 19.8137 19.9453 20.1809C20.3008 20.5442 20.5742 20.9758 20.7656 21.4758C20.9609 21.9719 21.0586 22.5227 21.0586 23.1282V23.4856C21.0586 24.0872 20.9609 24.6379 20.7656 25.1379C20.5742 25.6379 20.3027 26.0696 19.9512 26.4329C19.5996 26.7961 19.1836 27.0774 18.7031 27.2766C18.2266 27.4719 17.7031 27.5696 17.1328 27.5696ZM16.418 19.0383V27.5696H14.3613V19.0383H16.418ZM26.9824 24.6809H29.0332C29.0059 25.2747 28.8457 25.7981 28.5527 26.2512C28.2598 26.7043 27.8535 27.0579 27.334 27.3118C26.8184 27.5618 26.209 27.6868 25.5059 27.6868C24.9355 27.6868 24.4258 27.5911 23.9766 27.3997C23.5312 27.2083 23.1523 26.9329 22.8398 26.5735C22.5312 26.2141 22.2949 25.7786 22.1309 25.2668C21.9707 24.7551 21.8906 24.179 21.8906 23.5383V23.0754C21.8906 22.4348 21.9746 21.8586 22.1426 21.3469C22.3145 20.8313 22.5566 20.3938 22.8691 20.0344C23.1855 19.6711 23.5645 19.3938 24.0059 19.2024C24.4473 19.011 24.9375 18.9153 25.4766 18.9153C26.2188 18.9153 26.8457 19.0481 27.3574 19.3137C27.8691 19.5793 28.2656 19.9446 28.5469 20.4094C28.8281 20.8704 28.9941 21.3958 29.0449 21.9856H26.9941C26.9863 21.6653 26.9316 21.3977 26.8301 21.1829C26.7285 20.9641 26.5684 20.8 26.3496 20.6907C26.1309 20.5813 25.8398 20.5266 25.4766 20.5266C25.2227 20.5266 25.002 20.5735 24.8145 20.6672C24.627 20.761 24.4707 20.9094 24.3457 21.1125C24.2207 21.3157 24.127 21.5793 24.0645 21.9036C24.0059 22.2239 23.9766 22.6106 23.9766 23.0637V23.5383C23.9766 23.9915 24.0039 24.3782 24.0586 24.6985C24.1133 25.0188 24.2012 25.2805 24.3223 25.4836C24.4434 25.6868 24.5996 25.8372 24.791 25.9348C24.9863 26.0286 25.2246 26.0754 25.5059 26.0754C25.8184 26.0754 26.082 26.0266 26.2969 25.929C26.5117 25.8274 26.6777 25.675 26.7949 25.4719C26.9121 25.2649 26.9746 25.0012 26.9824 24.6809Z" fill="white"/>
</svg>
