<svg width="35" height="44" viewBox="0 0 35 44" fill="none" xmlns="http://www.w3.org/2000/svg">
<path d="M2.1875 0.333984H24.8978L34.1251 9.57586L34.3288 41.8085C34.3358 42.918 33.4383 43.8212 32.3288 43.8212H2.1875C1.08293 43.8212 0.1875 42.9257 0.1875 41.8212V2.33398C0.1875 1.22941 1.08293 0.333984 2.1875 0.333984Z" fill="#0EC5A4"/>
<path d="M24.8926 0.333984V8.56415C24.8926 9.11643 25.3403 9.56415 25.8926 9.56415H34.1227L24.8926 0.333984Z" fill="black" fill-opacity="0.16"/>
<path d="M13.0176 23.321V23.6667C13.0176 24.3191 12.9258 24.905 12.7422 25.4246C12.5625 25.9402 12.3066 26.3816 11.9746 26.7488C11.6426 27.1121 11.25 27.3914 10.7969 27.5867C10.3438 27.7781 9.84375 27.8738 9.29688 27.8738C8.74609 27.8738 8.24219 27.7781 7.78516 27.5867C7.33203 27.3914 6.9375 27.1121 6.60156 26.7488C6.26953 26.3816 6.01172 25.9402 5.82812 25.4246C5.64844 24.905 5.55859 24.3191 5.55859 23.6667V23.321C5.55859 22.6687 5.64844 22.0828 5.82812 21.5632C6.01172 21.0437 6.26758 20.6023 6.5957 20.239C6.92773 19.8718 7.32031 19.5925 7.77344 19.4011C8.23047 19.2058 8.73438 19.1082 9.28516 19.1082C9.83203 19.1082 10.332 19.2058 10.7852 19.4011C11.2422 19.5925 11.6367 19.8718 11.9688 20.239C12.3008 20.6023 12.5586 21.0437 12.7422 21.5632C12.9258 22.0828 13.0176 22.6687 13.0176 23.321ZM10.9316 23.6667V23.3093C10.9316 22.8875 10.8945 22.5164 10.8203 22.196C10.75 21.8718 10.6445 21.6003 10.5039 21.3816C10.3633 21.1628 10.1895 20.9988 9.98242 20.8894C9.7793 20.7761 9.54688 20.7195 9.28516 20.7195C9.01172 20.7195 8.77344 20.7761 8.57031 20.8894C8.36719 20.9988 8.19727 21.1628 8.06055 21.3816C7.92383 21.6003 7.82031 21.8718 7.75 22.196C7.68359 22.5164 7.65039 22.8875 7.65039 23.3093V23.6667C7.65039 24.0847 7.68359 24.4558 7.75 24.78C7.82031 25.1003 7.92383 25.3718 8.06055 25.5945C8.20117 25.8171 8.37305 25.9851 8.57617 26.0984C8.7832 26.2117 9.02344 26.2683 9.29688 26.2683C9.55859 26.2683 9.79102 26.2117 9.99414 26.0984C10.1973 25.9851 10.3672 25.8171 10.5039 25.5945C10.6445 25.3718 10.75 25.1003 10.8203 24.78C10.8945 24.4558 10.9316 24.0847 10.9316 23.6667ZM16.8555 27.7566H14.9629L14.9746 26.1746H16.8555C17.2461 26.1746 17.5762 26.0808 17.8457 25.8933C18.1191 25.7058 18.3262 25.4265 18.4668 25.0554C18.6113 24.6804 18.6836 24.2195 18.6836 23.6726V23.3035C18.6836 22.8933 18.6426 22.5339 18.5605 22.2253C18.4824 21.9128 18.3652 21.6531 18.209 21.446C18.0527 21.2351 17.8574 21.0769 17.623 20.9714C17.3926 20.866 17.127 20.8132 16.8262 20.8132H14.9277V19.2253H16.8262C17.4043 19.2253 17.9336 19.325 18.4141 19.5242C18.8984 19.7195 19.3164 20.0007 19.668 20.3679C20.0234 20.7312 20.2969 21.1628 20.4883 21.6628C20.6836 22.1589 20.7812 22.7097 20.7812 23.3152V23.6726C20.7812 24.2742 20.6836 24.825 20.4883 25.325C20.2969 25.825 20.0254 26.2566 19.6738 26.6199C19.3223 26.9832 18.9062 27.2644 18.4258 27.4636C17.9492 27.6589 17.4258 27.7566 16.8555 27.7566ZM16.1406 19.2253V27.7566H14.084V19.2253H16.1406ZM28.832 23.198V26.7019C28.6875 26.8621 28.4648 27.0339 28.1641 27.2175C27.8672 27.3972 27.4922 27.5515 27.0391 27.6804C26.5859 27.8093 26.0527 27.8738 25.4395 27.8738C24.873 27.8738 24.3594 27.7839 23.8984 27.6042C23.4375 27.4207 23.041 27.1531 22.709 26.8015C22.3809 26.446 22.127 26.0125 21.9473 25.5007C21.7715 24.9851 21.6836 24.3953 21.6836 23.7312V23.2566C21.6836 22.5925 21.7734 22.0027 21.9531 21.4871C22.1328 20.9714 22.3848 20.5378 22.709 20.1863C23.0371 19.8308 23.4219 19.5613 23.8633 19.3777C24.3086 19.1941 24.7969 19.1023 25.3281 19.1023C26.1133 19.1023 26.752 19.2273 27.2441 19.4773C27.7363 19.7234 28.1094 20.0652 28.3633 20.5027C28.6172 20.9363 28.7715 21.4382 28.8262 22.0085H26.8516C26.8125 21.7273 26.7383 21.489 26.6289 21.2937C26.5234 21.0945 26.3711 20.9441 26.1719 20.8425C25.9727 20.7371 25.7148 20.6843 25.3984 20.6843C25.1523 20.6843 24.9277 20.7371 24.7246 20.8425C24.5254 20.948 24.3555 21.1082 24.2148 21.323C24.0742 21.5339 23.9648 21.7996 23.8867 22.1199C23.8125 22.4402 23.7754 22.8152 23.7754 23.2449V23.7312C23.7754 24.157 23.8105 24.53 23.8809 24.8503C23.9551 25.1707 24.0645 25.4382 24.209 25.6531C24.3574 25.864 24.5449 26.0242 24.7715 26.1335C25.002 26.239 25.2734 26.2917 25.5859 26.2917C25.8047 26.2917 25.9922 26.2742 26.1484 26.239C26.3047 26.2 26.4336 26.1531 26.5352 26.0984C26.6406 26.0398 26.7207 25.9851 26.7754 25.9343V24.6101H25.3457V23.198H28.832Z" fill="white"/>
</svg>
