<svg width="35" height="44" viewBox="0 0 35 44" fill="none" xmlns="http://www.w3.org/2000/svg">
<path d="M2.65625 0.333984H25.3666L34.5939 9.57586L34.7975 41.8085C34.8045 42.918 33.9071 43.8212 32.7976 43.8212H2.65625C1.55168 43.8212 0.65625 42.9257 0.65625 41.8212V2.33398C0.65625 1.22941 1.55168 0.333984 2.65625 0.333984Z" fill="#0EC5A4"/>
<path d="M25.3613 0.333984V8.56415C25.3613 9.11643 25.809 9.56415 26.3613 9.56415H34.5915L25.3613 0.333984Z" fill="black" fill-opacity="0.16"/>
<path d="M13.3203 23.321V23.6667C13.3203 24.3191 13.2285 24.905 13.0449 25.4246C12.8652 25.9402 12.6094 26.3816 12.2773 26.7488C11.9453 27.1121 11.5527 27.3914 11.0996 27.5867C10.6465 27.7781 10.1465 27.8738 9.59961 27.8738C9.04883 27.8738 8.54492 27.7781 8.08789 27.5867C7.63477 27.3914 7.24023 27.1121 6.9043 26.7488C6.57227 26.3816 6.31445 25.9402 6.13086 25.4246C5.95117 24.905 5.86133 24.3191 5.86133 23.6667V23.321C5.86133 22.6687 5.95117 22.0828 6.13086 21.5632C6.31445 21.0437 6.57031 20.6023 6.89844 20.239C7.23047 19.8718 7.62305 19.5925 8.07617 19.4011C8.5332 19.2058 9.03711 19.1082 9.58789 19.1082C10.1348 19.1082 10.6348 19.2058 11.0879 19.4011C11.5449 19.5925 11.9395 19.8718 12.2715 20.239C12.6035 20.6023 12.8613 21.0437 13.0449 21.5632C13.2285 22.0828 13.3203 22.6687 13.3203 23.321ZM11.2344 23.6667V23.3093C11.2344 22.8875 11.1973 22.5164 11.123 22.196C11.0527 21.8718 10.9473 21.6003 10.8066 21.3816C10.666 21.1628 10.4922 20.9988 10.2852 20.8894C10.082 20.7761 9.84961 20.7195 9.58789 20.7195C9.31445 20.7195 9.07617 20.7761 8.87305 20.8894C8.66992 20.9988 8.5 21.1628 8.36328 21.3816C8.22656 21.6003 8.12305 21.8718 8.05273 22.196C7.98633 22.5164 7.95312 22.8875 7.95312 23.3093V23.6667C7.95312 24.0847 7.98633 24.4558 8.05273 24.78C8.12305 25.1003 8.22656 25.3718 8.36328 25.5945C8.50391 25.8171 8.67578 25.9851 8.87891 26.0984C9.08594 26.2117 9.32617 26.2683 9.59961 26.2683C9.86133 26.2683 10.0938 26.2117 10.2969 26.0984C10.5 25.9851 10.6699 25.8171 10.8066 25.5945C10.9473 25.3718 11.0527 25.1003 11.123 24.78C11.1973 24.4558 11.2344 24.0847 11.2344 23.6667ZM17.1582 27.7566H15.2656L15.2773 26.1746H17.1582C17.5488 26.1746 17.8789 26.0808 18.1484 25.8933C18.4219 25.7058 18.6289 25.4265 18.7695 25.0554C18.9141 24.6804 18.9863 24.2195 18.9863 23.6726V23.3035C18.9863 22.8933 18.9453 22.5339 18.8633 22.2253C18.7852 21.9128 18.668 21.6531 18.5117 21.446C18.3555 21.2351 18.1602 21.0769 17.9258 20.9714C17.6953 20.866 17.4297 20.8132 17.1289 20.8132H15.2305V19.2253H17.1289C17.707 19.2253 18.2363 19.325 18.7168 19.5242C19.2012 19.7195 19.6191 20.0007 19.9707 20.3679C20.3262 20.7312 20.5996 21.1628 20.791 21.6628C20.9863 22.1589 21.084 22.7097 21.084 23.3152V23.6726C21.084 24.2742 20.9863 24.825 20.791 25.325C20.5996 25.825 20.3281 26.2566 19.9766 26.6199C19.625 26.9832 19.209 27.2644 18.7285 27.4636C18.252 27.6589 17.7285 27.7566 17.1582 27.7566ZM16.4434 19.2253V27.7566H14.3867V19.2253H16.4434ZM26.5508 25.489C26.5508 25.3562 26.5312 25.2371 26.4922 25.1316C26.4531 25.0222 26.3809 24.9207 26.2754 24.8269C26.1699 24.7332 26.0176 24.6394 25.8184 24.5457C25.623 24.448 25.3652 24.3464 25.0449 24.241C24.6699 24.116 24.3086 23.9753 23.9609 23.8191C23.6133 23.6589 23.3027 23.4734 23.0293 23.2625C22.7559 23.0476 22.5391 22.7976 22.3789 22.5125C22.2188 22.2234 22.1387 21.8875 22.1387 21.5046C22.1387 21.1375 22.2207 20.8074 22.3848 20.5144C22.5488 20.2175 22.7773 19.9656 23.0703 19.7585C23.3672 19.5476 23.7148 19.3875 24.1133 19.2781C24.5117 19.1648 24.9473 19.1082 25.4199 19.1082C26.0449 19.1082 26.5957 19.2175 27.0723 19.4363C27.5527 19.6511 27.9277 19.9578 28.1973 20.3562C28.4707 20.7507 28.6074 21.2175 28.6074 21.7566H26.5625C26.5625 21.5417 26.5176 21.3523 26.4277 21.1882C26.3418 21.0242 26.2109 20.8953 26.0352 20.8015C25.8594 20.7078 25.6387 20.6609 25.373 20.6609C25.1152 20.6609 24.8984 20.7 24.7227 20.7781C24.5469 20.8562 24.4141 20.9617 24.3242 21.0945C24.2344 21.2234 24.1895 21.366 24.1895 21.5222C24.1895 21.6511 24.2246 21.7683 24.2949 21.8738C24.3691 21.9753 24.4727 22.071 24.6055 22.1609C24.7422 22.2507 24.9062 22.3367 25.0977 22.4187C25.293 22.5007 25.5117 22.5808 25.7539 22.6589C26.207 22.8035 26.6094 22.9656 26.9609 23.1453C27.3164 23.321 27.6152 23.5222 27.8574 23.7488C28.1035 23.9714 28.2891 24.2253 28.4141 24.5105C28.543 24.7957 28.6074 25.1179 28.6074 25.4773C28.6074 25.8601 28.5332 26.2 28.3848 26.4968C28.2363 26.7937 28.0234 27.0457 27.7461 27.2527C27.4688 27.4558 27.1367 27.6101 26.75 27.7156C26.3633 27.821 25.9316 27.8738 25.4551 27.8738C25.0176 27.8738 24.5859 27.8191 24.1602 27.7097C23.7383 27.5964 23.3555 27.4246 23.0117 27.1941C22.668 26.9597 22.3926 26.6609 22.1855 26.2976C21.9824 25.9304 21.8809 25.4949 21.8809 24.991H23.9434C23.9434 25.241 23.9766 25.4519 24.043 25.6238C24.1094 25.7957 24.207 25.9343 24.3359 26.0398C24.4648 26.1414 24.623 26.2156 24.8105 26.2625C24.998 26.3054 25.2129 26.3269 25.4551 26.3269C25.7168 26.3269 25.9277 26.2898 26.0879 26.2156C26.248 26.1375 26.3652 26.0359 26.4395 25.9109C26.5137 25.782 26.5508 25.6414 26.5508 25.489Z" fill="white"/>
</svg>
