<svg width="35" height="44" viewBox="0 0 35 44" fill="none" xmlns="http://www.w3.org/2000/svg">
<path d="M2.8125 0.333984H25.5228L34.7501 9.57586L34.9538 41.8085C34.9608 42.918 34.0633 43.8212 32.9538 43.8212H2.8125C1.70793 43.8212 0.8125 42.9257 0.8125 41.8212V2.33398C0.8125 1.22941 1.70793 0.333984 2.8125 0.333984Z" fill="#0EC5A4"/>
<path d="M25.5176 0.333984V8.56415C25.5176 9.11643 25.9653 9.56415 26.5176 9.56415H34.7477L25.5176 0.333984Z" fill="black" fill-opacity="0.16"/>
<path d="M13.6992 23.321V23.6667C13.6992 24.3191 13.6074 24.905 13.4238 25.4246C13.2441 25.9402 12.9883 26.3816 12.6562 26.7488C12.3242 27.1121 11.9316 27.3914 11.4785 27.5867C11.0254 27.7781 10.5254 27.8738 9.97852 27.8738C9.42773 27.8738 8.92383 27.7781 8.4668 27.5867C8.01367 27.3914 7.61914 27.1121 7.2832 26.7488C6.95117 26.3816 6.69336 25.9402 6.50977 25.4246C6.33008 24.905 6.24023 24.3191 6.24023 23.6667V23.321C6.24023 22.6687 6.33008 22.0828 6.50977 21.5632C6.69336 21.0437 6.94922 20.6023 7.27734 20.239C7.60938 19.8718 8.00195 19.5925 8.45508 19.4011C8.91211 19.2058 9.41602 19.1082 9.9668 19.1082C10.5137 19.1082 11.0137 19.2058 11.4668 19.4011C11.9238 19.5925 12.3184 19.8718 12.6504 20.239C12.9824 20.6023 13.2402 21.0437 13.4238 21.5632C13.6074 22.0828 13.6992 22.6687 13.6992 23.321ZM11.6133 23.6667V23.3093C11.6133 22.8875 11.5762 22.5164 11.502 22.196C11.4316 21.8718 11.3262 21.6003 11.1855 21.3816C11.0449 21.1628 10.8711 20.9988 10.6641 20.8894C10.4609 20.7761 10.2285 20.7195 9.9668 20.7195C9.69336 20.7195 9.45508 20.7761 9.25195 20.8894C9.04883 20.9988 8.87891 21.1628 8.74219 21.3816C8.60547 21.6003 8.50195 21.8718 8.43164 22.196C8.36523 22.5164 8.33203 22.8875 8.33203 23.3093V23.6667C8.33203 24.0847 8.36523 24.4558 8.43164 24.78C8.50195 25.1003 8.60547 25.3718 8.74219 25.5945C8.88281 25.8171 9.05469 25.9851 9.25781 26.0984C9.46484 26.2117 9.70508 26.2683 9.97852 26.2683C10.2402 26.2683 10.4727 26.2117 10.6758 26.0984C10.8789 25.9851 11.0488 25.8171 11.1855 25.5945C11.3262 25.3718 11.4316 25.1003 11.502 24.78C11.5762 24.4558 11.6133 24.0847 11.6133 23.6667ZM17.5371 27.7566H15.6445L15.6562 26.1746H17.5371C17.9277 26.1746 18.2578 26.0808 18.5273 25.8933C18.8008 25.7058 19.0078 25.4265 19.1484 25.0554C19.293 24.6804 19.3652 24.2195 19.3652 23.6726V23.3035C19.3652 22.8933 19.3242 22.5339 19.2422 22.2253C19.1641 21.9128 19.0469 21.6531 18.8906 21.446C18.7344 21.2351 18.5391 21.0769 18.3047 20.9714C18.0742 20.866 17.8086 20.8132 17.5078 20.8132H15.6094V19.2253H17.5078C18.0859 19.2253 18.6152 19.325 19.0957 19.5242C19.5801 19.7195 19.998 20.0007 20.3496 20.3679C20.7051 20.7312 20.9785 21.1628 21.1699 21.6628C21.3652 22.1589 21.4629 22.7097 21.4629 23.3152V23.6726C21.4629 24.2742 21.3652 24.825 21.1699 25.325C20.9785 25.825 20.707 26.2566 20.3555 26.6199C20.0039 26.9832 19.5879 27.2644 19.1074 27.4636C18.6309 27.6589 18.1074 27.7566 17.5371 27.7566ZM16.8223 19.2253V27.7566H14.7656V19.2253H16.8223ZM26.1621 19.2253V27.7566H24.1055V19.2253H26.1621ZM28.7285 19.2253V20.8132H21.5977V19.2253H28.7285Z" fill="white"/>
</svg>
