<svg width="35" height="45" viewBox="0 0 35 45" fill="none" xmlns="http://www.w3.org/2000/svg">
<path d="M2.1875 0.52124H24.8978L34.1251 9.76311L34.3288 41.9958C34.3358 43.1053 33.4383 44.0084 32.3288 44.0084H2.1875C1.08293 44.0084 0.1875 43.113 0.1875 42.0084V2.52124C0.1875 1.41667 1.08293 0.52124 2.1875 0.52124Z" fill="#0EC5A4"/>
<path d="M24.8926 0.52124V8.7514C24.8926 9.30369 25.3403 9.7514 25.8926 9.7514H34.1227L24.8926 0.52124Z" fill="black" fill-opacity="0.16"/>
<path d="M12.8125 23.5083V23.854C12.8125 24.5063 12.7207 25.0923 12.5371 25.6118C12.3574 26.1274 12.1016 26.5688 11.7695 26.936C11.4375 27.2993 11.0449 27.5786 10.5918 27.7739C10.1387 27.9653 9.63867 28.061 9.0918 28.061C8.54102 28.061 8.03711 27.9653 7.58008 27.7739C7.12695 27.5786 6.73242 27.2993 6.39648 26.936C6.06445 26.5688 5.80664 26.1274 5.62305 25.6118C5.44336 25.0923 5.35352 24.5063 5.35352 23.854V23.5083C5.35352 22.856 5.44336 22.27 5.62305 21.7505C5.80664 21.231 6.0625 20.7896 6.39062 20.4263C6.72266 20.0591 7.11523 19.7798 7.56836 19.5884C8.02539 19.3931 8.5293 19.2954 9.08008 19.2954C9.62695 19.2954 10.127 19.3931 10.5801 19.5884C11.0371 19.7798 11.4316 20.0591 11.7637 20.4263C12.0957 20.7896 12.3535 21.231 12.5371 21.7505C12.7207 22.27 12.8125 22.856 12.8125 23.5083ZM10.7266 23.854V23.4966C10.7266 23.0747 10.6895 22.7036 10.6152 22.3833C10.5449 22.0591 10.4395 21.7876 10.2988 21.5688C10.1582 21.3501 9.98438 21.186 9.77734 21.0767C9.57422 20.9634 9.3418 20.9067 9.08008 20.9067C8.80664 20.9067 8.56836 20.9634 8.36523 21.0767C8.16211 21.186 7.99219 21.3501 7.85547 21.5688C7.71875 21.7876 7.61523 22.0591 7.54492 22.3833C7.47852 22.7036 7.44531 23.0747 7.44531 23.4966V23.854C7.44531 24.272 7.47852 24.6431 7.54492 24.9673C7.61523 25.2876 7.71875 25.5591 7.85547 25.7817C7.99609 26.0044 8.16797 26.1724 8.37109 26.2856C8.57812 26.3989 8.81836 26.4556 9.0918 26.4556C9.35352 26.4556 9.58594 26.3989 9.78906 26.2856C9.99219 26.1724 10.1621 26.0044 10.2988 25.7817C10.4395 25.5591 10.5449 25.2876 10.6152 24.9673C10.6895 24.6431 10.7266 24.272 10.7266 23.854ZM20.8574 23.3853V26.8892C20.7129 27.0493 20.4902 27.2212 20.1895 27.4048C19.8926 27.5845 19.5176 27.7388 19.0645 27.8677C18.6113 27.9966 18.0781 28.061 17.4648 28.061C16.8984 28.061 16.3848 27.9712 15.9238 27.7915C15.4629 27.6079 15.0664 27.3403 14.7344 26.9888C14.4062 26.6333 14.1523 26.1997 13.9727 25.688C13.7969 25.1724 13.709 24.5825 13.709 23.9185V23.4438C13.709 22.7798 13.7988 22.1899 13.9785 21.6743C14.1582 21.1587 14.4102 20.7251 14.7344 20.3735C15.0625 20.0181 15.4473 19.7485 15.8887 19.5649C16.334 19.3813 16.8223 19.2896 17.3535 19.2896C18.1387 19.2896 18.7773 19.4146 19.2695 19.6646C19.7617 19.9106 20.1348 20.2524 20.3887 20.6899C20.6426 21.1235 20.7969 21.6255 20.8516 22.1958H18.877C18.8379 21.9146 18.7637 21.6763 18.6543 21.481C18.5488 21.2817 18.3965 21.1313 18.1973 21.0298C17.998 20.9243 17.7402 20.8716 17.4238 20.8716C17.1777 20.8716 16.9531 20.9243 16.75 21.0298C16.5508 21.1353 16.3809 21.2954 16.2402 21.5103C16.0996 21.7212 15.9902 21.9868 15.9121 22.3071C15.8379 22.6274 15.8008 23.0024 15.8008 23.4321V23.9185C15.8008 24.3442 15.8359 24.7173 15.9062 25.0376C15.9805 25.3579 16.0898 25.6255 16.2344 25.8403C16.3828 26.0513 16.5703 26.2114 16.7969 26.3208C17.0273 26.4263 17.2988 26.479 17.6113 26.479C17.8301 26.479 18.0176 26.4614 18.1738 26.4263C18.3301 26.3872 18.459 26.3403 18.5605 26.2856C18.666 26.2271 18.7461 26.1724 18.8008 26.1216V24.7974H17.3711V23.3853H20.8574ZM29.0371 23.3853V26.8892C28.8926 27.0493 28.6699 27.2212 28.3691 27.4048C28.0723 27.5845 27.6973 27.7388 27.2441 27.8677C26.791 27.9966 26.2578 28.061 25.6445 28.061C25.0781 28.061 24.5645 27.9712 24.1035 27.7915C23.6426 27.6079 23.2461 27.3403 22.9141 26.9888C22.5859 26.6333 22.332 26.1997 22.1523 25.688C21.9766 25.1724 21.8887 24.5825 21.8887 23.9185V23.4438C21.8887 22.7798 21.9785 22.1899 22.1582 21.6743C22.3379 21.1587 22.5898 20.7251 22.9141 20.3735C23.2422 20.0181 23.627 19.7485 24.0684 19.5649C24.5137 19.3813 25.002 19.2896 25.5332 19.2896C26.3184 19.2896 26.957 19.4146 27.4492 19.6646C27.9414 19.9106 28.3145 20.2524 28.5684 20.6899C28.8223 21.1235 28.9766 21.6255 29.0312 22.1958H27.0566C27.0176 21.9146 26.9434 21.6763 26.834 21.481C26.7285 21.2817 26.5762 21.1313 26.377 21.0298C26.1777 20.9243 25.9199 20.8716 25.6035 20.8716C25.3574 20.8716 25.1328 20.9243 24.9297 21.0298C24.7305 21.1353 24.5605 21.2954 24.4199 21.5103C24.2793 21.7212 24.1699 21.9868 24.0918 22.3071C24.0176 22.6274 23.9805 23.0024 23.9805 23.4321V23.9185C23.9805 24.3442 24.0156 24.7173 24.0859 25.0376C24.1602 25.3579 24.2695 25.6255 24.4141 25.8403C24.5625 26.0513 24.75 26.2114 24.9766 26.3208C25.207 26.4263 25.4785 26.479 25.791 26.479C26.0098 26.479 26.1973 26.4614 26.3535 26.4263C26.5098 26.3872 26.6387 26.3403 26.7402 26.2856C26.8457 26.2271 26.9258 26.1724 26.9805 26.1216V24.7974H25.5508V23.3853H29.0371Z" fill="white"/>
</svg>
