<svg width="35" height="45" viewBox="0 0 35 45" fill="none" xmlns="http://www.w3.org/2000/svg">
<path d="M2.34375 0.52124H25.0541L34.2814 9.76311L34.485 41.9958C34.492 43.1053 33.5946 44.0084 32.4851 44.0084H2.34375C1.23918 44.0084 0.34375 43.113 0.34375 42.0084V2.52124C0.34375 1.41667 1.23918 0.52124 2.34375 0.52124Z" fill="#0EC5A4"/>
<path d="M25.0488 0.52124V8.7514C25.0488 9.30369 25.4965 9.7514 26.0488 9.7514H34.279L25.0488 0.52124Z" fill="black" fill-opacity="0.16"/>
<path d="M13.834 23.5083V23.854C13.834 24.5063 13.7422 25.0923 13.5586 25.6118C13.3789 26.1274 13.123 26.5688 12.791 26.936C12.459 27.2993 12.0664 27.5786 11.6133 27.7739C11.1602 27.9653 10.6602 28.061 10.1133 28.061C9.5625 28.061 9.05859 27.9653 8.60156 27.7739C8.14844 27.5786 7.75391 27.2993 7.41797 26.936C7.08594 26.5688 6.82812 26.1274 6.64453 25.6118C6.46484 25.0923 6.375 24.5063 6.375 23.854V23.5083C6.375 22.856 6.46484 22.27 6.64453 21.7505C6.82812 21.231 7.08398 20.7896 7.41211 20.4263C7.74414 20.0591 8.13672 19.7798 8.58984 19.5884C9.04688 19.3931 9.55078 19.2954 10.1016 19.2954C10.6484 19.2954 11.1484 19.3931 11.6016 19.5884C12.0586 19.7798 12.4531 20.0591 12.7852 20.4263C13.1172 20.7896 13.375 21.231 13.5586 21.7505C13.7422 22.27 13.834 22.856 13.834 23.5083ZM11.748 23.854V23.4966C11.748 23.0747 11.7109 22.7036 11.6367 22.3833C11.5664 22.0591 11.4609 21.7876 11.3203 21.5688C11.1797 21.3501 11.0059 21.186 10.7988 21.0767C10.5957 20.9634 10.3633 20.9067 10.1016 20.9067C9.82812 20.9067 9.58984 20.9634 9.38672 21.0767C9.18359 21.186 9.01367 21.3501 8.87695 21.5688C8.74023 21.7876 8.63672 22.0591 8.56641 22.3833C8.5 22.7036 8.4668 23.0747 8.4668 23.4966V23.854C8.4668 24.272 8.5 24.6431 8.56641 24.9673C8.63672 25.2876 8.74023 25.5591 8.87695 25.7817C9.01758 26.0044 9.18945 26.1724 9.39258 26.2856C9.59961 26.3989 9.83984 26.4556 10.1133 26.4556C10.375 26.4556 10.6074 26.3989 10.8105 26.2856C11.0137 26.1724 11.1836 26.0044 11.3203 25.7817C11.4609 25.5591 11.5664 25.2876 11.6367 24.9673C11.7109 24.6431 11.748 24.272 11.748 23.854ZM18.5273 19.4126V27.9438H16.4707V19.4126H18.5273ZM21.0938 19.4126V21.0005H13.9629V19.4126H21.0938ZM24.0234 19.4126V27.9438H21.9668V19.4126H24.0234ZM27.3398 22.9634V24.5454H23.4375V22.9634H27.3398ZM27.6738 19.4126V21.0005H23.4375V19.4126H27.6738Z" fill="white"/>
</svg>
