<svg width="35" height="45" viewBox="0 0 35 45" fill="none" xmlns="http://www.w3.org/2000/svg">
<path d="M2.5 0.52124H25.2103L34.4376 9.76311L34.6413 41.9958C34.6483 43.1053 33.7508 44.0084 32.6413 44.0084H2.5C1.39543 44.0084 0.5 43.113 0.5 42.0084V2.52124C0.5 1.41667 1.39543 0.52124 2.5 0.52124Z" fill="#0EC5A4"/>
<path d="M25.2051 0.52124V8.7514C25.2051 9.30369 25.6528 9.7514 26.2051 9.7514H34.4352L25.2051 0.52124Z" fill="black" fill-opacity="0.16"/>
<path d="M9.4668 25.0493H7.3457V23.4614H9.4668C9.75586 23.4614 9.99023 23.4126 10.1699 23.3149C10.3496 23.2173 10.4805 23.0825 10.5625 22.9106C10.6484 22.7349 10.6914 22.5376 10.6914 22.3188C10.6914 22.0845 10.6484 21.8677 10.5625 21.6685C10.4805 21.4692 10.3496 21.3091 10.1699 21.188C9.99023 21.063 9.75586 21.0005 9.4668 21.0005H8.11914V27.9438H6.0625V19.4126H9.4668C10.1504 19.4126 10.7383 19.5376 11.2305 19.7876C11.7266 20.0376 12.1074 20.3813 12.373 20.8188C12.6387 21.2524 12.7715 21.7485 12.7715 22.3071C12.7715 22.8579 12.6387 23.3384 12.373 23.7485C12.1074 24.1587 11.7266 24.479 11.2305 24.7095C10.7383 24.936 10.1504 25.0493 9.4668 25.0493ZM16.6504 27.9438H14.7578L14.7695 26.3618H16.6504C17.041 26.3618 17.3711 26.2681 17.6406 26.0806C17.9141 25.8931 18.1211 25.6138 18.2617 25.2427C18.4062 24.8677 18.4785 24.4067 18.4785 23.8599V23.4907C18.4785 23.0806 18.4375 22.7212 18.3555 22.4126C18.2773 22.1001 18.1602 21.8403 18.0039 21.6333C17.8477 21.4224 17.6523 21.2642 17.418 21.1587C17.1875 21.0532 16.9219 21.0005 16.6211 21.0005H14.7227V19.4126H16.6211C17.1992 19.4126 17.7285 19.5122 18.209 19.7114C18.6934 19.9067 19.1113 20.188 19.4629 20.5552C19.8184 20.9185 20.0918 21.3501 20.2832 21.8501C20.4785 22.3462 20.5762 22.897 20.5762 23.5024V23.8599C20.5762 24.4614 20.4785 25.0122 20.2832 25.5122C20.0918 26.0122 19.8203 26.4438 19.4688 26.8071C19.1172 27.1704 18.7012 27.4517 18.2207 27.6509C17.7441 27.8462 17.2207 27.9438 16.6504 27.9438ZM15.9355 19.4126V27.9438H13.8789V19.4126H15.9355ZM25.1289 24.3169H22.9316L22.9199 22.9692H24.7012C25.0215 22.9692 25.2773 22.9341 25.4688 22.8638C25.6602 22.7896 25.7988 22.6821 25.8848 22.5415C25.9746 22.4009 26.0195 22.2251 26.0195 22.0142C26.0195 21.772 25.9746 21.5767 25.8848 21.4282C25.7949 21.2798 25.6523 21.1724 25.457 21.106C25.2656 21.0356 25.0176 21.0005 24.7129 21.0005H23.7051V27.9438H21.6484V19.4126H24.7129C25.2402 19.4126 25.7109 19.4614 26.125 19.5591C26.5391 19.6528 26.8906 19.7974 27.1797 19.9927C27.4727 20.188 27.6953 20.4341 27.8477 20.731C28 21.0239 28.0762 21.3696 28.0762 21.7681C28.0762 22.1157 28.002 22.4419 27.8535 22.7466C27.7051 23.0513 27.457 23.2993 27.1094 23.4907C26.7656 23.6782 26.2949 23.7759 25.6973 23.7837L25.1289 24.3169ZM25.0469 27.9438H22.4336L23.1367 26.3618H25.0469C25.3281 26.3618 25.5527 26.3188 25.7207 26.2329C25.8926 26.1431 26.0156 26.0259 26.0898 25.8813C26.168 25.7329 26.207 25.5688 26.207 25.3892C26.207 25.1704 26.1699 24.981 26.0957 24.8208C26.0254 24.6606 25.9121 24.5376 25.7559 24.4517C25.5996 24.3618 25.3906 24.3169 25.1289 24.3169H23.4004L23.4121 22.9692H25.4805L25.9609 23.5083C26.5312 23.4849 26.9824 23.5649 27.3145 23.7485C27.6504 23.9321 27.8906 24.1743 28.0352 24.4751C28.1797 24.7759 28.252 25.0903 28.252 25.4185C28.252 25.9771 28.1309 26.4438 27.8887 26.8188C27.6504 27.1938 27.293 27.4751 26.8164 27.6626C26.3398 27.8501 25.75 27.9438 25.0469 27.9438Z" fill="white"/>
</svg>
