<svg width="35" height="45" viewBox="0 0 35 45" fill="none" xmlns="http://www.w3.org/2000/svg">
<path d="M2.03125 0.708252H24.7416L33.9689 9.95013L34.1725 42.1828C34.1795 43.2923 33.2821 44.1954 32.1726 44.1954H2.03125C0.926681 44.1954 0.03125 43.3 0.03125 42.1954V2.70825C0.03125 1.60368 0.926681 0.708252 2.03125 0.708252Z" fill="#0EC5A4"/>
<path d="M24.7363 0.708252V8.93841C24.7363 9.4907 25.184 9.93841 25.7363 9.93841H33.9665L24.7363 0.708252Z" fill="black" fill-opacity="0.16"/>
<path d="M8.92188 25.2366H6.80078V23.6487H8.92188C9.21094 23.6487 9.44531 23.5999 9.625 23.5022C9.80469 23.4045 9.93555 23.2698 10.0176 23.0979C10.1035 22.9221 10.1465 22.7249 10.1465 22.5061C10.1465 22.2717 10.1035 22.0549 10.0176 21.8557C9.93555 21.6565 9.80469 21.4963 9.625 21.3752C9.44531 21.2502 9.21094 21.1877 8.92188 21.1877H7.57422V28.1311H5.51758V19.5999H8.92188C9.60547 19.5999 10.1934 19.7249 10.6855 19.9749C11.1816 20.2249 11.5625 20.5686 11.8281 21.0061C12.0938 21.4397 12.2266 21.9358 12.2266 22.4944C12.2266 23.0452 12.0938 23.5256 11.8281 23.9358C11.5625 24.3459 11.1816 24.6663 10.6855 24.8967C10.1934 25.1233 9.60547 25.2366 8.92188 25.2366ZM15.3906 19.5999V28.1311H13.334V19.5999H15.3906ZM20.4824 19.5999L17.1777 23.9241L15.2441 26.0393L14.8691 24.1526L16.1055 22.2776L17.9453 19.5999H20.4824ZM18.0508 28.1311L15.8477 24.2874L17.4473 23.1096L20.4824 28.1311H18.0508ZM27.8008 23.5725V27.0764C27.6562 27.2366 27.4336 27.4084 27.1328 27.592C26.8359 27.7717 26.4609 27.926 26.0078 28.0549C25.5547 28.1838 25.0215 28.2483 24.4082 28.2483C23.8418 28.2483 23.3281 28.1584 22.8672 27.9788C22.4062 27.7952 22.0098 27.5276 21.6777 27.176C21.3496 26.8206 21.0957 26.387 20.916 25.8752C20.7402 25.3596 20.6523 24.7698 20.6523 24.1057V23.6311C20.6523 22.967 20.7422 22.3772 20.9219 21.8616C21.1016 21.3459 21.3535 20.9124 21.6777 20.5608C22.0059 20.2053 22.3906 19.9358 22.832 19.7522C23.2773 19.5686 23.7656 19.4768 24.2969 19.4768C25.082 19.4768 25.7207 19.6018 26.2129 19.8518C26.7051 20.0979 27.0781 20.4397 27.332 20.8772C27.5859 21.3108 27.7402 21.8127 27.7949 22.3831H25.8203C25.7812 22.1018 25.707 21.8635 25.5977 21.6682C25.4922 21.469 25.3398 21.3186 25.1406 21.217C24.9414 21.1116 24.6836 21.0588 24.3672 21.0588C24.1211 21.0588 23.8965 21.1116 23.6934 21.217C23.4941 21.3225 23.3242 21.4827 23.1836 21.6975C23.043 21.9084 22.9336 22.1741 22.8555 22.4944C22.7812 22.8147 22.7441 23.1897 22.7441 23.6194V24.1057C22.7441 24.5315 22.7793 24.9045 22.8496 25.2249C22.9238 25.5452 23.0332 25.8127 23.1777 26.0276C23.3262 26.2385 23.5137 26.3987 23.7402 26.5081C23.9707 26.6135 24.2422 26.6663 24.5547 26.6663C24.7734 26.6663 24.9609 26.6487 25.1172 26.6135C25.2734 26.5745 25.4023 26.5276 25.5039 26.4729C25.6094 26.4143 25.6895 26.3596 25.7441 26.3088V24.9846H24.3145V23.5725H27.8008Z" fill="white"/>
</svg>
