<svg width="35" height="45" viewBox="0 0 35 45" fill="none" xmlns="http://www.w3.org/2000/svg">
<path d="M2.1875 0.708252H24.8978L34.1251 9.95013L34.3288 42.1828C34.3358 43.2923 33.4383 44.1954 32.3288 44.1954H2.1875C1.08293 44.1954 0.1875 43.3 0.1875 42.1954V2.70825C0.1875 1.60368 1.08293 0.708252 2.1875 0.708252Z" fill="#0EC5A4"/>
<path d="M24.8926 0.708252V8.93841C24.8926 9.4907 25.3403 9.93841 25.8926 9.93841H34.1227L24.8926 0.708252Z" fill="black" fill-opacity="0.16"/>
<path d="M14.1602 25.2366H12.0391V23.6487H14.1602C14.4492 23.6487 14.6836 23.5999 14.8633 23.5022C15.043 23.4045 15.1738 23.2698 15.2559 23.0979C15.3418 22.9221 15.3848 22.7249 15.3848 22.5061C15.3848 22.2717 15.3418 22.0549 15.2559 21.8557C15.1738 21.6565 15.043 21.4963 14.8633 21.3752C14.6836 21.2502 14.4492 21.1877 14.1602 21.1877H12.8125V28.1311H10.7559V19.5999H14.1602C14.8438 19.5999 15.4316 19.7249 15.9238 19.9749C16.4199 20.2249 16.8008 20.5686 17.0664 21.0061C17.332 21.4397 17.4648 21.9358 17.4648 22.4944C17.4648 23.0452 17.332 23.5256 17.0664 23.9358C16.8008 24.3459 16.4199 24.6663 15.9238 24.8967C15.4316 25.1233 14.8438 25.2366 14.1602 25.2366ZM24.209 26.5491V28.1311H19.8965V26.5491H24.209ZM20.6289 19.5999V28.1311H18.5723V19.5999H20.6289Z" fill="white"/>
</svg>
