<svg width="35" height="45" viewBox="0 0 35 45" fill="none" xmlns="http://www.w3.org/2000/svg">
<path d="M2.65625 0.708252H25.3666L34.5939 9.95013L34.7975 42.1828C34.8045 43.2923 33.9071 44.1954 32.7976 44.1954H2.65625C1.55168 44.1954 0.65625 43.3 0.65625 42.1954V2.70825C0.65625 1.60368 1.55168 0.708252 2.65625 0.708252Z" fill="#0EC5A4"/>
<path d="M25.3613 0.708252V8.93841C25.3613 9.4907 25.809 9.93841 26.3613 9.93841H34.5915L25.3613 0.708252Z" fill="black" fill-opacity="0.16"/>
<path d="M9.6875 25.2366H7.56641V23.6487H9.6875C9.97656 23.6487 10.2109 23.5999 10.3906 23.5022C10.5703 23.4045 10.7012 23.2698 10.7832 23.0979C10.8691 22.9221 10.9121 22.7249 10.9121 22.5061C10.9121 22.2717 10.8691 22.0549 10.7832 21.8557C10.7012 21.6565 10.5703 21.4963 10.3906 21.3752C10.2109 21.2502 9.97656 21.1877 9.6875 21.1877H8.33984V28.1311H6.2832V19.5999H9.6875C10.3711 19.5999 10.959 19.7249 11.4512 19.9749C11.9473 20.2249 12.3281 20.5686 12.5938 21.0061C12.8594 21.4397 12.9922 21.9358 12.9922 22.4944C12.9922 23.0452 12.8594 23.5256 12.5938 23.9358C12.3281 24.3459 11.9473 24.6663 11.4512 24.8967C10.959 25.1233 10.3711 25.2366 9.6875 25.2366ZM17.5039 25.2366H15.3828V23.6487H17.5039C17.793 23.6487 18.0273 23.5999 18.207 23.5022C18.3867 23.4045 18.5176 23.2698 18.5996 23.0979C18.6855 22.9221 18.7285 22.7249 18.7285 22.5061C18.7285 22.2717 18.6855 22.0549 18.5996 21.8557C18.5176 21.6565 18.3867 21.4963 18.207 21.3752C18.0273 21.2502 17.793 21.1877 17.5039 21.1877H16.1562V28.1311H14.0996V19.5999H17.5039C18.1875 19.5999 18.7754 19.7249 19.2676 19.9749C19.7637 20.2249 20.1445 20.5686 20.4102 21.0061C20.6758 21.4397 20.8086 21.9358 20.8086 22.4944C20.8086 23.0452 20.6758 23.5256 20.4102 23.9358C20.1445 24.3459 19.7637 24.6663 19.2676 24.8967C18.7754 25.1233 18.1875 25.2366 17.5039 25.2366ZM26.0469 19.5999V28.1311H23.9902V19.5999H26.0469ZM28.6133 19.5999V21.1877H21.4824V19.5999H28.6133Z" fill="white"/>
</svg>
