<svg width="35" height="45" viewBox="0 0 35 45" fill="none" xmlns="http://www.w3.org/2000/svg">
<path d="M2.5 0.895264H25.2103L34.4376 10.1371L34.6413 42.3698C34.6483 43.4793 33.7508 44.3824 32.6413 44.3824H2.5C1.39543 44.3824 0.5 43.487 0.5 42.3824V2.89526C0.5 1.79069 1.39543 0.895264 2.5 0.895264Z" fill="#06437C"/>
<path d="M25.2051 0.895264V9.12542C25.2051 9.67771 25.6528 10.1254 26.2051 10.1254H34.4352L25.2051 0.895264Z" fill="black" fill-opacity="0.16"/>
<path d="M13.457 25.4233H11.3359V23.8354H13.457C13.7461 23.8354 13.9805 23.7866 14.1602 23.689C14.3398 23.5913 14.4707 23.4565 14.5527 23.2847C14.6387 23.1089 14.6816 22.9116 14.6816 22.6929C14.6816 22.4585 14.6387 22.2417 14.5527 22.0425C14.4707 21.8433 14.3398 21.6831 14.1602 21.562C13.9805 21.437 13.7461 21.3745 13.457 21.3745H12.1094V28.3179H10.0527V19.7866H13.457C14.1406 19.7866 14.7285 19.9116 15.2207 20.1616C15.7168 20.4116 16.0977 20.7554 16.3633 21.1929C16.6289 21.6265 16.7617 22.1226 16.7617 22.6812C16.7617 23.2319 16.6289 23.7124 16.3633 24.1226C16.0977 24.5327 15.7168 24.853 15.2207 25.0835C14.7285 25.3101 14.1406 25.4233 13.457 25.4233ZM19.416 19.7866L20.9863 23.4897L22.5625 19.7866H24.7773L22.0352 25.2534V28.3179H19.9434V25.2534L17.1953 19.7866H19.416Z" fill="white"/>
</svg>
