<svg width="35" height="44" viewBox="0 0 35 44" fill="none" xmlns="http://www.w3.org/2000/svg">
<path d="M2.1875 0.0822754H24.8978L34.1251 9.32415L34.3288 41.5568C34.3358 42.6663 33.4383 43.5695 32.3288 43.5695H2.1875C1.08293 43.5695 0.1875 42.674 0.1875 41.5695V2.08228C0.1875 0.977706 1.08293 0.0822754 2.1875 0.0822754Z" fill="#06437C"/>
<path d="M24.8926 0.0822754V8.31244C24.8926 8.86472 25.3403 9.31244 25.8926 9.31244H34.1227L24.8926 0.0822754Z" fill="black" fill-opacity="0.16"/>
<path d="M5.49805 18.9736H8.85547C9.51172 18.9736 10.082 19.0713 10.5664 19.2666C11.0508 19.4619 11.4238 19.751 11.6855 20.1338C11.9512 20.5166 12.084 20.9893 12.084 21.5518C12.084 22.04 12.0078 22.4482 11.8555 22.7764C11.7031 23.1045 11.4902 23.376 11.2168 23.5908C10.9473 23.8018 10.6328 23.9756 10.2734 24.1123L9.59961 24.4932H6.78125L6.76953 22.9053H8.85547C9.11719 22.9053 9.33398 22.8584 9.50586 22.7646C9.67773 22.6709 9.80664 22.5381 9.89258 22.3662C9.98242 22.1904 10.0273 21.9814 10.0273 21.7393C10.0273 21.4932 9.98242 21.2822 9.89258 21.1064C9.80273 20.9307 9.66992 20.7959 9.49414 20.7021C9.32227 20.6084 9.10938 20.5615 8.85547 20.5615H7.55469V27.5049H5.49805V18.9736ZM10.168 27.5049L8.28125 23.7314L10.4609 23.7197L12.3711 27.417V27.5049H10.168ZM16.9414 20.7666L14.8613 27.5049H12.6523L15.7871 18.9736H17.1875L16.9414 20.7666ZM18.6641 27.5049L16.5781 20.7666L16.3086 18.9736H17.7266L20.8789 27.5049H18.6641ZM18.582 24.3232V25.9111H14.2051V24.3232H18.582ZM21.5059 18.9736H24.8633C25.5195 18.9736 26.0898 19.0713 26.5742 19.2666C27.0586 19.4619 27.4316 19.751 27.6934 20.1338C27.959 20.5166 28.0918 20.9893 28.0918 21.5518C28.0918 22.04 28.0156 22.4482 27.8633 22.7764C27.7109 23.1045 27.498 23.376 27.2246 23.5908C26.9551 23.8018 26.6406 23.9756 26.2812 24.1123L25.6074 24.4932H22.7891L22.7773 22.9053H24.8633C25.125 22.9053 25.3418 22.8584 25.5137 22.7646C25.6855 22.6709 25.8145 22.5381 25.9004 22.3662C25.9902 22.1904 26.0352 21.9814 26.0352 21.7393C26.0352 21.4932 25.9902 21.2822 25.9004 21.1064C25.8105 20.9307 25.6777 20.7959 25.502 20.7021C25.3301 20.6084 25.1172 20.5615 24.8633 20.5615H23.5625V27.5049H21.5059V18.9736ZM26.1758 27.5049L24.2891 23.7314L26.4688 23.7197L28.3789 27.417V27.5049H26.1758Z" fill="white"/>
</svg>
