<svg width="35" height="44" viewBox="0 0 35 44" fill="none" xmlns="http://www.w3.org/2000/svg">
<path d="M2.34375 0.0822754H25.0541L34.2814 9.32415L34.485 41.5568C34.492 42.6663 33.5946 43.5695 32.4851 43.5695H2.34375C1.23918 43.5695 0.34375 42.674 0.34375 41.5695V2.08228C0.34375 0.977706 1.23918 0.0822754 2.34375 0.0822754Z" fill="#06437C"/>
<path d="M25.0488 0.0822754V8.31244C25.0488 8.86472 25.4965 9.31244 26.0488 9.31244H34.279L25.0488 0.0822754Z" fill="black" fill-opacity="0.16"/>
<path d="M4.9707 18.9736H8.32812C8.98438 18.9736 9.55469 19.0713 10.0391 19.2666C10.5234 19.4619 10.8965 19.751 11.1582 20.1338C11.4238 20.5166 11.5566 20.9893 11.5566 21.5518C11.5566 22.04 11.4805 22.4482 11.3281 22.7764C11.1758 23.1045 10.9629 23.376 10.6895 23.5908C10.4199 23.8018 10.1055 23.9756 9.74609 24.1123L9.07227 24.4932H6.25391L6.24219 22.9053H8.32812C8.58984 22.9053 8.80664 22.8584 8.97852 22.7646C9.15039 22.6709 9.2793 22.5381 9.36523 22.3662C9.45508 22.1904 9.5 21.9814 9.5 21.7393C9.5 21.4932 9.45508 21.2822 9.36523 21.1064C9.27539 20.9307 9.14258 20.7959 8.9668 20.7021C8.79492 20.6084 8.58203 20.5615 8.32812 20.5615H7.02734V27.5049H4.9707V18.9736ZM9.64062 27.5049L7.75391 23.7314L9.93359 23.7197L11.8438 27.417V27.5049H9.64062ZM16.4141 20.7666L14.334 27.5049H12.125L15.2598 18.9736H16.6602L16.4141 20.7666ZM18.1367 27.5049L16.0508 20.7666L15.7812 18.9736H17.1992L20.3516 27.5049H18.1367ZM18.0547 24.3232V25.9111H13.6777V24.3232H18.0547ZM22.7129 26.7314L24.4121 18.9736H25.4258L25.9766 19.6357L24.166 27.5049H23.0469L22.7129 26.7314ZM22.2617 18.9736L23.6973 26.79L23.3281 27.5049H22.0332L20.2227 18.9736H22.2617ZM26.9082 26.749L28.332 18.9736H30.3652L28.5547 27.5049H27.2656L26.9082 26.749ZM26.1582 18.9736L27.8984 26.7783L27.5469 27.5049H26.4277L24.5762 19.624L25.1504 18.9736H26.1582Z" fill="white"/>
</svg>
