<svg width="35" height="44" viewBox="0 0 35 44" fill="none" xmlns="http://www.w3.org/2000/svg">
<path d="M2.5 0.0822754H25.2103L34.4376 9.32415L34.6413 41.5568C34.6483 42.6663 33.7508 43.5695 32.6413 43.5695H2.5C1.39543 43.5695 0.5 42.674 0.5 41.5695V2.08228C0.5 0.977706 1.39543 0.0822754 2.5 0.0822754Z" fill="#06437C"/>
<path d="M25.2051 0.0822754V8.31244C25.2051 8.86472 25.6528 9.31244 26.2051 9.31244H34.4352L25.2051 0.0822754Z" fill="black" fill-opacity="0.16"/>
<path d="M9.05273 18.9736H12.4102C13.0664 18.9736 13.6367 19.0713 14.1211 19.2666C14.6055 19.4619 14.9785 19.751 15.2402 20.1338C15.5059 20.5166 15.6387 20.9893 15.6387 21.5518C15.6387 22.04 15.5625 22.4482 15.4102 22.7764C15.2578 23.1045 15.0449 23.376 14.7715 23.5908C14.502 23.8018 14.1875 23.9756 13.8281 24.1123L13.1543 24.4932H10.3359L10.3242 22.9053H12.4102C12.6719 22.9053 12.8887 22.8584 13.0605 22.7646C13.2324 22.6709 13.3613 22.5381 13.4473 22.3662C13.5371 22.1904 13.582 21.9814 13.582 21.7393C13.582 21.4932 13.5371 21.2822 13.4473 21.1064C13.3574 20.9307 13.2246 20.7959 13.0488 20.7021C12.877 20.6084 12.6641 20.5615 12.4102 20.5615H11.1094V27.5049H9.05273V18.9736ZM13.7227 27.5049L11.8359 23.7314L14.0156 23.7197L15.9258 27.417V27.5049H13.7227ZM17.9004 18.9736H19.5762L21.4805 24.9092L23.3848 18.9736H25.0605L22.1602 27.5049H20.8008L17.9004 18.9736ZM16.8809 18.9736H18.6152L18.9375 25.5127V27.5049H16.8809V18.9736ZM24.3457 18.9736H26.0859V27.5049H24.0234V25.5127L24.3457 18.9736Z" fill="white"/>
</svg>
