<svg width="35" height="44" viewBox="0 0 35 44" fill="none" xmlns="http://www.w3.org/2000/svg">
<path d="M2.8125 0.0822754H25.5228L34.7501 9.32415L34.9538 41.5568C34.9608 42.6663 34.0633 43.5695 32.9538 43.5695H2.8125C1.70793 43.5695 0.8125 42.674 0.8125 41.5695V2.08228C0.8125 0.977706 1.70793 0.0822754 2.8125 0.0822754Z" fill="#06437C"/>
<path d="M25.5176 0.0822754V8.31244C25.5176 8.86472 25.9653 9.31244 26.5176 9.31244H34.7477L25.5176 0.0822754Z" fill="black" fill-opacity="0.16"/>
<path d="M5.45703 18.9736H8.81445C9.4707 18.9736 10.041 19.0713 10.5254 19.2666C11.0098 19.4619 11.3828 19.751 11.6445 20.1338C11.9102 20.5166 12.043 20.9893 12.043 21.5518C12.043 22.04 11.9668 22.4482 11.8145 22.7764C11.6621 23.1045 11.4492 23.376 11.1758 23.5908C10.9062 23.8018 10.5918 23.9756 10.2324 24.1123L9.55859 24.4932H6.74023L6.72852 22.9053H8.81445C9.07617 22.9053 9.29297 22.8584 9.46484 22.7646C9.63672 22.6709 9.76562 22.5381 9.85156 22.3662C9.94141 22.1904 9.98633 21.9814 9.98633 21.7393C9.98633 21.4932 9.94141 21.2822 9.85156 21.1064C9.76172 20.9307 9.62891 20.7959 9.45312 20.7021C9.28125 20.6084 9.06836 20.5615 8.81445 20.5615H7.51367V27.5049H5.45703V18.9736ZM10.127 27.5049L8.24023 23.7314L10.4199 23.7197L12.3301 27.417V27.5049H10.127ZM16.6895 24.6104H14.5684V23.0225H16.6895C16.9785 23.0225 17.2129 22.9736 17.3926 22.876C17.5723 22.7783 17.7031 22.6436 17.7852 22.4717C17.8711 22.2959 17.9141 22.0986 17.9141 21.8799C17.9141 21.6455 17.8711 21.4287 17.7852 21.2295C17.7031 21.0303 17.5723 20.8701 17.3926 20.749C17.2129 20.624 16.9785 20.5615 16.6895 20.5615H15.3418V27.5049H13.2852V18.9736H16.6895C17.373 18.9736 17.9609 19.0986 18.4531 19.3486C18.9492 19.5986 19.3301 19.9424 19.5957 20.3799C19.8613 20.8135 19.9941 21.3096 19.9941 21.8682C19.9941 22.4189 19.8613 22.8994 19.5957 23.3096C19.3301 23.7197 18.9492 24.04 18.4531 24.2705C17.9609 24.4971 17.373 24.6104 16.6895 24.6104ZM22.1211 18.9736H23.7969L25.7012 24.9092L27.6055 18.9736H29.2812L26.3809 27.5049H25.0215L22.1211 18.9736ZM21.1016 18.9736H22.8359L23.1582 25.5127V27.5049H21.1016V18.9736ZM28.5664 18.9736H30.3066V27.5049H28.2441V25.5127L28.5664 18.9736Z" fill="white"/>
</svg>
