<svg width="35" height="44" viewBox="0 0 35 44" fill="none" xmlns="http://www.w3.org/2000/svg">
<path d="M2.03125 0.269531H24.7416L33.9689 9.51141L34.1725 41.7441C34.1795 42.8536 33.2821 43.7567 32.1726 43.7567H2.03125C0.926681 43.7567 0.03125 42.8613 0.03125 41.7567V2.26953C0.03125 1.16496 0.926681 0.269531 2.03125 0.269531Z" fill="#06437C"/>
<path d="M24.7363 0.269531V8.49969C24.7363 9.05198 25.184 9.49969 25.7363 9.49969H33.9665L24.7363 0.269531Z" fill="black" fill-opacity="0.16"/>
<path d="M6.33398 19.1609H9.69141C10.3477 19.1609 10.918 19.2585 11.4023 19.4539C11.8867 19.6492 12.2598 19.9382 12.5215 20.321C12.7871 20.7039 12.9199 21.1765 12.9199 21.739C12.9199 22.2273 12.8438 22.6355 12.6914 22.9636C12.5391 23.2917 12.3262 23.5632 12.0527 23.7781C11.7832 23.989 11.4688 24.1628 11.1094 24.2996L10.4355 24.6804H7.61719L7.60547 23.0925H9.69141C9.95312 23.0925 10.1699 23.0457 10.3418 22.9519C10.5137 22.8582 10.6426 22.7253 10.7285 22.5535C10.8184 22.3777 10.8633 22.1687 10.8633 21.9265C10.8633 21.6804 10.8184 21.4695 10.7285 21.2937C10.6387 21.1179 10.5059 20.9832 10.3301 20.8894C10.1582 20.7957 9.94531 20.7488 9.69141 20.7488H8.39062V27.6921H6.33398V19.1609ZM11.0039 27.6921L9.11719 23.9187L11.2969 23.907L13.207 27.6042V27.6921H11.0039ZM18.5566 25.4246C18.5566 25.2917 18.5371 25.1726 18.498 25.0671C18.459 24.9578 18.3867 24.8562 18.2812 24.7625C18.1758 24.6687 18.0234 24.575 17.8242 24.4812C17.6289 24.3835 17.3711 24.282 17.0508 24.1765C16.6758 24.0515 16.3145 23.9109 15.9668 23.7546C15.6191 23.5945 15.3086 23.4089 15.0352 23.198C14.7617 22.9832 14.5449 22.7332 14.3848 22.448C14.2246 22.1589 14.1445 21.823 14.1445 21.4402C14.1445 21.073 14.2266 20.7429 14.3906 20.45C14.5547 20.1531 14.7832 19.9011 15.0762 19.6941C15.373 19.4832 15.7207 19.323 16.1191 19.2136C16.5176 19.1003 16.9531 19.0437 17.4258 19.0437C18.0508 19.0437 18.6016 19.1531 19.0781 19.3718C19.5586 19.5867 19.9336 19.8933 20.2031 20.2917C20.4766 20.6863 20.6133 21.1531 20.6133 21.6921H18.5684C18.5684 21.4773 18.5234 21.2878 18.4336 21.1238C18.3477 20.9597 18.2168 20.8308 18.041 20.7371C17.8652 20.6433 17.6445 20.5964 17.3789 20.5964C17.1211 20.5964 16.9043 20.6355 16.7285 20.7136C16.5527 20.7917 16.4199 20.8972 16.3301 21.03C16.2402 21.1589 16.1953 21.3015 16.1953 21.4578C16.1953 21.5867 16.2305 21.7039 16.3008 21.8093C16.375 21.9109 16.4785 22.0066 16.6113 22.0964C16.748 22.1863 16.9121 22.2722 17.1035 22.3542C17.2988 22.4363 17.5176 22.5164 17.7598 22.5945C18.2129 22.739 18.6152 22.9011 18.9668 23.0808C19.3223 23.2566 19.6211 23.4578 19.8633 23.6843C20.1094 23.907 20.2949 24.1609 20.4199 24.446C20.5488 24.7312 20.6133 25.0535 20.6133 25.4128C20.6133 25.7957 20.5391 26.1355 20.3906 26.4324C20.2422 26.7292 20.0293 26.9812 19.752 27.1882C19.4746 27.3914 19.1426 27.5457 18.7559 27.6511C18.3691 27.7566 17.9375 27.8093 17.4609 27.8093C17.0234 27.8093 16.5918 27.7546 16.166 27.6453C15.7441 27.532 15.3613 27.3601 15.0176 27.1296C14.6738 26.8953 14.3984 26.5964 14.1914 26.2332C13.9883 25.866 13.8867 25.4304 13.8867 24.9265H15.9492C15.9492 25.1765 15.9824 25.3875 16.0488 25.5593C16.1152 25.7312 16.2129 25.8699 16.3418 25.9753C16.4707 26.0769 16.6289 26.1511 16.8164 26.198C17.0039 26.241 17.2188 26.2625 17.4609 26.2625C17.7227 26.2625 17.9336 26.2253 18.0938 26.1511C18.2539 26.073 18.3711 25.9714 18.4453 25.8464C18.5195 25.7175 18.5566 25.5769 18.5566 25.4246ZM26.0684 25.4246C26.0684 25.2917 26.0488 25.1726 26.0098 25.0671C25.9707 24.9578 25.8984 24.8562 25.793 24.7625C25.6875 24.6687 25.5352 24.575 25.3359 24.4812C25.1406 24.3835 24.8828 24.282 24.5625 24.1765C24.1875 24.0515 23.8262 23.9109 23.4785 23.7546C23.1309 23.5945 22.8203 23.4089 22.5469 23.198C22.2734 22.9832 22.0566 22.7332 21.8965 22.448C21.7363 22.1589 21.6562 21.823 21.6562 21.4402C21.6562 21.073 21.7383 20.7429 21.9023 20.45C22.0664 20.1531 22.2949 19.9011 22.5879 19.6941C22.8848 19.4832 23.2324 19.323 23.6309 19.2136C24.0293 19.1003 24.4648 19.0437 24.9375 19.0437C25.5625 19.0437 26.1133 19.1531 26.5898 19.3718C27.0703 19.5867 27.4453 19.8933 27.7148 20.2917C27.9883 20.6863 28.125 21.1531 28.125 21.6921H26.0801C26.0801 21.4773 26.0352 21.2878 25.9453 21.1238C25.8594 20.9597 25.7285 20.8308 25.5527 20.7371C25.377 20.6433 25.1562 20.5964 24.8906 20.5964C24.6328 20.5964 24.416 20.6355 24.2402 20.7136C24.0645 20.7917 23.9316 20.8972 23.8418 21.03C23.752 21.1589 23.707 21.3015 23.707 21.4578C23.707 21.5867 23.7422 21.7039 23.8125 21.8093C23.8867 21.9109 23.9902 22.0066 24.123 22.0964C24.2598 22.1863 24.4238 22.2722 24.6152 22.3542C24.8105 22.4363 25.0293 22.5164 25.2715 22.5945C25.7246 22.739 26.127 22.9011 26.4785 23.0808C26.834 23.2566 27.1328 23.4578 27.375 23.6843C27.6211 23.907 27.8066 24.1609 27.9316 24.446C28.0605 24.7312 28.125 25.0535 28.125 25.4128C28.125 25.7957 28.0508 26.1355 27.9023 26.4324C27.7539 26.7292 27.541 26.9812 27.2637 27.1882C26.9863 27.3914 26.6543 27.5457 26.2676 27.6511C25.8809 27.7566 25.4492 27.8093 24.9727 27.8093C24.5352 27.8093 24.1035 27.7546 23.6777 27.6453C23.2559 27.532 22.873 27.3601 22.5293 27.1296C22.1855 26.8953 21.9102 26.5964 21.7031 26.2332C21.5 25.866 21.3984 25.4304 21.3984 24.9265H23.4609C23.4609 25.1765 23.4941 25.3875 23.5605 25.5593C23.627 25.7312 23.7246 25.8699 23.8535 25.9753C23.9824 26.0769 24.1406 26.1511 24.3281 26.198C24.5156 26.241 24.7305 26.2625 24.9727 26.2625C25.2344 26.2625 25.4453 26.2253 25.6055 26.1511C25.7656 26.073 25.8828 25.9714 25.957 25.8464C26.0312 25.7175 26.0684 25.5769 26.0684 25.4246Z" fill="white"/>
</svg>
