<svg width="35" height="44" viewBox="0 0 35 44" fill="none" xmlns="http://www.w3.org/2000/svg">
<path d="M2.34375 0.269531H25.0541L34.2814 9.51141L34.485 41.7441C34.492 42.8536 33.5946 43.7567 32.4851 43.7567H2.34375C1.23918 43.7567 0.34375 42.8613 0.34375 41.7567V2.26953C0.34375 1.16496 1.23918 0.269531 2.34375 0.269531Z" fill="#06437C"/>
<path d="M25.0488 0.269531V8.49969C25.0488 9.05198 25.4965 9.49969 26.0488 9.49969H34.279L25.0488 0.269531Z" fill="black" fill-opacity="0.16"/>
<path d="M10.3828 25.4246C10.3828 25.2917 10.3633 25.1726 10.3242 25.0671C10.2852 24.9578 10.2129 24.8562 10.1074 24.7625C10.002 24.6687 9.84961 24.575 9.65039 24.4812C9.45508 24.3835 9.19727 24.282 8.87695 24.1765C8.50195 24.0515 8.14062 23.9109 7.79297 23.7546C7.44531 23.5945 7.13477 23.4089 6.86133 23.198C6.58789 22.9832 6.37109 22.7332 6.21094 22.448C6.05078 22.1589 5.9707 21.823 5.9707 21.4402C5.9707 21.073 6.05273 20.7429 6.2168 20.45C6.38086 20.1531 6.60938 19.9011 6.90234 19.6941C7.19922 19.4832 7.54688 19.323 7.94531 19.2136C8.34375 19.1003 8.7793 19.0437 9.25195 19.0437C9.87695 19.0437 10.4277 19.1531 10.9043 19.3718C11.3848 19.5867 11.7598 19.8933 12.0293 20.2917C12.3027 20.6863 12.4395 21.1531 12.4395 21.6921H10.3945C10.3945 21.4773 10.3496 21.2878 10.2598 21.1238C10.1738 20.9597 10.043 20.8308 9.86719 20.7371C9.69141 20.6433 9.4707 20.5964 9.20508 20.5964C8.94727 20.5964 8.73047 20.6355 8.55469 20.7136C8.37891 20.7917 8.24609 20.8972 8.15625 21.03C8.06641 21.1589 8.02148 21.3015 8.02148 21.4578C8.02148 21.5867 8.05664 21.7039 8.12695 21.8093C8.20117 21.9109 8.30469 22.0066 8.4375 22.0964C8.57422 22.1863 8.73828 22.2722 8.92969 22.3542C9.125 22.4363 9.34375 22.5164 9.58594 22.5945C10.0391 22.739 10.4414 22.9011 10.793 23.0808C11.1484 23.2566 11.4473 23.4578 11.6895 23.6843C11.9355 23.907 12.1211 24.1609 12.2461 24.446C12.375 24.7312 12.4395 25.0535 12.4395 25.4128C12.4395 25.7957 12.3652 26.1355 12.2168 26.4324C12.0684 26.7292 11.8555 26.9812 11.5781 27.1882C11.3008 27.3914 10.9688 27.5457 10.582 27.6511C10.1953 27.7566 9.76367 27.8093 9.28711 27.8093C8.84961 27.8093 8.41797 27.7546 7.99219 27.6453C7.57031 27.532 7.1875 27.3601 6.84375 27.1296C6.5 26.8953 6.22461 26.5964 6.01758 26.2332C5.81445 25.866 5.71289 25.4304 5.71289 24.9265H7.77539C7.77539 25.1765 7.80859 25.3875 7.875 25.5593C7.94141 25.7312 8.03906 25.8699 8.16797 25.9753C8.29688 26.0769 8.45508 26.1511 8.64258 26.198C8.83008 26.241 9.04492 26.2625 9.28711 26.2625C9.54883 26.2625 9.75977 26.2253 9.91992 26.1511C10.0801 26.073 10.1973 25.9714 10.2715 25.8464C10.3457 25.7175 10.3828 25.5769 10.3828 25.4246ZM17.1152 20.9539L15.0352 27.6921H12.8262L15.9609 19.1609H17.3613L17.1152 20.9539ZM18.8379 27.6921L16.752 20.9539L16.4824 19.1609H17.9004L21.0527 27.6921H18.8379ZM18.7559 24.5105V26.0984H14.3789V24.5105H18.7559ZM24.4512 25.6824L26.2266 19.1609H28.5293L25.6523 27.6921H24.1641L24.4512 25.6824ZM22.8398 19.1609L24.6152 25.6824L24.9141 27.6921H23.4082L20.5488 19.1609H22.8398Z" fill="white"/>
</svg>
