<svg width="35" height="44" viewBox="0 0 35 44" fill="none" xmlns="http://www.w3.org/2000/svg">
<path d="M2.65625 0.269531H25.3666L34.5939 9.51141L34.7975 41.7441C34.8045 42.8536 33.9071 43.7567 32.7976 43.7567H2.65625C1.55168 43.7567 0.65625 42.8613 0.65625 41.7567V2.26953C0.65625 1.16496 1.55168 0.269531 2.65625 0.269531Z" fill="#06437C"/>
<path d="M25.3613 0.269531V8.49969C25.3613 9.05198 25.809 9.49969 26.3613 9.49969H34.5915L25.3613 0.269531Z" fill="black" fill-opacity="0.16"/>
<path d="M11.6289 25.4246C11.6289 25.2917 11.6094 25.1726 11.5703 25.0671C11.5312 24.9578 11.459 24.8562 11.3535 24.7625C11.248 24.6687 11.0957 24.575 10.8965 24.4812C10.7012 24.3835 10.4434 24.282 10.123 24.1765C9.74805 24.0515 9.38672 23.9109 9.03906 23.7546C8.69141 23.5945 8.38086 23.4089 8.10742 23.198C7.83398 22.9832 7.61719 22.7332 7.45703 22.448C7.29688 22.1589 7.2168 21.823 7.2168 21.4402C7.2168 21.073 7.29883 20.7429 7.46289 20.45C7.62695 20.1531 7.85547 19.9011 8.14844 19.6941C8.44531 19.4832 8.79297 19.323 9.19141 19.2136C9.58984 19.1003 10.0254 19.0437 10.498 19.0437C11.123 19.0437 11.6738 19.1531 12.1504 19.3718C12.6309 19.5867 13.0059 19.8933 13.2754 20.2917C13.5488 20.6863 13.6855 21.1531 13.6855 21.6921H11.6406C11.6406 21.4773 11.5957 21.2878 11.5059 21.1238C11.4199 20.9597 11.2891 20.8308 11.1133 20.7371C10.9375 20.6433 10.7168 20.5964 10.4512 20.5964C10.1934 20.5964 9.97656 20.6355 9.80078 20.7136C9.625 20.7917 9.49219 20.8972 9.40234 21.03C9.3125 21.1589 9.26758 21.3015 9.26758 21.4578C9.26758 21.5867 9.30273 21.7039 9.37305 21.8093C9.44727 21.9109 9.55078 22.0066 9.68359 22.0964C9.82031 22.1863 9.98438 22.2722 10.1758 22.3542C10.3711 22.4363 10.5898 22.5164 10.832 22.5945C11.2852 22.739 11.6875 22.9011 12.0391 23.0808C12.3945 23.2566 12.6934 23.4578 12.9355 23.6843C13.1816 23.907 13.3672 24.1609 13.4922 24.446C13.6211 24.7312 13.6855 25.0535 13.6855 25.4128C13.6855 25.7957 13.6113 26.1355 13.4629 26.4324C13.3145 26.7292 13.1016 26.9812 12.8242 27.1882C12.5469 27.3914 12.2148 27.5457 11.8281 27.6511C11.4414 27.7566 11.0098 27.8093 10.5332 27.8093C10.0957 27.8093 9.66406 27.7546 9.23828 27.6453C8.81641 27.532 8.43359 27.3601 8.08984 27.1296C7.74609 26.8953 7.4707 26.5964 7.26367 26.2332C7.06055 25.866 6.95898 25.4304 6.95898 24.9265H9.02148C9.02148 25.1765 9.05469 25.3875 9.12109 25.5593C9.1875 25.7312 9.28516 25.8699 9.41406 25.9753C9.54297 26.0769 9.70117 26.1511 9.88867 26.198C10.0762 26.241 10.291 26.2625 10.5332 26.2625C10.7949 26.2625 11.0059 26.2253 11.166 26.1511C11.3262 26.073 11.4434 25.9714 11.5176 25.8464C11.5918 25.7175 11.6289 25.5769 11.6289 25.4246ZM19.5039 26.2859L21.8828 28.1726L20.6055 29.2507L18.2676 27.364L19.5039 26.2859ZM21.9824 23.2566V23.6023C21.9824 24.2546 21.8906 24.8406 21.707 25.3601C21.5273 25.8757 21.2695 26.3171 20.9336 26.6843C20.6016 27.0476 20.209 27.3269 19.7559 27.5222C19.3027 27.7136 18.8027 27.8093 18.2559 27.8093C17.7051 27.8093 17.2012 27.7136 16.7441 27.5222C16.291 27.3269 15.8965 27.0476 15.5605 26.6843C15.2285 26.3171 14.9707 25.8757 14.7871 25.3601C14.6074 24.8406 14.5176 24.2546 14.5176 23.6023V23.2566C14.5176 22.6042 14.6074 22.0183 14.7871 21.4988C14.9707 20.9792 15.2266 20.5378 15.5547 20.1746C15.8867 19.8074 16.2793 19.5281 16.7324 19.3367C17.1895 19.1414 17.6934 19.0437 18.2441 19.0437C18.791 19.0437 19.291 19.1414 19.7441 19.3367C20.2012 19.5281 20.5957 19.8074 20.9277 20.1746C21.2637 20.5378 21.5234 20.9792 21.707 21.4988C21.8906 22.0183 21.9824 22.6042 21.9824 23.2566ZM19.8906 23.6023V23.2449C19.8906 22.823 19.8535 22.4519 19.7793 22.1316C19.709 21.8074 19.6035 21.5359 19.4629 21.3171C19.3223 21.0984 19.1484 20.9343 18.9414 20.825C18.7383 20.7117 18.5059 20.655 18.2441 20.655C17.9707 20.655 17.7324 20.7117 17.5293 20.825C17.3262 20.9343 17.1562 21.0984 17.0195 21.3171C16.8828 21.5359 16.7793 21.8074 16.709 22.1316C16.6426 22.4519 16.6094 22.823 16.6094 23.2449V23.6023C16.6094 24.0203 16.6426 24.3914 16.709 24.7156C16.7793 25.0359 16.8828 25.3074 17.0195 25.53C17.1602 25.7527 17.332 25.9207 17.5352 26.0339C17.7422 26.1472 17.9824 26.2039 18.2559 26.2039C18.5176 26.2039 18.75 26.1472 18.9531 26.0339C19.1562 25.9207 19.3262 25.7527 19.4629 25.53C19.6035 25.3074 19.709 25.0359 19.7793 24.7156C19.8535 24.3914 19.8906 24.0203 19.8906 23.6023ZM28.668 26.1101V27.6921H24.3555V26.1101H28.668ZM25.0879 19.1609V27.6921H23.0312V19.1609H25.0879Z" fill="white"/>
</svg>
