<svg width="35" height="44" viewBox="0 0 35 44" fill="none" xmlns="http://www.w3.org/2000/svg">
<path d="M2.8125 0.269531H25.5228L34.7501 9.51141L34.9538 41.7441C34.9608 42.8536 34.0633 43.7567 32.9538 43.7567H2.8125C1.70793 43.7567 0.8125 42.8613 0.8125 41.7567V2.26953C0.8125 1.16496 1.70793 0.269531 2.8125 0.269531Z" fill="#06437C"/>
<path d="M25.5176 0.269531V8.49969C25.5176 9.05198 25.9653 9.49969 26.5176 9.49969H34.7477L25.5176 0.269531Z" fill="black" fill-opacity="0.16"/>
<path d="M11.627 25.4246C11.627 25.2917 11.6074 25.1726 11.5684 25.0671C11.5293 24.9578 11.457 24.8562 11.3516 24.7625C11.2461 24.6687 11.0938 24.575 10.8945 24.4812C10.6992 24.3835 10.4414 24.282 10.1211 24.1765C9.74609 24.0515 9.38477 23.9109 9.03711 23.7546C8.68945 23.5945 8.37891 23.4089 8.10547 23.198C7.83203 22.9832 7.61523 22.7332 7.45508 22.448C7.29492 22.1589 7.21484 21.823 7.21484 21.4402C7.21484 21.073 7.29688 20.7429 7.46094 20.45C7.625 20.1531 7.85352 19.9011 8.14648 19.6941C8.44336 19.4832 8.79102 19.323 9.18945 19.2136C9.58789 19.1003 10.0234 19.0437 10.4961 19.0437C11.1211 19.0437 11.6719 19.1531 12.1484 19.3718C12.6289 19.5867 13.0039 19.8933 13.2734 20.2917C13.5469 20.6863 13.6836 21.1531 13.6836 21.6921H11.6387C11.6387 21.4773 11.5938 21.2878 11.5039 21.1238C11.418 20.9597 11.2871 20.8308 11.1113 20.7371C10.9355 20.6433 10.7148 20.5964 10.4492 20.5964C10.1914 20.5964 9.97461 20.6355 9.79883 20.7136C9.62305 20.7917 9.49023 20.8972 9.40039 21.03C9.31055 21.1589 9.26562 21.3015 9.26562 21.4578C9.26562 21.5867 9.30078 21.7039 9.37109 21.8093C9.44531 21.9109 9.54883 22.0066 9.68164 22.0964C9.81836 22.1863 9.98242 22.2722 10.1738 22.3542C10.3691 22.4363 10.5879 22.5164 10.8301 22.5945C11.2832 22.739 11.6855 22.9011 12.0371 23.0808C12.3926 23.2566 12.6914 23.4578 12.9336 23.6843C13.1797 23.907 13.3652 24.1609 13.4902 24.446C13.6191 24.7312 13.6836 25.0535 13.6836 25.4128C13.6836 25.7957 13.6094 26.1355 13.4609 26.4324C13.3125 26.7292 13.0996 26.9812 12.8223 27.1882C12.5449 27.3914 12.2129 27.5457 11.8262 27.6511C11.4395 27.7566 11.0078 27.8093 10.5312 27.8093C10.0938 27.8093 9.66211 27.7546 9.23633 27.6453C8.81445 27.532 8.43164 27.3601 8.08789 27.1296C7.74414 26.8953 7.46875 26.5964 7.26172 26.2332C7.05859 25.866 6.95703 25.4304 6.95703 24.9265H9.01953C9.01953 25.1765 9.05273 25.3875 9.11914 25.5593C9.18555 25.7312 9.2832 25.8699 9.41211 25.9753C9.54102 26.0769 9.69922 26.1511 9.88672 26.198C10.0742 26.241 10.2891 26.2625 10.5312 26.2625C10.793 26.2625 11.0039 26.2253 11.1641 26.1511C11.3242 26.073 11.4414 25.9714 11.5156 25.8464C11.5898 25.7175 11.627 25.5769 11.627 25.4246ZM14.7441 19.1609H18.1016C18.7578 19.1609 19.3281 19.2585 19.8125 19.4539C20.2969 19.6492 20.6699 19.9382 20.9316 20.321C21.1973 20.7039 21.3301 21.1765 21.3301 21.739C21.3301 22.2273 21.2539 22.6355 21.1016 22.9636C20.9492 23.2917 20.7363 23.5632 20.4629 23.7781C20.1934 23.989 19.8789 24.1628 19.5195 24.2996L18.8457 24.6804H16.0273L16.0156 23.0925H18.1016C18.3633 23.0925 18.5801 23.0457 18.752 22.9519C18.9238 22.8582 19.0527 22.7253 19.1387 22.5535C19.2285 22.3777 19.2734 22.1687 19.2734 21.9265C19.2734 21.6804 19.2285 21.4695 19.1387 21.2937C19.0488 21.1179 18.916 20.9832 18.7402 20.8894C18.5684 20.7957 18.3555 20.7488 18.1016 20.7488H16.8008V27.6921H14.7441V19.1609ZM19.4141 27.6921L17.5273 23.9187L19.707 23.907L21.6172 27.6042V27.6921H19.4141ZM26.4102 19.1609V27.6921H24.3535V19.1609H26.4102ZM28.9766 19.1609V20.7488H21.8457V19.1609H28.9766Z" fill="white"/>
</svg>
