<svg width="35" height="44" viewBox="0 0 35 44" fill="none" xmlns="http://www.w3.org/2000/svg">
<path d="M2.5 0.456543H25.2103L34.4376 9.69842L34.6413 41.9311C34.6483 43.0406 33.7508 43.9437 32.6413 43.9437H2.5C1.39543 43.9437 0.5 43.0483 0.5 41.9437V2.45654C0.5 1.35197 1.39543 0.456543 2.5 0.456543Z" fill="#06437C"/>
<path d="M25.2051 0.456543V8.6867C25.2051 9.23899 25.6528 9.6867 26.2051 9.6867H34.4352L25.2051 0.456543Z" fill="black" fill-opacity="0.16"/>
<path d="M10.9277 19.3481V27.8794H8.87109V19.3481H10.9277ZM13.4941 19.3481V20.936H6.36328V19.3481H13.4941ZM17.2676 21.1411L15.1875 27.8794H12.9785L16.1133 19.3481H17.5137L17.2676 21.1411ZM18.9902 27.8794L16.9043 21.1411L16.6348 19.3481H18.0527L21.2051 27.8794H18.9902ZM18.9082 24.6978V26.2856H14.5312V24.6978H18.9082ZM21.832 19.3481H25.1895C25.8457 19.3481 26.416 19.4458 26.9004 19.6411C27.3848 19.8364 27.7578 20.1255 28.0195 20.5083C28.2852 20.8911 28.418 21.3638 28.418 21.9263C28.418 22.4146 28.3418 22.8228 28.1895 23.1509C28.0371 23.479 27.8242 23.7505 27.5508 23.9653C27.2812 24.1763 26.9668 24.3501 26.6074 24.4868L25.9336 24.8677H23.1152L23.1035 23.2798H25.1895C25.4512 23.2798 25.668 23.2329 25.8398 23.1392C26.0117 23.0454 26.1406 22.9126 26.2266 22.7407C26.3164 22.5649 26.3613 22.356 26.3613 22.1138C26.3613 21.8677 26.3164 21.6567 26.2266 21.481C26.1367 21.3052 26.0039 21.1704 25.8281 21.0767C25.6562 20.9829 25.4434 20.936 25.1895 20.936H23.8887V27.8794H21.832V19.3481ZM26.502 27.8794L24.6152 24.106L26.7949 24.0942L28.7051 27.7915V27.8794H26.502Z" fill="white"/>
</svg>
