<svg width="35" height="44" viewBox="0 0 35 44" fill="none" xmlns="http://www.w3.org/2000/svg">
<path d="M2.65625 0.456543H25.3666L34.5939 9.69842L34.7975 41.9311C34.8045 43.0406 33.9071 43.9437 32.7976 43.9437H2.65625C1.55168 43.9437 0.65625 43.0483 0.65625 41.9437V2.45654C0.65625 1.35197 1.55168 0.456543 2.65625 0.456543Z" fill="#06437C"/>
<path d="M25.3613 0.456543V8.6867C25.3613 9.23899 25.809 9.6867 26.3613 9.6867H34.5915L25.3613 0.456543Z" fill="black" fill-opacity="0.16"/>
<path d="M11.041 19.3481V27.8794H8.98438V19.3481H11.041ZM13.6074 19.3481V20.936H6.47656V19.3481H13.6074ZM20.3516 26.2974V27.8794H15.8047V26.2974H20.3516ZM16.5371 19.3481V27.8794H14.4805V19.3481H16.5371ZM19.7656 22.7349V24.2642H15.8047V22.7349H19.7656ZM20.3691 19.3481V20.936H15.8047V19.3481H20.3691ZM22.9824 19.3481L24.377 22.1841L25.7715 19.3481H28.1152L25.7363 23.5786L28.1797 27.8794H25.8125L24.377 24.9907L22.9414 27.8794H20.5684L23.0176 23.5786L20.6328 19.3481H22.9824Z" fill="white"/>
</svg>
