<svg width="35" height="45" viewBox="0 0 35 45" fill="none" xmlns="http://www.w3.org/2000/svg">
<path d="M2.34375 0.643799H25.0541L34.2814 9.88567L34.485 42.1183C34.492 43.2278 33.5946 44.131 32.4851 44.131H2.34375C1.23918 44.131 0.34375 43.2355 0.34375 42.131V2.6438C0.34375 1.53923 1.23918 0.643799 2.34375 0.643799Z" fill="#F3A100"/>
<path d="M25.0488 0.643799V8.87396C25.0488 9.42624 25.4965 9.87396 26.0488 9.87396H34.279L25.0488 0.643799Z" fill="black" fill-opacity="0.16"/>
<path d="M10.8047 19.5352V28.0664H8.74805V19.5352H10.8047ZM13.3711 19.5352V21.123H6.24023V19.5352H13.3711ZM18.4688 19.5352V28.0664H16.4121V19.5352H18.4688ZM21.0352 19.5352V21.123H13.9043V19.5352H21.0352ZM23.9648 19.5352V28.0664H21.9082V19.5352H23.9648ZM27.2812 23.0859V24.668H23.3789V23.0859H27.2812ZM27.6152 19.5352V21.123H23.3789V19.5352H27.6152Z" fill="white"/>
</svg>
