<svg width="35" height="45" viewBox="0 0 35 45" fill="none" xmlns="http://www.w3.org/2000/svg">
<path d="M2.5 0.643799H25.2103L34.4376 9.88567L34.6413 42.1183C34.6483 43.2278 33.7508 44.131 32.6413 44.131H2.5C1.39543 44.131 0.5 43.2355 0.5 42.131V2.6438C0.5 1.53923 1.39543 0.643799 2.5 0.643799Z" fill="#F3A100"/>
<path d="M25.2051 0.643799V8.87396C25.2051 9.42624 25.6528 9.87396 26.2051 9.87396H34.4352L25.2051 0.643799Z" fill="black" fill-opacity="0.16"/>
<path d="M10.957 19.5352V28.0664H8.90039V19.5352H10.957ZM13.5234 19.5352V21.123H6.39258V19.5352H13.5234ZM16.1836 19.5352L17.5781 22.3711L18.9727 19.5352H21.3164L18.9375 23.7656L21.3809 28.0664H19.0137L17.5781 25.1777L16.1426 28.0664H13.7695L16.2188 23.7656L13.834 19.5352H16.1836ZM26.1914 19.5352V28.0664H24.1348V19.5352H26.1914ZM28.7578 19.5352V21.123H21.627V19.5352H28.7578Z" fill="white"/>
</svg>
