<svg width="35" height="45" viewBox="0 0 35 45" fill="none" xmlns="http://www.w3.org/2000/svg">
<path d="M2.8125 0.643799H25.5228L34.7501 9.88567L34.9538 42.1183C34.9608 43.2278 34.0633 44.131 32.9538 44.131H2.8125C1.70793 44.131 0.8125 43.2355 0.8125 42.131V2.6438C0.8125 1.53923 1.70793 0.643799 2.8125 0.643799Z" fill="#F3A100"/>
<path d="M25.5176 0.643799V8.87396C25.5176 9.42624 25.9653 9.87396 26.5176 9.87396H34.7477L25.5176 0.643799Z" fill="black" fill-opacity="0.16"/>
<path d="M13.4297 26.0566L15.2051 19.5352H17.5078L14.6309 28.0664H13.1426L13.4297 26.0566ZM11.8184 19.5352L13.5938 26.0566L13.8926 28.0664H12.3867L9.52734 19.5352H11.8184ZM21.6152 24.4395H19.418L19.4062 23.0918H21.1875C21.5078 23.0918 21.7637 23.0566 21.9551 22.9863C22.1465 22.9121 22.2852 22.8047 22.3711 22.6641C22.4609 22.5234 22.5059 22.3477 22.5059 22.1367C22.5059 21.8945 22.4609 21.6992 22.3711 21.5508C22.2812 21.4023 22.1387 21.2949 21.9434 21.2285C21.752 21.1582 21.5039 21.123 21.1992 21.123H20.1914V28.0664H18.1348V19.5352H21.1992C21.7266 19.5352 22.1973 19.584 22.6113 19.6816C23.0254 19.7754 23.377 19.9199 23.666 20.1152C23.959 20.3105 24.1816 20.5566 24.334 20.8535C24.4863 21.1465 24.5625 21.4922 24.5625 21.8906C24.5625 22.2383 24.4883 22.5645 24.3398 22.8691C24.1914 23.1738 23.9434 23.4219 23.5957 23.6133C23.252 23.8008 22.7812 23.8984 22.1836 23.9062L21.6152 24.4395ZM21.5332 28.0664H18.9199L19.623 26.4844H21.5332C21.8145 26.4844 22.0391 26.4414 22.207 26.3555C22.3789 26.2656 22.502 26.1484 22.5762 26.0039C22.6543 25.8555 22.6934 25.6914 22.6934 25.5117C22.6934 25.293 22.6562 25.1035 22.582 24.9434C22.5117 24.7832 22.3984 24.6602 22.2422 24.5742C22.0859 24.4844 21.877 24.4395 21.6152 24.4395H19.8867L19.8984 23.0918H21.9668L22.4473 23.6309C23.0176 23.6074 23.4688 23.6875 23.8008 23.8711C24.1367 24.0547 24.377 24.2969 24.5215 24.5977C24.666 24.8984 24.7383 25.2129 24.7383 25.541C24.7383 26.0996 24.6172 26.5664 24.375 26.9414C24.1367 27.3164 23.7793 27.5977 23.3027 27.7852C22.8262 27.9727 22.2363 28.0664 21.5332 28.0664Z" fill="white"/>
</svg>
