<svg width="35" height="45" viewBox="0 0 35 45" fill="none" xmlns="http://www.w3.org/2000/svg">
<path d="M2.03125 0.830811H24.7416L33.9689 10.0727L34.1725 42.3054C34.1795 43.4148 33.2821 44.318 32.1726 44.318H2.03125C0.926681 44.318 0.03125 43.4226 0.03125 42.318V2.83081C0.03125 1.72624 0.926681 0.830811 2.03125 0.830811Z" fill="#F3A100"/>
<path d="M24.7363 0.830811V9.06097C24.7363 9.61326 25.184 10.061 25.7363 10.061H33.9665L24.7363 0.830811Z" fill="black" fill-opacity="0.16"/>
<path d="M8.74023 26.2437L10.5156 19.7222H12.8184L9.94141 28.2534H8.45312L8.74023 26.2437ZM7.12891 19.7222L8.9043 26.2437L9.20312 28.2534H7.69727L4.83789 19.7222H7.12891ZM18.2148 25.3647H20.2656C20.2383 25.9585 20.0781 26.4819 19.7852 26.9351C19.4922 27.3882 19.0859 27.7417 18.5664 27.9956C18.0508 28.2456 17.4414 28.3706 16.7383 28.3706C16.168 28.3706 15.6582 28.2749 15.209 28.0835C14.7637 27.8921 14.3848 27.6167 14.0723 27.2573C13.7637 26.8979 13.5273 26.4624 13.3633 25.9507C13.2031 25.439 13.123 24.8628 13.123 24.2222V23.7593C13.123 23.1187 13.207 22.5425 13.375 22.0308C13.5469 21.5151 13.7891 21.0776 14.1016 20.7183C14.418 20.355 14.7969 20.0776 15.2383 19.8862C15.6797 19.6948 16.1699 19.5991 16.709 19.5991C17.4512 19.5991 18.0781 19.7319 18.5898 19.9976C19.1016 20.2632 19.498 20.6284 19.7793 21.0933C20.0605 21.5542 20.2266 22.0796 20.2773 22.6694H18.2266C18.2188 22.3491 18.1641 22.0815 18.0625 21.8667C17.9609 21.6479 17.8008 21.4839 17.582 21.3745C17.3633 21.2651 17.0723 21.2104 16.709 21.2104C16.4551 21.2104 16.2344 21.2573 16.0469 21.3511C15.8594 21.4448 15.7031 21.5933 15.5781 21.7964C15.4531 21.9995 15.3594 22.2632 15.2969 22.5874C15.2383 22.9077 15.209 23.2944 15.209 23.7476V24.2222C15.209 24.6753 15.2363 25.062 15.291 25.3823C15.3457 25.7026 15.4336 25.9644 15.5547 26.1675C15.6758 26.3706 15.832 26.521 16.0234 26.6187C16.2188 26.7124 16.457 26.7593 16.7383 26.7593C17.0508 26.7593 17.3145 26.7104 17.5293 26.6128C17.7441 26.5112 17.9102 26.3589 18.0273 26.1558C18.1445 25.9487 18.207 25.6851 18.2148 25.3647ZM24.0098 28.2534H22.1172L22.1289 26.6714H24.0098C24.4004 26.6714 24.7305 26.5776 25 26.3901C25.2734 26.2026 25.4805 25.9233 25.6211 25.5522C25.7656 25.1772 25.8379 24.7163 25.8379 24.1694V23.8003C25.8379 23.3901 25.7969 23.0308 25.7148 22.7222C25.6367 22.4097 25.5195 22.1499 25.3633 21.9429C25.207 21.7319 25.0117 21.5737 24.7773 21.4683C24.5469 21.3628 24.2812 21.3101 23.9805 21.3101H22.082V19.7222H23.9805C24.5586 19.7222 25.0879 19.8218 25.5684 20.021C26.0527 20.2163 26.4707 20.4976 26.8223 20.8647C27.1777 21.228 27.4512 21.6597 27.6426 22.1597C27.8379 22.6558 27.9355 23.2065 27.9355 23.812V24.1694C27.9355 24.771 27.8379 25.3218 27.6426 25.8218C27.4512 26.3218 27.1797 26.7534 26.8281 27.1167C26.4766 27.48 26.0605 27.7612 25.5801 27.9604C25.1035 28.1558 24.5801 28.2534 24.0098 28.2534ZM23.2949 19.7222V28.2534H21.2383V19.7222H23.2949Z" fill="white"/>
</svg>
