<svg width="35" height="45" viewBox="0 0 35 45" fill="none" xmlns="http://www.w3.org/2000/svg">
<path d="M2.65625 0.830811H25.3666L34.5939 10.0727L34.7975 42.3054C34.8045 43.4148 33.9071 44.318 32.7976 44.318H2.65625C1.55168 44.318 0.65625 43.4226 0.65625 42.318V2.83081C0.65625 1.72624 1.55168 0.830811 2.65625 0.830811Z" fill="#F3A100"/>
<path d="M25.3613 0.830811V9.06097C25.3613 9.61326 25.809 10.061 26.3613 10.061H34.5915L25.3613 0.830811Z" fill="black" fill-opacity="0.16"/>
<path d="M5.23438 27.48L6.93359 19.7222H7.94727L8.49805 20.3843L6.6875 28.2534H5.56836L5.23438 27.48ZM4.7832 19.7222L6.21875 27.5386L5.84961 28.2534H4.55469L2.74414 19.7222H4.7832ZM9.42969 27.4976L10.8535 19.7222H12.8867L11.0762 28.2534H9.78711L9.42969 27.4976ZM8.67969 19.7222L10.4199 27.5269L10.0684 28.2534H8.94922L7.09766 20.3726L7.67188 19.7222H8.67969ZM14.7148 19.7222H16.3906L18.2949 25.6577L20.1992 19.7222H21.875L18.9746 28.2534H17.6152L14.7148 19.7222ZM13.6953 19.7222H15.4297L15.752 26.2612V28.2534H13.6953V19.7222ZM21.1602 19.7222H22.9004V28.2534H20.8379V26.2612L21.1602 19.7222ZM27.9395 21.5151L25.8594 28.2534H23.6504L26.7852 19.7222H28.1855L27.9395 21.5151ZM29.6621 28.2534L27.5762 21.5151L27.3066 19.7222H28.7246L31.877 28.2534H29.6621ZM29.5801 25.0718V26.6597H25.2031V25.0718H29.5801Z" fill="white"/>
</svg>
