<svg width="35" height="44" viewBox="0 0 35 44" fill="none" xmlns="http://www.w3.org/2000/svg">
<path d="M2.03125 0.0180664H24.7416L33.9689 9.25994L34.1725 41.4926C34.1795 42.6021 33.2821 43.5052 32.1726 43.5052H2.03125C0.926681 43.5052 0.03125 42.6098 0.03125 41.5052V2.01807C0.03125 0.913497 0.926681 0.0180664 2.03125 0.0180664Z" fill="#F3A100"/>
<path d="M24.7363 0.0180664V8.24823C24.7363 8.80051 25.184 9.24823 25.7363 9.24823H33.9665L24.7363 0.0180664Z" fill="black" fill-opacity="0.16"/>
<path d="M6.7207 26.6672L8.41992 18.9094H9.43359L9.98438 19.5715L8.17383 27.4407H7.05469L6.7207 26.6672ZM6.26953 18.9094L7.70508 26.7258L7.33594 27.4407H6.04102L4.23047 18.9094H6.26953ZM10.916 26.6848L12.3398 18.9094H14.373L12.5625 27.4407H11.2734L10.916 26.6848ZM10.166 18.9094L11.9062 26.7141L11.5547 27.4407H10.4355L8.58398 19.5598L9.1582 18.9094H10.166ZM18.5859 24.5461H16.4648V22.9583H18.5859C18.875 22.9583 19.1094 22.9094 19.2891 22.8118C19.4688 22.7141 19.5996 22.5793 19.6816 22.4075C19.7676 22.2317 19.8105 22.0344 19.8105 21.8157C19.8105 21.5813 19.7676 21.3645 19.6816 21.1653C19.5996 20.9661 19.4688 20.8059 19.2891 20.6848C19.1094 20.5598 18.875 20.4973 18.5859 20.4973H17.2383V27.4407H15.1816V18.9094H18.5859C19.2695 18.9094 19.8574 19.0344 20.3496 19.2844C20.8457 19.5344 21.2266 19.8782 21.4922 20.3157C21.7578 20.7493 21.8906 21.2454 21.8906 21.804C21.8906 22.3547 21.7578 22.8352 21.4922 23.2454C21.2266 23.6555 20.8457 23.9758 20.3496 24.2063C19.8574 24.4329 19.2695 24.5461 18.5859 24.5461ZM25.7695 27.4407H23.877L23.8887 25.8586H25.7695C26.1602 25.8586 26.4902 25.7649 26.7598 25.5774C27.0332 25.3899 27.2402 25.1106 27.3809 24.7395C27.5254 24.3645 27.5977 23.9036 27.5977 23.3567V22.9875C27.5977 22.5774 27.5566 22.218 27.4746 21.9094C27.3965 21.5969 27.2793 21.3372 27.123 21.1301C26.9668 20.9192 26.7715 20.761 26.5371 20.6555C26.3066 20.55 26.041 20.4973 25.7402 20.4973H23.8418V18.9094H25.7402C26.3184 18.9094 26.8477 19.009 27.3281 19.2083C27.8125 19.4036 28.2305 19.6848 28.582 20.052C28.9375 20.4153 29.2109 20.8469 29.4023 21.3469C29.5977 21.843 29.6953 22.3938 29.6953 22.9993V23.3567C29.6953 23.9583 29.5977 24.509 29.4023 25.009C29.2109 25.509 28.9395 25.9407 28.5879 26.304C28.2363 26.6672 27.8203 26.9485 27.3398 27.1477C26.8633 27.343 26.3398 27.4407 25.7695 27.4407ZM25.0547 18.9094V27.4407H22.998V18.9094H25.0547Z" fill="white"/>
</svg>
