<svg width="35" height="44" viewBox="0 0 35 44" fill="none" xmlns="http://www.w3.org/2000/svg">
<path d="M2.65625 0.0180664H25.3666L34.5939 9.25994L34.7975 41.4926C34.8045 42.6021 33.9071 43.5052 32.7976 43.5052H2.65625C1.55168 43.5052 0.65625 42.6098 0.65625 41.5052V2.01807C0.65625 0.913497 1.55168 0.0180664 2.65625 0.0180664Z" fill="#F3A100"/>
<path d="M25.3613 0.0180664V8.24823C25.3613 8.80051 25.809 9.24823 26.3613 9.24823H34.5915L25.3613 0.0180664Z" fill="black" fill-opacity="0.16"/>
<path d="M5 18.9094L6.39453 21.7454L7.78906 18.9094H10.1328L7.75391 23.1399L10.1973 27.4407H7.83008L6.39453 24.552L4.95898 27.4407H2.58594L5.03516 23.1399L2.65039 18.9094H5ZM16.5137 25.8586V27.4407H12.2012V25.8586H16.5137ZM12.9336 18.9094V27.4407H10.877V18.9094H12.9336ZM21.7754 25.1731C21.7754 25.0403 21.7559 24.9211 21.7168 24.8157C21.6777 24.7063 21.6055 24.6047 21.5 24.511C21.3945 24.4172 21.2422 24.3235 21.043 24.2297C20.8477 24.1321 20.5898 24.0305 20.2695 23.925C19.8945 23.8 19.5332 23.6594 19.1855 23.5032C18.8379 23.343 18.5273 23.1575 18.2539 22.9465C17.9805 22.7317 17.7637 22.4817 17.6035 22.1965C17.4434 21.9075 17.3633 21.5715 17.3633 21.1887C17.3633 20.8215 17.4453 20.4915 17.6094 20.1985C17.7734 19.9016 18.002 19.6497 18.2949 19.4426C18.5918 19.2317 18.9395 19.0715 19.3379 18.9622C19.7363 18.8489 20.1719 18.7922 20.6445 18.7922C21.2695 18.7922 21.8203 18.9016 22.2969 19.1204C22.7773 19.3352 23.1523 19.6418 23.4219 20.0403C23.6953 20.4348 23.832 20.9016 23.832 21.4407H21.7871C21.7871 21.2258 21.7422 21.0364 21.6523 20.8723C21.5664 20.7083 21.4355 20.5793 21.2598 20.4856C21.084 20.3918 20.8633 20.345 20.5977 20.345C20.3398 20.345 20.123 20.384 19.9473 20.4622C19.7715 20.5403 19.6387 20.6458 19.5488 20.7786C19.459 20.9075 19.4141 21.05 19.4141 21.2063C19.4141 21.3352 19.4492 21.4524 19.5195 21.5579C19.5938 21.6594 19.6973 21.7551 19.8301 21.845C19.9668 21.9348 20.1309 22.0208 20.3223 22.1028C20.5176 22.1848 20.7363 22.2649 20.9785 22.343C21.4316 22.4875 21.834 22.6497 22.1855 22.8293C22.541 23.0051 22.8398 23.2063 23.082 23.4329C23.3281 23.6555 23.5137 23.9094 23.6387 24.1946C23.7676 24.4797 23.832 24.802 23.832 25.1614C23.832 25.5442 23.7578 25.884 23.6094 26.1809C23.4609 26.4778 23.248 26.7297 22.9707 26.9368C22.6934 27.1399 22.3613 27.2942 21.9746 27.3997C21.5879 27.5051 21.1562 27.5579 20.6797 27.5579C20.2422 27.5579 19.8105 27.5032 19.3848 27.3938C18.9629 27.2805 18.5801 27.1086 18.2363 26.8782C17.8926 26.6438 17.6172 26.345 17.4102 25.9817C17.207 25.6145 17.1055 25.179 17.1055 24.675H19.168C19.168 24.925 19.2012 25.136 19.2676 25.3079C19.334 25.4797 19.4316 25.6184 19.5605 25.7239C19.6895 25.8254 19.8477 25.8997 20.0352 25.9465C20.2227 25.9895 20.4375 26.011 20.6797 26.011C20.9414 26.011 21.1523 25.9739 21.3125 25.8997C21.4727 25.8215 21.5898 25.72 21.6641 25.595C21.7383 25.4661 21.7754 25.3254 21.7754 25.1731ZM26.6797 18.9094L28.0742 21.7454L29.4688 18.9094H31.8125L29.4336 23.1399L31.877 27.4407H29.5098L28.0742 24.552L26.6387 27.4407H24.2656L26.7148 23.1399L24.3301 18.9094H26.6797Z" fill="white"/>
</svg>
