<svg width="35" height="44" viewBox="0 0 35 44" fill="none" xmlns="http://www.w3.org/2000/svg">
<path d="M2.1875 0.205078H24.8978L34.1251 9.44695L34.3288 41.6796C34.3358 42.7891 33.4383 43.6923 32.3288 43.6923H2.1875C1.08293 43.6923 0.1875 42.7968 0.1875 41.6923V2.20508C0.1875 1.10051 1.08293 0.205078 2.1875 0.205078Z" fill="#F3A100"/>
<path d="M24.8926 0.205078V8.43524C24.8926 8.98752 25.3403 9.43524 25.8926 9.43524H34.1227L24.8926 0.205078Z" fill="black" fill-opacity="0.16"/>
<path d="M14.916 26.0459V27.6279H8.74023V26.0459H14.916ZM14.875 20.1514L9.75977 27.6279H8.27148V26.5439L13.4453 19.0967H14.875V20.1514ZM14.2129 19.0967V20.6846H8.24219V19.0967H14.2129ZM18.0391 19.0967V27.6279H15.9883V19.0967H18.0391ZM22.8906 24.7334H20.7695V23.1455H22.8906C23.1797 23.1455 23.4141 23.0967 23.5938 22.999C23.7734 22.9014 23.9043 22.7666 23.9863 22.5947C24.0723 22.4189 24.1152 22.2217 24.1152 22.0029C24.1152 21.7686 24.0723 21.5518 23.9863 21.3525C23.9043 21.1533 23.7734 20.9932 23.5938 20.8721C23.4141 20.7471 23.1797 20.6846 22.8906 20.6846H21.543V27.6279H19.4863V19.0967H22.8906C23.5742 19.0967 24.1621 19.2217 24.6543 19.4717C25.1504 19.7217 25.5312 20.0654 25.7969 20.5029C26.0625 20.9365 26.1953 21.4326 26.1953 21.9912C26.1953 22.542 26.0625 23.0225 25.7969 23.4326C25.5312 23.8428 25.1504 24.1631 24.6543 24.3936C24.1621 24.6201 23.5742 24.7334 22.8906 24.7334Z" fill="white"/>
</svg>
